<svg xmlns="http://www.w3.org/2000/svg" viewBox="0 0 228.33 228.33"><defs><style>.bef7c4f2-701d-41a6-8d1f-7cc2daf26475{fill:#cec542;}.b57d3277-0d1a-4301-9f84-7ec8e97e7ec7{fill:#b7784f;}.be469f3e-e6d1-4b68-ba21-22ee082e0261{fill:#fff;}.b91a0604-ad0b-4227-b6d8-8682713563bc{opacity:0.25;}</style></defs><title>工作區域 2 複本 2</title><g id="f096b245-510f-4e5d-bd20-99ea7fc27da9" data-name="圖層 3"><rect class="bef7c4f2-701d-41a6-8d1f-7cc2daf26475" x="-518.43" y="-526.98" width="1024" height="2183"/></g><g id="a615a3f6-26b4-4dc2-ad27-8a84965f13d0" data-name="圖層 1"><rect class="b57d3277-0d1a-4301-9f84-7ec8e97e7ec7" x="0.02" y="-0.01" width="228.33" height="228.33"/><path class="be469f3e-e6d1-4b68-ba21-22ee082e0261" d="M40.2,118.79H28.34v5.67h9.37v4.73H28.34v9.91H22.18V113.78h18Z"/><path class="be469f3e-e6d1-4b68-ba21-22ee082e0261" d="M53,129.06v10H47V113.78H58.17a14.1,14.1,0,0,1,4.95.71,6.41,6.41,0,0,1,3.09,2.62,7.77,7.77,0,0,1,1.22,4.25,6.76,6.76,0,0,1-4.4,6.55l4.68,11.19H61.15l-3.89-10Zm0-10.78v6.46h3.64a9.47,9.47,0,0,0,2.59-.25,2.89,2.89,0,0,0,1.44-1.11,3.29,3.29,0,0,0,.63-2,3.07,3.07,0,0,0-.63-1.89,2.58,2.58,0,0,0-1.38-1,12.8,12.8,0,0,0-2.78-.2Z"/><path class="be469f3e-e6d1-4b68-ba21-22ee082e0261" d="M95.41,113.78v15.77a14.06,14.06,0,0,1-.87,5.68,6.79,6.79,0,0,1-3.22,3.07,13.34,13.34,0,0,1-6,1.19,13.27,13.27,0,0,1-5.81-1.07,7.25,7.25,0,0,1-3.24-3.07,12.38,12.38,0,0,1-1.08-5.8V113.78h6.44v15.77a9.9,9.9,0,0,0,.34,3,2.77,2.77,0,0,0,1.38,1.53,5.14,5.14,0,0,0,2.53.57,5.82,5.82,0,0,0,2.72-.56A2.78,2.78,0,0,0,90,132.62a9.67,9.67,0,0,0,.34-3.07V113.78Z"/><path class="be469f3e-e6d1-4b68-ba21-22ee082e0261" d="M109.93,134.09H120v5H103.92V113.78h6Z"/><path class="be469f3e-e6d1-4b68-ba21-22ee082e0261" d="M140.84,113.78v5h-6.27V139.1h-6V118.79h-6.31v-5Z"/><path class="be469f3e-e6d1-4b68-ba21-22ee082e0261" d="M165.14,119.34l-5,1.69a4.15,4.15,0,0,0-4.32-3c-2.34,0-3.51.77-3.51,2.29a2.09,2.09,0,0,0,.65,1.54,6.64,6.64,0,0,0,3,1.09,29.59,29.59,0,0,1,5.67,1.58,7.23,7.23,0,0,1,3,2.57,6.78,6.78,0,0,1,1.23,4,7.92,7.92,0,0,1-2.64,5.94q-2.64,2.5-7.83,2.5a11.93,11.93,0,0,1-6.63-1.77,8.42,8.42,0,0,1-3.61-5.26l5.5-1.24c.61,2.36,2.33,3.54,5.14,3.54a4.85,4.85,0,0,0,3-.79,2.32,2.32,0,0,0,1-1.88,2,2,0,0,0-.91-1.73,11.12,11.12,0,0,0-3.5-1.15q-4.83-1-6.89-2.74a6.25,6.25,0,0,1-2.06-5.07,7.5,7.5,0,0,1,2.46-5.69,9.27,9.27,0,0,1,6.66-2.32Q163,113.39,165.14,119.34Z"/><path class="bef7c4f2-701d-41a6-8d1f-7cc2daf26475" d="M35.33,173.1H30.81a10.91,10.91,0,0,1-.22-2.47,6.53,6.53,0,0,1-2.36,2.25,6.23,6.23,0,0,1-2.68.55,5.24,5.24,0,0,1-3.58-1.2A4.09,4.09,0,0,1,20.61,169a5,5,0,0,1,.79-2.73,5.24,5.24,0,0,1,2.56-2,24.21,24.21,0,0,1,6.43-1.06v-.9A2,2,0,0,0,28.1,160a2.42,2.42,0,0,0-2.73,2.3l-4.29-.41a4.86,4.86,0,0,1,2.54-3.81A10.13,10.13,0,0,1,28.43,157a11.89,11.89,0,0,1,3,.38,5.06,5.06,0,0,1,2.21,1.12,3.76,3.76,0,0,1,1.08,1.59A10.25,10.25,0,0,1,35,163v7.16A10.68,10.68,0,0,0,35.33,173.1Zm-4.94-7.56c-3.25.32-4.88,1.31-4.88,3a2.08,2.08,0,0,0,.52,1.43,1.81,1.81,0,0,0,1.46.6,2.55,2.55,0,0,0,2.06-1,3.83,3.83,0,0,0,.84-2.52Z"/><path class="bef7c4f2-701d-41a6-8d1f-7cc2daf26475" d="M45.8,173.1H41.29V157.32h4.26v2.94c.66-2.19,1.79-3.28,3.41-3.28.23,0,.51,0,.84,0v4.6a4.54,4.54,0,0,0-2.21.44,3.2,3.2,0,0,0-1.29,1.57,7.72,7.72,0,0,0-.5,3.05Z"/><path class="bef7c4f2-701d-41a6-8d1f-7cc2daf26475" d="M69,166H58.81c0,.28,0,.53,0,.74a3.35,3.35,0,0,0,.9,2.54,2.94,2.94,0,0,0,2.14.86,2.64,2.64,0,0,0,2.8-2.48l4.22.31q-1.77,5.47-7.17,5.47a7.93,7.93,0,0,1-4-.94A7.43,7.43,0,0,1,55,169.73a8.45,8.45,0,0,1-1.07-4.35A8.56,8.56,0,0,1,56,159.31a7.58,7.58,0,0,1,10.75-.17C68.24,160.57,69,162.86,69,166Zm-10.17-2.7h5.61c-.15-2.17-1-3.25-2.68-3.25S59,161.12,58.8,163.29Z"/><path class="bef7c4f2-701d-41a6-8d1f-7cc2daf26475" d="M21.78,188.77h6.51a12.35,12.35,0,0,1,5.93,1.11,10.26,10.26,0,0,1,3.5,3.48,10.87,10.87,0,0,1,1.54,6,11.14,11.14,0,0,1-2.7,7.65,9.38,9.38,0,0,1-7.44,3.07H21.78Zm4.9,3.93v13.39h2.06a4.52,4.52,0,0,0,4.06-2,9.19,9.19,0,0,0,.57-8.38,5,5,0,0,0-1.88-2.31,5.25,5.25,0,0,0-2.7-.66Z"/><path class="bef7c4f2-701d-41a6-8d1f-7cc2daf26475" d="M58.88,203H48.73c0,.28,0,.53,0,.74a3.35,3.35,0,0,0,.9,2.54,3,3,0,0,0,2.15.86,2.63,2.63,0,0,0,2.79-2.48l4.22.31q-1.77,5.47-7.17,5.47a8,8,0,0,1-4-.94,7.51,7.51,0,0,1-2.72-2.76,8.45,8.45,0,0,1-1.07-4.35A8.56,8.56,0,0,1,46,196.31a7.58,7.58,0,0,1,10.75-.17C58.16,197.57,58.88,199.86,58.88,203Zm-10.17-2.7h5.61c-.15-2.17-1-3.25-2.67-3.25S48.92,198.12,48.71,200.29Z"/><path class="bef7c4f2-701d-41a6-8d1f-7cc2daf26475" d="M64.22,210.1V188.77h4.65V210.1Z"/><path class="bef7c4f2-701d-41a6-8d1f-7cc2daf26475" d="M79.76,188.34V193H75.1v-4.65Zm0,6V210.1H75.1V194.32Z"/><path class="bef7c4f2-701d-41a6-8d1f-7cc2daf26475" d="M99.86,204.18a6.63,6.63,0,0,1-2.21,4.52,8,8,0,0,1-10.47-.48,8.23,8.23,0,0,1-2.1-5.91,8.48,8.48,0,0,1,2.15-6A7.47,7.47,0,0,1,93,194a6.82,6.82,0,0,1,4.79,1.74,6.28,6.28,0,0,1,2.1,4.34l-4.34.25c-.15-1.89-1-2.84-2.47-2.84-1.84,0-2.77,1.51-2.77,4.53,0,2,.26,3.29.78,3.83a2.49,2.49,0,0,0,1.88.81q2.16,0,2.58-2.73Z"/><path class="bef7c4f2-701d-41a6-8d1f-7cc2daf26475" d="M109.42,188.34V193h-4.66v-4.65Zm0,6V210.1h-4.66V194.32Z"/><path class="bef7c4f2-701d-41a6-8d1f-7cc2daf26475" d="M122.19,194a7,7,0,0,1,5.62,2.36,8.76,8.76,0,0,1,2,5.91,8.46,8.46,0,0,1-2.09,5.84,7.16,7.16,0,0,1-5.58,2.33,6.82,6.82,0,0,1-5.4-2.31,8.68,8.68,0,0,1-2-5.94,9.26,9.26,0,0,1,.91-4.27,7.66,7.66,0,0,1,2.51-2.84A7,7,0,0,1,122.19,194Zm.12,3a2.22,2.22,0,0,0-2,1,8.27,8.27,0,0,0-.67,4.07,9.16,9.16,0,0,0,.64,4,2.11,2.11,0,0,0,2,1.22,2.26,2.26,0,0,0,1.92-1,7.5,7.5,0,0,0,.73-4,9.35,9.35,0,0,0-.65-4.22A2.13,2.13,0,0,0,122.31,197Z"/><path class="bef7c4f2-701d-41a6-8d1f-7cc2daf26475" d="M148.66,194.32V210.1h-4.32v-2.68a4.57,4.57,0,0,1-4.65,3,4.8,4.8,0,0,1-2.74-.66,3.67,3.67,0,0,1-1.36-1.82,10.1,10.1,0,0,1-.42-3.32V194.32h4.52v10.31c0,1.42.58,2.13,1.75,2.13a2.42,2.42,0,0,0,1.54-.51,2.29,2.29,0,0,0,.84-1.08,7.59,7.59,0,0,0,.18-2v-8.86Z"/><path class="bef7c4f2-701d-41a6-8d1f-7cc2daf26475" d="M166.71,198.13l-3.39.91a2.82,2.82,0,0,0-3.08-2.14c-1.56,0-2.34.47-2.34,1.42a1.06,1.06,0,0,0,.43.9,5.45,5.45,0,0,0,2.24.57,20.89,20.89,0,0,1,4,.83,4.11,4.11,0,0,1,2.06,1.58,4.76,4.76,0,0,1,.75,2.73,4.89,4.89,0,0,1-1.85,4,7.9,7.9,0,0,1-5.18,1.53q-6,0-7.2-4.67l3.92-.58c.32,1.42,1.49,2.13,3.5,2.13a4.2,4.2,0,0,0,2-.42,1.25,1.25,0,0,0,.79-1.12c0-.73-.59-1.16-1.76-1.3q-4.78-.58-6.29-1.83a4.22,4.22,0,0,1-1.51-3.46,4.64,4.64,0,0,1,1.75-3.72,7.42,7.42,0,0,1,4.91-1.47,7.18,7.18,0,0,1,4,1A6.12,6.12,0,0,1,166.71,198.13Z"/><g class="b91a0604-ad0b-4227-b6d8-8682713563bc"><path class="be469f3e-e6d1-4b68-ba21-22ee082e0261" d="M139.11,82.71c0,23.88-19.08,40.44-41.87,40.44-22,0-39.72-16.2-39.72-38.4,0-20.15,15.6-40.31,42.36-40.31C119.91,44.44,139.11,59.43,139.11,82.71ZM65.92,81.27c0,23.4,14.76,39,34.2,39,16.2,0,30.83-11.16,30.83-32.52,0-27.24-15.23-40.43-34.55-40.43C80.44,47.44,65.92,58.12,65.92,81.27Z"/><path class="be469f3e-e6d1-4b68-ba21-22ee082e0261" d="M181.48,54.4a20.6,20.6,0,0,1,14.16-6c10.07,0,16.44,6.48,16.44,14.4,0,5.39-4.45,9-12.13,13V76c10.68,1.8,16.68,9.72,16.8,18.36,0,19.44-21.84,28.32-30.35,28.32-7.08-.12-12.24-4.32-12.24-6.72,0-1.32,2.64-4,4-4a3.82,3.82,0,0,1,2,.72c2.75,2.64,5.88,4.56,12.83,4.56,8.52,0,17-5.76,17-18.6C210,82.23,196.83,81,193.35,81A23.24,23.24,0,0,0,184.59,83L183.75,81c12.6-4.2,21.6-9,21.6-17,0-6.6-4.55-10.56-11.52-10.56-8.16,0-12.71,5.76-14.87,9.72L177,62Z"/></g></g></svg>