<svg xmlns="http://www.w3.org/2000/svg" viewBox="0 0 228.33 228.33"><defs><style>.b7478386-9177-4143-ab2e-347a34064d31{fill:#cec542;}.f28f80b0-99c6-474b-ade5-47dd9fc3e7fd{fill:#565631;}.b469ef8b-3346-4d05-acd1-ebdedddad8d6{fill:#fff;}.a54f5b2e-b8fb-42f6-b700-47aa0d428c61{opacity:0.25;}</style></defs><title>工作區域 2 複本 11</title><g id="a015bcd3-6b26-46e4-8fde-25ae2625b49b" data-name="圖層 3"><rect class="b7478386-9177-4143-ab2e-347a34064d31" x="-786.63" y="-1047.62" width="1024" height="2183"/></g><g id="e267682d-c146-4252-bbed-df1e6717cbc0" data-name="圖層 1"><rect class="f28f80b0-99c6-474b-ade5-47dd9fc3e7fd" x="-6.36" y="-6.27" width="240.56" height="240.56"/><path class="b469ef8b-3346-4d05-acd1-ebdedddad8d6" d="M103.36,52.18h7.93q4.86,0,7.23,1.34a12.61,12.61,0,0,1,4.27,4.25,13.27,13.27,0,0,1,1.88,7.34,13.61,13.61,0,0,1-3.29,9.32,11.45,11.45,0,0,1-9.08,3.74h-8.94Zm6,4.78V73.28h2.51a5.49,5.49,0,0,0,4.94-2.49A10.41,10.41,0,0,0,118.4,65a10.25,10.25,0,0,0-.92-4.37,6.06,6.06,0,0,0-2.29-2.82,6.33,6.33,0,0,0-3.28-.81Z"/><path class="b469ef8b-3346-4d05-acd1-ebdedddad8d6" d="M137.71,67.87v10.3h-6.14v-26H143a14.4,14.4,0,0,1,5.07.73,6.57,6.57,0,0,1,3.18,2.69A8,8,0,0,1,152.5,60,6.92,6.92,0,0,1,148,66.68l4.8,11.49h-6.73l-4-10.3Zm0-11.06v6.62h3.73a9.88,9.88,0,0,0,2.65-.25A2.91,2.91,0,0,0,145.57,62a3.34,3.34,0,0,0,.65-2,3.18,3.18,0,0,0-.65-1.95A2.63,2.63,0,0,0,144.16,57a12.91,12.91,0,0,0-2.86-.2Z"/><path class="b469ef8b-3346-4d05-acd1-ebdedddad8d6" d="M166.21,52.18v26h-6.08v-26Z"/><path class="b469ef8b-3346-4d05-acd1-ebdedddad8d6" d="M193.68,52.18l-7.86,26h-6.54l-7.81-26H178l5.2,18.58,5.41-18.58Z"/><path class="b469ef8b-3346-4d05-acd1-ebdedddad8d6" d="M217.51,57.13H205.13v5.33h9.73v4.9h-9.73V73h12.38v5.14H198.94v-26h18.57Z"/><path class="b7478386-9177-4143-ab2e-347a34064d31" d="M128.84,98.06a7,7,0,0,1,5.63,2.36,8.78,8.78,0,0,1,2,5.91,8.43,8.43,0,0,1-2.1,5.84,7.16,7.16,0,0,1-5.58,2.33,6.79,6.79,0,0,1-5.39-2.31,8.68,8.68,0,0,1-2-5.94,9.14,9.14,0,0,1,.91-4.27,7.63,7.63,0,0,1,2.5-2.84A7.06,7.06,0,0,1,128.84,98.06Zm.13,3a2.24,2.24,0,0,0-2,1,8.27,8.27,0,0,0-.67,4.07,9.16,9.16,0,0,0,.64,4,2.12,2.12,0,0,0,2,1.22,2.26,2.26,0,0,0,1.92-1,7.41,7.41,0,0,0,.73-4,9.38,9.38,0,0,0-.64-4.22A2.14,2.14,0,0,0,129,101.11Z"/><path class="b7478386-9177-4143-ab2e-347a34064d31" d="M155.55,114.17h-4.66v-8.86a11.9,11.9,0,0,0-.13-2.2,1.8,1.8,0,0,0-.6-1,1.85,1.85,0,0,0-1.22-.41q-2.46,0-2.46,3.62v8.86h-4.65V98.39h4.33v2.67a6,6,0,0,1,2.12-2.45,4.88,4.88,0,0,1,2.27-.55,5.31,5.31,0,0,1,3.62,1.21q1.38,1.22,1.38,4.76Z"/><path class="b7478386-9177-4143-ab2e-347a34064d31" d="M177.44,102v6.67a2.64,2.64,0,0,0,.37,1.67,2.49,2.49,0,0,0,1.76.42c.43,0,.92,0,1.48-.06v3.45a20.25,20.25,0,0,1-2.92.35A6.09,6.09,0,0,1,174,113.4c-.81-.74-1.22-2.09-1.22-4V102h-2.5V98.39h2.77l.37-4.65,4-.32v5h3.39V102Z"/><path class="b7478386-9177-4143-ab2e-347a34064d31" d="M190.35,92.85v7.69a4.45,4.45,0,0,1,4.27-2.48,5.18,5.18,0,0,1,2.73.7,3.85,3.85,0,0,1,1.59,1.79,8.56,8.56,0,0,1,.46,3.2v10.42h-4.65v-8.9a12.84,12.84,0,0,0-.13-2.19,1.72,1.72,0,0,0-.57-1,1.56,1.56,0,0,0-1.11-.4,2.8,2.8,0,0,0-1.73.68c-.57.45-.86,1.42-.86,2.9v8.9h-4.51V92.85Z"/><path class="b7478386-9177-4143-ab2e-347a34064d31" d="M219.82,107.06H209.66c0,.29,0,.53,0,.74a3.38,3.38,0,0,0,.89,2.55,3,3,0,0,0,2.15.85,2.64,2.64,0,0,0,2.8-2.48l4.22.31q-1.77,5.48-7.17,5.47a7.93,7.93,0,0,1-4-.94,7.43,7.43,0,0,1-2.72-2.76,8.45,8.45,0,0,1-1.07-4.35,8.56,8.56,0,0,1,2.15-6.07,7.58,7.58,0,0,1,10.75-.17C219.09,101.64,219.82,103.93,219.82,107.06Zm-10.17-2.7h5.6c-.14-2.17-1-3.25-2.67-3.25S209.85,102.19,209.65,104.36Z"/><path class="b469ef8b-3346-4d05-acd1-ebdedddad8d6" d="M109.26,148.41v10.3h-6.13v-26h11.43a14.67,14.67,0,0,1,5.07.73,6.52,6.52,0,0,1,3.17,2.7,7.87,7.87,0,0,1,1.26,4.35,6.92,6.92,0,0,1-4.51,6.72l4.79,11.49h-6.72l-4-10.3Zm0-11.06V144H113a9.93,9.93,0,0,0,2.65-.25,2.93,2.93,0,0,0,1.48-1.14,3.39,3.39,0,0,0,.65-2,3.18,3.18,0,0,0-.65-2,2.63,2.63,0,0,0-1.41-1,12.91,12.91,0,0,0-2.86-.2Z"/><path class="b469ef8b-3346-4d05-acd1-ebdedddad8d6" d="M137.76,132.72v26h-6.07v-26Z"/><path class="b469ef8b-3346-4d05-acd1-ebdedddad8d6" d="M166.15,144.81v13.9h-2.78a20.37,20.37,0,0,0-.87-3,8.77,8.77,0,0,1-7.09,3.39,9.45,9.45,0,0,1-7.91-3.63,14.87,14.87,0,0,1-2.83-9.41q0-6.21,3-10a11,11,0,0,1,15.2-1.33,10.54,10.54,0,0,1,3.26,6.49l-5.79.76c-.47-3.14-2-4.72-4.48-4.72a4.07,4.07,0,0,0-3.74,2.24,13.19,13.19,0,0,0-1.26,6.39,11.22,11.22,0,0,0,1.37,6.11,4.37,4.37,0,0,0,3.9,2.11,4.43,4.43,0,0,0,2.92-1.06,4.18,4.18,0,0,0,1.29-3.41h-4.9v-4.86Z"/><path class="b469ef8b-3346-4d05-acd1-ebdedddad8d6" d="M193.94,132.72v26h-6V148h-8.11v10.72h-6v-26h6v10.13H188V132.72Z"/><path class="b469ef8b-3346-4d05-acd1-ebdedddad8d6" d="M218.56,132.72v5.14h-6.44v20.85H206V137.86h-6.47v-5.14Z"/><path class="b7478386-9177-4143-ab2e-347a34064d31" d="M72.51,181.93v7.69a4.42,4.42,0,0,1,4.26-2.47,5.13,5.13,0,0,1,2.73.69,3.79,3.79,0,0,1,1.59,1.79,8.53,8.53,0,0,1,.47,3.2v10.43H76.9v-8.91a11.85,11.85,0,0,0-.13-2.19,1.83,1.83,0,0,0-.56-1,1.6,1.6,0,0,0-1.12-.4,2.77,2.77,0,0,0-1.72.68c-.58.46-.86,1.42-.86,2.9v8.91H68V181.93Z"/><path class="b7478386-9177-4143-ab2e-347a34064d31" d="M101.57,203.26H97.05a11,11,0,0,1-.22-2.47A6.58,6.58,0,0,1,94.47,203a6.23,6.23,0,0,1-2.68.55,5.24,5.24,0,0,1-3.58-1.2,4.08,4.08,0,0,1-1.36-3.23,5,5,0,0,1,.79-2.74,5.3,5.3,0,0,1,2.56-2,24.74,24.74,0,0,1,6.43-1v-.91a2,2,0,0,0-2.29-2.3,2.42,2.42,0,0,0-2.73,2.3l-4.29-.41a4.89,4.89,0,0,1,2.54-3.81,10.13,10.13,0,0,1,4.81-1.12,11.89,11.89,0,0,1,3,.37,5.07,5.07,0,0,1,2.21,1.13,3.8,3.8,0,0,1,1.08,1.58,10.29,10.29,0,0,1,.28,2.92v7.15A10.77,10.77,0,0,0,101.57,203.26Zm-4.94-7.57c-3.25.33-4.88,1.31-4.88,3a2.1,2.1,0,0,0,.52,1.43,1.81,1.81,0,0,0,1.46.6,2.53,2.53,0,0,0,2.06-1,3.83,3.83,0,0,0,.84-2.52Z"/><path class="b7478386-9177-4143-ab2e-347a34064d31" d="M121.25,203.26h-4.66V194.4a12,12,0,0,0-.13-2.21,1.74,1.74,0,0,0-.6-1,1.81,1.81,0,0,0-1.22-.42q-2.46,0-2.46,3.63v8.86h-4.65V187.47h4.33v2.68a6,6,0,0,1,2.12-2.46,4.87,4.87,0,0,1,2.27-.54,5.26,5.26,0,0,1,3.62,1.21c.92.81,1.38,2.39,1.38,4.76Z"/><path class="b7478386-9177-4143-ab2e-347a34064d31" d="M140.91,181.93v21.33h-4.29v-2.47a4.87,4.87,0,0,1-4.36,2.79,4.79,4.79,0,0,1-4.12-2.13,10.05,10.05,0,0,1-1.51-5.91,10.87,10.87,0,0,1,1.51-6.17,5,5,0,0,1,4.38-2.22,4.43,4.43,0,0,1,3.88,2v-7.2Zm-4.51,12.15c0-2.47-.76-3.71-2.26-3.71q-2.7,0-2.7,5.25,0,4.66,2.53,4.67a2.18,2.18,0,0,0,1.7-.85,3.58,3.58,0,0,0,.73-2.4Z"/><path class="b7478386-9177-4143-ab2e-347a34064d31" d="M169.37,191.29l-3.39.9a2.84,2.84,0,0,0-3.08-2.14c-1.56,0-2.34.48-2.34,1.43a1.09,1.09,0,0,0,.43.9,5.75,5.75,0,0,0,2.24.57,20.45,20.45,0,0,1,4,.82,4.09,4.09,0,0,1,2.05,1.58,4.69,4.69,0,0,1,.76,2.73,4.92,4.92,0,0,1-1.85,4,7.92,7.92,0,0,1-5.18,1.53c-4,0-6.42-1.55-7.2-4.67l3.92-.58c.32,1.42,1.49,2.13,3.5,2.13a4.13,4.13,0,0,0,2-.42,1.25,1.25,0,0,0,.8-1.12q0-1.09-1.77-1.29c-3.19-.4-5.28-1-6.29-1.83a4.27,4.27,0,0,1-1.5-3.47,4.62,4.62,0,0,1,1.75-3.71,7.39,7.39,0,0,1,4.9-1.47,7.16,7.16,0,0,1,4,1A6.16,6.16,0,0,1,169.37,191.29Z"/><path class="b7478386-9177-4143-ab2e-347a34064d31" d="M179.75,181.49v4.66H175.1v-4.66Zm0,6v15.79H175.1V187.47Z"/><path class="b7478386-9177-4143-ab2e-347a34064d31" d="M199.4,181.93v21.33h-4.29v-2.47a4.87,4.87,0,0,1-4.36,2.79,4.79,4.79,0,0,1-4.12-2.13,10.05,10.05,0,0,1-1.51-5.91,11,11,0,0,1,1.51-6.17,5,5,0,0,1,4.38-2.22,4.43,4.43,0,0,1,3.88,2v-7.2Zm-4.51,12.15c0-2.47-.76-3.71-2.26-3.71q-2.7,0-2.7,5.25,0,4.66,2.53,4.67a2.18,2.18,0,0,0,1.7-.85,3.58,3.58,0,0,0,.73-2.4Z"/><path class="b7478386-9177-4143-ab2e-347a34064d31" d="M219.82,196.15H209.66c0,.28,0,.52,0,.73a3.39,3.39,0,0,0,.89,2.55,3,3,0,0,0,2.15.86,2.65,2.65,0,0,0,2.8-2.49l4.22.32q-1.77,5.46-7.17,5.46a7.93,7.93,0,0,1-4-.94,7.43,7.43,0,0,1-2.72-2.76,8.44,8.44,0,0,1-1.07-4.34,8.59,8.59,0,0,1,2.15-6.08,7.59,7.59,0,0,1,10.75-.16Q219.82,191.45,219.82,196.15Zm-10.17-2.71h5.61c-.15-2.16-1-3.25-2.68-3.25S209.85,191.28,209.65,193.44Z"/><g class="a54f5b2e-b8fb-42f6-b700-47aa0d428c61"><path class="b469ef8b-3346-4d05-acd1-ebdedddad8d6" d="M7.44,131.47c11.16-1.08,11.88-2.4,11.88-10.44v-46c0-5.16-.48-6-6.12-6.6L8,67.87v-1.8c7.44-1.32,13.44-3.48,17.16-5.88V121c0,8,.84,9.36,12,10.44v1.68H7.44Z"/><path class="b469ef8b-3346-4d05-acd1-ebdedddad8d6" d="M122.63,120.07c-1.32,3.72-2.28,7.44-3.72,13.08H76.8v-1.92c6.6-6.6,13.31-13.32,19.07-20.16,6.24-7.2,16.08-16.56,16.08-28.56,0-10.92-5.64-16.68-15.11-16.68-9,0-14,7.2-16.68,11.16l-1.8-1.44,6.48-9a21.23,21.23,0,0,1,15-6.36c9.47,0,18.59,6.72,18.59,18.36,0,10.56-5.64,18.12-15.24,28.44l-18.6,20.28h24.72c6,0,7.8-.6,10.92-7.92Z"/></g></g></svg>