<svg xmlns="http://www.w3.org/2000/svg" viewBox="0 0 228.33 228.33"><defs><style>.f02762e1-c041-4f17-9796-86dab43c1ca2{fill:#cec542;}.a6bba108-be27-4d06-a6df-cce255cf7736{fill:#5b612d;}.f52c9c31-4044-415c-85b1-09d35002e250{fill:#fff;}.b75b2c62-4c82-477f-b4f7-d03254e7f93b{opacity:0.24;}</style></defs><title>工作區域 2 複本 12</title><g id="f5f564f2-a6b4-43a9-95b6-33761786d282" data-name="圖層 3"><rect class="f02762e1-c041-4f17-9796-86dab43c1ca2" x="-29.85" y="-1315.07" width="1024" height="2183"/></g><g id="a9fcc07b-6c72-4539-84cb-e6396789efa5" data-name="圖層 1"><rect class="a6bba108-be27-4d06-a6df-cce255cf7736" x="0.08" y="-0.06" width="228.33" height="228.33"/><path class="f02762e1-c041-4f17-9796-86dab43c1ca2" d="M31.49,83.1H26.83V74.37a15,15,0,0,0-.11-2.4,1.48,1.48,0,0,0-.57-.92,2,2,0,0,0-1.27-.37,2.72,2.72,0,0,0-1.56.55c-.53.36-.8,1.41-.8,3.14V83.1H17.86V74.37a10.33,10.33,0,0,0-.17-2.45A1.65,1.65,0,0,0,17,71a2,2,0,0,0-1.21-.35,2.11,2.11,0,0,0-1.79.76,5.14,5.14,0,0,0-.58,2.93V83.1H8.94V67.32h4.38v2.41A4.33,4.33,0,0,1,17.76,67a4.55,4.55,0,0,1,4.37,2.74A4.67,4.67,0,0,1,26.71,67a5.39,5.39,0,0,1,2.68.64A3.77,3.77,0,0,1,31,69.31a8.94,8.94,0,0,1,.49,3.54Z"/><path class="f02762e1-c041-4f17-9796-86dab43c1ca2" d="M51.48,83.1H47a10.91,10.91,0,0,1-.22-2.47,6.47,6.47,0,0,1-2.37,2.25,6.16,6.16,0,0,1-2.67.55,5.22,5.22,0,0,1-3.58-1.2A4.1,4.1,0,0,1,36.76,79a5,5,0,0,1,.8-2.73,5.19,5.19,0,0,1,2.56-2,24.55,24.55,0,0,1,6.43-1.06v-.9A2,2,0,0,0,44.26,70a2.42,2.42,0,0,0-2.73,2.3l-4.3-.41a4.87,4.87,0,0,1,2.55-3.81A10.13,10.13,0,0,1,44.59,67a11.86,11.86,0,0,1,3,.38,5,5,0,0,1,2.22,1.12,4,4,0,0,1,1.08,1.59A10.25,10.25,0,0,1,51.2,73v7.16A11.14,11.14,0,0,0,51.48,83.1Zm-4.93-7.56c-3.25.32-4.88,1.31-4.88,2.95a2.12,2.12,0,0,0,.51,1.43,1.81,1.81,0,0,0,1.47.61,2.56,2.56,0,0,0,2.06-1A3.83,3.83,0,0,0,46.55,77Z"/><path class="f02762e1-c041-4f17-9796-86dab43c1ca2" d="M71.16,83.1H66.51V74.24a12.89,12.89,0,0,0-.13-2.2,1.79,1.79,0,0,0-1.83-1.42q-2.44,0-2.45,3.62V83.1H57.44V67.32h4.33V70a6.06,6.06,0,0,1,2.13-2.45A4.84,4.84,0,0,1,66.16,67a5.29,5.29,0,0,1,3.63,1.22c.91.8,1.37,2.39,1.37,4.75Z"/><path class="f02762e1-c041-4f17-9796-86dab43c1ca2" d="M89.33,67.32l-5,15.14A25.6,25.6,0,0,1,83,86.13a4.57,4.57,0,0,1-1.68,1.81,5.9,5.9,0,0,1-3.07.68A14.6,14.6,0,0,1,76,88.43V84.85a12.89,12.89,0,0,0,2.29.22,2.53,2.53,0,0,0,1.85-.51,3.43,3.43,0,0,0,.7-1.46L75.06,67.32H80l3,9.39L86,67.32Z"/><path class="f52c9c31-4044-415c-85b1-09d35002e250" d="M14.92,114.44v8.66H9.36V99.78h9.19a13.33,13.33,0,0,1,4.71.65,7.06,7.06,0,0,1,2.92,2.35,6.73,6.73,0,0,1,1.28,4.16,8.73,8.73,0,0,1-.68,3.36,6,6,0,0,1-1.94,2.58,6.89,6.89,0,0,1-2.41,1.25,15.53,15.53,0,0,1-3.67.31Zm-.19-4.24h3.55a3.64,3.64,0,0,0,2.86-.94,3.21,3.21,0,0,0,.82-2.15,2.92,2.92,0,0,0-.92-2.26,4,4,0,0,0-2.78-.84H14.73Z"/><path class="f52c9c31-4044-415c-85b1-09d35002e250" d="M51.5,99.78V114.3a12.86,12.86,0,0,1-.81,5.24,6.13,6.13,0,0,1-3,2.82,12.2,12.2,0,0,1-5.53,1.1,12.18,12.18,0,0,1-5.36-1,6.68,6.68,0,0,1-3-2.82,11.5,11.5,0,0,1-1-5.35V99.78H38.8V114.3a8.86,8.86,0,0,0,.32,2.77,2.6,2.6,0,0,0,1.26,1.41,4.75,4.75,0,0,0,2.33.52,5.38,5.38,0,0,0,2.51-.51,2.59,2.59,0,0,0,1.28-1.36,9,9,0,0,0,.31-2.83V99.78Z"/><path class="f52c9c31-4044-415c-85b1-09d35002e250" d="M58.46,99.78H69.33a10.54,10.54,0,0,1,4.39.71,6.43,6.43,0,0,1,2.43,2.05,5.41,5.41,0,0,1,1,3.25c0,2.58-1.4,4.31-4.21,5.17a6,6,0,0,1,3.64,2.17,5.82,5.82,0,0,1,1.22,3.54,6.07,6.07,0,0,1-2,4.53c-1.33,1.27-3.47,1.9-6.45,1.9H58.46Zm5.46,4.11V109h4.13c1.52,0,2.47-.29,2.86-.89a3.1,3.1,0,0,0,.59-1.72,2.49,2.49,0,0,0-.48-1.53,2.08,2.08,0,0,0-1.07-.8,10.05,10.05,0,0,0-2.29-.17Zm0,9.27v5.62h4.19a4.78,4.78,0,0,0,3-.75,2.8,2.8,0,0,0,0-4,4,4,0,0,0-2.83-.82Z"/><path class="f52c9c31-4044-415c-85b1-09d35002e250" d="M89.42,118.49H98.7v4.61H83.89V99.78h5.53Z"/><path class="f52c9c31-4044-415c-85b1-09d35002e250" d="M109.58,99.78V123.1h-5.45V99.78Z"/><path class="f52c9c31-4044-415c-85b1-09d35002e250" d="M135.71,108.46l-5.73.36c-.08-3.3-1.36-4.94-3.85-4.94-2.86,0-4.28,2.53-4.28,7.6,0,2.93.38,4.92,1.16,6a3.83,3.83,0,0,0,3.25,1.56c2.26,0,3.65-1.47,4.15-4.41l5.3.33a9.45,9.45,0,0,1-3.12,6.36,10.46,10.46,0,0,1-13.91-1q-2.9-3.19-2.9-8.84a13.07,13.07,0,0,1,2.8-8.65,9.44,9.44,0,0,1,7.66-3.36Q134.64,99.42,135.71,108.46Z"/><path class="f52c9c31-4044-415c-85b1-09d35002e250" d="M24.14,136.78v4.61H18.37V160.1H12.83V141.39H7v-4.61Z"/><path class="f52c9c31-4044-415c-85b1-09d35002e250" d="M34.61,150.86v9.24h-5.5V136.78H39.36a13.24,13.24,0,0,1,4.56.65,5.88,5.88,0,0,1,2.84,2.42,7,7,0,0,1,1.13,3.91,6.22,6.22,0,0,1-4,6l4.31,10.31h-6l-3.58-9.24Zm0-9.93v5.95H38a9,9,0,0,0,2.39-.23,2.7,2.7,0,0,0,1.32-1,3,3,0,0,0,.58-1.82,2.78,2.78,0,0,0-.58-1.74,2.38,2.38,0,0,0-1.26-.95,12,12,0,0,0-2.57-.18Z"/><path class="f52c9c31-4044-415c-85b1-09d35002e250" d="M66.2,136.78l7.3,23.32H67.63l-1.44-4.8H58.65l-1.46,4.8H52.4l7.47-23.32ZM60,151H64.9l-2.45-8.18Z"/><path class="f52c9c31-4044-415c-85b1-09d35002e250" d="M96.58,136.78V160.1H91.92l-9.13-15.75c0,.4,0,.66,0,.78,0,.4.07.74.07,1v14H78.64V136.78h5.89l7.94,13.75c-.07-.68-.11-1.2-.11-1.55v-12.2Z"/><path class="f52c9c31-4044-415c-85b1-09d35002e250" d="M120,141.9l-4.65,1.56a3.81,3.81,0,0,0-4-2.77q-3.24,0-3.24,2.1a1.9,1.9,0,0,0,.6,1.42,6.15,6.15,0,0,0,2.74,1,27,27,0,0,1,5.22,1.45,6.68,6.68,0,0,1,2.8,2.37,6.28,6.28,0,0,1,1.13,3.65,7.29,7.29,0,0,1-2.43,5.47q-2.43,2.29-7.22,2.3a11,11,0,0,1-6.1-1.63,7.73,7.73,0,0,1-3.32-4.84l5.06-1.15c.57,2.18,2.15,3.26,4.74,3.26a4.53,4.53,0,0,0,2.8-.72,2.17,2.17,0,0,0,.92-1.74,1.82,1.82,0,0,0-.84-1.59A10.48,10.48,0,0,0,111,151q-4.45-.92-6.34-2.52a5.74,5.74,0,0,1-1.9-4.67,7,7,0,0,1,2.26-5.25,8.61,8.61,0,0,1,6.14-2.13Q118.05,136.42,120,141.9Z"/><path class="f52c9c31-4044-415c-85b1-09d35002e250" d="M132.39,151.44v8.66h-5.55V136.78H136a13.36,13.36,0,0,1,4.71.65,7,7,0,0,1,2.91,2.35,6.67,6.67,0,0,1,1.28,4.16,8.55,8.55,0,0,1-.68,3.36,6,6,0,0,1-1.93,2.58,6.92,6.92,0,0,1-2.42,1.25,15.43,15.43,0,0,1-3.66.31Zm-.19-4.24h3.56a3.63,3.63,0,0,0,2.85-.94,3.16,3.16,0,0,0,.82-2.15,2.91,2.91,0,0,0-.91-2.26,4,4,0,0,0-2.78-.84H132.2Z"/><path class="f52c9c31-4044-415c-85b1-09d35002e250" d="M159.34,160.46a8.49,8.49,0,0,1-7.29-3.54,14.11,14.11,0,0,1-2.58-8.56,13.56,13.56,0,0,1,2.62-8.52,8.8,8.8,0,0,1,7.44-3.42,8.32,8.32,0,0,1,7.37,3.65,14.5,14.5,0,0,1,2.48,8.34,14.07,14.07,0,0,1-2.56,8.57A8.71,8.71,0,0,1,159.34,160.46Zm.16-19.58q-4.31,0-4.3,7.55t4.3,7.57q4.16,0,4.16-7.55T159.5,140.88Z"/><path class="f52c9c31-4044-415c-85b1-09d35002e250" d="M181.08,150.86v9.24h-5.5V136.78h10.25a13.28,13.28,0,0,1,4.56.65,5.88,5.88,0,0,1,2.84,2.42,7,7,0,0,1,1.13,3.91,6.22,6.22,0,0,1-4.05,6l4.31,10.31h-6L185,150.86Zm0-9.93v5.95h3.35a9,9,0,0,0,2.39-.23,2.7,2.7,0,0,0,1.32-1,3,3,0,0,0,.58-1.82,2.78,2.78,0,0,0-.58-1.74,2.38,2.38,0,0,0-1.26-.95,12,12,0,0,0-2.57-.18Z"/><path class="f52c9c31-4044-415c-85b1-09d35002e250" d="M216,136.78v4.61h-5.78V160.1h-5.53V141.39h-5.81v-4.61Z"/><path class="f02762e1-c041-4f17-9796-86dab43c1ca2" d="M15.48,181a7,7,0,0,1,5.63,2.36,8.78,8.78,0,0,1,2,5.91A8.43,8.43,0,0,1,21,195.1a7.16,7.16,0,0,1-5.58,2.33,6.79,6.79,0,0,1-5.39-2.31,8.68,8.68,0,0,1-2-5.94A9.16,9.16,0,0,1,9,184.91a7.63,7.63,0,0,1,2.5-2.84A7,7,0,0,1,15.48,181Zm.13,3a2.24,2.24,0,0,0-2,1,8.27,8.27,0,0,0-.67,4.07,9.16,9.16,0,0,0,.64,4,2.12,2.12,0,0,0,2,1.22,2.26,2.26,0,0,0,1.92-1,7.41,7.41,0,0,0,.73-4,9.38,9.38,0,0,0-.64-4.22A2.14,2.14,0,0,0,15.61,184Z"/><path class="f02762e1-c041-4f17-9796-86dab43c1ca2" d="M28.47,202.43V181.32h4.28v2.31A4.21,4.21,0,0,1,36.9,181a5.13,5.13,0,0,1,4.2,2.06,9.43,9.43,0,0,1,1.63,6q0,4.17-1.65,6.28a5.16,5.16,0,0,1-4.28,2.12A4,4,0,0,1,33,195.35v7.08ZM33,190.2a8.55,8.55,0,0,0,.21,2.31,2.32,2.32,0,0,0,.86,1.15,2.25,2.25,0,0,0,1.42.51,2.15,2.15,0,0,0,1.7-1c.5-.65.75-2.09.75-4.31q0-4.66-2.47-4.67a2.29,2.29,0,0,0-1.7.83,4.11,4.11,0,0,0-.77,2.81Z"/><path class="f02762e1-c041-4f17-9796-86dab43c1ca2" d="M53.54,185v6.67a2.64,2.64,0,0,0,.37,1.67,2.49,2.49,0,0,0,1.76.42c.42,0,.92,0,1.48-.06v3.45a20.25,20.25,0,0,1-2.92.35c-1.94,0-3.32-.37-4.13-1.12s-1.22-2.09-1.22-4V185h-2.5v-3.63h2.77l.37-4.65,4-.32v5h3.39V185Z"/><path class="f02762e1-c041-4f17-9796-86dab43c1ca2" d="M66.59,175.34V180H61.94v-4.65Zm0,6V197.1H61.94V181.32Z"/><path class="f02762e1-c041-4f17-9796-86dab43c1ca2" d="M79.36,181A7,7,0,0,1,85,183.35a8.78,8.78,0,0,1,2,5.91,8.43,8.43,0,0,1-2.1,5.84,7.16,7.16,0,0,1-5.58,2.33,6.8,6.8,0,0,1-5.39-2.31,8.68,8.68,0,0,1-2-5.94,9.16,9.16,0,0,1,.91-4.27,7.63,7.63,0,0,1,2.5-2.84A7.06,7.06,0,0,1,79.36,181Zm.13,3a2.24,2.24,0,0,0-2,1,8.39,8.39,0,0,0-.67,4.07,9.31,9.31,0,0,0,.64,4,2.12,2.12,0,0,0,2,1.22,2.26,2.26,0,0,0,1.91-1,7.41,7.41,0,0,0,.73-4,9.38,9.38,0,0,0-.64-4.22A2.13,2.13,0,0,0,79.49,184Z"/><path class="f02762e1-c041-4f17-9796-86dab43c1ca2" d="M106.07,197.1h-4.66v-8.86a13.22,13.22,0,0,0-.12-2.2,1.88,1.88,0,0,0-.61-1,1.85,1.85,0,0,0-1.22-.41q-2.46,0-2.46,3.62v8.86H92.35V181.32h4.33V184a6,6,0,0,1,2.12-2.45,4.88,4.88,0,0,1,2.27-.55,5.27,5.27,0,0,1,3.62,1.22c.92.8,1.38,2.39,1.38,4.75Z"/><path class="f02762e1-c041-4f17-9796-86dab43c1ca2" d="M124.12,185.13l-3.39.91a2.82,2.82,0,0,0-3.08-2.14c-1.56,0-2.34.48-2.34,1.43a1.06,1.06,0,0,0,.43.89,5.45,5.45,0,0,0,2.24.57,20.89,20.89,0,0,1,4,.83A4.11,4.11,0,0,1,124,189.2a4.77,4.77,0,0,1,.76,2.73,4.9,4.9,0,0,1-1.86,4,7.9,7.9,0,0,1-5.18,1.53c-4,0-6.42-1.55-7.2-4.67l3.92-.58c.32,1.42,1.49,2.13,3.5,2.13a4.2,4.2,0,0,0,2-.42,1.24,1.24,0,0,0,.79-1.12c0-.73-.59-1.16-1.76-1.3q-4.78-.58-6.29-1.83a4.22,4.22,0,0,1-1.51-3.46,4.64,4.64,0,0,1,1.75-3.72,7.42,7.42,0,0,1,4.91-1.47,7.18,7.18,0,0,1,4,1A6.12,6.12,0,0,1,124.12,185.13Z"/><g class="b75b2c62-4c82-477f-b4f7-d03254e7f93b"><path class="f52c9c31-4044-415c-85b1-09d35002e250" d="M100.42,100.29c11.16-1.08,11.88-2.4,11.88-10.44v-46c0-5.16-.48-6-6.12-6.6l-5.16-.6v-1.8c7.44-1.32,13.44-3.47,17.16-5.88V89.85c0,8,.84,9.36,12,10.44V102H100.42Z"/><path class="f52c9c31-4044-415c-85b1-09d35002e250" d="M178.9,35a20.64,20.64,0,0,1,14.16-6c10.08,0,16.44,6.48,16.44,14.4,0,5.4-4.44,9-12.12,13v.24c10.68,1.8,16.68,9.72,16.8,18.36,0,19.44-21.84,28.32-30.36,28.32-7.08-.12-12.24-4.32-12.24-6.72,0-1.32,2.64-4,4-4a3.82,3.82,0,0,1,2,.72c2.76,2.64,5.88,4.56,12.84,4.56,8.52,0,17-5.76,17-18.6,0-16.44-13.2-17.64-16.68-17.64A23.14,23.14,0,0,0,182,63.57l-.84-1.92c12.6-4.2,21.6-9,21.6-17,0-6.6-4.56-10.56-11.52-10.56-8.16,0-12.72,5.76-14.88,9.72l-1.92-1.2Z"/></g></g></svg>