<svg xmlns="http://www.w3.org/2000/svg" viewBox="0 0 228.33 228.33"><defs><style>.e2365f1c-4f2c-4e4a-8d9c-d23609194e8f{fill:#cec542;}.b4a6afda-397d-4ea3-b07d-920dd5be5c28{fill:#789d40;}.bd8f451d-8e39-425e-81fe-6c1dfd39b9fe{fill:#fff;}.a3146861-6af2-497f-bb5e-03f3322c9ffc{opacity:0.25;}</style></defs><title>工作區域 2 複本 14</title><g id="b33eed80-cce1-4456-8434-77821c1a043c" data-name="圖層 3"><rect class="e2365f1c-4f2c-4e4a-8d9c-d23609194e8f" x="-533.4" y="-1315.07" width="1024" height="2183"/></g><g id="ba657b74-3a9d-4923-948b-8d624ccb86f6" data-name="圖層 1"><rect class="b4a6afda-397d-4ea3-b07d-920dd5be5c28" x="-4.6" y="-4.46" width="237.13" height="237.13"/><path class="e2365f1c-4f2c-4e4a-8d9c-d23609194e8f" d="M51.69,69.62a6.65,6.65,0,0,1-2.21,4.53,7.29,7.29,0,0,1-5,1.72A7.16,7.16,0,0,1,39,73.66a8.21,8.21,0,0,1-2.1-5.91,8.43,8.43,0,0,1,2.15-6,7.45,7.45,0,0,1,5.74-2.31,6.82,6.82,0,0,1,4.79,1.74,6.38,6.38,0,0,1,2.1,4.34l-4.34.25c-.15-1.89-1-2.84-2.47-2.84q-2.77,0-2.77,4.53c0,2,.26,3.29.77,3.83a2.53,2.53,0,0,0,1.89.81c1.44,0,2.29-.91,2.58-2.73Z"/><path class="e2365f1c-4f2c-4e4a-8d9c-d23609194e8f" d="M63.13,59.43a7,7,0,0,1,5.63,2.36,8.83,8.83,0,0,1,2,5.91,8.43,8.43,0,0,1-2.1,5.84,7.16,7.16,0,0,1-5.58,2.33,6.79,6.79,0,0,1-5.39-2.31,8.68,8.68,0,0,1-2-5.94,9.16,9.16,0,0,1,.92-4.27,7.63,7.63,0,0,1,2.5-2.84A7,7,0,0,1,63.13,59.43Zm.12,3a2.22,2.22,0,0,0-2,1c-.45.68-.67,2-.67,4.07a9.13,9.13,0,0,0,.64,4,2.11,2.11,0,0,0,2,1.22,2.26,2.26,0,0,0,1.92-1,7.41,7.41,0,0,0,.73-4,9.21,9.21,0,0,0-.65-4.22A2.12,2.12,0,0,0,63.25,62.48Z"/><path class="e2365f1c-4f2c-4e4a-8d9c-d23609194e8f" d="M89.83,75.54H85.18V66.68a12.89,12.89,0,0,0-.13-2.2,1.79,1.79,0,0,0-1.83-1.42q-2.44,0-2.45,3.62v8.86H76.11V59.76h4.33v2.67A6.06,6.06,0,0,1,82.57,60a4.84,4.84,0,0,1,2.26-.55,5.29,5.29,0,0,1,3.63,1.22c.91.8,1.37,2.39,1.37,4.75Z"/><path class="e2365f1c-4f2c-4e4a-8d9c-d23609194e8f" d="M108.28,59.76l-5.41,15.78H99.25L93.83,59.76h4.84l3,10,3.11-10Z"/><path class="e2365f1c-4f2c-4e4a-8d9c-d23609194e8f" d="M126.48,68.43H116.32c0,.29,0,.53,0,.74a3.39,3.39,0,0,0,.9,2.55,3,3,0,0,0,2.15.86,2.65,2.65,0,0,0,2.8-2.49l4.22.31q-1.77,5.47-7.17,5.47a7.93,7.93,0,0,1-4-.94,7.43,7.43,0,0,1-2.72-2.76,8.34,8.34,0,0,1-1.07-4.34,8.54,8.54,0,0,1,2.15-6.08,7.58,7.58,0,0,1,10.75-.17Q126.48,63.74,126.48,68.43Zm-10.18-2.7h5.61c-.14-2.16-1-3.25-2.67-3.25S116.51,63.57,116.3,65.73Z"/><path class="e2365f1c-4f2c-4e4a-8d9c-d23609194e8f" d="M145.53,75.54h-4.65V66.68a12.89,12.89,0,0,0-.13-2.2,1.79,1.79,0,0,0-1.83-1.42q-2.44,0-2.45,3.62v8.86h-4.66V59.76h4.33v2.67A6.06,6.06,0,0,1,138.27,60a4.84,4.84,0,0,1,2.26-.55,5.29,5.29,0,0,1,3.63,1.22c.91.8,1.37,2.39,1.37,4.75Z"/><path class="e2365f1c-4f2c-4e4a-8d9c-d23609194e8f" d="M156.43,53.78v4.65h-4.65V53.78Zm0,6V75.54h-4.65V59.76Z"/><path class="e2365f1c-4f2c-4e4a-8d9c-d23609194e8f" d="M176.83,68.43H166.68c0,.29,0,.53,0,.74a3.39,3.39,0,0,0,.9,2.55,3,3,0,0,0,2.15.86,2.64,2.64,0,0,0,2.79-2.49l4.22.31q-1.75,5.47-7.17,5.47a8,8,0,0,1-4-.94,7.41,7.41,0,0,1-2.71-2.76,8.34,8.34,0,0,1-1.08-4.34,8.59,8.59,0,0,1,2.15-6.08,7.58,7.58,0,0,1,10.75-.17C176.11,63,176.83,65.3,176.83,68.43Zm-10.17-2.7h5.61c-.15-2.16-1-3.25-2.67-3.25S166.87,63.57,166.66,65.73Z"/><path class="e2365f1c-4f2c-4e4a-8d9c-d23609194e8f" d="M195.89,75.54h-4.66V66.68a13.22,13.22,0,0,0-.12-2.2,1.88,1.88,0,0,0-.61-1,1.84,1.84,0,0,0-1.22-.41c-1.64,0-2.45,1.21-2.45,3.62v8.86h-4.66V59.76h4.33v2.67A6.13,6.13,0,0,1,188.62,60a4.91,4.91,0,0,1,2.27-.55,5.25,5.25,0,0,1,3.62,1.22c.92.8,1.38,2.39,1.38,4.75Z"/><path class="e2365f1c-4f2c-4e4a-8d9c-d23609194e8f" d="M207.38,63.39v6.67a2.63,2.63,0,0,0,.38,1.67c.24.28.83.42,1.75.42.43,0,.92,0,1.48-.06v3.45a20.1,20.1,0,0,1-2.92.35c-1.94,0-3.31-.37-4.12-1.12s-1.22-2.09-1.22-4V63.39h-2.5V59.76H203l.38-4.65,4-.32v5h3.39v3.63Z"/><path class="bd8f451d-8e39-425e-81fe-6c1dfd39b9fe" d="M136.2,117.88v5.67h-7.09v23H122.3v-23h-7.14v-5.67Z"/><path class="bd8f451d-8e39-425e-81fe-6c1dfd39b9fe" d="M155.45,117.88l9,28.66H157.2l-1.76-5.9h-9.27l-1.8,5.9h-5.88l9.18-28.66Zm-7.67,17.47h6.07l-3-10Z"/><path class="bd8f451d-8e39-425e-81fe-6c1dfd39b9fe" d="M193.6,117.88l-7.83,13.31,8.86,15.35h-7.77l-5.75-10.39-5.76,10.39H169l8.88-15.27L170,117.88h7.82l4.64,8.71,4.88-8.71Z"/><path class="bd8f451d-8e39-425e-81fe-6c1dfd39b9fe" d="M208.58,117.88v28.66h-6.69V117.88Z"/><path class="e2365f1c-4f2c-4e4a-8d9c-d23609194e8f" d="M92.82,166.58l-3.39.9a2.83,2.83,0,0,0-3.08-2.14c-1.56,0-2.35.48-2.35,1.43a1.12,1.12,0,0,0,.43.9,5.74,5.74,0,0,0,2.25.56,21.07,21.07,0,0,1,4,.83,4.09,4.09,0,0,1,2,1.58,4.69,4.69,0,0,1,.76,2.73,4.92,4.92,0,0,1-1.85,4,7.92,7.92,0,0,1-5.18,1.53c-4,0-6.42-1.55-7.21-4.67l3.93-.58c.32,1.42,1.49,2.13,3.5,2.13a4.13,4.13,0,0,0,1.95-.42,1.25,1.25,0,0,0,.8-1.12c0-.73-.59-1.16-1.77-1.3-3.19-.39-5.28-1-6.29-1.83a4.24,4.24,0,0,1-1.51-3.46,4.67,4.67,0,0,1,1.75-3.72,7.43,7.43,0,0,1,4.91-1.47,7.16,7.16,0,0,1,4,1A6.16,6.16,0,0,1,92.82,166.58Z"/><path class="e2365f1c-4f2c-4e4a-8d9c-d23609194e8f" d="M112.72,171.43H102.56c0,.29,0,.53,0,.74a3.38,3.38,0,0,0,.89,2.55,3,3,0,0,0,2.15.86,2.65,2.65,0,0,0,2.8-2.49l4.22.31q-1.77,5.47-7.17,5.47a7.93,7.93,0,0,1-4-.94,7.43,7.43,0,0,1-2.72-2.76,8.44,8.44,0,0,1-1.07-4.34,8.59,8.59,0,0,1,2.15-6.08,7.58,7.58,0,0,1,10.75-.17Q112.71,166.74,112.72,171.43Zm-10.17-2.7h5.61c-.15-2.16-1-3.25-2.68-3.25S102.75,166.57,102.55,168.73Z"/><path class="e2365f1c-4f2c-4e4a-8d9c-d23609194e8f" d="M122.57,178.54h-4.52V162.76h4.27v2.94c.66-2.19,1.79-3.28,3.41-3.28a6.89,6.89,0,0,1,.84.05v4.59a4.6,4.6,0,0,0-2.21.44,3.1,3.1,0,0,0-1.29,1.57,7.72,7.72,0,0,0-.5,3.05Z"/><path class="e2365f1c-4f2c-4e4a-8d9c-d23609194e8f" d="M144.66,162.76l-5.41,15.78h-3.62l-5.42-15.78H135l3.05,10,3.11-10Z"/><path class="e2365f1c-4f2c-4e4a-8d9c-d23609194e8f" d="M153.73,156.78v4.65h-4.66v-4.65Zm0,6v15.78h-4.66V162.76Z"/><path class="e2365f1c-4f2c-4e4a-8d9c-d23609194e8f" d="M173.83,172.62a6.61,6.61,0,0,1-2.21,4.53,7.27,7.27,0,0,1-5,1.72,7.16,7.16,0,0,1-5.45-2.21,8.21,8.21,0,0,1-2.1-5.91,8.48,8.48,0,0,1,2.15-6,7.47,7.47,0,0,1,5.74-2.31,6.8,6.8,0,0,1,4.79,1.74,6.3,6.3,0,0,1,2.1,4.34l-4.34.25c-.15-1.89-1-2.84-2.47-2.84-1.84,0-2.77,1.51-2.77,4.53,0,2,.26,3.29.78,3.83a2.49,2.49,0,0,0,1.88.81q2.16,0,2.58-2.73Z"/><path class="e2365f1c-4f2c-4e4a-8d9c-d23609194e8f" d="M192.91,171.43H182.75c0,.29,0,.53,0,.74a3.39,3.39,0,0,0,.9,2.55,3,3,0,0,0,2.15.86,2.66,2.66,0,0,0,2.8-2.49l4.22.31q-1.77,5.47-7.18,5.47a7.89,7.89,0,0,1-4-.94,7.43,7.43,0,0,1-2.72-2.76,8.34,8.34,0,0,1-1.07-4.34,8.54,8.54,0,0,1,2.15-6.08,7.58,7.58,0,0,1,10.75-.17Q192.91,166.74,192.91,171.43Zm-10.18-2.7h5.61c-.14-2.16-1-3.25-2.67-3.25S182.94,166.57,182.73,168.73Z"/><path class="e2365f1c-4f2c-4e4a-8d9c-d23609194e8f" d="M210.05,166.58l-3.39.9a2.82,2.82,0,0,0-3.07-2.14c-1.57,0-2.35.48-2.35,1.43a1.09,1.09,0,0,0,.43.9,5.73,5.73,0,0,0,2.24.56,20.72,20.72,0,0,1,4,.83,4.11,4.11,0,0,1,2.06,1.58,4.77,4.77,0,0,1,.76,2.73,4.9,4.9,0,0,1-1.86,4,7.89,7.89,0,0,1-5.17,1.53c-4,0-6.43-1.55-7.21-4.67l3.92-.58c.33,1.42,1.49,2.13,3.5,2.13a4.18,4.18,0,0,0,2-.42,1.24,1.24,0,0,0,.79-1.12c0-.73-.58-1.16-1.76-1.3q-4.78-.58-6.29-1.83a4.21,4.21,0,0,1-1.51-3.46,4.64,4.64,0,0,1,1.75-3.72,7.42,7.42,0,0,1,4.91-1.47,7.18,7.18,0,0,1,4,1A6.14,6.14,0,0,1,210.05,166.58Z"/><g class="a3146861-6af2-497f-bb5e-03f3322c9ffc"><path class="bd8f451d-8e39-425e-81fe-6c1dfd39b9fe" d="M17.9,153.23c11.16-1.08,11.88-2.4,11.88-10.44v-46c0-5.16-.48-6-6.12-6.6l-5.16-.6v-1.8c7.44-1.32,13.44-3.48,17.16-5.88v60.84c0,8,.84,9.36,12,10.44v1.68H17.9Z"/><path class="bd8f451d-8e39-425e-81fe-6c1dfd39b9fe" d="M98.18,83.27H129.5l.6.6-2.4,5.28H101.06l-3.48,22.56c5.64-1.92,10.2-3.84,13.56-3.84,14.64,0,21.6,10.92,21.48,20.52,0,17.52-18.24,27.84-30.12,27.72-6.72,0-12.72-3.24-12.72-6.24,0-1.92,2.64-4.44,4.2-4.44a2.32,2.32,0,0,1,1.2.36c2.16,2.28,6,5.28,13.32,5.28,15.48,0,17.64-13.68,17.64-18.24,0-11.88-5.76-19.44-19.8-19.44A35.82,35.82,0,0,0,94,115.31Z"/></g></g></svg>