<svg xmlns="http://www.w3.org/2000/svg" viewBox="0 0 228.33 228.33"><defs><style>.aae74a8a-91af-4c1b-897d-156962f60130{fill:#cec542;}.a1a4b310-b18b-49f7-b544-fd5342e27906{fill:#8cae4c;}.b9985de4-1425-4316-a85e-3496c503b7d7{fill:#595757;}.fd9aae54-61ee-4ee5-8e70-5253de6f77f0{fill:#fff;}.f52d3ef8-c70b-4c73-8bf2-a4a5249b2d04{opacity:0.25;}</style></defs><title>工作區域 2 複本 15</title><g id="afc12b09-5f97-4817-b447-3412f4222bf3" data-name="圖層 3"><rect class="aae74a8a-91af-4c1b-897d-156962f60130" x="-786.63" y="-1313.75" width="1024" height="2183"/></g><g id="bd51b1cb-58b7-42dd-af92-4160940889ad" data-name="圖層 1"><rect class="a1a4b310-b18b-49f7-b544-fd5342e27906" x="-0.02" y="-0.46" width="228.33" height="228.33"/><path class="b9985de4-1425-4316-a85e-3496c503b7d7" d="M25.36,28.68,22,29.59a2.82,2.82,0,0,0-3.08-2.14c-1.56,0-2.34.47-2.34,1.42a1.06,1.06,0,0,0,.43.9,5.45,5.45,0,0,0,2.24.57,20.14,20.14,0,0,1,4,.83,4.15,4.15,0,0,1,2.06,1.57A4.82,4.82,0,0,1,26,35.48a4.91,4.91,0,0,1-1.86,4A7.9,7.9,0,0,1,19,41q-6,0-7.2-4.67l3.92-.58c.32,1.42,1.49,2.12,3.5,2.12a4.21,4.21,0,0,0,2-.41A1.25,1.25,0,0,0,22,36.32c0-.73-.59-1.16-1.76-1.3q-4.79-.59-6.29-1.83a4.22,4.22,0,0,1-1.51-3.46A4.64,4.64,0,0,1,14.16,26a7.42,7.42,0,0,1,4.91-1.47,7.18,7.18,0,0,1,4,1A6.12,6.12,0,0,1,25.36,28.68Z"/><path class="b9985de4-1425-4316-a85e-3496c503b7d7" d="M37.63,24.54a7,7,0,0,1,5.63,2.36,8.74,8.74,0,0,1,2,5.91,8.38,8.38,0,0,1-2.1,5.83A7.13,7.13,0,0,1,37.6,41a6.79,6.79,0,0,1-5.39-2.31,8.68,8.68,0,0,1-2-5.94,9.14,9.14,0,0,1,.91-4.27,7.56,7.56,0,0,1,2.5-2.84A7.06,7.06,0,0,1,37.63,24.54Zm.13,3.05a2.24,2.24,0,0,0-2,1c-.45.68-.67,2-.67,4.07a9.16,9.16,0,0,0,.64,4,2.12,2.12,0,0,0,2,1.22,2.26,2.26,0,0,0,1.92-1,7.41,7.41,0,0,0,.73-4,9.35,9.35,0,0,0-.64-4.22A2.14,2.14,0,0,0,37.76,27.59Z"/><path class="b9985de4-1425-4316-a85e-3496c503b7d7" d="M73.16,40.65H68.51V31.92a16.37,16.37,0,0,0-.11-2.4,1.58,1.58,0,0,0-.57-.92,2,2,0,0,0-1.28-.37,2.72,2.72,0,0,0-1.56.55c-.53.36-.8,1.41-.8,3.14v8.73H59.54V31.92a10.92,10.92,0,0,0-.17-2.45,1.73,1.73,0,0,0-.65-.9,2,2,0,0,0-1.21-.34,2.1,2.1,0,0,0-1.79.76,5.1,5.1,0,0,0-.59,2.93v8.73H50.62V24.87H55v2.41a4.32,4.32,0,0,1,4.45-2.74,4.52,4.52,0,0,1,4.36,2.74,4.66,4.66,0,0,1,4.58-2.74,5.43,5.43,0,0,1,2.69.64,3.8,3.8,0,0,1,1.61,1.67,9.23,9.23,0,0,1,.48,3.55Z"/><path class="b9985de4-1425-4316-a85e-3496c503b7d7" d="M93.56,33.54H83.41c0,.28,0,.53,0,.74a3.35,3.35,0,0,0,.9,2.54,3,3,0,0,0,2.15.86,2.66,2.66,0,0,0,2.8-2.48l4.21.31Q91.7,41,86.28,41a8,8,0,0,1-4-.95,7.38,7.38,0,0,1-2.71-2.75,8.35,8.35,0,0,1-1.07-4.35,8.6,8.6,0,0,1,2.14-6.08,7.59,7.59,0,0,1,10.75-.16C92.84,28.12,93.56,30.41,93.56,33.54Zm-10.17-2.7H89c-.15-2.17-1-3.25-2.67-3.25S83.6,28.67,83.39,30.84Z"/><path class="b9985de4-1425-4316-a85e-3496c503b7d7" d="M123.18,34.73A6.66,6.66,0,0,1,121,39.25a7.28,7.28,0,0,1-5,1.73,7.17,7.17,0,0,1-5.44-2.21,8.22,8.22,0,0,1-2.11-5.92,8.45,8.45,0,0,1,2.15-6,7.47,7.47,0,0,1,5.75-2.31,6.8,6.8,0,0,1,4.78,1.74,6.33,6.33,0,0,1,2.11,4.34l-4.35.25c-.14-1.9-1-2.84-2.47-2.84q-2.76,0-2.76,4.53c0,2,.26,3.28.77,3.83a2.51,2.51,0,0,0,1.88.81c1.44,0,2.3-.91,2.58-2.74Z"/><path class="b9985de4-1425-4316-a85e-3496c503b7d7" d="M132.73,18.89v4.65h-4.65V18.89Zm0,6V40.65h-4.65V24.87Z"/><path class="b9985de4-1425-4316-a85e-3496c503b7d7" d="M144.21,28.49v6.68a2.64,2.64,0,0,0,.37,1.67,2.49,2.49,0,0,0,1.76.42c.43,0,.92,0,1.48-.06v3.45a19.85,19.85,0,0,1-2.92.34,6.11,6.11,0,0,1-4.13-1.11c-.81-.75-1.22-2.09-1.22-4V28.49h-2.5V24.87h2.77l.37-4.66,4-.31v5h3.39v3.62Z"/><path class="b9985de4-1425-4316-a85e-3496c503b7d7" d="M157.27,18.89v4.65h-4.66V18.89Zm0,6V40.65h-4.66V24.87Z"/><path class="b9985de4-1425-4316-a85e-3496c503b7d7" d="M177.67,33.54H167.51c0,.28,0,.53,0,.74a3.35,3.35,0,0,0,.9,2.54,3,3,0,0,0,2.15.86,2.65,2.65,0,0,0,2.8-2.48l4.22.31Q175.79,41,170.38,41a7.92,7.92,0,0,1-4-.95,7.4,7.4,0,0,1-2.72-2.75,8.35,8.35,0,0,1-1.07-4.35,8.56,8.56,0,0,1,2.15-6.08,7.59,7.59,0,0,1,10.75-.16C176.94,28.12,177.67,30.41,177.67,33.54Zm-10.18-2.7h5.61c-.14-2.17-1-3.25-2.67-3.25S167.7,28.67,167.49,30.84Z"/><path class="b9985de4-1425-4316-a85e-3496c503b7d7" d="M194.82,28.68l-3.39.91a2.83,2.83,0,0,0-3.08-2.14c-1.56,0-2.35.47-2.35,1.42a1.09,1.09,0,0,0,.43.9,5.51,5.51,0,0,0,2.25.57,20.3,20.3,0,0,1,4,.83,4.17,4.17,0,0,1,2,1.57,4.75,4.75,0,0,1,.76,2.74,4.93,4.93,0,0,1-1.85,4A7.92,7.92,0,0,1,188.46,41q-6,0-7.21-4.67l3.93-.58c.32,1.42,1.49,2.12,3.5,2.12a4.14,4.14,0,0,0,1.95-.41,1.26,1.26,0,0,0,.8-1.12c0-.73-.59-1.16-1.77-1.3-3.19-.39-5.28-1-6.29-1.83a4.25,4.25,0,0,1-1.51-3.46A4.67,4.67,0,0,1,183.61,26a7.43,7.43,0,0,1,4.91-1.47,7.16,7.16,0,0,1,4,1A6.13,6.13,0,0,1,194.82,28.68Z"/><path class="b9985de4-1425-4316-a85e-3496c503b7d7" d="M13.55,74V52.87h4.28v2.31A4.21,4.21,0,0,1,22,52.54a5.12,5.12,0,0,1,4.19,2.06,9.41,9.41,0,0,1,1.64,6q0,4.17-1.65,6.29A5.2,5.2,0,0,1,21.88,69a4,4,0,0,1-3.81-2.08V74Zm4.52-12.24a8.7,8.7,0,0,0,.2,2.32,2.53,2.53,0,0,0,2.28,1.65,2.12,2.12,0,0,0,1.7-1c.5-.65.75-2.09.75-4.31q0-4.66-2.46-4.67a2.3,2.3,0,0,0-1.71.83,4.11,4.11,0,0,0-.76,2.81Z"/><path class="b9985de4-1425-4316-a85e-3496c503b7d7" d="M37.73,68.65H33.22V52.87h4.26v2.94c.66-2.19,1.79-3.28,3.41-3.28.23,0,.51,0,.84,0v4.6a4.64,4.64,0,0,0-2.21.43,3.3,3.3,0,0,0-1.29,1.57,7.81,7.81,0,0,0-.5,3.06Z"/><path class="b9985de4-1425-4316-a85e-3496c503b7d7" d="M53.26,52.54a7,7,0,0,1,5.63,2.36,8.74,8.74,0,0,1,2,5.91,8.38,8.38,0,0,1-2.1,5.83A7.13,7.13,0,0,1,53.23,69a6.82,6.82,0,0,1-5.39-2.31,8.68,8.68,0,0,1-2-5.94,9.14,9.14,0,0,1,.91-4.27,7.58,7.58,0,0,1,2.51-2.84A7,7,0,0,1,53.26,52.54Zm.13,3.05a2.22,2.22,0,0,0-2,1c-.45.68-.67,2-.67,4.07a9.33,9.33,0,0,0,.63,4,2.13,2.13,0,0,0,2,1.22,2.23,2.23,0,0,0,1.91-1,7.39,7.39,0,0,0,.74-4,9.32,9.32,0,0,0-.65-4.22A2.13,2.13,0,0,0,53.39,55.59Z"/><path class="b9985de4-1425-4316-a85e-3496c503b7d7" d="M78.39,52.87,73,68.65H69.36L63.94,52.87h4.84l3,10,3.11-10Z"/><path class="b9985de4-1425-4316-a85e-3496c503b7d7" d="M87.46,46.89v4.65H82.81V46.89Zm0,6V68.65H82.81V52.87Z"/><path class="b9985de4-1425-4316-a85e-3496c503b7d7" d="M107.11,47.32V68.65h-4.29V66.18A4.86,4.86,0,0,1,98.47,69a4.8,4.8,0,0,1-4.13-2.13,10.18,10.18,0,0,1-1.51-5.92,10.91,10.91,0,0,1,1.51-6.16,5,5,0,0,1,4.38-2.23,4.42,4.42,0,0,1,3.88,2V47.32ZM102.6,59.48c0-2.48-.75-3.72-2.26-3.72q-2.7,0-2.7,5.25c0,3.12.85,4.67,2.53,4.67a2.2,2.2,0,0,0,1.7-.84,3.61,3.61,0,0,0,.73-2.41Z"/><path class="b9985de4-1425-4316-a85e-3496c503b7d7" d="M127.53,61.54H117.37c0,.28,0,.53,0,.74a3.35,3.35,0,0,0,.9,2.54,2.94,2.94,0,0,0,2.14.86,2.64,2.64,0,0,0,2.8-2.48l4.22.31Q125.65,69,120.25,69a7.93,7.93,0,0,1-4-1,7.4,7.4,0,0,1-2.72-2.75,8.45,8.45,0,0,1-1.07-4.35,8.6,8.6,0,0,1,2.15-6.08,7.59,7.59,0,0,1,10.75-.16C126.8,56.12,127.53,58.41,127.53,61.54Zm-10.17-2.7H123c-.15-2.17-1-3.25-2.68-3.25S117.57,56.67,117.36,58.84Z"/><path class="fd9aae54-61ee-4ee5-8e70-5253de6f77f0" d="M20.43,99v9.65H14.24v-26H24.48a14.6,14.6,0,0,1,5.25.73A7.8,7.8,0,0,1,33,86a7.46,7.46,0,0,1,1.42,4.63,9.63,9.63,0,0,1-.76,3.75,6.67,6.67,0,0,1-2.15,2.87,7.87,7.87,0,0,1-2.69,1.39,17.47,17.47,0,0,1-4.09.35Zm-.21-4.73h4a4.09,4.09,0,0,0,3.18-1,3.54,3.54,0,0,0,.91-2.4,3.26,3.26,0,0,0-1-2.52,4.46,4.46,0,0,0-3.09-.93H20.22Z"/><path class="fd9aae54-61ee-4ee5-8e70-5253de6f77f0" d="M61.19,82.66V98.84a14.37,14.37,0,0,1-.9,5.84,6.84,6.84,0,0,1-3.3,3.14,13.53,13.53,0,0,1-6.16,1.23,13.62,13.62,0,0,1-6-1.1,7.41,7.41,0,0,1-3.32-3.15,12.71,12.71,0,0,1-1.11-6V82.66H47V98.84a10.1,10.1,0,0,0,.35,3.09,2.93,2.93,0,0,0,1.41,1.57,5.32,5.32,0,0,0,2.6.58,6,6,0,0,0,2.79-.57A2.9,2.9,0,0,0,55.62,102,10.13,10.13,0,0,0,56,98.84V82.66Z"/><path class="fd9aae54-61ee-4ee5-8e70-5253de6f77f0" d="M69,82.66H81.06a11.51,11.51,0,0,1,4.9.8,7.09,7.09,0,0,1,2.7,2.28,6,6,0,0,1,1.07,3.62q0,4.32-4.69,5.76a6.65,6.65,0,0,1,4.06,2.42,6.47,6.47,0,0,1,1.35,3.95,6.78,6.78,0,0,1-2.21,5q-2.2,2.11-7.18,2.12H69ZM75,87.25v5.69h4.6c1.69,0,2.76-.33,3.19-1A3.49,3.49,0,0,0,83.48,90a2.77,2.77,0,0,0-.54-1.71,2.33,2.33,0,0,0-1.19-.89,11.5,11.5,0,0,0-2.55-.18Zm0,10.32v6.26H79.7a5.26,5.26,0,0,0,3.38-.84,2.88,2.88,0,0,0,1-2.34,2.94,2.94,0,0,0-.95-2.17A4.44,4.44,0,0,0,80,97.57Z"/><path class="fd9aae54-61ee-4ee5-8e70-5253de6f77f0" d="M103.45,103.51h10.34v5.14H97.28v-26h6.17Z"/><path class="fd9aae54-61ee-4ee5-8e70-5253de6f77f0" d="M125.91,82.66v26h-6.07v-26Z"/><path class="fd9aae54-61ee-4ee5-8e70-5253de6f77f0" d="M155,92.33l-6.38.4q-.13-5.51-4.29-5.5-4.77,0-4.77,8.47c0,3.26.43,5.48,1.3,6.64a4.25,4.25,0,0,0,3.62,1.74q3.78,0,4.62-4.91l5.9.36a10.49,10.49,0,0,1-3.47,7.09,11.64,11.64,0,0,1-15.5-1.13c-2.16-2.37-3.23-5.66-3.23-9.84A14.56,14.56,0,0,1,135.94,86a10.51,10.51,0,0,1,8.53-3.75Q153.85,82.26,155,92.33Z"/><path class="fd9aae54-61ee-4ee5-8e70-5253de6f77f0" d="M14.24,122.66H26.35a11.46,11.46,0,0,1,4.89.8A7,7,0,0,1,34,125.74,6,6,0,0,1,35,129.36q0,4.32-4.68,5.76a6.66,6.66,0,0,1,4.05,2.42,6.41,6.41,0,0,1,1.36,4,6.78,6.78,0,0,1-2.21,5c-1.47,1.41-3.87,2.12-7.18,2.12H14.24Zm6.07,4.59v5.69h4.61c1.69,0,2.75-.33,3.19-1a3.49,3.49,0,0,0,.66-1.91,2.72,2.72,0,0,0-.55-1.71,2.31,2.31,0,0,0-1.18-.89,11.67,11.67,0,0,0-2.56-.18Zm0,10.32v6.26H25a5.27,5.27,0,0,0,3.38-.84,2.88,2.88,0,0,0,1-2.34,2.94,2.94,0,0,0-.95-2.17,4.49,4.49,0,0,0-3.16-.91Z"/><path class="fd9aae54-61ee-4ee5-8e70-5253de6f77f0" d="M48.64,122.66v26H42.57v-26Z"/><path class="fd9aae54-61ee-4ee5-8e70-5253de6f77f0" d="M77.75,132.33l-6.38.4q-.14-5.5-4.29-5.5-4.77,0-4.77,8.47c0,3.26.43,5.48,1.29,6.64a4.28,4.28,0,0,0,3.63,1.74q3.78,0,4.62-4.91l5.9.36a10.46,10.46,0,0,1-3.48,7.09,10.69,10.69,0,0,1-7.11,2.43,10.82,10.82,0,0,1-8.39-3.56c-2.15-2.37-3.22-5.66-3.22-9.84A14.56,14.56,0,0,1,58.67,126a10.5,10.5,0,0,1,8.53-3.75Q76.58,122.26,77.75,132.33Z"/><path class="fd9aae54-61ee-4ee5-8e70-5253de6f77f0" d="M102.94,122.66l-8.17,15v11H88.69v-11l-8.17-15h7.07l5,9.84,4.94-9.84Z"/><path class="fd9aae54-61ee-4ee5-8e70-5253de6f77f0" d="M127.47,132.33l-6.38.4q-.12-5.5-4.29-5.5-4.77,0-4.77,8.47c0,3.26.43,5.48,1.3,6.64a4.25,4.25,0,0,0,3.62,1.74q3.78,0,4.62-4.91l5.9.36a10.45,10.45,0,0,1-3.47,7.09,11.64,11.64,0,0,1-15.5-1.13c-2.15-2.37-3.23-5.66-3.23-9.84a14.56,14.56,0,0,1,3.12-9.64,10.53,10.53,0,0,1,8.53-3.75Q126.3,122.26,127.47,132.33Z"/><path class="fd9aae54-61ee-4ee5-8e70-5253de6f77f0" d="M140.07,143.51h10.34v5.14H133.9v-26h6.17Z"/><path class="fd9aae54-61ee-4ee5-8e70-5253de6f77f0" d="M175,127.61H162.65v5.33h9.73v4.89h-9.73v5.68H175v5.14H156.46v-26H175Z"/><path class="fd9aae54-61ee-4ee5-8e70-5253de6f77f0" d="M199.57,128.37l-5.18,1.73A4.26,4.26,0,0,0,190,127c-2.41,0-3.61.78-3.61,2.34a2.11,2.11,0,0,0,.68,1.58,6.77,6.77,0,0,0,3.05,1.13,29.62,29.62,0,0,1,5.82,1.62,7.44,7.44,0,0,1,3.11,2.63,7,7,0,0,1,1.26,4.07,8.1,8.1,0,0,1-2.71,6.09q-2.72,2.57-8,2.57a12.18,12.18,0,0,1-6.8-1.82,8.65,8.65,0,0,1-3.7-5.4l5.64-1.27c.63,2.42,2.39,3.64,5.28,3.64a5,5,0,0,0,3.12-.81,2.42,2.42,0,0,0,1-1.94,2,2,0,0,0-.93-1.77,11.26,11.26,0,0,0-3.59-1.18c-3.31-.69-5.67-1.62-7.08-2.81a6.45,6.45,0,0,1-2.11-5.21,7.71,7.71,0,0,1,2.52-5.84,9.54,9.54,0,0,1,6.84-2.38Q197.38,122.26,199.57,128.37Z"/><g class="f52d3ef8-c70b-4c73-8bf2-a4a5249b2d04"><path class="fd9aae54-61ee-4ee5-8e70-5253de6f77f0" d="M13.78,215.75c11.16-1.08,11.88-2.4,11.88-10.44v-46c0-5.16-.48-6-6.12-6.6l-5.16-.6v-1.8c7.44-1.32,13.44-3.48,17.16-5.88v60.84c0,8,.84,9.36,12,10.44v1.68H13.78Z"/><path class="fd9aae54-61ee-4ee5-8e70-5253de6f77f0" d="M101.5,174.23a16.31,16.31,0,0,1,7.8-1.92c12.24,0,20.64,10.08,20.64,21.48,0,13.68-9.24,25-23.28,25-11.64,0-22.32-10.44-22.32-28.56,0-20.16,11.88-40.44,43.44-46.68l.6,2.52a55.19,55.19,0,0,0-13,4c-8.28,3.6-18.84,11.64-22.92,28.44Zm-9.6,7.08a41.72,41.72,0,0,0-.6,8.28c0,14.4,5.88,26.52,17.64,26.52,11.4,0,14.4-11,14.4-19.2,0-8.88-4.92-19.8-17.64-19.8A27.78,27.78,0,0,0,91.9,181.31Z"/></g></g></svg>