<svg xmlns="http://www.w3.org/2000/svg" viewBox="0 0 228.33 228.33"><defs><style>.ba3d56ca-d84b-4136-9942-9b60a50df5aa{fill:#cec542;}.b41f0cde-7854-4a7d-8ab8-5f6a95c8c4ff{fill:#584486;}.a275edf9-a548-4b2f-ba61-b82ccc3ab7a5{fill:#fff;}.ab7f36c4-145b-4122-a3b8-971c975a6b2a{opacity:0.25;}</style></defs><title>工作區域 2 複本 16</title><g id="b998974e-496b-46f7-bcfb-ba4ffdf559ed" data-name="圖層 3"><rect class="ba3d56ca-d84b-4136-9942-9b60a50df5aa" x="-29.85" y="-1583.27" width="1024" height="2183"/></g><g id="f4abe988-7219-4dbe-807a-7d84b77e404e" data-name="圖層 1"><rect class="b41f0cde-7854-4a7d-8ab8-5f6a95c8c4ff" x="0.31" y="-0.2" width="228.33" height="228.33"/><path class="a275edf9-a548-4b2f-ba61-b82ccc3ab7a5" d="M23.9,60.51l-5.24.33c-.07-3-1.25-4.52-3.52-4.52q-3.92,0-3.92,7c0,2.67.36,4.49,1.07,5.44a3.5,3.5,0,0,0,3,1.43q3.1,0,3.79-4l4.85.3A8.64,8.64,0,0,1,21,72.24a8.81,8.81,0,0,1-5.83,2,8.82,8.82,0,0,1-6.88-2.92q-2.66-2.93-2.65-8.08a12,12,0,0,1,2.56-7.91,8.63,8.63,0,0,1,7-3.08Q22.92,52.24,23.9,60.51Z"/><path class="a275edf9-a548-4b2f-ba61-b82ccc3ab7a5" d="M45.64,52.57V73.9H40.73V65.1H34.08v8.8H29.17V52.57h4.91v8.32h6.65V52.57Z"/><path class="a275edf9-a548-4b2f-ba61-b82ccc3ab7a5" d="M62.8,52.57,69.48,73.9H64.11l-1.32-4.39H55.9L54.56,73.9H50.18L57,52.57Zm-5.7,13h4.51l-2.23-7.48Z"/><path class="a275edf9-a548-4b2f-ba61-b82ccc3ab7a5" d="M90.58,52.57V73.9H86.32L78,59.49q0,.55,0,.72a8.91,8.91,0,0,1,.06.93V73.9H74.17V52.57h5.39l7.25,12.58c-.06-.62-.09-1.1-.09-1.42V52.57Z"/><path class="a275edf9-a548-4b2f-ba61-b82ccc3ab7a5" d="M113.87,62.49V73.9h-2.28a17.21,17.21,0,0,0-.71-2.45,7.21,7.21,0,0,1-5.82,2.78,7.75,7.75,0,0,1-6.49-3,12.16,12.16,0,0,1-2.32-7.71,12.71,12.71,0,0,1,2.47-8.19,9,9,0,0,1,12.48-1.1,8.64,8.64,0,0,1,2.67,5.33l-4.75.63q-.59-3.89-3.67-3.88a3.31,3.31,0,0,0-3.07,1.84,10.8,10.8,0,0,0-1,5.24,9.27,9.27,0,0,0,1.12,5,3.61,3.61,0,0,0,3.21,1.73,3.69,3.69,0,0,0,2.4-.87,3.46,3.46,0,0,0,1.05-2.8h-4v-4Z"/><path class="a275edf9-a548-4b2f-ba61-b82ccc3ab7a5" d="M135.44,56.64H125.29V61h8v4h-8v4.65h10.15V73.9H120.21V52.57h15.23Z"/><path class="a275edf9-a548-4b2f-ba61-b82ccc3ab7a5" d="M151.32,52.57,158,73.9h-5.37l-1.31-4.39h-6.9l-1.34,4.39H138.7l6.84-21.33Zm-5.7,13h4.52l-2.24-7.48Z"/><path class="a275edf9-a548-4b2f-ba61-b82ccc3ab7a5" d="M162.7,52.57h9.93a9.5,9.5,0,0,1,4,.66,6,6,0,0,1,2.22,1.87,5,5,0,0,1,.87,3q0,3.54-3.84,4.73a5.46,5.46,0,0,1,3.33,2A5.27,5.27,0,0,1,180.34,68a5.55,5.55,0,0,1-1.82,4.14c-1.2,1.16-3.17,1.74-5.89,1.74H162.7Zm5,3.77V61h3.78c1.39,0,2.26-.27,2.62-.82a2.88,2.88,0,0,0,.54-1.57,2.24,2.24,0,0,0-.45-1.4,1.87,1.87,0,0,0-1-.73,9.43,9.43,0,0,0-2.1-.15Zm0,8.47V70h3.84a4.3,4.3,0,0,0,2.77-.69,2.55,2.55,0,0,0,0-3.7,3.66,3.66,0,0,0-2.59-.75Z"/><path class="a275edf9-a548-4b2f-ba61-b82ccc3ab7a5" d="M191,69.68h8.49V73.9H185.94V52.57H191Z"/><path class="a275edf9-a548-4b2f-ba61-b82ccc3ab7a5" d="M219.68,56.64H209.53V61h8v4h-8v4.65h10.15V73.9H204.45V52.57h15.23Z"/><path class="a275edf9-a548-4b2f-ba61-b82ccc3ab7a5" d="M32,111.08l-8.39.53q-.18-7.24-5.65-7.24-6.29,0-6.28,11.15c0,4.29.57,7.21,1.7,8.73a5.62,5.62,0,0,0,4.78,2.3q5,0,6.07-6.47l7.77.48q-.75,6.14-4.57,9.33a14.12,14.12,0,0,1-9.36,3.2,14.19,14.19,0,0,1-11-4.69q-4.24-4.68-4.25-13,0-7.74,4.11-12.68t11.23-4.93Q30.47,97.83,32,111.08Z"/><path class="a275edf9-a548-4b2f-ba61-b82ccc3ab7a5" d="M48.61,125.8h13.6v6.76H40.48V98.35h8.13Z"/><path class="a275edf9-a548-4b2f-ba61-b82ccc3ab7a5" d="M78.17,98.35v34.21h-8V98.35Z"/><path class="a275edf9-a548-4b2f-ba61-b82ccc3ab7a5" d="M104.05,132.56,95.6,104.67v27.89H88.89V98.35h12.48l6,20.48,6.32-20.48h12.52v34.21h-8.07V104.67l-8.61,27.89Z"/><path class="a275edf9-a548-4b2f-ba61-b82ccc3ab7a5" d="M153.68,98.35l10.71,34.21h-8.61l-2.11-7H142.61l-2.14,7h-7l11-34.21Zm-9.15,20.85h7.25l-3.59-12Z"/><path class="a275edf9-a548-4b2f-ba61-b82ccc3ab7a5" d="M191,98.35v6.77h-8.47v27.44h-8.12V105.12h-8.52V98.35Z"/><path class="a275edf9-a548-4b2f-ba61-b82ccc3ab7a5" d="M222.72,104.87H206.43v7h12.81v6.44H206.43v7.47h16.29v6.76H198.28V98.35h24.44Z"/><g class="ab7f36c4-145b-4122-a3b8-971c975a6b2a"><path class="a275edf9-a548-4b2f-ba61-b82ccc3ab7a5" d="M56.83,198.92c11.16-1.08,11.88-2.4,11.88-10.44v-46c0-5.16-.48-6-6.12-6.6l-5.16-.6v-1.8c7.44-1.32,13.44-3.47,17.16-5.88v60.84c0,8,.84,9.36,12,10.44v1.68H56.83Z"/><path class="a275edf9-a548-4b2f-ba61-b82ccc3ab7a5" d="M128.83,143.84c.72-4.8,1.2-10,1.68-14.87H173l.84,1.43c-11.64,23-22,47-32.4,70.56l-7.2,1-.84-1.08a482.19,482.19,0,0,0,34.56-66H142.39c-8.16,0-8.76.84-11.64,9Z"/></g></g></svg>