<svg xmlns="http://www.w3.org/2000/svg" viewBox="0 0 228.33 228.33"><defs><style>.fed5e46b-0ba6-4e0b-a46f-62829315d89a{fill:#cec542;}.efeb66d3-0926-4e0d-b046-0672d6156360{fill:#6d6194;}.f170c540-9ea5-4763-a12b-a47d0b6c9c65{fill:#fff;}.f3cb26b2-8033-4656-9a57-c93bdea659d0{opacity:0.25;}</style></defs><title>工作區域 2 複本 17</title><g id="e2ba5b8f-6bf0-45cb-8f1e-de019121c017" data-name="圖層 3"><rect class="fed5e46b-0ba6-4e0b-a46f-62829315d89a" x="-285.71" y="-1583.27" width="1024" height="2183"/></g><g id="ad779b2f-f4d4-449b-bcff-df67fcdb184a" data-name="圖層 1"><rect class="efeb66d3-0926-4e0d-b046-0672d6156360" x="0.37" y="-0.2" width="228.33" height="228.33"/><path class="fed5e46b-0ba6-4e0b-a46f-62829315d89a" d="M27.69,55.79l-3.39.91a2.82,2.82,0,0,0-3.08-2.14c-1.56,0-2.34.47-2.34,1.42a1.06,1.06,0,0,0,.43.9,5.45,5.45,0,0,0,2.24.57,20.89,20.89,0,0,1,4,.83,4.11,4.11,0,0,1,2.06,1.58,4.76,4.76,0,0,1,.75,2.73,4.89,4.89,0,0,1-1.85,4,7.9,7.9,0,0,1-5.18,1.53q-6,0-7.2-4.67l3.92-.58c.32,1.42,1.49,2.13,3.5,2.13a4.13,4.13,0,0,0,1.95-.42,1.24,1.24,0,0,0,.8-1.12c0-.73-.59-1.16-1.76-1.3q-4.78-.59-6.29-1.83a4.22,4.22,0,0,1-1.51-3.46,4.64,4.64,0,0,1,1.75-3.72,7.42,7.42,0,0,1,4.91-1.47,7.18,7.18,0,0,1,4,1A6.12,6.12,0,0,1,27.69,55.79Z"/><path class="fed5e46b-0ba6-4e0b-a46f-62829315d89a" d="M46.91,52V67.76H42.59V65.07a4.58,4.58,0,0,1-4.65,3,4.8,4.8,0,0,1-2.74-.66,3.75,3.75,0,0,1-1.37-1.82,10.42,10.42,0,0,1-.41-3.32V52h4.52V62.29c0,1.42.58,2.13,1.75,2.13a2.42,2.42,0,0,0,1.54-.51,2.26,2.26,0,0,0,.84-1.09,7.45,7.45,0,0,0,.18-2V52Z"/><path class="fed5e46b-0ba6-4e0b-a46f-62829315d89a" d="M57.8,46v4.65H53.15V46Zm0,6V67.76H53.15V52Z"/><path class="fed5e46b-0ba6-4e0b-a46f-62829315d89a" d="M69.28,55.61v6.67A2.63,2.63,0,0,0,69.66,64a2.46,2.46,0,0,0,1.75.42c.43,0,.92,0,1.48-.06v3.45a20.1,20.1,0,0,1-2.92.35A6.06,6.06,0,0,1,65.85,67c-.82-.75-1.22-2.09-1.22-4V55.61h-2.5V52h2.76l.38-4.66,4-.31v5h3.39v3.63Z"/><path class="fed5e46b-0ba6-4e0b-a46f-62829315d89a" d="M91.73,67.76H87.21A11.69,11.69,0,0,1,87,65.29a6.55,6.55,0,0,1-2.37,2.25,6.34,6.34,0,0,1-2.67.55,5.22,5.22,0,0,1-3.58-1.2A4.11,4.11,0,0,1,77,63.65a5,5,0,0,1,.8-2.73,5.15,5.15,0,0,1,2.55-2,24.21,24.21,0,0,1,6.43-1.06V57a2,2,0,0,0-2.29-2.3A2.4,2.4,0,0,0,81.78,57l-4.3-.41A4.87,4.87,0,0,1,80,52.78a10.1,10.1,0,0,1,4.81-1.13,11.86,11.86,0,0,1,3,.38,5,5,0,0,1,2.22,1.12,4,4,0,0,1,1.08,1.59,10.64,10.64,0,0,1,.28,2.91v7.16A10.78,10.78,0,0,0,91.73,67.76ZM86.79,60.2c-3.25.32-4.87,1.31-4.87,2.95a2.12,2.12,0,0,0,.51,1.43,1.82,1.82,0,0,0,1.47.6,2.57,2.57,0,0,0,2.06-1,3.88,3.88,0,0,0,.83-2.52Z"/><path class="fed5e46b-0ba6-4e0b-a46f-62829315d89a" d="M102.35,46.43V54a4.13,4.13,0,0,1,3.9-2.32,5,5,0,0,1,4.3,2.2,10.15,10.15,0,0,1,1.58,6,10,10,0,0,1-1.62,5.95,5.43,5.43,0,0,1-4.69,2.27,5.32,5.32,0,0,1-2.59-.55,5.92,5.92,0,0,1-2-2.2,7,7,0,0,0-1,2.42H97.69V46.43Zm0,15.08A3.86,3.86,0,0,0,103,64a2.12,2.12,0,0,0,1.67.85,2.28,2.28,0,0,0,1.9-1c.5-.68.75-2,.75-4,0-2.24-.25-3.65-.77-4.22a2.29,2.29,0,0,0-1.76-.86,2.09,2.09,0,0,0-1.81,1,4.76,4.76,0,0,0-.67,2.75Z"/><path class="fed5e46b-0ba6-4e0b-a46f-62829315d89a" d="M117.51,67.76V46.43h4.66V67.76Z"/><path class="fed5e46b-0ba6-4e0b-a46f-62829315d89a" d="M142.57,60.65H132.41c0,.28,0,.53,0,.74a3.35,3.35,0,0,0,.9,2.54,3,3,0,0,0,2.15.86,2.63,2.63,0,0,0,2.79-2.48l4.22.31q-1.77,5.48-7.17,5.47a8,8,0,0,1-4-1,7.48,7.48,0,0,1-2.72-2.75A8.45,8.45,0,0,1,127.49,60,8.56,8.56,0,0,1,129.64,54a7.58,7.58,0,0,1,10.75-.17C141.84,55.23,142.57,57.52,142.57,60.65ZM132.4,58H138c-.15-2.17-1-3.25-2.67-3.25S132.61,55.78,132.4,58Z"/><path class="fed5e46b-0ba6-4e0b-a46f-62829315d89a" d="M163.17,55.61V67.76h-4.53V55.61h-1.83V52h1.83a14.44,14.44,0,0,1,.35-3.55,3.62,3.62,0,0,1,1.65-2,6.49,6.49,0,0,1,3.61-.87,14.91,14.91,0,0,1,2.15.18v3.59c-.67-.05-1.22-.08-1.65-.08a1.4,1.4,0,0,0-1.27.5,3.21,3.21,0,0,0-.31,1.63V52H166v3.63Z"/><path class="fed5e46b-0ba6-4e0b-a46f-62829315d89a" d="M177.26,51.65A7,7,0,0,1,182.89,54a8.74,8.74,0,0,1,2,5.91,8.38,8.38,0,0,1-2.1,5.83,7.13,7.13,0,0,1-5.58,2.34,6.8,6.8,0,0,1-5.39-2.31,8.68,8.68,0,0,1-2-5.94,9.14,9.14,0,0,1,.91-4.27,7.5,7.5,0,0,1,2.51-2.84A7,7,0,0,1,177.26,51.65Zm.13,3.05a2.24,2.24,0,0,0-2,1,8.36,8.36,0,0,0-.67,4.07,9.31,9.31,0,0,0,.64,4,2.12,2.12,0,0,0,2,1.22,2.24,2.24,0,0,0,1.91-1,7.43,7.43,0,0,0,.73-4,9.38,9.38,0,0,0-.64-4.22A2.13,2.13,0,0,0,177.39,54.7Z"/><path class="fed5e46b-0ba6-4e0b-a46f-62829315d89a" d="M194.76,67.76h-4.51V52h4.26v2.94q1-3.29,3.41-3.28c.23,0,.51,0,.84,0v4.6a4.54,4.54,0,0,0-2.21.44,3.2,3.2,0,0,0-1.29,1.57,7.72,7.72,0,0,0-.5,3.05Z"/><path class="f170c540-9ea5-4763-a12b-a47d0b6c9c65" d="M16.57,81.77H24.5q4.86,0,7.23,1.34A12.5,12.5,0,0,1,36,87.36a13.18,13.18,0,0,1,1.89,7.34,13.57,13.57,0,0,1-3.3,9.32,11.45,11.45,0,0,1-9.07,3.74H16.57Zm6,4.78v16.32h2.5A5.5,5.5,0,0,0,30,100.38a10.52,10.52,0,0,0,1.61-5.83,10.37,10.37,0,0,0-.92-4.37,6.12,6.12,0,0,0-2.29-2.82,6.34,6.34,0,0,0-3.29-.81Z"/><path class="f170c540-9ea5-4763-a12b-a47d0b6c9c65" d="M50.91,97.46v10.3H44.78v-26H56.21a14.44,14.44,0,0,1,5.07.73,6.55,6.55,0,0,1,3.17,2.69,7.9,7.9,0,0,1,1.26,4.36,6.92,6.92,0,0,1-4.51,6.72L66,107.76H59.27l-4-10.3Zm0-11.07V93h3.73a10,10,0,0,0,2.66-.25,3,3,0,0,0,1.48-1.15,3.34,3.34,0,0,0,.64-2,3.14,3.14,0,0,0-.64-1.94,2.63,2.63,0,0,0-1.41-1.05,12.72,12.72,0,0,0-2.86-.21Z"/><path class="f170c540-9ea5-4763-a12b-a47d0b6c9c65" d="M91.9,86.72H79.53v5.33h9.73V97H79.53v5.67H91.9v5.14H73.34v-26H91.9Z"/><path class="f170c540-9ea5-4763-a12b-a47d0b6c9c65" d="M116.44,87.48l-5.18,1.73a4.24,4.24,0,0,0-4.42-3.08c-2.41,0-3.61.78-3.61,2.34a2.1,2.1,0,0,0,.67,1.58A6.82,6.82,0,0,0,107,91.18a29.69,29.69,0,0,1,5.81,1.62,7.38,7.38,0,0,1,3.11,2.63,6.94,6.94,0,0,1,1.27,4.07,8.13,8.13,0,0,1-2.71,6.09c-1.81,1.72-4.49,2.57-8,2.57a12.16,12.16,0,0,1-6.8-1.82,8.61,8.61,0,0,1-3.7-5.4l5.63-1.27c.64,2.42,2.4,3.64,5.29,3.64a5,5,0,0,0,3.11-.81,2.4,2.4,0,0,0,1-1.94,2,2,0,0,0-.93-1.77,11.24,11.24,0,0,0-3.6-1.18c-3.31-.69-5.66-1.62-7.07-2.81a6.42,6.42,0,0,1-2.11-5.21,7.71,7.71,0,0,1,2.52-5.84,9.54,9.54,0,0,1,6.84-2.38Q114.26,81.37,116.44,87.48Z"/><path class="f170c540-9ea5-4763-a12b-a47d0b6c9c65" d="M142,87.48l-5.18,1.73a4.25,4.25,0,0,0-4.43-3.08c-2.4,0-3.61.78-3.61,2.34a2.11,2.11,0,0,0,.68,1.58,6.82,6.82,0,0,0,3.05,1.13,29.62,29.62,0,0,1,5.82,1.62,7.38,7.38,0,0,1,3.11,2.63,7,7,0,0,1,1.27,4.07,8.11,8.11,0,0,1-2.72,6.09c-1.8,1.72-4.48,2.57-8,2.57a12.19,12.19,0,0,1-6.81-1.82,8.65,8.65,0,0,1-3.7-5.4l5.64-1.27c.63,2.42,2.4,3.64,5.28,3.64a5,5,0,0,0,3.12-.81,2.43,2.43,0,0,0,1-1.94,2,2,0,0,0-.94-1.77A11.16,11.16,0,0,0,132,97.61c-3.31-.69-5.67-1.62-7.07-2.81a6.42,6.42,0,0,1-2.11-5.21,7.71,7.71,0,0,1,2.52-5.84,9.54,9.54,0,0,1,6.84-2.38Q139.82,81.37,142,87.48Z"/><path class="fed5e46b-0ba6-4e0b-a46f-62829315d89a" d="M20.54,126v4.65H15.88V126Zm0,6v15.78H15.88V132Z"/><path class="fed5e46b-0ba6-4e0b-a46f-62829315d89a" d="M40.48,147.76H35.83V138.9a11.9,11.9,0,0,0-.13-2.2,1.73,1.73,0,0,0-.61-1,1.84,1.84,0,0,0-1.22-.41q-2.44,0-2.45,3.62v8.86H26.76V132h4.33v2.67a6,6,0,0,1,2.13-2.45,4.75,4.75,0,0,1,2.26-.55,5.34,5.34,0,0,1,3.63,1.21q1.37,1.21,1.37,4.76Z"/><path class="f170c540-9ea5-4763-a12b-a47d0b6c9c65" d="M64,142.62H74.32v5.14H57.81v-26H64Z"/><path class="f170c540-9ea5-4763-a12b-a47d0b6c9c65" d="M93.14,121.77l8.14,26H94.74l-1.61-5.35h-8.4l-1.63,5.35H77.76l8.33-26Zm-7,15.84H91.7L89,128.49Z"/><path class="f170c540-9ea5-4763-a12b-a47d0b6c9c65" d="M123.93,121.77l-8.16,15v10.95h-6.08V136.81l-8.17-15h7.06l5,9.84,4.93-9.84Z"/><path class="f170c540-9ea5-4763-a12b-a47d0b6c9c65" d="M147,126.72H134.63v5.33h9.73V137h-9.73v5.67H147v5.14H128.44v-26H147Z"/><path class="f170c540-9ea5-4763-a12b-a47d0b6c9c65" d="M159.72,137.46v10.3h-6.13v-26H165a14.5,14.5,0,0,1,5.08.73,6.55,6.55,0,0,1,3.17,2.69,7.9,7.9,0,0,1,1.26,4.36,6.93,6.93,0,0,1-4.52,6.72l4.8,11.49h-6.73l-4-10.3Zm0-11.07V133h3.73a10,10,0,0,0,2.66-.25,3,3,0,0,0,1.47-1.15,3.28,3.28,0,0,0,.65-2,3.09,3.09,0,0,0-.65-1.94,2.65,2.65,0,0,0-1.4-1.05,12.72,12.72,0,0,0-2.86-.21Z"/><path class="f170c540-9ea5-4763-a12b-a47d0b6c9c65" d="M200.1,127.48l-5.18,1.73a4.24,4.24,0,0,0-4.42-3.08c-2.41,0-3.61.78-3.61,2.34a2.1,2.1,0,0,0,.67,1.58,6.82,6.82,0,0,0,3.05,1.13,29.62,29.62,0,0,1,5.82,1.62,7.38,7.38,0,0,1,3.11,2.63,6.94,6.94,0,0,1,1.27,4.07,8.13,8.13,0,0,1-2.71,6.09c-1.81,1.72-4.49,2.57-8,2.57a12.16,12.16,0,0,1-6.8-1.82,8.57,8.57,0,0,1-3.7-5.4l5.63-1.27c.64,2.42,2.4,3.64,5.29,3.64a5,5,0,0,0,3.11-.81,2.4,2.4,0,0,0,1-1.94,2,2,0,0,0-.93-1.77,11.24,11.24,0,0,0-3.6-1.18c-3.31-.69-5.66-1.62-7.07-2.81a6.42,6.42,0,0,1-2.11-5.21,7.71,7.71,0,0,1,2.52-5.84,9.54,9.54,0,0,1,6.84-2.38Q197.92,121.37,200.1,127.48Z"/><g class="f3cb26b2-8033-4656-9a57-c93bdea659d0"><path class="f170c540-9ea5-4763-a12b-a47d0b6c9c65" d="M93,214c11.16-1.08,11.88-2.4,11.88-10.44v-46c0-5.16-.48-6-6.12-6.6l-5.16-.6v-1.8c7.44-1.32,13.44-3.48,17.16-5.88V203.6c0,8,.84,9.36,12,10.44v1.68H93Z"/><path class="f170c540-9ea5-4763-a12b-a47d0b6c9c65" d="M204.55,159.32a13.71,13.71,0,0,1-3.12,9c-.48,1.08-3.84,3.36-10,7.68,8.88,5,15.84,10,15.84,20.88,0,12.84-12.36,20.16-21.72,20.16-11.28,0-20.76-7.08-20.64-19.2-.12-8.52,5-13.56,16.2-19.56-7.8-3.84-13.44-9.72-13.44-17.28,0-8.52,7.32-18.24,19.2-18.24C197.35,142.76,204.55,150.68,204.55,159.32Zm-3.12,39.24c0-9.12-9.84-15.12-18.24-19.2-7.44,3.72-11.64,10.08-11.64,17.88,0,11.16,6.84,17.16,15.6,17.16C194.35,214.4,201.43,209.6,201.43,198.56Zm-27.84-40.92c0,9.84,7.8,13.32,16.08,17.28,4.92-3.6,8.64-8.28,8.64-15.36,0-10.08-5.52-14-12.24-14C176.47,145.52,173.59,152.24,173.59,157.64Z"/></g></g></svg>