<svg xmlns="http://www.w3.org/2000/svg" viewBox="0 0 228.33 228.33"><defs><style>.b927a6ca-f3d1-48ee-8aa2-ae74d81cef27{fill:#cec542;}.b5141510-bcdd-4b98-b7d2-6f6faac1d58d{fill:#978cbb;}.a37982f0-07c8-4a5b-bf51-4bd5d4789083{opacity:0.25;}.e0ee9631-a980-4b3e-894a-87b66774df69{fill:#fff;}.b19019b6-e2d9-4588-b7ac-63f8bdd68c27{fill:#595757;}</style></defs><title>工作區域 2 複本 18</title><g id="a94627f8-0df2-4dcf-b467-980b1d3d17b0" data-name="圖層 3"><rect class="b927a6ca-f3d1-48ee-8aa2-ae74d81cef27" x="-533.4" y="-1583.27" width="1024" height="2183"/></g><g id="fc2571fd-8ac6-43ce-a3de-51abf10a214c" data-name="圖層 1"><rect class="b5141510-bcdd-4b98-b7d2-6f6faac1d58d" x="0.03" y="-0.2" width="228.33" height="228.33"/><g class="a37982f0-07c8-4a5b-bf51-4bd5d4789083"><path class="e0ee9631-a980-4b3e-894a-87b66774df69" d="M106.67,143.6c11.16-1.08,11.87-2.4,11.87-10.44v-46c0-5.16-.47-6-6.11-6.6l-5.16-.6V78.2c7.44-1.32,13.44-3.48,17.15-5.88v60.84c0,8,.84,9.36,12,10.44v1.68H106.67Z"/><path class="e0ee9631-a980-4b3e-894a-87b66774df69" d="M205.06,115.4a15,15,0,0,1-7.08,1.68c-11.4,0-19.92-8.4-19.92-20.52,0-11.64,8.88-24.24,22.32-24.24s21.84,13.32,21.84,28.56c0,22.08-12,36.48-26.88,42.84-7.32,2.64-12.48,3.48-14.64,3.36l-.36-2.28c16.68-2.76,30-14.52,34.68-34.2ZM184.66,93c0,10.2,6.12,19.2,17,19.2,5.28,0,10.92-2.4,13.56-4.92.12-2,.36-4.32.36-6.84,0-9.24-2.76-25.2-16.44-25.2C188.14,75.2,184.66,86.72,184.66,93Z"/></g><path class="b19019b6-e2d9-4588-b7ac-63f8bdd68c27" d="M7.4,85.41v5.86a3.37,3.37,0,0,1,3.25-1.89,3.88,3.88,0,0,1,2.07.53,3,3,0,0,1,1.22,1.36,6.67,6.67,0,0,1,.35,2.44v7.93H10.74V94.87a10.14,10.14,0,0,0-.09-1.67,1.43,1.43,0,0,0-.44-.76,1.2,1.2,0,0,0-.84-.3,2.09,2.09,0,0,0-1.32.52,2.79,2.79,0,0,0-.65,2.21v6.77H4V85.41Z"/><path class="b19019b6-e2d9-4588-b7ac-63f8bdd68c27" d="M22.58,85.08v3.54H19V85.08Zm0,4.55v12H19v-12Z"/><path class="b19019b6-e2d9-4588-b7ac-63f8bdd68c27" d="M39.33,89.9a5.43,5.43,0,0,0-.94-.11,1.23,1.23,0,0,0-1.38,1,3.25,3.25,0,0,1,1,2.29,3.17,3.17,0,0,1-1.42,2.71,7,7,0,0,1-4.1,1,9.44,9.44,0,0,1-1.85-.18,1,1,0,0,0-.61.92.8.8,0,0,0,.51.82,10.36,10.36,0,0,0,2.46.29,34.6,34.6,0,0,1,3.82.35,3.13,3.13,0,0,1,1.76,1,2.69,2.69,0,0,1,.72,1.92,3.4,3.4,0,0,1-1.53,2.8q-1.53,1.14-5.42,1.14c-2.44,0-4.08-.26-4.93-.79a2.34,2.34,0,0,1-1.27-2c0-1.07.69-1.79,2.06-2.17a2.33,2.33,0,0,1-1.52-2.14c0-1.15.8-2,2.4-2.69a3,3,0,0,1-2.13-2.93,3.19,3.19,0,0,1,1.47-2.72,6.87,6.87,0,0,1,4.06-1.05,10,10,0,0,1,3.18.52,3.31,3.31,0,0,1,.6-1.68,2.55,2.55,0,0,1,2.1-.66,4.65,4.65,0,0,1,1,.1Zm-9.27,11.66a1,1,0,0,0-.54.29.88.88,0,0,0-.33.69c0,.54.35.87,1,1a13.2,13.2,0,0,0,2.42.2,8.33,8.33,0,0,0,2.56-.27c.48-.19.73-.48.73-.88s-.21-.55-.62-.72a12.24,12.24,0,0,0-3.26-.25h-.71a8.13,8.13,0,0,1-.88,0A2.63,2.63,0,0,0,30.06,101.56ZM32.42,91.3a2,2,0,0,0-1.43.49,1.72,1.72,0,0,0-.51,1.3q0,1.83,1.95,1.83a2,2,0,0,0,1.49-.53,1.81,1.81,0,0,0,0-2.55A2,2,0,0,0,32.42,91.3Z"/><path class="b19019b6-e2d9-4588-b7ac-63f8bdd68c27" d="M46.07,85.41v5.86a3.37,3.37,0,0,1,3.24-1.89,3.94,3.94,0,0,1,2.08.53,2.92,2.92,0,0,1,1.21,1.36A6.46,6.46,0,0,1,53,93.71v7.93H49.41V94.87a8.84,8.84,0,0,0-.1-1.67,1.36,1.36,0,0,0-.43-.76,1.23,1.23,0,0,0-.85-.3,2.07,2.07,0,0,0-1.31.52c-.44.34-.65,1.08-.65,2.21v6.77H42.63V85.41Z"/><path class="b19019b6-e2d9-4588-b7ac-63f8bdd68c27" d="M14.41,131.64H10.86V124.9a10.2,10.2,0,0,0-.09-1.68,1.4,1.4,0,0,0-1.4-1.08q-1.86,0-1.86,2.76v6.74H4v-12h3.3v2a4.55,4.55,0,0,1,1.61-1.87,3.69,3.69,0,0,1,1.73-.42,4.05,4.05,0,0,1,2.76.92q1.05.93,1.05,3.63Z"/><path class="b19019b6-e2d9-4588-b7ac-63f8bdd68c27" d="M29.42,119.63v12H26.14v-2a3.48,3.48,0,0,1-3.54,2.29,3.63,3.63,0,0,1-2.09-.5,2.83,2.83,0,0,1-1-1.38,7.86,7.86,0,0,1-.31-2.53v-7.85H22.6v7.85c0,1.08.44,1.62,1.33,1.62a1.88,1.88,0,0,0,1.18-.39,1.69,1.69,0,0,0,.63-.82,5.8,5.8,0,0,0,.14-1.51v-6.75Z"/><path class="b19019b6-e2d9-4588-b7ac-63f8bdd68c27" d="M51.34,131.64H47.8V125a11.26,11.26,0,0,0-.09-1.83,1.13,1.13,0,0,0-.43-.7,1.51,1.51,0,0,0-1-.28,2.14,2.14,0,0,0-1.19.41c-.4.28-.61,1.08-.61,2.4v6.64H41V125a8.65,8.65,0,0,0-.13-1.87,1.3,1.3,0,0,0-.5-.68,1.56,1.56,0,0,0-.92-.26,1.6,1.6,0,0,0-1.36.58,3.84,3.84,0,0,0-.45,2.23v6.64H34.18v-12h3.33v1.83a3.3,3.3,0,0,1,3.38-2.08,3.46,3.46,0,0,1,3.32,2.08,3.57,3.57,0,0,1,3.49-2.08,4,4,0,0,1,2,.49A2.81,2.81,0,0,1,51,121.14a6.92,6.92,0,0,1,.37,2.7Z"/><path class="b19019b6-e2d9-4588-b7ac-63f8bdd68c27" d="M59.63,115.41v5.73a3.15,3.15,0,0,1,3-1.76,3.82,3.82,0,0,1,3.27,1.67,7.77,7.77,0,0,1,1.2,4.59,7.64,7.64,0,0,1-1.23,4.53,4.13,4.13,0,0,1-3.57,1.72,4,4,0,0,1-2-.41,4.65,4.65,0,0,1-1.54-1.68,5.74,5.74,0,0,0-.79,1.84H56.08V115.41Zm0,11.48a2.89,2.89,0,0,0,.53,1.9,1.57,1.57,0,0,0,1.26.64,1.72,1.72,0,0,0,1.45-.78,5.52,5.52,0,0,0,.57-3c0-1.71-.19-2.78-.58-3.22a1.79,1.79,0,0,0-1.34-.65,1.6,1.6,0,0,0-1.38.74,3.65,3.65,0,0,0-.51,2.09Z"/><path class="b19019b6-e2d9-4588-b7ac-63f8bdd68c27" d="M82,126.23H74.23c0,.22,0,.4,0,.56a2.55,2.55,0,0,0,.68,1.94,2.28,2.28,0,0,0,1.64.66,2,2,0,0,0,2.12-1.9l3.22.24c-.9,2.78-2.72,4.16-5.46,4.16a6.12,6.12,0,0,1-3-.71,5.64,5.64,0,0,1-2.07-2.1,6.35,6.35,0,0,1-.82-3.31,6.55,6.55,0,0,1,1.64-4.63A5.77,5.77,0,0,1,80.3,121Q82,122.66,82,126.23Zm-7.74-2h4.27c-.12-1.65-.79-2.48-2-2.48S74.37,122.53,74.22,124.18Z"/><path class="b19019b6-e2d9-4588-b7ac-63f8bdd68c27" d="M89.46,131.64H86v-12h3.25v2.24c.5-1.67,1.36-2.5,2.59-2.5a5.33,5.33,0,0,1,.64,0v3.49a3.4,3.4,0,0,0-1.68.34,2.39,2.39,0,0,0-1,1.19,6,6,0,0,0-.38,2.33Z"/><path class="b19019b6-e2d9-4588-b7ac-63f8bdd68c27" d="M109.2,119.38a5.32,5.32,0,0,1,4.28,1.8,6.64,6.64,0,0,1,1.54,4.49,6.4,6.4,0,0,1-1.6,4.45,5.43,5.43,0,0,1-4.24,1.77,5.18,5.18,0,0,1-4.11-1.76,6.64,6.64,0,0,1-1.54-4.52,6.91,6.91,0,0,1,.7-3.25,5.84,5.84,0,0,1,1.9-2.16A5.42,5.42,0,0,1,109.2,119.38Zm.1,2.32a1.69,1.69,0,0,0-1.52.78,6.3,6.3,0,0,0-.51,3.1,7.12,7.12,0,0,0,.48,3.06,1.62,1.62,0,0,0,1.52.92,1.7,1.7,0,0,0,1.46-.79,5.64,5.64,0,0,0,.56-3,7.2,7.2,0,0,0-.49-3.21A1.62,1.62,0,0,0,109.3,121.7Z"/><path class="b19019b6-e2d9-4588-b7ac-63f8bdd68c27" d="M122.79,122.39v9.25h-3.45v-9.25h-1.4v-2.76h1.4a11.09,11.09,0,0,1,.26-2.7,2.8,2.8,0,0,1,1.26-1.52,5,5,0,0,1,2.75-.66,11.7,11.7,0,0,1,1.64.14v2.73q-.77-.06-1.26-.06a1.07,1.07,0,0,0-1,.38,2.45,2.45,0,0,0-.23,1.24v.45H125v2.76Z"/><path class="e0ee9631-a980-4b3e-894a-87b66774df69" d="M18.25,148H9v4h7.24v3.64H9v4.22h9.21v3.82H4.44V144.32H18.25Z"/><path class="e0ee9631-a980-4b3e-894a-87b66774df69" d="M32.64,144.32l6,19.32H33.82l-1.19-4H26.38l-1.21,4h-4l6.19-19.32ZM27.47,156.1h4.09l-2-6.79Z"/><path class="e0ee9631-a980-4b3e-894a-87b66774df69" d="M47.5,156v7.66H42.94V144.32h8.5a10.83,10.83,0,0,1,3.77.54,4.82,4.82,0,0,1,2.36,2,5.94,5.94,0,0,1,.93,3.24,5.14,5.14,0,0,1-3.35,5l3.57,8.54h-5l-3-7.66Zm0-8.22v4.92h2.78a7.2,7.2,0,0,0,2-.19,2.14,2.14,0,0,0,1.1-.85,2.46,2.46,0,0,0,.48-1.5,2.36,2.36,0,0,0-.48-1.45,2,2,0,0,0-1.05-.78,9.78,9.78,0,0,0-2.12-.15Z"/><path class="e0ee9631-a980-4b3e-894a-87b66774df69" d="M76.43,144.32v3.82H71.64v15.5H67.05v-15.5H62.24v-3.82Z"/><path class="e0ee9631-a980-4b3e-894a-87b66774df69" d="M95.47,144.32v19.32H91v-8H85v8H80.54V144.32H85v7.53h6v-7.53Z"/><path class="e0ee9631-a980-4b3e-894a-87b66774df69" d="M116.57,167.45a6.87,6.87,0,0,1-1.61.19c-1.73,0-2.88-.37-3.47-1.11a5,5,0,0,1-1-2.8,17.7,17.7,0,0,1-1.83.13,7,7,0,0,1-5.85-2.87,11.22,11.22,0,0,1-2.19-7,11.7,11.7,0,0,1,2.11-7,8,8,0,0,1,12.39,0,11.7,11.7,0,0,1,2.12,7.06,11.32,11.32,0,0,1-1.21,5.51,7.76,7.76,0,0,1-2.85,3.15c0,1,.57,1.49,1.7,1.49.33,0,.9,0,1.71-.14Zm-7.66-19.73q-3.57,0-3.57,6.25c0,4.19,1.19,6.29,3.55,6.29s3.59-2.07,3.59-6.2S111.29,147.72,108.91,147.72Z"/><path class="e0ee9631-a980-4b3e-894a-87b66774df69" d="M137.59,144.32v12a10.82,10.82,0,0,1-.66,4.34,5.11,5.11,0,0,1-2.46,2.34,12.2,12.2,0,0,1-9,.09,5.55,5.55,0,0,1-2.47-2.34,9.46,9.46,0,0,1-.82-4.43v-12h4.91v12a7.19,7.19,0,0,0,.27,2.3,2.09,2.09,0,0,0,1,1.16,4,4,0,0,0,1.94.44,4.42,4.42,0,0,0,2.07-.43,2.12,2.12,0,0,0,1.06-1.12,7.22,7.22,0,0,0,.27-2.35v-12Z"/><path class="e0ee9631-a980-4b3e-894a-87b66774df69" d="M152.43,144.32l6,19.32h-4.87l-1.19-4h-6.25l-1.21,4h-4l6.19-19.32Zm-5.17,11.78h4.09l-2-6.79Z"/><path class="e0ee9631-a980-4b3e-894a-87b66774df69" d="M167.18,144.32v9.08l6.06-9.08h4.33l-4.64,6.9,5.8,12.42h-5l-3.86-8.39-2.71,4v4.43h-4.45V144.32Z"/><path class="e0ee9631-a980-4b3e-894a-87b66774df69" d="M197,148h-9.2v4H195v3.64h-7.24v4.22H197v3.82h-13.8V144.32H197Z"/><path class="e0ee9631-a980-4b3e-894a-87b66774df69" d="M215.24,148.56l-3.85,1.29a3.16,3.16,0,0,0-3.29-2.29c-1.79,0-2.69.58-2.69,1.74a1.58,1.58,0,0,0,.51,1.18,5,5,0,0,0,2.27.83,22.1,22.1,0,0,1,4.32,1.21,5.42,5.42,0,0,1,2.31,2,5.15,5.15,0,0,1,.94,3,6,6,0,0,1-2,4.53c-1.34,1.28-3.34,1.91-6,1.91a9.14,9.14,0,0,1-5.06-1.35,6.45,6.45,0,0,1-2.75-4l4.19-1q.71,2.7,3.93,2.7a3.72,3.72,0,0,0,2.32-.6,1.78,1.78,0,0,0,.76-1.44,1.52,1.52,0,0,0-.69-1.32,8.3,8.3,0,0,0-2.67-.87,12.17,12.17,0,0,1-5.26-2.09,4.77,4.77,0,0,1-1.57-3.87,5.74,5.74,0,0,1,1.87-4.35,7.12,7.12,0,0,1,5.09-1.77Q213.62,144,215.24,148.56Z"/><path class="b19019b6-e2d9-4588-b7ac-63f8bdd68c27" d="M17.93,186.81a13.58,13.58,0,0,1-2.64-7.89A13.13,13.13,0,0,1,18,171h2A15.65,15.65,0,0,0,20,186.81Z"/><path class="b19019b6-e2d9-4588-b7ac-63f8bdd68c27" d="M25.91,176.42v7.22H23.22v-7.22H22.13v-2.16h1.09a8.62,8.62,0,0,1,.21-2.12,2.15,2.15,0,0,1,1-1.17,3.84,3.84,0,0,1,2.15-.52,9,9,0,0,1,1.28.1v2.14c-.4,0-.73-.05-1-.05a.82.82,0,0,0-.75.3,1.94,1.94,0,0,0-.19,1v.35h1.71v2.16Z"/><path class="b19019b6-e2d9-4588-b7ac-63f8bdd68c27" d="M33.22,183.64H30.54v-9.38h2.54V176c.39-1.3,1.06-1.95,2-1.95a4.71,4.71,0,0,1,.5,0v2.73a2.76,2.76,0,0,0-1.31.26,2,2,0,0,0-.77.94,4.54,4.54,0,0,0-.3,1.82Z"/><path class="b19019b6-e2d9-4588-b7ac-63f8bdd68c27" d="M47,179.42H41c0,.16,0,.31,0,.43a2,2,0,0,0,.54,1.52,1.77,1.77,0,0,0,1.27.51,1.58,1.58,0,0,0,1.67-1.48l2.51.19a4.18,4.18,0,0,1-4.27,3.25,4.76,4.76,0,0,1-2.38-.56,4.4,4.4,0,0,1-1.62-1.64,5,5,0,0,1-.64-2.59,5.11,5.11,0,0,1,1.28-3.61,4.52,4.52,0,0,1,6.4-.1A5.55,5.55,0,0,1,47,179.42Zm-6-1.61h3.34c-.09-1.29-.62-1.93-1.59-1.93S41.08,176.52,41,177.81Z"/><path class="b19019b6-e2d9-4588-b7ac-63f8bdd68c27" d="M58.37,174.26a8.63,8.63,0,0,0-.13,1.29v11.26H55.55v-4.14a2.66,2.66,0,0,1-2.23,1.17,3.15,3.15,0,0,1-2.7-1.3,5.92,5.92,0,0,1-1-3.58,5.7,5.7,0,0,1,1-3.59,3.41,3.41,0,0,1,2.84-1.31,2.85,2.85,0,0,1,2.65,1.49,5.08,5.08,0,0,0,.7-1.29Zm-2.82,3.63a2.23,2.23,0,0,0-.42-1.43,1.24,1.24,0,0,0-1-.52,1.42,1.42,0,0,0-1.09.53,4.46,4.46,0,0,0-.46,2.53,4.5,4.5,0,0,0,.4,2.31,1.2,1.2,0,0,0,1.05.6,1.31,1.31,0,0,0,1.06-.6,2.46,2.46,0,0,0,.46-1.53Z"/><path class="b19019b6-e2d9-4588-b7ac-63f8bdd68c27" d="M70,174.26v9.38H67.41v-1.59a2.73,2.73,0,0,1-2.77,1.79,2.78,2.78,0,0,1-1.63-.4,2.24,2.24,0,0,1-.81-1.07,6.27,6.27,0,0,1-.25-2v-6.13h2.69v6.13c0,.84.35,1.27,1,1.27a1.42,1.42,0,0,0,.92-.31,1.33,1.33,0,0,0,.5-.64,4.49,4.49,0,0,0,.11-1.18v-5.27Z"/><path class="b19019b6-e2d9-4588-b7ac-63f8bdd68c27" d="M82.12,179.42h-6c0,.16,0,.31,0,.43a2,2,0,0,0,.53,1.52,1.79,1.79,0,0,0,1.28.51,1.57,1.57,0,0,0,1.66-1.48l2.51.19a4.17,4.17,0,0,1-4.26,3.25,4.8,4.8,0,0,1-2.39-.56,4.45,4.45,0,0,1-1.61-1.64,5,5,0,0,1-.64-2.59,5.11,5.11,0,0,1,1.28-3.61,4.5,4.5,0,0,1,6.39-.1A5.55,5.55,0,0,1,82.12,179.42Zm-6.05-1.61H79.4c-.08-1.29-.61-1.93-1.59-1.93S76.19,176.52,76.07,177.81Z"/><path class="b19019b6-e2d9-4588-b7ac-63f8bdd68c27" d="M93.45,183.64H90.68v-5.26a7.57,7.57,0,0,0-.07-1.31,1,1,0,0,0-.37-.6,1,1,0,0,0-.72-.25c-1,0-1.46.72-1.46,2.16v5.26H85.29v-9.38h2.57v1.59a3.57,3.57,0,0,1,1.27-1.46,2.81,2.81,0,0,1,1.35-.33,3.12,3.12,0,0,1,2.15.72,3.73,3.73,0,0,1,.82,2.83Z"/><path class="b19019b6-e2d9-4588-b7ac-63f8bdd68c27" d="M100.29,176.42v4a1.58,1.58,0,0,0,.22,1,1.49,1.49,0,0,0,1,.25c.26,0,.55,0,.88,0v2a11.44,11.44,0,0,1-1.74.21,3.56,3.56,0,0,1-2.45-.67,3.19,3.19,0,0,1-.72-2.4v-4.36H96v-2.16h1.64l.23-2.77,2.39-.19v3h2v2.16Z"/><path class="b19019b6-e2d9-4588-b7ac-63f8bdd68c27" d="M114.23,170.7v2.77h-2.77V170.7Zm0,3.56v9.38h-2.77v-9.38Z"/><path class="b19019b6-e2d9-4588-b7ac-63f8bdd68c27" d="M126.1,183.64h-2.77v-5.26a7.27,7.27,0,0,0-.08-1.31,1.07,1.07,0,0,0-1.08-.85c-1,0-1.46.72-1.46,2.16v5.26h-2.77v-9.38h2.57v1.59a3.57,3.57,0,0,1,1.27-1.46,2.8,2.8,0,0,1,1.34-.33,3.15,3.15,0,0,1,2.16.72,3.73,3.73,0,0,1,.82,2.83Z"/><path class="b19019b6-e2d9-4588-b7ac-63f8bdd68c27" d="M139.12,176.42v4a1.58,1.58,0,0,0,.22,1,1.52,1.52,0,0,0,1,.25c.25,0,.54,0,.87,0v2a11.49,11.49,0,0,1-1.73.21,3.58,3.58,0,0,1-2.46-.67,3.19,3.19,0,0,1-.72-2.4v-4.36h-1.49v-2.16h1.65l.22-2.77,2.39-.19v3h2v2.16Z"/><path class="b19019b6-e2d9-4588-b7ac-63f8bdd68c27" d="M146.8,171v4.58a2.64,2.64,0,0,1,2.54-1.48,3,3,0,0,1,1.62.42,2.3,2.3,0,0,1,.95,1.06,5.23,5.23,0,0,1,.27,1.91v6.19h-2.77v-5.29a7.51,7.51,0,0,0-.07-1.3,1.1,1.1,0,0,0-.34-.59,1,1,0,0,0-.66-.24,1.6,1.6,0,0,0-1,.41,2.15,2.15,0,0,0-.51,1.72v5.29h-2.69V171Z"/><path class="b19019b6-e2d9-4588-b7ac-63f8bdd68c27" d="M164.32,179.42h-6c0,.16,0,.31,0,.43a2,2,0,0,0,.54,1.52,1.77,1.77,0,0,0,1.27.51,1.58,1.58,0,0,0,1.67-1.48l2.51.19a4.18,4.18,0,0,1-4.27,3.25,4.76,4.76,0,0,1-2.38-.56,4.4,4.4,0,0,1-1.62-1.64,5,5,0,0,1-.64-2.59,5.11,5.11,0,0,1,1.28-3.61,4.52,4.52,0,0,1,6.4-.1A5.55,5.55,0,0,1,164.32,179.42Zm-6-1.61h3.34c-.09-1.29-.62-1.93-1.59-1.93S158.4,176.52,158.27,177.81Z"/><path class="b19019b6-e2d9-4588-b7ac-63f8bdd68c27" d="M182.87,173.38h-6V176h4.75v2.39h-4.75v2.77h6v2.5h-9.06V171h9.06Z"/><path class="b19019b6-e2d9-4588-b7ac-63f8bdd68c27" d="M194.14,183.64h-2.69a7.08,7.08,0,0,1-.13-1.46,3.89,3.89,0,0,1-1.4,1.33,3.71,3.71,0,0,1-1.59.33,3.09,3.09,0,0,1-2.13-.72,2.41,2.41,0,0,1-.81-1.92,3,3,0,0,1,.47-1.63,3.08,3.08,0,0,1,1.52-1.16,14.72,14.72,0,0,1,3.82-.63v-.54a1.2,1.2,0,0,0-1.36-1.36,1.43,1.43,0,0,0-1.62,1.36l-2.56-.24a2.92,2.92,0,0,1,1.52-2.27,6.09,6.09,0,0,1,2.86-.67,6.93,6.93,0,0,1,1.8.23,2.93,2.93,0,0,1,1.32.67,2.23,2.23,0,0,1,.64.94,5.8,5.8,0,0,1,.17,1.73v4.26A6.43,6.43,0,0,0,194.14,183.64Zm-2.94-4.49c-1.93.19-2.9.78-2.9,1.75a1.27,1.27,0,0,0,.31.85,1.07,1.07,0,0,0,.87.36,1.51,1.51,0,0,0,1.23-.61,2.28,2.28,0,0,0,.49-1.5Z"/><path class="b19019b6-e2d9-4588-b7ac-63f8bdd68c27" d="M204.71,176.53l-2,.54a1.68,1.68,0,0,0-1.83-1.28c-.93,0-1.39.29-1.39.85a.67.67,0,0,0,.26.54,3.39,3.39,0,0,0,1.33.33,12.79,12.79,0,0,1,2.38.49,2.48,2.48,0,0,1,1.22.94,2.84,2.84,0,0,1,.45,1.63,2.93,2.93,0,0,1-1.1,2.36,4.68,4.68,0,0,1-3.08.91q-3.59,0-4.28-2.78l2.33-.34c.19.84.88,1.26,2.08,1.26a2.43,2.43,0,0,0,1.16-.25.72.72,0,0,0,.47-.66c0-.44-.35-.69-1.05-.77a8.12,8.12,0,0,1-3.74-1.09,2.54,2.54,0,0,1-.89-2.06,2.74,2.74,0,0,1,1-2.21,4.41,4.41,0,0,1,2.92-.88,4.24,4.24,0,0,1,2.37.59A3.61,3.61,0,0,1,204.71,176.53Z"/><path class="b19019b6-e2d9-4588-b7ac-63f8bdd68c27" d="M211.39,176.42v4a1.58,1.58,0,0,0,.22,1,1.52,1.52,0,0,0,1,.25c.25,0,.54,0,.88,0v2a11.72,11.72,0,0,1-1.74.21,3.58,3.58,0,0,1-2.46-.67,3.19,3.19,0,0,1-.72-2.4v-4.36h-1.49v-2.16h1.65l.22-2.77,2.39-.19v3h2v2.16Z"/><path class="b19019b6-e2d9-4588-b7ac-63f8bdd68c27" d="M217.75,171a13.58,13.58,0,0,1,2.66,7.89,13,13,0,0,1-2.71,8h-2a14.9,14.9,0,0,0,2.17-7.9,15.12,15.12,0,0,0-2.13-7.95Z"/></g></svg>