<svg xmlns="http://www.w3.org/2000/svg" viewBox="0 0 228.33 228.33"><defs><style>.aaf8cbe6-8a5f-4cad-ab4d-080ac54c71fb{fill:#cec542;}.a7a295dc-8193-4899-8904-6cc6547f0a56{fill:#26453d;}.e4ee1e50-2063-4415-a373-cc5bfbfad467{fill:#fff;}.ad483c6d-1e9b-473c-8d29-d9fa59ecb5ae{opacity:0.25;}</style></defs><title>工作區域 2 複本 19</title><g id="adad6896-f465-41e5-b9db-3ca169fb09d1" data-name="圖層 3"><rect class="aaf8cbe6-8a5f-4cad-ab4d-080ac54c71fb" x="-783.69" y="-1583.27" width="1024" height="2183"/></g><g id="ef77f4c0-f7af-4513-a58a-830fabfead11" data-name="圖層 1"><rect class="a7a295dc-8193-4899-8904-6cc6547f0a56" x="-6.29" y="-6.27" width="240.46" height="240.46"/><path class="e4ee1e50-2063-4415-a373-cc5bfbfad467" d="M28,59.35l-4.9.3q-.11-4.23-3.31-4.23c-2.44,0-3.67,2.17-3.67,6.52,0,2.51.34,4.21,1,5.1a3.27,3.27,0,0,0,2.79,1.34q2.91,0,3.55-3.78l4.54.28a8,8,0,0,1-2.67,5.46,8.22,8.22,0,0,1-5.47,1.87,8.31,8.31,0,0,1-6.45-2.74c-1.66-1.83-2.49-4.35-2.49-7.58a11.17,11.17,0,0,1,2.41-7.41,8.08,8.08,0,0,1,6.56-2.88Q27.08,51.6,28,59.35Z"/><path class="e4ee1e50-2063-4415-a373-cc5bfbfad467" d="M40.44,72.21a7.26,7.26,0,0,1-6.24-3A12.1,12.1,0,0,1,32,61.84a11.64,11.64,0,0,1,2.24-7.31,7.53,7.53,0,0,1,6.38-2.93,7.14,7.14,0,0,1,6.31,3.12,12.42,12.42,0,0,1,2.13,7.16,12.08,12.08,0,0,1-2.19,7.34A7.48,7.48,0,0,1,40.44,72.21Zm.14-16.79q-3.69,0-3.69,6.47t3.69,6.49c2.37,0,3.56-2.15,3.56-6.47S43,55.42,40.58,55.42Z"/><path class="e4ee1e50-2063-4415-a373-cc5bfbfad467" d="M69.74,51.9v20h-4L57.92,58.39c0,.35,0,.57,0,.68a7.61,7.61,0,0,1,.06.86v12H54.36v-20h5l6.8,11.8c-.06-.59-.08-1-.08-1.34V51.9Z"/><path class="e4ee1e50-2063-4415-a373-cc5bfbfad467" d="M90.88,51.9l-6,20h-5l-6-20h5l4,14.3L87,51.9Z"/><path class="e4ee1e50-2063-4415-a373-cc5bfbfad467" d="M109.21,55.71H99.69v4.1h7.48v3.77H99.69v4.36h9.52v4H94.93v-20h14.28Z"/><path class="e4ee1e50-2063-4415-a373-cc5bfbfad467" d="M129.65,51.9v20h-4l-7.83-13.51c0,.35,0,.57,0,.68a7.61,7.61,0,0,1,.06.86v12h-3.65v-20h5l6.8,11.8c-.06-.59-.09-1-.09-1.34V51.9Z"/><path class="e4ee1e50-2063-4415-a373-cc5bfbfad467" d="M140.59,51.9v20h-4.67v-20Z"/><path class="e4ee1e50-2063-4415-a373-cc5bfbfad467" d="M161.14,55.71h-9.53v4.1h7.49v3.77h-7.49v4.36h9.53v4H146.85v-20h14.29Z"/><path class="e4ee1e50-2063-4415-a373-cc5bfbfad467" d="M181.58,51.9v20h-4l-7.82-13.51c0,.35,0,.57,0,.68a7.61,7.61,0,0,1,.06.86v12H166.2v-20h5.05l6.8,11.8c-.06-.59-.09-1-.09-1.34V51.9Z"/><path class="e4ee1e50-2063-4415-a373-cc5bfbfad467" d="M204,59.35l-4.91.3q-.1-4.23-3.3-4.23-3.67,0-3.67,6.52,0,3.77,1,5.1a3.25,3.25,0,0,0,2.79,1.34c1.93,0,3.12-1.26,3.55-3.78l4.54.28a8,8,0,0,1-2.67,5.46,8.23,8.23,0,0,1-5.47,1.87,8.34,8.34,0,0,1-6.46-2.74,10.9,10.9,0,0,1-2.48-7.58,11.22,11.22,0,0,1,2.4-7.41,8.1,8.1,0,0,1,6.57-2.88Q203.06,51.6,204,59.35Z"/><path class="e4ee1e50-2063-4415-a373-cc5bfbfad467" d="M223.2,55.71h-9.52v4.1h7.48v3.77h-7.48v4.36h9.52v4H208.92v-20H223.2Z"/><path class="e4ee1e50-2063-4415-a373-cc5bfbfad467" d="M122.93,92.23l-4,1.34a3.26,3.26,0,0,0-3.4-2.38c-1.85,0-2.78.6-2.78,1.81a1.64,1.64,0,0,0,.52,1.21,5.32,5.32,0,0,0,2.35.87,23.35,23.35,0,0,1,4.48,1.24,5.79,5.79,0,0,1,2.39,2,5.35,5.35,0,0,1,1,3.13,6.22,6.22,0,0,1-2.08,4.68c-1.39,1.32-3.46,2-6.19,2a9.35,9.35,0,0,1-5.23-1.4,6.63,6.63,0,0,1-2.85-4.15l4.34-1c.49,1.86,1.84,2.8,4.06,2.8a3.78,3.78,0,0,0,2.4-.63,1.83,1.83,0,0,0,.79-1.48,1.57,1.57,0,0,0-.72-1.37,8.6,8.6,0,0,0-2.76-.9,12.48,12.48,0,0,1-5.44-2.17,4.91,4.91,0,0,1-1.63-4,6,6,0,0,1,1.94-4.5,7.37,7.37,0,0,1,5.26-1.83Q121.26,87.53,122.93,92.23Z"/><path class="e4ee1e50-2063-4415-a373-cc5bfbfad467" d="M141.6,87.84v4h-4.95v16H131.9v-16h-5v-4Z"/><path class="e4ee1e50-2063-4415-a373-cc5bfbfad467" d="M153.36,108.14a7.29,7.29,0,0,1-6.25-3,12.15,12.15,0,0,1-2.21-7.34,11.7,11.7,0,0,1,2.24-7.31,7.58,7.58,0,0,1,6.39-2.93,7.12,7.12,0,0,1,6.31,3.13A12.39,12.39,0,0,1,162,97.81a12.06,12.06,0,0,1-2.19,7.34A7.46,7.46,0,0,1,153.36,108.14Zm.14-16.79q-3.69,0-3.69,6.48t3.69,6.49q3.56,0,3.56-6.48C157.06,93.52,155.87,91.35,153.5,91.35Z"/><path class="e4ee1e50-2063-4415-a373-cc5bfbfad467" d="M172,99.91v7.92h-4.72v-20h8.79a11.27,11.27,0,0,1,3.9.56,5,5,0,0,1,2.44,2.07,6.08,6.08,0,0,1,1,3.36A5.32,5.32,0,0,1,179.91,99l3.69,8.84h-5.18l-3.07-7.92Zm0-8.51v5.1h2.87a7.55,7.55,0,0,0,2-.2,2.25,2.25,0,0,0,1.14-.88,2.57,2.57,0,0,0,.5-1.56,2.41,2.41,0,0,0-.5-1.49,2,2,0,0,0-1.09-.82,10.44,10.44,0,0,0-2.19-.15Z"/><path class="e4ee1e50-2063-4415-a373-cc5bfbfad467" d="M203.53,91.65H194v4.1h7.48v3.76H194v4.37h9.52v4H189.25v-20h14.28Z"/><path class="e4ee1e50-2063-4415-a373-cc5bfbfad467" d="M222.41,92.23l-4,1.34a3.26,3.26,0,0,0-3.4-2.38c-1.85,0-2.78.6-2.78,1.81a1.6,1.6,0,0,0,.52,1.21,5.32,5.32,0,0,0,2.35.87,23,23,0,0,1,4.47,1.24,5.75,5.75,0,0,1,2.4,2,5.42,5.42,0,0,1,1,3.13,6.23,6.23,0,0,1-2.09,4.68q-2.09,2-6.18,2a9.35,9.35,0,0,1-5.23-1.4,6.63,6.63,0,0,1-2.85-4.15l4.34-1c.48,1.86,1.84,2.8,4.06,2.8a3.82,3.82,0,0,0,2.4-.63,1.85,1.85,0,0,0,.79-1.48,1.57,1.57,0,0,0-.72-1.37,8.69,8.69,0,0,0-2.76-.9,12.48,12.48,0,0,1-5.44-2.17,4.91,4.91,0,0,1-1.63-4,6,6,0,0,1,1.94-4.5,7.35,7.35,0,0,1,5.26-1.83Q220.72,87.53,222.41,92.23Z"/><path class="aaf8cbe6-8a5f-4cad-ab4d-080ac54c71fb" d="M131.48,141.12v-17h3.45V126a3.37,3.37,0,0,1,3.34-2.13,4.11,4.11,0,0,1,3.38,1.66,7.62,7.62,0,0,1,1.31,4.81,8.07,8.07,0,0,1-1.33,5,4.15,4.15,0,0,1-3.45,1.71,3.22,3.22,0,0,1-3.06-1.67v5.69Zm3.64-9.84a7.1,7.1,0,0,0,.16,1.86,1.92,1.92,0,0,0,.69.92,1.83,1.83,0,0,0,1.14.41,1.7,1.7,0,0,0,1.37-.79c.41-.52.61-1.67.61-3.46,0-2.5-.66-3.76-2-3.76a1.82,1.82,0,0,0-1.37.67,3.31,3.31,0,0,0-.61,2.26Z"/><path class="aaf8cbe6-8a5f-4cad-ab4d-080ac54c71fb" d="M150.94,136.83H147.3V124.14h3.44v2.36c.52-1.76,1.44-2.64,2.74-2.64a6.21,6.21,0,0,1,.68,0v3.69a3.61,3.61,0,0,0-1.78.36,2.49,2.49,0,0,0-1,1.26,6.19,6.19,0,0,0-.4,2.46Z"/><path class="aaf8cbe6-8a5f-4cad-ab4d-080ac54c71fb" d="M163.44,123.87a5.64,5.64,0,0,1,4.52,1.9,7,7,0,0,1,1.63,4.75,6.75,6.75,0,0,1-1.69,4.7,5.75,5.75,0,0,1-4.49,1.88,5.47,5.47,0,0,1-4.34-1.86,7,7,0,0,1-1.63-4.78,7.41,7.41,0,0,1,.74-3.44,6.16,6.16,0,0,1,2-2.28A5.68,5.68,0,0,1,163.44,123.87Zm.1,2.45a1.79,1.79,0,0,0-1.61.83,6.65,6.65,0,0,0-.54,3.27,7.28,7.28,0,0,0,.52,3.23,1.67,1.67,0,0,0,1.6,1,1.78,1.78,0,0,0,1.54-.83,6,6,0,0,0,.59-3.19,7.42,7.42,0,0,0-.52-3.39A1.71,1.71,0,0,0,163.54,126.32Z"/><path class="aaf8cbe6-8a5f-4cad-ab4d-080ac54c71fb" d="M183.65,124.14l-4.35,12.69h-2.91L172,124.14h3.9l2.44,8,2.51-8Z"/><path class="aaf8cbe6-8a5f-4cad-ab4d-080ac54c71fb" d="M191,119.32v3.75H187.2v-3.75Zm0,4.82v12.69H187.2V124.14Z"/><path class="aaf8cbe6-8a5f-4cad-ab4d-080ac54c71fb" d="M206.76,119.67v17.16H203.3v-2a3.89,3.89,0,0,1-3.5,2.25,3.85,3.85,0,0,1-3.32-1.72,8.12,8.12,0,0,1-1.21-4.76,8.77,8.77,0,0,1,1.21-5,4,4,0,0,1,3.52-1.79,3.58,3.58,0,0,1,3.13,1.6v-5.8Zm-3.63,9.78c0-2-.61-3-1.82-3q-2.17,0-2.17,4.23c0,2.5.68,3.76,2,3.76a1.78,1.78,0,0,0,1.37-.68,2.9,2.9,0,0,0,.59-1.94Z"/><path class="aaf8cbe6-8a5f-4cad-ab4d-080ac54c71fb" d="M223.19,131.11H215c0,.23,0,.43,0,.6a2.7,2.7,0,0,0,.72,2,2.4,2.4,0,0,0,1.73.7,2.13,2.13,0,0,0,2.25-2l3.4.25q-1.42,4.4-5.77,4.4a6.38,6.38,0,0,1-3.23-.76,6,6,0,0,1-2.18-2.22,6.71,6.71,0,0,1-.87-3.5,6.91,6.91,0,0,1,1.73-4.89,6.11,6.11,0,0,1,8.65-.13Q223.19,127.33,223.19,131.11ZM215,128.94h4.51c-.11-1.74-.83-2.62-2.15-2.62S215.17,127.2,215,128.94Z"/><path class="aaf8cbe6-8a5f-4cad-ab4d-080ac54c71fb" d="M68.22,165.83H64.59a8.78,8.78,0,0,1-.18-2,5.25,5.25,0,0,1-1.9,1.8,5,5,0,0,1-2.15.45,4.17,4.17,0,0,1-2.88-1,3.27,3.27,0,0,1-1.1-2.6,4,4,0,0,1,.64-2.2,4.19,4.19,0,0,1,2.06-1.58,19.89,19.89,0,0,1,5.17-.85v-.73a1.63,1.63,0,0,0-1.84-1.85,1.94,1.94,0,0,0-2.2,1.85l-3.45-.32a3.88,3.88,0,0,1,2.05-3.07,8.13,8.13,0,0,1,3.87-.91,9.22,9.22,0,0,1,2.44.31,4.09,4.09,0,0,1,1.78.9,3.11,3.11,0,0,1,.87,1.28A8.35,8.35,0,0,1,68,157.7v5.76A8.7,8.7,0,0,0,68.22,165.83Zm-4-6.08c-2.62.26-3.92,1.05-3.92,2.38a1.71,1.71,0,0,0,.41,1.15,1.48,1.48,0,0,0,1.18.48,2.06,2.06,0,0,0,1.66-.82,3.1,3.1,0,0,0,.67-2Z"/><path class="aaf8cbe6-8a5f-4cad-ab4d-080ac54c71fb" d="M92.18,148.67v17.16H88.73v-2a3.92,3.92,0,0,1-3.5,2.25,3.84,3.84,0,0,1-3.32-1.72,8.11,8.11,0,0,1-1.22-4.76,8.77,8.77,0,0,1,1.22-5,4,4,0,0,1,3.52-1.79,3.57,3.57,0,0,1,3.12,1.6v-5.8Zm-3.63,9.78c0-2-.6-3-1.81-3q-2.17,0-2.17,4.23c0,2.5.67,3.76,2,3.76a1.76,1.76,0,0,0,1.36-.68,2.85,2.85,0,0,0,.59-1.94Z"/><path class="aaf8cbe6-8a5f-4cad-ab4d-080ac54c71fb" d="M101,148.32v3.75H97.21v-3.75Zm0,4.82v12.69H97.21V153.14Z"/><path class="aaf8cbe6-8a5f-4cad-ab4d-080ac54c71fb" d="M116,153.14l-4.35,12.69h-2.92l-4.36-12.69h3.9l2.44,8,2.51-8Z"/><path class="aaf8cbe6-8a5f-4cad-ab4d-080ac54c71fb" d="M130.6,160.11h-8.17c0,.23,0,.43,0,.6a2.7,2.7,0,0,0,.72,2,2.39,2.39,0,0,0,1.73.7,2.13,2.13,0,0,0,2.25-2l3.39.25c-.94,2.93-2.87,4.4-5.77,4.4a6.34,6.34,0,0,1-3.22-.76,6,6,0,0,1-2.19-2.22,6.8,6.8,0,0,1-.86-3.5,6.91,6.91,0,0,1,1.73-4.89,6.11,6.11,0,0,1,8.65-.13Q130.61,156.32,130.6,160.11Zm-8.18-2.17h4.51c-.12-1.74-.83-2.62-2.15-2.62S122.58,156.2,122.42,157.94Z"/><path class="aaf8cbe6-8a5f-4cad-ab4d-080ac54c71fb" d="M138.53,165.83h-3.64V153.14h3.44v2.36c.52-1.76,1.44-2.64,2.74-2.64a6.21,6.21,0,0,1,.68,0v3.69A3.61,3.61,0,0,0,140,157a2.49,2.49,0,0,0-1,1.26,6.19,6.19,0,0,0-.4,2.46Z"/><path class="aaf8cbe6-8a5f-4cad-ab4d-080ac54c71fb" d="M155.49,156.2l-2.72.73a2.29,2.29,0,0,0-2.48-1.72c-1.26,0-1.89.38-1.89,1.15a.87.87,0,0,0,.35.72,4.44,4.44,0,0,0,1.8.46,16.6,16.6,0,0,1,3.22.66,3.35,3.35,0,0,1,1.66,1.27,3.87,3.87,0,0,1,.6,2.2,4,4,0,0,1-1.48,3.2,6.4,6.4,0,0,1-4.17,1.23q-4.86,0-5.8-3.76l3.16-.47c.26,1.14,1.2,1.71,2.81,1.71a3.38,3.38,0,0,0,1.57-.33,1,1,0,0,0,.65-.9c0-.59-.48-.94-1.42-1q-3.85-.48-5.06-1.48a3.39,3.39,0,0,1-1.22-2.78,3.72,3.72,0,0,1,1.41-3,6,6,0,0,1,4-1.19,5.79,5.79,0,0,1,3.22.8A4.88,4.88,0,0,1,155.49,156.2Z"/><path class="aaf8cbe6-8a5f-4cad-ab4d-080ac54c71fb" d="M163.85,148.32v3.75H160.1v-3.75Zm0,4.82v12.69H160.1V153.14Z"/><path class="aaf8cbe6-8a5f-4cad-ab4d-080ac54c71fb" d="M173.08,156.05v5.37a2.16,2.16,0,0,0,.3,1.35,2,2,0,0,0,1.42.34c.34,0,.74,0,1.19-.05v2.77a15.55,15.55,0,0,1-2.35.28,4.87,4.87,0,0,1-3.32-.9,4.28,4.28,0,0,1-1-3.25v-5.91h-2v-2.91h2.22l.3-3.75,3.23-.25v4h2.73v2.91Z"/><path class="aaf8cbe6-8a5f-4cad-ab4d-080ac54c71fb" d="M189.69,153.14l-4,12.18a22,22,0,0,1-1.13,3,3.72,3.72,0,0,1-1.36,1.45,4.66,4.66,0,0,1-2.47.55,12.32,12.32,0,0,1-1.8-.15v-2.88a10.3,10.3,0,0,0,1.84.18,2,2,0,0,0,1.49-.42,2.56,2.56,0,0,0,.56-1.17l-4.62-12.69h4l2.44,7.55,2.36-7.55Z"/><path class="aaf8cbe6-8a5f-4cad-ab4d-080ac54c71fb" d="M206.87,152.87a5.68,5.68,0,0,1,4.53,1.9,7.07,7.07,0,0,1,1.62,4.75,6.75,6.75,0,0,1-1.69,4.7,5.74,5.74,0,0,1-4.49,1.88,5.48,5.48,0,0,1-4.34-1.86,7,7,0,0,1-1.62-4.78,7.41,7.41,0,0,1,.73-3.44,6.09,6.09,0,0,1,2-2.28A5.63,5.63,0,0,1,206.87,152.87Zm.1,2.45a1.81,1.81,0,0,0-1.61.83,6.65,6.65,0,0,0-.54,3.27,7.43,7.43,0,0,0,.52,3.23,1.68,1.68,0,0,0,1.6,1,1.78,1.78,0,0,0,1.54-.83,5.92,5.92,0,0,0,.59-3.19,7.42,7.42,0,0,0-.52-3.39A1.7,1.7,0,0,0,207,155.32Z"/><path class="aaf8cbe6-8a5f-4cad-ab4d-080ac54c71fb" d="M221.23,156.05v9.78h-3.65v-9.78h-1.47v-2.91h1.47a12.23,12.23,0,0,1,.28-2.86,3,3,0,0,1,1.33-1.6,5.29,5.29,0,0,1,2.9-.7,13,13,0,0,1,1.74.14V151c-.54,0-1-.06-1.34-.06a1.08,1.08,0,0,0-1,.4,2.57,2.57,0,0,0-.25,1.31v.48h2.3v2.91Z"/><path class="aaf8cbe6-8a5f-4cad-ab4d-080ac54c71fb" d="M115.8,188.46v6.37h-4.09V177.67h6.77a9.7,9.7,0,0,1,3.46.49,5.1,5.1,0,0,1,2.14,1.73,4.89,4.89,0,0,1,1,3.05,6.33,6.33,0,0,1-.51,2.48,4.46,4.46,0,0,1-1.42,1.9,5.11,5.11,0,0,1-1.78.91,11,11,0,0,1-2.69.23Zm-.14-3.12h2.62a2.67,2.67,0,0,0,2.09-.69,2.31,2.31,0,0,0,.61-1.58,2.16,2.16,0,0,0-.67-1.66,3,3,0,0,0-2-.62h-2.6Z"/><path class="aaf8cbe6-8a5f-4cad-ab4d-080ac54c71fb" d="M132.64,194.83H129V182.14h3.43v2.36c.53-1.76,1.44-2.64,2.74-2.64a6.21,6.21,0,0,1,.68,0v3.69a3.61,3.61,0,0,0-1.78.36,2.49,2.49,0,0,0-1,1.26,6.19,6.19,0,0,0-.4,2.46Z"/><path class="aaf8cbe6-8a5f-4cad-ab4d-080ac54c71fb" d="M145.14,181.87a5.64,5.64,0,0,1,4.52,1.9,7,7,0,0,1,1.63,4.75,6.75,6.75,0,0,1-1.69,4.7,5.74,5.74,0,0,1-4.49,1.88,5.48,5.48,0,0,1-4.34-1.86,7,7,0,0,1-1.62-4.78,7.41,7.41,0,0,1,.73-3.44,6.09,6.09,0,0,1,2-2.28A5.63,5.63,0,0,1,145.14,181.87Zm.1,2.45a1.81,1.81,0,0,0-1.61.83,6.65,6.65,0,0,0-.54,3.27,7.43,7.43,0,0,0,.52,3.23,1.68,1.68,0,0,0,1.6,1,1.78,1.78,0,0,0,1.54-.83,5.92,5.92,0,0,0,.59-3.19,7.42,7.42,0,0,0-.52-3.39A1.7,1.7,0,0,0,145.24,184.32Z"/><path class="aaf8cbe6-8a5f-4cad-ab4d-080ac54c71fb" d="M166.38,177.67v17.16h-3.45v-2a3.92,3.92,0,0,1-3.5,2.25,3.84,3.84,0,0,1-3.32-1.72,8.11,8.11,0,0,1-1.22-4.76,8.77,8.77,0,0,1,1.22-5,4,4,0,0,1,3.52-1.79,3.57,3.57,0,0,1,3.12,1.6v-5.8Zm-3.63,9.78c0-2-.6-3-1.81-3q-2.17,0-2.17,4.23c0,2.5.67,3.76,2,3.76a1.76,1.76,0,0,0,1.36-.68,2.85,2.85,0,0,0,.59-1.94Z"/><path class="aaf8cbe6-8a5f-4cad-ab4d-080ac54c71fb" d="M182.26,182.14v12.69h-3.47v-2.16A3.7,3.7,0,0,1,175,195.1a3.78,3.78,0,0,1-2.2-.54,2.92,2.92,0,0,1-1.1-1.45,8.39,8.39,0,0,1-.33-2.68v-8.29H175v8.29q0,1.71,1.41,1.71a2,2,0,0,0,1.24-.4,1.93,1.93,0,0,0,.68-.88,6.38,6.38,0,0,0,.14-1.59v-7.13Z"/><path class="aaf8cbe6-8a5f-4cad-ab4d-080ac54c71fb" d="M198.44,190.07a5.32,5.32,0,0,1-1.78,3.64,5.83,5.83,0,0,1-4,1.39,5.77,5.77,0,0,1-4.38-1.78,6.61,6.61,0,0,1-1.69-4.76,6.79,6.79,0,0,1,1.73-4.83,6,6,0,0,1,4.62-1.86,5.49,5.49,0,0,1,3.85,1.4,5.09,5.09,0,0,1,1.69,3.49L195,187c-.12-1.52-.78-2.28-2-2.28-1.48,0-2.22,1.21-2.22,3.64,0,1.62.2,2.65.62,3.08a2,2,0,0,0,1.51.66c1.16,0,1.85-.74,2.08-2.2Z"/><path class="aaf8cbe6-8a5f-4cad-ab4d-080ac54c71fb" d="M206.61,185.05v5.37a2.16,2.16,0,0,0,.3,1.35,2,2,0,0,0,1.41.34c.35,0,.74,0,1.19-.05v2.77a15.41,15.41,0,0,1-2.35.28,4.89,4.89,0,0,1-3.32-.9,4.32,4.32,0,0,1-1-3.25v-5.91h-2v-2.91h2.23l.3-3.75,3.23-.25v4h2.73v2.91Z"/><path class="aaf8cbe6-8a5f-4cad-ab4d-080ac54c71fb" d="M222.87,185.2l-2.73.73a2.27,2.27,0,0,0-2.47-1.72c-1.26,0-1.89.38-1.89,1.15a.87.87,0,0,0,.35.72,4.44,4.44,0,0,0,1.8.46,16.77,16.77,0,0,1,3.22.66,3.28,3.28,0,0,1,1.65,1.27,3.8,3.8,0,0,1,.61,2.2,3.94,3.94,0,0,1-1.49,3.2,6.35,6.35,0,0,1-4.16,1.23q-4.86,0-5.8-3.76l3.16-.47c.26,1.14,1.19,1.71,2.81,1.71a3.38,3.38,0,0,0,1.57-.33,1,1,0,0,0,.64-.9c0-.59-.47-.94-1.42-1q-3.84-.48-5.06-1.48a3.41,3.41,0,0,1-1.21-2.78,3.72,3.72,0,0,1,1.41-3,6,6,0,0,1,3.95-1.19,5.73,5.73,0,0,1,3.21.8A4.89,4.89,0,0,1,222.87,185.2Z"/><path class="aaf8cbe6-8a5f-4cad-ab4d-080ac54c71fb" d="M71.23,223.83H67.59a9.51,9.51,0,0,1-.17-2,5.33,5.33,0,0,1-1.9,1.8,5,5,0,0,1-2.16.45,4.2,4.2,0,0,1-2.88-1,3.3,3.3,0,0,1-1.09-2.6,4,4,0,0,1,.64-2.2,4.17,4.17,0,0,1,2-1.58,20,20,0,0,1,5.18-.85v-.73a1.64,1.64,0,0,0-1.85-1.85,1.94,1.94,0,0,0-2.19,1.85l-3.46-.32a3.92,3.92,0,0,1,2.05-3.07,8.19,8.19,0,0,1,3.87-.91,9.11,9.11,0,0,1,2.44.31,4.07,4.07,0,0,1,1.79.9,3.21,3.21,0,0,1,.87,1.28A8.35,8.35,0,0,1,71,215.7v5.76A8.7,8.7,0,0,0,71.23,223.83Zm-4-6.08q-3.93.39-3.93,2.38a1.72,1.72,0,0,0,.42,1.15,1.45,1.45,0,0,0,1.17.48,2,2,0,0,0,1.66-.82,3.11,3.11,0,0,0,.68-2Z"/><path class="aaf8cbe6-8a5f-4cad-ab4d-080ac54c71fb" d="M87.06,223.83H83.32v-7.12a11.08,11.08,0,0,0-.1-1.78,1.5,1.5,0,0,0-.49-.81,1.47,1.47,0,0,0-1-.33c-1.32,0-2,1-2,2.92v7.12H76V211.14h3.48v2.15a4.9,4.9,0,0,1,1.71-2,3.91,3.91,0,0,1,1.82-.44,4.26,4.26,0,0,1,2.92,1c.73.65,1.1,1.92,1.1,3.83Z"/><path class="aaf8cbe6-8a5f-4cad-ab4d-080ac54c71fb" d="M102.88,206.67v17.16H99.43v-2a3.92,3.92,0,0,1-3.5,2.25,3.85,3.85,0,0,1-3.32-1.72,8.11,8.11,0,0,1-1.22-4.76,8.77,8.77,0,0,1,1.22-5,4,4,0,0,1,3.52-1.79,3.57,3.57,0,0,1,3.12,1.6v-5.8Zm-3.63,9.78c0-2-.6-3-1.81-3q-2.18,0-2.17,4.23c0,2.5.67,3.76,2,3.76a1.76,1.76,0,0,0,1.36-.68,2.85,2.85,0,0,0,.59-1.94Z"/><path class="aaf8cbe6-8a5f-4cad-ab4d-080ac54c71fb" d="M128.31,210.45l-3.42,1.14a2.81,2.81,0,0,0-2.92-2c-1.59,0-2.39.52-2.39,1.55a1.37,1.37,0,0,0,.45,1,4.42,4.42,0,0,0,2,.75,19.69,19.69,0,0,1,3.84,1.07,4.9,4.9,0,0,1,2.06,1.74,4.62,4.62,0,0,1,.83,2.68,5.33,5.33,0,0,1-1.79,4,7.43,7.43,0,0,1-5.3,1.7,8.07,8.07,0,0,1-4.49-1.2,5.72,5.72,0,0,1-2.45-3.57l3.72-.84c.42,1.6,1.58,2.4,3.49,2.4a3.34,3.34,0,0,0,2.06-.53,1.6,1.6,0,0,0,.68-1.28,1.34,1.34,0,0,0-.62-1.17,7.77,7.77,0,0,0-2.37-.78,10.79,10.79,0,0,1-4.67-1.85,4.25,4.25,0,0,1-1.39-3.44A5.11,5.11,0,0,1,117.3,208a6.29,6.29,0,0,1,4.51-1.57C125.18,206.41,127.34,207.76,128.31,210.45Z"/><path class="aaf8cbe6-8a5f-4cad-ab4d-080ac54c71fb" d="M144.56,218.11h-8.17c0,.23,0,.43,0,.6a2.66,2.66,0,0,0,.73,2,2.36,2.36,0,0,0,1.72.7,2.13,2.13,0,0,0,2.25-2l3.4.25q-1.42,4.4-5.77,4.4a6.38,6.38,0,0,1-3.23-.76,6,6,0,0,1-2.18-2.22,6.7,6.7,0,0,1-.86-3.5,6.9,6.9,0,0,1,1.72-4.89,6.11,6.11,0,0,1,8.65-.13Q144.56,214.33,144.56,218.11Zm-8.19-2.17h4.52c-.12-1.74-.84-2.62-2.15-2.62S136.54,214.2,136.37,215.94Z"/><path class="aaf8cbe6-8a5f-4cad-ab4d-080ac54c71fb" d="M152.48,223.83h-3.63V211.14h3.43v2.36c.53-1.76,1.45-2.64,2.74-2.64a6.08,6.08,0,0,1,.68,0v3.69a3.67,3.67,0,0,0-1.78.36,2.47,2.47,0,0,0-1,1.26,6.17,6.17,0,0,0-.41,2.46Z"/><path class="aaf8cbe6-8a5f-4cad-ab4d-080ac54c71fb" d="M170.26,211.14l-4.36,12.69H163l-4.36-12.69h3.89l2.45,8,2.5-8Z"/><path class="aaf8cbe6-8a5f-4cad-ab4d-080ac54c71fb" d="M177.55,206.32v3.75h-3.74v-3.75Zm0,4.82v12.69h-3.74V211.14Z"/><path class="aaf8cbe6-8a5f-4cad-ab4d-080ac54c71fb" d="M193.73,219.07a5.36,5.36,0,0,1-1.78,3.64,5.83,5.83,0,0,1-4,1.39,5.74,5.74,0,0,1-4.38-1.78,6.61,6.61,0,0,1-1.69-4.76,6.75,6.75,0,0,1,1.73-4.83,6,6,0,0,1,4.62-1.86,5.51,5.51,0,0,1,3.85,1.4,5.09,5.09,0,0,1,1.69,3.49l-3.5.2c-.11-1.52-.78-2.28-2-2.28-1.49,0-2.23,1.21-2.23,3.64,0,1.62.21,2.65.63,3.08a2,2,0,0,0,1.51.66c1.16,0,1.85-.74,2.07-2.2Z"/><path class="aaf8cbe6-8a5f-4cad-ab4d-080ac54c71fb" d="M209.07,218.11H200.9c0,.23,0,.43,0,.6a2.7,2.7,0,0,0,.72,2,2.39,2.39,0,0,0,1.73.7,2.13,2.13,0,0,0,2.25-2l3.39.25c-.94,2.93-2.87,4.4-5.77,4.4a6.34,6.34,0,0,1-3.22-.76,6.14,6.14,0,0,1-2.19-2.22,6.8,6.8,0,0,1-.86-3.5,6.91,6.91,0,0,1,1.73-4.89,6.11,6.11,0,0,1,8.65-.13Q209.08,214.33,209.07,218.11Zm-8.18-2.17h4.51c-.12-1.74-.83-2.62-2.15-2.62S201.06,214.2,200.89,215.94Z"/><path class="aaf8cbe6-8a5f-4cad-ab4d-080ac54c71fb" d="M222.87,214.2l-2.73.73a2.27,2.27,0,0,0-2.47-1.72c-1.26,0-1.89.38-1.89,1.15a.87.87,0,0,0,.35.72,4.44,4.44,0,0,0,1.8.46,16.77,16.77,0,0,1,3.22.66,3.28,3.28,0,0,1,1.65,1.27,3.8,3.8,0,0,1,.61,2.2,3.94,3.94,0,0,1-1.49,3.2,6.35,6.35,0,0,1-4.16,1.23q-4.86,0-5.8-3.76l3.16-.47c.26,1.14,1.19,1.71,2.81,1.71a3.38,3.38,0,0,0,1.57-.33,1,1,0,0,0,.64-.9c0-.59-.47-.94-1.42-1q-3.84-.48-5.06-1.48a3.41,3.41,0,0,1-1.21-2.78,3.72,3.72,0,0,1,1.41-3,6,6,0,0,1,3.95-1.19,5.73,5.73,0,0,1,3.21.8A4.89,4.89,0,0,1,222.87,214.2Z"/><g class="ad483c6d-1e9b-473c-8d29-d9fa59ecb5ae"><path class="e4ee1e50-2063-4415-a373-cc5bfbfad467" d="M52.3,75.25C51,79,50,82.69,48.58,88.33H6.46V86.41c6.6-6.6,13.32-13.32,19.08-20.16,6.24-7.2,16.08-16.56,16.08-28.56C41.62,26.77,36,21,26.5,21c-9,0-14,7.2-16.67,11.16L8,30.73l6.48-9a21.19,21.19,0,0,1,15-6.36c9.48,0,18.6,6.72,18.6,18.36,0,10.56-5.64,18.12-15.24,28.44L14.27,82.45H39c6,0,7.8-.6,10.92-7.92Z"/><path class="e4ee1e50-2063-4415-a373-cc5bfbfad467" d="M169.3,49.69c0,23.88-19.08,40.44-41.88,40.44-22,0-39.72-16.2-39.72-38.4,0-20.16,15.6-40.32,42.36-40.32C150.1,11.41,169.3,26.41,169.3,49.69ZM96.1,48.25c0,23.4,14.76,39,34.2,39,16.2,0,30.84-11.16,30.84-32.52,0-27.24-15.24-40.44-34.56-40.44C110.62,14.41,96.1,25.09,96.1,48.25Z"/></g></g></svg>