<svg xmlns="http://www.w3.org/2000/svg" viewBox="0 0 228.33 228.33"><defs><style>.f2bec63c-85c8-461e-b26d-2046a838ba9d{fill:#cec542;}.a11962d7-2416-4d35-a0f8-dc2b82c18574{fill:#045f47;}.ba35d9d0-1f6f-4d5a-807c-3c52fe3816cc{fill:#fff;}.a2c18b85-ed76-4b3a-b10b-326e69200fed{opacity:0.25;}</style></defs><title>工作區域 2 複本 20</title><g id="b7554189-dfd8-4378-aa74-e26f1d381215" data-name="圖層 3"><rect class="f2bec63c-85c8-461e-b26d-2046a838ba9d" x="-26.14" y="-1855.01" width="1024" height="2183"/></g><g id="ab6c4a50-ad31-4ff9-b469-0e05691024d6" data-name="圖層 1"><rect class="a11962d7-2416-4d35-a0f8-dc2b82c18574" x="0.01" width="228.33" height="228.33"/><path class="f2bec63c-85c8-461e-b26d-2046a838ba9d" d="M31.82,79.73H27.17V71a16.37,16.37,0,0,0-.11-2.4,1.58,1.58,0,0,0-.57-.92,2,2,0,0,0-1.28-.37,2.72,2.72,0,0,0-1.56.55c-.53.36-.8,1.41-.8,3.14v8.73H18.2V71A10.14,10.14,0,0,0,18,68.55a1.71,1.71,0,0,0-.64-.9,2.11,2.11,0,0,0-1.21-.34,2.1,2.1,0,0,0-1.79.76A5.1,5.1,0,0,0,13.79,71v8.73H9.27V64h4.38v2.41a4.32,4.32,0,0,1,4.44-2.74,4.54,4.54,0,0,1,4.37,2.74A4.66,4.66,0,0,1,27,63.62a5.43,5.43,0,0,1,2.69.64,3.82,3.82,0,0,1,1.61,1.68,9.18,9.18,0,0,1,.48,3.54Z"/><path class="f2bec63c-85c8-461e-b26d-2046a838ba9d" d="M51.82,79.73H47.3a11,11,0,0,1-.22-2.47,6.53,6.53,0,0,1-2.36,2.25,6.38,6.38,0,0,1-2.68.55,5.24,5.24,0,0,1-3.58-1.2,4.09,4.09,0,0,1-1.36-3.24,5,5,0,0,1,.79-2.73,5.24,5.24,0,0,1,2.56-2,24.21,24.21,0,0,1,6.43-1.06V69a2,2,0,0,0-2.29-2.3A2.42,2.42,0,0,0,41.86,69l-4.29-.41a4.89,4.89,0,0,1,2.54-3.81,10.13,10.13,0,0,1,4.81-1.13A11.89,11.89,0,0,1,48,64a5.06,5.06,0,0,1,2.21,1.12,3.76,3.76,0,0,1,1.08,1.59,10.25,10.25,0,0,1,.28,2.91v7.16A10.68,10.68,0,0,0,51.82,79.73Zm-4.94-7.56c-3.25.32-4.88,1.31-4.88,3a2.08,2.08,0,0,0,.52,1.43,1.81,1.81,0,0,0,1.46.6,2.55,2.55,0,0,0,2.06-1,3.83,3.83,0,0,0,.84-2.52Z"/><path class="f2bec63c-85c8-461e-b26d-2046a838ba9d" d="M71.5,79.73H66.84V70.87a11.9,11.9,0,0,0-.13-2.2,1.77,1.77,0,0,0-.6-1,1.85,1.85,0,0,0-1.22-.41q-2.46,0-2.46,3.62v8.86H57.78V64h4.33v2.67a5.91,5.91,0,0,1,2.12-2.45,4.88,4.88,0,0,1,2.27-.55,5.31,5.31,0,0,1,3.62,1.21Q71.5,66,71.5,69.59Z"/><path class="f2bec63c-85c8-461e-b26d-2046a838ba9d" d="M89.66,64l-5,15.14a26.36,26.36,0,0,1-1.41,3.66,4.62,4.62,0,0,1-1.69,1.82,5.87,5.87,0,0,1-3.07.68,14.7,14.7,0,0,1-2.24-.19V81.48a12.89,12.89,0,0,0,2.29.22,2.51,2.51,0,0,0,1.85-.51,3.32,3.32,0,0,0,.7-1.46L75.4,64h4.92l3,9.39L86.28,64Z"/><path class="ba35d9d0-1f6f-4d5a-807c-3c52fe3816cc" d="M30,93.74v26h-5.2L14.59,102.17c0,.45,0,.74,0,.88a10.11,10.11,0,0,1,.07,1.12v15.56H10v-26h6.56l8.85,15.33c-.08-.76-.12-1.34-.12-1.73V93.74Z"/><path class="ba35d9d0-1f6f-4d5a-807c-3c52fe3816cc" d="M44.17,93.74v26H38.1v-26Z"/><path class="ba35d9d0-1f6f-4d5a-807c-3c52fe3816cc" d="M72.56,105.83v13.9H69.78a20,20,0,0,0-.87-3,8.75,8.75,0,0,1-7.08,3.39,9.43,9.43,0,0,1-7.92-3.64,14.84,14.84,0,0,1-2.83-9.4q0-6.21,3-10a9.94,9.94,0,0,1,8.2-3.77,9.93,9.93,0,0,1,7,2.44,10.49,10.49,0,0,1,3.26,6.49l-5.79.76q-.7-4.73-4.47-4.72a4.05,4.05,0,0,0-3.75,2.24,13.19,13.19,0,0,0-1.26,6.39,11.22,11.22,0,0,0,1.37,6.11,4.37,4.37,0,0,0,3.9,2.11,4.48,4.48,0,0,0,2.93-1.06,4.22,4.22,0,0,0,1.28-3.41H61.88v-4.86Z"/><path class="ba35d9d0-1f6f-4d5a-807c-3c52fe3816cc" d="M100.35,93.74v26h-6V109H86.26v10.72h-6v-26h6v10.13h8.12V93.74Z"/><path class="ba35d9d0-1f6f-4d5a-807c-3c52fe3816cc" d="M125,93.74v5.14h-6.44v20.85h-6.17V98.88h-6.47V93.74Z"/><path class="ba35d9d0-1f6f-4d5a-807c-3c52fe3816cc" d="M21.48,159.73l-6.41-21.19v21.19H10v-26h9.48L24,149.3l4.79-15.56h9.52v26H32.18V138.54l-6.53,21.19Z"/><path class="ba35d9d0-1f6f-4d5a-807c-3c52fe3816cc" d="M59.19,133.74l8.14,26H60.79l-1.61-5.35h-8.4l-1.63,5.35H43.81l8.33-26Zm-6.95,15.84h5.51L55,140.46Z"/><path class="ba35d9d0-1f6f-4d5a-807c-3c52fe3816cc" d="M79.19,149.43v10.3H73.05v-26H84.48a14.4,14.4,0,0,1,5.07.73,6.57,6.57,0,0,1,3.18,2.69A8,8,0,0,1,94,141.52a6.92,6.92,0,0,1-4.51,6.72l4.8,11.49H87.54l-4-10.3Zm0-11.06V145h3.73a10,10,0,0,0,2.66-.25,3,3,0,0,0,1.47-1.15,3.34,3.34,0,0,0,.65-2,3.16,3.16,0,0,0-.65-1.95,2.63,2.63,0,0,0-1.41-1.05,12.86,12.86,0,0,0-2.85-.2Z"/><path class="ba35d9d0-1f6f-4d5a-807c-3c52fe3816cc" d="M107.59,133.74V146l8.15-12.21h5.83L115.33,143l7.8,16.71h-6.71l-5.18-11.29-3.65,5.33v6h-6v-26Z"/><path class="ba35d9d0-1f6f-4d5a-807c-3c52fe3816cc" d="M147.69,138.69H135.31V144H145v4.9h-9.73v5.67h12.38v5.14H129.12v-26h18.57Z"/><path class="ba35d9d0-1f6f-4d5a-807c-3c52fe3816cc" d="M170.74,133.74v5.14H164.3v20.85h-6.17V138.88h-6.47v-5.14Z"/><path class="ba35d9d0-1f6f-4d5a-807c-3c52fe3816cc" d="M194.71,139.45l-5.18,1.73a4.25,4.25,0,0,0-4.43-3.08c-2.4,0-3.61.78-3.61,2.34a2.11,2.11,0,0,0,.68,1.58,6.82,6.82,0,0,0,3.05,1.13,29.62,29.62,0,0,1,5.82,1.62,7.38,7.38,0,0,1,3.11,2.63,7,7,0,0,1,1.26,4.07,8.1,8.1,0,0,1-2.71,6.09c-1.81,1.72-4.49,2.57-8,2.57a12.18,12.18,0,0,1-6.8-1.82,8.65,8.65,0,0,1-3.7-5.4l5.64-1.27c.63,2.42,2.39,3.64,5.28,3.64a5,5,0,0,0,3.12-.81,2.42,2.42,0,0,0,1-1.94,2,2,0,0,0-.93-1.77,11.26,11.26,0,0,0-3.59-1.18q-5-1-7.08-2.81a6.45,6.45,0,0,1-2.11-5.21,7.72,7.72,0,0,1,2.52-5.84,9.54,9.54,0,0,1,6.84-2.38Q192.52,133.34,194.71,139.45Z"/><path class="f2bec63c-85c8-461e-b26d-2046a838ba9d" d="M13.93,174v4.65H9.27V174Zm0,6v15.78H9.27V180Z"/><path class="f2bec63c-85c8-461e-b26d-2046a838ba9d" d="M33.88,195.73H29.22v-8.86a13.22,13.22,0,0,0-.12-2.2,1.79,1.79,0,0,0-1.83-1.42c-1.64,0-2.45,1.21-2.45,3.62v8.86H20.16V180h4.33v2.67a6,6,0,0,1,2.12-2.45,4.91,4.91,0,0,1,2.27-.55,5.29,5.29,0,0,1,3.62,1.21q1.38,1.21,1.38,4.76Z"/><path class="f2bec63c-85c8-461e-b26d-2046a838ba9d" d="M64.69,188.62H54.54c0,.28,0,.53,0,.74a3.35,3.35,0,0,0,.9,2.54,3,3,0,0,0,2.15.86,2.65,2.65,0,0,0,2.8-2.48l4.21.31q-1.76,5.47-7.17,5.47a8,8,0,0,1-4-.95,7.38,7.38,0,0,1-2.71-2.75A8.35,8.35,0,0,1,49.62,188a8.56,8.56,0,0,1,2.14-6.07,7.58,7.58,0,0,1,10.75-.17C64,183.2,64.69,185.49,64.69,188.62Zm-10.17-2.7h5.61c-.15-2.17-1-3.25-2.67-3.25S54.73,183.75,54.52,185.92Z"/><path class="f2bec63c-85c8-461e-b26d-2046a838ba9d" d="M82.14,180l-5.41,15.78H73.11L67.69,180h4.84l3,10,3.11-10Z"/><path class="f2bec63c-85c8-461e-b26d-2046a838ba9d" d="M100.34,188.62H90.18c0,.28,0,.53,0,.74a3.34,3.34,0,0,0,.89,2.54,3,3,0,0,0,2.15.86,2.64,2.64,0,0,0,2.8-2.48l4.22.31q-1.77,5.47-7.17,5.47a7.93,7.93,0,0,1-4-.95,7.4,7.4,0,0,1-2.72-2.75,9.53,9.53,0,0,1,1.08-10.42,7.58,7.58,0,0,1,10.75-.17C99.61,183.2,100.34,185.49,100.34,188.62Zm-10.17-2.7h5.6c-.14-2.17-1-3.25-2.67-3.25S90.37,183.75,90.17,185.92Z"/><path class="f2bec63c-85c8-461e-b26d-2046a838ba9d" d="M110.19,195.73h-4.52V180h4.27v2.94c.66-2.19,1.79-3.28,3.41-3.28.23,0,.51,0,.84,0v4.6a4.48,4.48,0,0,0-2.21.44,3.1,3.1,0,0,0-1.29,1.57,7.72,7.72,0,0,0-.5,3.05Z"/><path class="f2bec63c-85c8-461e-b26d-2046a838ba9d" d="M132.09,180l-5,15.14a26.36,26.36,0,0,1-1.41,3.66,4.69,4.69,0,0,1-1.69,1.82,5.9,5.9,0,0,1-3.07.68,14.6,14.6,0,0,1-2.24-.19v-3.58a12.89,12.89,0,0,0,2.29.22,2.53,2.53,0,0,0,1.85-.51,3.43,3.43,0,0,0,.7-1.46L117.82,180h4.93l3,9.39,2.92-9.39Z"/><path class="f2bec63c-85c8-461e-b26d-2046a838ba9d" d="M160.78,189.81a6.63,6.63,0,0,1-2.21,4.52,7.29,7.29,0,0,1-5,1.73,7.2,7.2,0,0,1-5.45-2.21,8.23,8.23,0,0,1-2.1-5.91,8.42,8.42,0,0,1,2.15-6,7.45,7.45,0,0,1,5.74-2.31,6.82,6.82,0,0,1,4.79,1.74,6.36,6.36,0,0,1,2.1,4.34l-4.34.25c-.15-1.89-1-2.84-2.47-2.84q-2.78,0-2.77,4.53c0,2,.26,3.29.78,3.83a2.49,2.49,0,0,0,1.88.81c1.44,0,2.3-.91,2.58-2.74Z"/><path class="f2bec63c-85c8-461e-b26d-2046a838ba9d" d="M170.34,174v4.65h-4.66V174Zm0,6v15.78h-4.66V180Z"/><path class="f2bec63c-85c8-461e-b26d-2046a838ba9d" d="M181.82,183.58v6.67a2.64,2.64,0,0,0,.37,1.67,2.47,2.47,0,0,0,1.76.42q.63,0,1.47-.06v3.45a20,20,0,0,1-2.92.35,6.08,6.08,0,0,1-4.12-1.12c-.81-.75-1.22-2.09-1.22-4v-7.34h-2.5V180h2.76l.38-4.66,4-.31v5h3.39v3.63Z"/><path class="f2bec63c-85c8-461e-b26d-2046a838ba9d" d="M202.45,180l-4.95,15.14a26.36,26.36,0,0,1-1.41,3.66,4.69,4.69,0,0,1-1.69,1.82,5.9,5.9,0,0,1-3.07.68,14.6,14.6,0,0,1-2.24-.19v-3.58a12.89,12.89,0,0,0,2.29.22,2.53,2.53,0,0,0,1.85-.51,3.43,3.43,0,0,0,.7-1.46L188.18,180h4.93l3,9.39,2.93-9.39Z"/><g class="a2c18b85-ed76-4b3a-b10b-326e69200fed"><path class="ba35d9d0-1f6f-4d5a-807c-3c52fe3816cc" d="M141.88,90.27c-1.32,3.72-2.28,7.44-3.72,13.08H96v-1.92c6.6-6.6,13.32-13.32,19.08-20.16,6.24-7.2,16.08-16.56,16.08-28.55C131.2,41.8,125.56,36,116.08,36c-9,0-14,7.2-16.68,11.15l-1.8-1.43,6.48-9a21.23,21.23,0,0,1,15-6.36c9.48,0,18.6,6.72,18.6,18.36,0,10.56-5.64,18.11-15.24,28.43l-18.6,20.28h24.72c6,0,7.8-.6,10.92-7.92Z"/><path class="ba35d9d0-1f6f-4d5a-807c-3c52fe3816cc" d="M185.56,101.67c11.16-1.08,11.88-2.4,11.88-10.44V45.28c0-5.16-.48-6-6.12-6.6l-5.16-.6v-1.8C193.6,35,199.6,32.8,203.32,30.4V91.23c0,8,.84,9.36,12,10.44v1.68H185.56Z"/></g></g></svg>