<svg xmlns="http://www.w3.org/2000/svg" viewBox="0 0 228.33 228.33"><defs><style>.e5431006-51ec-4359-afd5-07f4f153bf21{fill:#cec542;}.bfdfb076-8d1d-4d28-8780-6a499064355a{fill:#daa377;}.aeaa9f9d-6816-42e9-93ae-e8f5856b63f2{fill:#727171;}.e4496018-466f-4d4c-a22b-8731cf82be51{fill:#fff;}.ba7843dd-e3d0-434f-8178-04a3b7af17b3{opacity:0.25;}</style></defs><title>工作區域 2 複本 3</title><g id="accb7bf5-61e9-4c6d-80ea-9588f2976890" data-name="圖層 3"><rect class="e5431006-51ec-4359-afd5-07f4f153bf21" x="-748.68" y="-526.98" width="1024" height="2183"/></g><g id="ac0d8158-108e-4794-966e-db6d008de45e" data-name="圖層 1"><rect class="bfdfb076-8d1d-4d28-8780-6a499064355a" x="0.01" y="-0.01" width="228.33" height="228.33"/><path class="aeaa9f9d-6816-42e9-93ae-e8f5856b63f2" d="M14.44,35.72l6.68,21.33H15.75l-1.32-4.39H7.54L6.2,57.05H1.82L8.66,35.72Zm-5.7,13h4.52L11,41.23Z"/><path class="aeaa9f9d-6816-42e9-93ae-e8f5856b63f2" d="M48.42,41.26,43,57.05H39.39L34,41.26H38.8l3.05,10,3.11-10Z"/><path class="aeaa9f9d-6816-42e9-93ae-e8f5856b63f2" d="M66.15,57.05H61.63a11,11,0,0,1-.22-2.47,6.58,6.58,0,0,1-2.36,2.24,6.23,6.23,0,0,1-2.68.55,5.24,5.24,0,0,1-3.58-1.2,4.08,4.08,0,0,1-1.36-3.23,5,5,0,0,1,.79-2.74,5.3,5.3,0,0,1,2.56-2,24.74,24.74,0,0,1,6.43-1.05v-.91A2,2,0,0,0,58.92,44a2.42,2.42,0,0,0-2.73,2.3l-4.29-.41a4.89,4.89,0,0,1,2.54-3.81,10.14,10.14,0,0,1,4.82-1.12,11.87,11.87,0,0,1,3,.37,5.17,5.17,0,0,1,2.22,1.13A3.86,3.86,0,0,1,65.58,44a10.29,10.29,0,0,1,.28,2.92v7.15A10.77,10.77,0,0,0,66.15,57.05Zm-4.94-7.57c-3.25.33-4.88,1.31-4.88,3a2.15,2.15,0,0,0,.52,1.43,1.81,1.81,0,0,0,1.46.6,2.57,2.57,0,0,0,2.07-1,3.88,3.88,0,0,0,.83-2.52Z"/><path class="aeaa9f9d-6816-42e9-93ae-e8f5856b63f2" d="M76.62,57.05H72.11V41.26h4.26V44.2q1-3.29,3.41-3.28c.23,0,.51,0,.84,0v4.59a4.65,4.65,0,0,0-2.21.44,3.2,3.2,0,0,0-1.29,1.57,7.72,7.72,0,0,0-.5,3Z"/><path class="aeaa9f9d-6816-42e9-93ae-e8f5856b63f2" d="M90.27,35.28v4.66H85.62V35.28Zm0,6V57.05H85.62V41.26Z"/><path class="aeaa9f9d-6816-42e9-93ae-e8f5856b63f2" d="M110.68,49.94H100.52c0,.28,0,.52,0,.73a3.37,3.37,0,0,0,.9,2.55,3,3,0,0,0,2.15.86,2.66,2.66,0,0,0,2.8-2.49l4.22.32q-1.77,5.46-7.18,5.46a7.89,7.89,0,0,1-4-.94,7.43,7.43,0,0,1-2.72-2.76,8.34,8.34,0,0,1-1.07-4.34,8.54,8.54,0,0,1,2.15-6.08,7.61,7.61,0,0,1,10.75-.17C110,44.52,110.68,46.8,110.68,49.94ZM100.5,47.23h5.61c-.14-2.16-1-3.25-2.67-3.25S100.71,45.07,100.5,47.23Z"/><path class="aeaa9f9d-6816-42e9-93ae-e8f5856b63f2" d="M121.26,44.89v6.67a2.71,2.71,0,0,0,.37,1.67,2.48,2.48,0,0,0,1.76.43c.43,0,.92,0,1.48-.07v3.46a21.21,21.21,0,0,1-2.92.34c-1.94,0-3.31-.37-4.13-1.12s-1.22-2.09-1.22-4V44.89h-2.5V41.26h2.77l.38-4.65,4-.31v5h3.39v3.63Z"/><path class="aeaa9f9d-6816-42e9-93ae-e8f5856b63f2" d="M141.9,41.26,137,56.4a28.28,28.28,0,0,1-1.42,3.67,4.52,4.52,0,0,1-1.69,1.81,5.85,5.85,0,0,1-3.07.68,14.48,14.48,0,0,1-2.23-.19V58.8a13.61,13.61,0,0,0,2.28.21,2.51,2.51,0,0,0,1.85-.51,3.33,3.33,0,0,0,.71-1.46l-5.75-15.78h4.92l3,9.4,2.92-9.4Z"/><path class="aeaa9f9d-6816-42e9-93ae-e8f5856b63f2" d="M163.25,40.94a7,7,0,0,1,5.63,2.36,8.73,8.73,0,0,1,2,5.9A8.41,8.41,0,0,1,168.8,55a7.12,7.12,0,0,1-5.58,2.33,6.8,6.8,0,0,1-5.39-2.31,8.68,8.68,0,0,1-2-5.94,9.16,9.16,0,0,1,.91-4.27,7.63,7.63,0,0,1,2.5-2.84A7.11,7.11,0,0,1,163.25,40.94Zm.13,3a2.22,2.22,0,0,0-2,1c-.45.68-.67,2-.67,4.07a9.28,9.28,0,0,0,.64,4,2.1,2.1,0,0,0,2,1.22,2.24,2.24,0,0,0,1.92-1,7.41,7.41,0,0,0,.73-4,9.38,9.38,0,0,0-.64-4.22A2.13,2.13,0,0,0,163.38,44Z"/><path class="aeaa9f9d-6816-42e9-93ae-e8f5856b63f2" d="M181.1,44.89V57.05h-4.53V44.89h-1.83V41.26h1.83a14.44,14.44,0,0,1,.35-3.55,3.6,3.6,0,0,1,1.65-2,6.49,6.49,0,0,1,3.61-.87,16.32,16.32,0,0,1,2.15.17v3.59c-.67,0-1.22-.07-1.65-.07a1.37,1.37,0,0,0-1.27.5,3.14,3.14,0,0,0-.31,1.62v.59H184v3.63Z"/><path class="e4496018-466f-4d4c-a22b-8731cf82be51" d="M20.12,74.88v21H15.3V87.21H8.75v8.65H3.93v-21H8.75v8.18H15.3V74.88Z"/><path class="e4496018-466f-4d4c-a22b-8731cf82be51" d="M36.21,74.88l6.57,21H37.5l-1.3-4.32H29.42l-1.31,4.32H23.8l6.72-21ZM30.6,87.67h4.45l-2.21-7.36Z"/><path class="e4496018-466f-4d4c-a22b-8731cf82be51" d="M62.74,74.88v21H58.55L50.34,81.69c0,.36,0,.59,0,.71a8.41,8.41,0,0,1,.06.9V95.86H46.61v-21H51.9L59,87.25c-.06-.61-.09-1.08-.09-1.4v-11Z"/><path class="e4496018-466f-4d4c-a22b-8731cf82be51" d="M68.53,74.88h6.4A12.11,12.11,0,0,1,80.76,76a10.09,10.09,0,0,1,3.44,3.42,10.75,10.75,0,0,1,1.52,5.93,11,11,0,0,1-2.65,7.52,9.29,9.29,0,0,1-7.33,3H68.53Zm4.82,3.86V91.91h2a4.41,4.41,0,0,0,4-2,8.41,8.41,0,0,0,1.31-4.71,8.26,8.26,0,0,0-.75-3.52,4.89,4.89,0,0,0-1.85-2.28,5.15,5.15,0,0,0-2.65-.65Z"/><path class="e4496018-466f-4d4c-a22b-8731cf82be51" d="M88.77,86.21h7.34v3.33H88.77Z"/><path class="e4496018-466f-4d4c-a22b-8731cf82be51" d="M114.67,79.49l-4.18,1.4a3.42,3.42,0,0,0-3.57-2.49c-2,0-2.92.63-2.92,1.89a1.7,1.7,0,0,0,.55,1.28,5.35,5.35,0,0,0,2.46.9,25.25,25.25,0,0,1,4.7,1.31,6,6,0,0,1,2.5,2.13,5.55,5.55,0,0,1,1,3.28,6.56,6.56,0,0,1-2.19,4.92q-2.19,2.07-6.49,2.07a9.87,9.87,0,0,1-5.49-1.47,7,7,0,0,1-3-4.35l4.55-1q.77,2.92,4.26,2.93a4,4,0,0,0,2.51-.65,1.93,1.93,0,0,0,.83-1.56,1.62,1.62,0,0,0-.75-1.43,8.86,8.86,0,0,0-2.9-1,13.29,13.29,0,0,1-5.71-2.27,5.21,5.21,0,0,1-1.7-4.2,6.25,6.25,0,0,1,2-4.72,7.73,7.73,0,0,1,5.52-1.92Q112.9,74.56,114.67,79.49Z"/><path class="e4496018-466f-4d4c-a22b-8731cf82be51" d="M136.22,74.88v21h-4.83V87.21h-6.55v8.65H120v-21h4.82v8.18h6.55V74.88Z"/><path class="e4496018-466f-4d4c-a22b-8731cf82be51" d="M152.31,74.88l6.56,21h-5.28l-1.29-4.32h-6.78l-1.32,4.32h-4.31l6.73-21ZM146.7,87.67h4.44l-2.2-7.36Z"/><path class="e4496018-466f-4d4c-a22b-8731cf82be51" d="M167.53,74.88v9.86l6.57-9.86h4.71l-5,7.49,6.3,13.49h-5.41l-4.19-9.11-2.94,4.3v4.81H162.7v-21Z"/><path class="e4496018-466f-4d4c-a22b-8731cf82be51" d="M199.1,78.88h-10v4.3H197v3.95h-7.85v4.58h10v4.15h-15v-21h15Z"/><path class="e4496018-466f-4d4c-a22b-8731cf82be51" d="M219.75,74.88v21h-4.19l-8.21-14.17c0,.36,0,.59,0,.71a6.64,6.64,0,0,1,.07.9V95.86h-3.83v-21h5.3l7.13,12.37c-.06-.61-.09-1.08-.09-1.4v-11Z"/><path class="e4496018-466f-4d4c-a22b-8731cf82be51" d="M4.35,116.84H16.07a11.11,11.11,0,0,1,4.74.78,6.83,6.83,0,0,1,2.62,2.21,5.82,5.82,0,0,1,1,3.5q0,4.19-4.53,5.58a6.43,6.43,0,0,1,3.92,2.35,6.19,6.19,0,0,1,1.32,3.81A6.55,6.55,0,0,1,23,140c-1.43,1.38-3.75,2.06-7,2.06H4.35Zm5.88,4.45v5.51h4.46c1.64,0,2.67-.32,3.09-1a3.41,3.41,0,0,0,.64-1.85,2.65,2.65,0,0,0-.53-1.65,2.26,2.26,0,0,0-1.15-.87,11.66,11.66,0,0,0-2.47-.17Zm0,10v6.07h4.53a5.11,5.11,0,0,0,3.27-.81,3,3,0,0,0,0-4.37,4.34,4.34,0,0,0-3.06-.89Z"/><path class="e4496018-466f-4d4c-a22b-8731cf82be51" d="M49.3,121.64h-12v5.16h9.42v4.74H37.32V137h12v5h-18V116.84h18Z"/><path class="e4496018-466f-4d4c-a22b-8731cf82be51" d="M73.94,116.84,66.33,142H60l-7.56-25.17h6.27l5,18,5.24-18Z"/><path class="e4496018-466f-4d4c-a22b-8731cf82be51" d="M96.56,121.64h-12v5.16H94v4.74H84.58V137h12v5h-18V116.84h18Z"/><path class="e4496018-466f-4d4c-a22b-8731cf82be51" d="M108.42,132v10h-5.94V116.84h11.06a14.12,14.12,0,0,1,4.92.71,6.35,6.35,0,0,1,3.07,2.61,7.68,7.68,0,0,1,1.22,4.22,6.7,6.7,0,0,1-4.37,6.5L123,142h-6.51l-3.87-10Zm0-10.72v6.42H112a9.3,9.3,0,0,0,2.57-.25,2.75,2.75,0,0,0,1.43-1.1,3.26,3.26,0,0,0,.63-2,3,3,0,0,0-.63-1.88,2.56,2.56,0,0,0-1.36-1,12.69,12.69,0,0,0-2.77-.2Z"/><path class="e4496018-466f-4d4c-a22b-8731cf82be51" d="M142.05,116.84,149.93,142h-6.34L142,136.83H133.9L132.32,142h-5.17l8.07-25.17Zm-6.74,15.34h5.34L138,123.35Z"/><path class="e4496018-466f-4d4c-a22b-8731cf82be51" d="M173.82,128.55V142h-2.69a19.87,19.87,0,0,0-.84-2.89,8.47,8.47,0,0,1-6.86,3.28,9.16,9.16,0,0,1-7.67-3.52,14.4,14.4,0,0,1-2.74-9.11q0-6,2.92-9.66a10.67,10.67,0,0,1,14.73-1.29,10.19,10.19,0,0,1,3.15,6.28l-5.6.74c-.46-3-1.9-4.57-4.34-4.57a3.92,3.92,0,0,0-3.62,2.17,12.65,12.65,0,0,0-1.23,6.18,11,11,0,0,0,1.33,5.92,4.25,4.25,0,0,0,3.78,2.05,4.3,4.3,0,0,0,2.83-1,4,4,0,0,0,1.25-3.3h-4.74v-4.7Z"/><path class="e4496018-466f-4d4c-a22b-8731cf82be51" d="M198.83,121.64h-12v5.16h9.42v4.74h-9.42V137h12v5h-18V116.84h18Z"/><path class="e4496018-466f-4d4c-a22b-8731cf82be51" d="M222.13,122.37l-5,1.68a4.12,4.12,0,0,0-4.29-3c-2.33,0-3.49.75-3.49,2.26a2,2,0,0,0,.65,1.53,6.46,6.46,0,0,0,2.95,1.09,29.29,29.29,0,0,1,5.64,1.57,7.22,7.22,0,0,1,3,2.56,6.69,6.69,0,0,1,1.23,3.93,7.86,7.86,0,0,1-2.63,5.9c-1.75,1.66-4.35,2.49-7.78,2.49a11.89,11.89,0,0,1-6.59-1.76,8.34,8.34,0,0,1-3.58-5.23l5.45-1.23c.62,2.34,2.32,3.52,5.12,3.52a4.78,4.78,0,0,0,3-.79,2.31,2.31,0,0,0,1-1.87,1.93,1.93,0,0,0-.9-1.71,10.79,10.79,0,0,0-3.48-1.15c-3.2-.66-5.49-1.57-6.85-2.72a6.23,6.23,0,0,1-2-5,7.47,7.47,0,0,1,2.44-5.66,9.21,9.21,0,0,1,6.62-2.3Q220,116.46,222.13,122.37Z"/><g class="ba7843dd-e3d0-434f-8178-04a3b7af17b3"><path class="e4496018-466f-4d4c-a22b-8731cf82be51" d="M134.15,171c0,23.88-19.08,40.44-41.88,40.44-22,0-39.72-16.2-39.72-38.4,0-20.16,15.6-40.32,42.36-40.32C115,132.67,134.15,147.67,134.15,171ZM61,169.51c0,23.4,14.76,39,34.2,39,16.2,0,30.84-11.16,30.84-32.52,0-27.24-15.24-40.44-34.56-40.44C75.47,135.67,61,146.35,61,169.51Z"/><path class="e4496018-466f-4d4c-a22b-8731cf82be51" d="M203.39,136.63v47.52h11.88v4.92H203.39v8c0,8.4.36,10,10.56,10.8v1.68H185.63v-1.68c11-.84,11.76-2,11.76-10.68v-8.16h-31v-2.52c11-16.2,22.56-33.12,35.16-49.92Zm-6,47.52V147.43h-.24a362,362,0,0,0-24.84,36.72Z"/></g></g></svg>