<svg xmlns="http://www.w3.org/2000/svg" viewBox="0 0 228.33 228.33"><defs><style>.e345c27b-45ef-496f-8020-0a182e94a4b0{fill:#cec542;}.ba7a567b-2923-4fc5-a15c-e7754cd9a1cc{fill:#0d8469;}.f625155d-79ec-4c14-a4a4-2ea90081533a{fill:#fff;}.a662d548-5499-4b29-9d48-fdf8128cedda{opacity:0.25;}</style></defs><title>工作區域 2 複本 21</title><g id="a51cbf8e-72d3-4cdc-a614-6e04071e179c" data-name="圖層 3"><rect class="e345c27b-45ef-496f-8020-0a182e94a4b0" x="-270.1" y="-1855.01" width="1024" height="2183"/></g><g id="bd3284b6-f8fb-4bf7-8b80-70bcfa8061a8" data-name="圖層 1"><rect class="ba7a567b-2923-4fc5-a15c-e7754cd9a1cc" x="-5.96" y="-6.01" width="240.34" height="240.34"/><path class="e345c27b-45ef-496f-8020-0a182e94a4b0" d="M167.84,80.44h-4.51V64.66h4.26V67.6c.66-2.19,1.79-3.28,3.41-3.28.23,0,.51,0,.84.05V69a4.65,4.65,0,0,0-2.21.44A3.2,3.2,0,0,0,168.34,71a7.72,7.72,0,0,0-.5,3Z"/><path class="e345c27b-45ef-496f-8020-0a182e94a4b0" d="M181.49,58.68v4.66h-4.65V58.68Zm0,6V80.44h-4.65V64.66Z"/><path class="e345c27b-45ef-496f-8020-0a182e94a4b0" d="M201.6,74.52a6.69,6.69,0,0,1-2.21,4.53,7.31,7.31,0,0,1-5,1.72,7.14,7.14,0,0,1-5.44-2.21,8.21,8.21,0,0,1-2.1-5.91,8.47,8.47,0,0,1,2.14-6,7.48,7.48,0,0,1,5.75-2.3,6.83,6.83,0,0,1,4.79,1.73,6.38,6.38,0,0,1,2.1,4.34l-4.35.25c-.14-1.89-1-2.84-2.47-2.84q-2.76,0-2.76,4.53c0,2,.26,3.29.77,3.83a2.51,2.51,0,0,0,1.88.81q2.16,0,2.58-2.73Z"/><path class="e345c27b-45ef-496f-8020-0a182e94a4b0" d="M211.23,59.12v7.69a4.43,4.43,0,0,1,4.27-2.47,5.11,5.11,0,0,1,2.72.69,3.82,3.82,0,0,1,1.6,1.79,8.77,8.77,0,0,1,.46,3.2V80.44h-4.66v-8.9a13.16,13.16,0,0,0-.12-2.19,1.78,1.78,0,0,0-.57-1,1.59,1.59,0,0,0-1.11-.4,2.77,2.77,0,0,0-1.73.68c-.57.46-.86,1.42-.86,2.9v8.9h-4.51V59.12Z"/><path class="f625155d-79ec-4c14-a4a4-2ea90081533a" d="M14.24,94.45v26H8.16v-26Z"/><path class="f625155d-79ec-4c14-a4a4-2ea90081533a" d="M42.37,94.45v26H37.18L27,102.89q0,.66,0,.87a10.61,10.61,0,0,1,.08,1.13v15.55H22.38v-26h6.56l8.84,15.33c-.07-.76-.11-1.34-.11-1.73V94.45Z"/><path class="f625155d-79ec-4c14-a4a4-2ea90081533a" d="M50.52,94.45h7.93q4.84,0,7.23,1.34A12.59,12.59,0,0,1,69.94,100a13.21,13.21,0,0,1,1.89,7.34,13.57,13.57,0,0,1-3.3,9.32,11.43,11.43,0,0,1-9.07,3.74H50.52Zm6,4.78v16.32H59a5.48,5.48,0,0,0,4.94-2.48,11.12,11.12,0,0,0,.7-10.21A6.12,6.12,0,0,0,62.35,100a6.34,6.34,0,0,0-3.29-.81Z"/><path class="f625155d-79ec-4c14-a4a4-2ea90081533a" d="M84.8,94.45v26H78.73v-26Z"/><path class="f625155d-79ec-4c14-a4a4-2ea90081533a" d="M113.19,106.54v13.9h-2.78a20.37,20.37,0,0,0-.87-3,8.73,8.73,0,0,1-7.08,3.4,9.47,9.47,0,0,1-7.92-3.64,14.87,14.87,0,0,1-2.83-9.41q0-6.21,3-10a11,11,0,0,1,15.2-1.33,10.49,10.49,0,0,1,3.26,6.49l-5.79.76c-.47-3.14-2-4.72-4.47-4.72a4.08,4.08,0,0,0-3.75,2.24,13.19,13.19,0,0,0-1.26,6.39,11.31,11.31,0,0,0,1.37,6.11,4.37,4.37,0,0,0,3.9,2.11,4.48,4.48,0,0,0,2.93-1.06,4.21,4.21,0,0,0,1.28-3.41h-4.89v-4.86Z"/><path class="f625155d-79ec-4c14-a4a4-2ea90081533a" d="M139.48,99.4H127.1v5.33h9.73v4.9H127.1v5.67h12.38v5.14H120.92v-26h18.56Z"/><path class="f625155d-79ec-4c14-a4a4-2ea90081533a" d="M155.82,120.85a9.45,9.45,0,0,1-8.12-3.95,15.7,15.7,0,0,1-2.88-9.54,15.14,15.14,0,0,1,2.92-9.5A9.81,9.81,0,0,1,156,94.05a9.28,9.28,0,0,1,8.21,4.07,16.1,16.1,0,0,1,2.77,9.3,15.69,15.69,0,0,1-2.85,9.54A9.72,9.72,0,0,1,155.82,120.85ZM156,99q-4.78,0-4.79,8.42t4.79,8.43q4.63,0,4.64-8.41T156,99Z"/><path class="f625155d-79ec-4c14-a4a4-2ea90081533a" d="M194.41,94.45v16.19a14.35,14.35,0,0,1-.9,5.83,6.94,6.94,0,0,1-3.3,3.15,16.31,16.31,0,0,1-12.13.12,7.46,7.46,0,0,1-3.33-3.14,12.9,12.9,0,0,1-1.1-6V94.45h6.61v16.19a9.76,9.76,0,0,0,.35,3.08,2.83,2.83,0,0,0,1.41,1.57,5.29,5.29,0,0,0,2.6.58,6,6,0,0,0,2.79-.57,2.84,2.84,0,0,0,1.42-1.51,9.74,9.74,0,0,0,.36-3.15V94.45Z"/><path class="f625155d-79ec-4c14-a4a4-2ea90081533a" d="M220.12,100.16l-5.18,1.74a4.24,4.24,0,0,0-4.42-3.09c-2.41,0-3.61.78-3.61,2.34a2.09,2.09,0,0,0,.67,1.58,6.7,6.7,0,0,0,3.06,1.13,30.42,30.42,0,0,1,5.81,1.62,7.41,7.41,0,0,1,3.11,2.64,6.89,6.89,0,0,1,1.27,4.06,8.17,8.17,0,0,1-2.71,6.1q-2.72,2.56-8,2.57a12.26,12.26,0,0,1-6.8-1.82,8.66,8.66,0,0,1-3.7-5.4l5.63-1.28q1,3.65,5.29,3.64a5,5,0,0,0,3.11-.81,2.38,2.38,0,0,0,1-1.93,2,2,0,0,0-.93-1.77,11.19,11.19,0,0,0-3.6-1.19c-3.31-.68-5.66-1.62-7.07-2.81a6.4,6.4,0,0,1-2.11-5.2,7.74,7.74,0,0,1,2.52-5.85,9.59,9.59,0,0,1,6.84-2.38Q217.94,94.05,220.12,100.16Z"/><path class="f625155d-79ec-4c14-a4a4-2ea90081533a" d="M56,150.79v9.65H49.85v-26H60.09a14.82,14.82,0,0,1,5.25.73,7.82,7.82,0,0,1,3.25,2.62A7.47,7.47,0,0,1,70,142.43a9.64,9.64,0,0,1-.77,3.75,6.68,6.68,0,0,1-2.15,2.88,7.79,7.79,0,0,1-2.69,1.39,17.54,17.54,0,0,1-4.09.34Zm-.21-4.72h4A4.05,4.05,0,0,0,63,145a3.54,3.54,0,0,0,.91-2.4,3.26,3.26,0,0,0-1-2.51,4.42,4.42,0,0,0-3.1-.94H55.83Z"/><path class="f625155d-79ec-4c14-a4a4-2ea90081533a" d="M94.88,139.4H82.5v5.33h9.73v4.9H82.5v5.67H94.88v5.14H76.31v-26H94.88Z"/><path class="f625155d-79ec-4c14-a4a4-2ea90081533a" d="M111.22,160.85a9.45,9.45,0,0,1-8.12-3.95,15.7,15.7,0,0,1-2.88-9.54,15.2,15.2,0,0,1,2.91-9.5,9.83,9.83,0,0,1,8.3-3.81,9.29,9.29,0,0,1,8.21,4.07,16.17,16.17,0,0,1,2.77,9.3,15.63,15.63,0,0,1-2.86,9.54A9.69,9.69,0,0,1,111.22,160.85Zm.17-21.83q-4.78,0-4.79,8.42t4.79,8.43q4.64,0,4.64-8.41T111.39,139Z"/><path class="f625155d-79ec-4c14-a4a4-2ea90081533a" d="M147.88,139.4H135.5v5.33h9.73v4.9H135.5v5.67h12.38v5.14H129.31v-26h18.57Z"/><path class="f625155d-79ec-4c14-a4a4-2ea90081533a" d="M160.63,155.3H171v5.14H154.46v-26h6.17Z"/><path class="f625155d-79ec-4c14-a4a4-2ea90081533a" d="M195.59,139.4H183.21v5.33h9.73v4.9h-9.73v5.67h12.38v5.14H177v-26h18.57Z"/><path class="f625155d-79ec-4c14-a4a4-2ea90081533a" d="M220.13,140.16,215,141.9a4.26,4.26,0,0,0-4.43-3.09c-2.41,0-3.61.78-3.61,2.34a2.09,2.09,0,0,0,.67,1.58,6.7,6.7,0,0,0,3.06,1.13,30.34,30.34,0,0,1,5.82,1.62,7.38,7.38,0,0,1,3.1,2.64,6.89,6.89,0,0,1,1.27,4.06,8.13,8.13,0,0,1-2.71,6.1q-2.72,2.57-8,2.57a12.26,12.26,0,0,1-6.8-1.82,8.66,8.66,0,0,1-3.7-5.4l5.63-1.28q1,3.65,5.29,3.64a5,5,0,0,0,3.11-.81,2.38,2.38,0,0,0,1-1.93,2,2,0,0,0-.93-1.77,11.2,11.2,0,0,0-3.59-1.19q-5-1-7.08-2.81a6.4,6.4,0,0,1-2.11-5.2,7.74,7.74,0,0,1,2.52-5.85,9.59,9.59,0,0,1,6.84-2.38Q217.94,134.05,220.13,140.16Z"/><path class="e345c27b-45ef-496f-8020-0a182e94a4b0" d="M113.51,187.52a6.65,6.65,0,0,1-2.21,4.53,7.29,7.29,0,0,1-5,1.72,7.16,7.16,0,0,1-5.45-2.21,8.21,8.21,0,0,1-2.1-5.91,8.43,8.43,0,0,1,2.15-6,7.44,7.44,0,0,1,5.74-2.3,6.81,6.81,0,0,1,4.79,1.73,6.38,6.38,0,0,1,2.1,4.34l-4.34.25c-.15-1.89-1-2.84-2.47-2.84q-2.78,0-2.77,4.53c0,2,.26,3.29.78,3.83a2.49,2.49,0,0,0,1.88.81c1.44,0,2.29-.91,2.58-2.73Z"/><path class="e345c27b-45ef-496f-8020-0a182e94a4b0" d="M131.89,177.66v15.78h-4.31v-2.68a4.57,4.57,0,0,1-4.65,3,4.8,4.8,0,0,1-2.74-.66,3.73,3.73,0,0,1-1.37-1.81,10.51,10.51,0,0,1-.41-3.32V177.66h4.52V188c0,1.41.58,2.12,1.75,2.12a2.42,2.42,0,0,0,1.54-.51,2.24,2.24,0,0,0,.84-1.08,7.59,7.59,0,0,0,.18-2v-8.86Z"/><path class="e345c27b-45ef-496f-8020-0a182e94a4b0" d="M138.14,193.44V172.12h4.65v21.32Z"/><path class="e345c27b-45ef-496f-8020-0a182e94a4b0" d="M154.27,181.29V188a2.63,2.63,0,0,0,.38,1.67c.24.28.83.42,1.75.42.43,0,.92,0,1.48-.06v3.45a20.1,20.1,0,0,1-2.92.35c-1.94,0-3.31-.37-4.13-1.12s-1.21-2.09-1.21-4v-7.34h-2.5v-3.63h2.76l.38-4.65,4-.32v5h3.39v3.63Z"/><path class="e345c27b-45ef-496f-8020-0a182e94a4b0" d="M176.16,177.66v15.78h-4.32v-2.68a4.57,4.57,0,0,1-4.65,3,4.8,4.8,0,0,1-2.74-.66,3.65,3.65,0,0,1-1.36-1.81,10.18,10.18,0,0,1-.42-3.32V177.66h4.52V188c0,1.41.58,2.12,1.75,2.12a2.42,2.42,0,0,0,1.54-.51,2.24,2.24,0,0,0,.84-1.08,7.59,7.59,0,0,0,.18-2v-8.86Z"/><path class="e345c27b-45ef-496f-8020-0a182e94a4b0" d="M186.92,193.44H182.4V177.66h4.27v2.94c.65-2.19,1.79-3.28,3.4-3.28.23,0,.51,0,.85.05V182a4.6,4.6,0,0,0-2.21.44,3.1,3.1,0,0,0-1.29,1.57,7.54,7.54,0,0,0-.5,3.05Z"/><path class="e345c27b-45ef-496f-8020-0a182e94a4b0" d="M209.68,193.44h-4.52a10.87,10.87,0,0,1-.22-2.46,6.58,6.58,0,0,1-2.36,2.24,6.23,6.23,0,0,1-2.68.55,5.24,5.24,0,0,1-3.58-1.2,4.08,4.08,0,0,1-1.36-3.23,5,5,0,0,1,.79-2.74,5.24,5.24,0,0,1,2.56-2,24.74,24.74,0,0,1,6.43-1v-.91a2,2,0,0,0-2.29-2.3,2.42,2.42,0,0,0-2.73,2.3l-4.29-.41a4.89,4.89,0,0,1,2.54-3.81,10.14,10.14,0,0,1,4.82-1.12,11.87,11.87,0,0,1,3,.37,5.17,5.17,0,0,1,2.22,1.13,3.8,3.8,0,0,1,1.07,1.58,10.29,10.29,0,0,1,.28,2.92v7.15A10.63,10.63,0,0,0,209.68,193.44Zm-4.94-7.56c-3.25.33-4.88,1.31-4.88,3a2.12,2.12,0,0,0,.52,1.43,1.81,1.81,0,0,0,1.46.6,2.57,2.57,0,0,0,2.07-1,3.88,3.88,0,0,0,.83-2.52Z"/><path class="e345c27b-45ef-496f-8020-0a182e94a4b0" d="M215.64,193.44V172.12h4.65v21.32Z"/><g class="a662d548-5499-4b29-9d48-fdf8128cedda"><path class="f625155d-79ec-4c14-a4a4-2ea90081533a" d="M68.15,84.44c-1.32,3.72-2.28,7.44-3.72,13.08H22.32V95.6c6.6-6.6,13.31-13.32,19.07-20.16,6.24-7.2,16.08-16.56,16.08-28.56C57.47,36,51.83,30.2,42.35,30.2c-9,0-14,7.2-16.67,11.16l-1.8-1.44,6.48-9a21.21,21.21,0,0,1,15-6.36c9.48,0,18.6,6.72,18.6,18.36C64,53.48,58.31,61,48.71,71.36L30.12,91.64H54.83c6,0,7.8-.6,10.92-7.92Z"/><path class="f625155d-79ec-4c14-a4a4-2ea90081533a" d="M147.59,84.44c-1.32,3.72-2.28,7.44-3.72,13.08H101.75V95.6c6.6-6.6,13.32-13.32,19.08-20.16,6.24-7.2,16.08-16.56,16.08-28.56,0-10.92-5.64-16.68-15.12-16.68-9,0-14,7.2-16.68,11.16l-1.8-1.44,6.48-9a21.23,21.23,0,0,1,15-6.36c9.48,0,18.6,6.72,18.6,18.36,0,10.56-5.64,18.12-15.24,28.44l-18.6,20.28h24.72c6,0,7.8-.6,10.92-7.92Z"/></g></g></svg>