<svg xmlns="http://www.w3.org/2000/svg" viewBox="0 0 228.33 228.33"><defs><style>.e1c6b42c-6239-46cd-8b91-2788d8d94a1d{fill:#cec542;}.a1ae0942-38ce-4b6c-a2d5-3aa62cefa1f1{fill:#1aa28a;}.aaf925c6-6649-414f-b7ac-ac903ff0bf70{fill:#fff;}.eac8b83c-fcbd-42e9-adaa-62066a4e3785{opacity:0.25;}</style></defs><title>工作區域 2 複本 22</title><g id="e4ee6f99-36b4-4d76-8a23-7c4ad819cd25" data-name="圖層 3"><rect class="e1c6b42c-6239-46cd-8b91-2788d8d94a1d" x="-514.21" y="-1855.01" width="1024" height="2183"/></g><g id="af2e7d2a-5c6a-4865-810b-88a1ed4dab7e" data-name="圖層 1"><rect class="a1ae0942-38ce-4b6c-a2d5-3aa62cefa1f1" x="-0.06" width="228.33" height="228.33"/><path class="e1c6b42c-6239-46cd-8b91-2788d8d94a1d" d="M168,99.89h-4.52V84.11h4.27V87c.66-2.18,1.79-3.28,3.41-3.28.23,0,.51,0,.84,0V88.4a4.6,4.6,0,0,0-2.21.44,3.15,3.15,0,0,0-1.29,1.57,7.77,7.77,0,0,0-.5,3.06Z"/><path class="e1c6b42c-6239-46cd-8b91-2788d8d94a1d" d="M181.69,78.12v4.66H177V78.12Zm0,6V99.89H177V84.11Z"/><path class="e1c6b42c-6239-46cd-8b91-2788d8d94a1d" d="M201.79,94a6.65,6.65,0,0,1-2.21,4.52,7.29,7.29,0,0,1-5,1.73A7.17,7.17,0,0,1,189.11,98a8.21,8.21,0,0,1-2.1-5.91,8.48,8.48,0,0,1,2.15-6,7.49,7.49,0,0,1,5.74-2.3,6.84,6.84,0,0,1,4.79,1.73,6.32,6.32,0,0,1,2.1,4.35l-4.34.25c-.15-1.9-1-2.85-2.47-2.85-1.84,0-2.77,1.51-2.77,4.53,0,2,.26,3.29.78,3.83a2.49,2.49,0,0,0,1.88.81q2.16,0,2.58-2.73Z"/><path class="e1c6b42c-6239-46cd-8b91-2788d8d94a1d" d="M211.43,78.56v7.69a4.42,4.42,0,0,1,4.26-2.47,5.15,5.15,0,0,1,2.73.69A3.79,3.79,0,0,1,220,86.26a8.59,8.59,0,0,1,.46,3.21V99.89h-4.65V91a11.65,11.65,0,0,0-.13-2.18,1.78,1.78,0,0,0-.57-1,1.61,1.61,0,0,0-1.11-.4,2.8,2.8,0,0,0-1.73.68c-.57.46-.85,1.42-.85,2.9v8.91h-4.52V78.56Z"/><path class="aaf925c6-6649-414f-b7ac-ac903ff0bf70" d="M44.8,123.57l-6.38.4q-.14-5.5-4.3-5.51-4.77,0-4.77,8.48c0,3.26.44,5.47,1.3,6.63a4.25,4.25,0,0,0,3.63,1.75c2.51,0,4.06-1.64,4.61-4.92l5.91.37a10.46,10.46,0,0,1-3.48,7.09,10.69,10.69,0,0,1-7.11,2.43,10.81,10.81,0,0,1-8.39-3.56q-3.22-3.57-3.23-9.85a14.55,14.55,0,0,1,3.13-9.64,10.5,10.5,0,0,1,8.53-3.75Q43.61,113.49,44.8,123.57Z"/><path class="aaf925c6-6649-414f-b7ac-ac903ff0bf70" d="M71.72,113.89v16.19a14.4,14.4,0,0,1-.9,5.84,6.93,6.93,0,0,1-3.3,3.14,13.53,13.53,0,0,1-6.16,1.23,13.47,13.47,0,0,1-6-1.11A7.33,7.33,0,0,1,52.07,136a12.73,12.73,0,0,1-1.11-6V113.89h6.61v16.19a9.68,9.68,0,0,0,.35,3.08,2.88,2.88,0,0,0,1.41,1.58,5.4,5.4,0,0,0,2.6.58,6,6,0,0,0,2.79-.57,2.91,2.91,0,0,0,1.43-1.52,10.1,10.1,0,0,0,.35-3.15V113.89Z"/><path class="aaf925c6-6649-414f-b7ac-ac903ff0bf70" d="M85.65,134.75H96v5.14H79.48v-26h6.17Z"/><path class="aaf925c6-6649-414f-b7ac-ac903ff0bf70" d="M116.4,113.89V119H110v20.85h-6.17V119H97.31v-5.15Z"/><path class="aaf925c6-6649-414f-b7ac-ac903ff0bf70" d="M142.42,113.89v16.19a14.4,14.4,0,0,1-.9,5.84,6.88,6.88,0,0,1-3.3,3.14,16.31,16.31,0,0,1-12.13.12,7.33,7.33,0,0,1-3.32-3.14,12.73,12.73,0,0,1-1.11-6V113.89h6.61v16.19a10,10,0,0,0,.35,3.08,2.92,2.92,0,0,0,1.41,1.58,5.43,5.43,0,0,0,2.6.58,6,6,0,0,0,2.79-.57,2.91,2.91,0,0,0,1.43-1.52,10.1,10.1,0,0,0,.35-3.15V113.89Z"/><path class="aaf925c6-6649-414f-b7ac-ac903ff0bf70" d="M156.31,129.58v10.31h-6.13v-26h11.43a14.41,14.41,0,0,1,5.07.74,6.4,6.4,0,0,1,3.17,2.69,7.9,7.9,0,0,1,1.26,4.36,6.94,6.94,0,0,1-4.51,6.72l4.79,11.49h-6.72l-4-10.31Zm0-11.06v6.63H160a9.87,9.87,0,0,0,2.66-.26,2.93,2.93,0,0,0,1.48-1.14,3.37,3.37,0,0,0,.65-2,3.15,3.15,0,0,0-.65-1.94,2.65,2.65,0,0,0-1.41-1.06,13.57,13.57,0,0,0-2.86-.2Z"/><path class="aaf925c6-6649-414f-b7ac-ac903ff0bf70" d="M191.51,113.89l8.14,26H193.1l-1.6-5.35h-8.4l-1.63,5.35h-5.34l8.33-26Zm-6.95,15.85h5.51l-2.73-9.12Z"/><path class="aaf925c6-6649-414f-b7ac-ac903ff0bf70" d="M211.54,134.75h10.34v5.14H205.37v-26h6.17Z"/><path class="aaf925c6-6649-414f-b7ac-ac903ff0bf70" d="M45.39,153.89v26h-6V169.17H31.29v10.72h-6v-26h6V164h8.12V153.89Z"/><path class="aaf925c6-6649-414f-b7ac-ac903ff0bf70" d="M73.15,158.84H60.77v5.34H70.5v4.89H60.77v5.68H73.15v5.14H54.58v-26H73.15Z"/><path class="aaf925c6-6649-414f-b7ac-ac903ff0bf70" d="M86.92,169.58v10.31H80.78v-26H92.21a14.37,14.37,0,0,1,5.07.74,6.4,6.4,0,0,1,3.17,2.69,7.9,7.9,0,0,1,1.26,4.36,6.92,6.92,0,0,1-4.51,6.72l4.8,11.49H95.27l-4-10.31Zm0-11.06v6.63h3.73a9.78,9.78,0,0,0,2.65-.26,2.89,2.89,0,0,0,1.48-1.14,3.37,3.37,0,0,0,.65-2,3.15,3.15,0,0,0-.65-1.94,2.65,2.65,0,0,0-1.41-1.06,13.52,13.52,0,0,0-2.85-.2Z"/><path class="aaf925c6-6649-414f-b7ac-ac903ff0bf70" d="M116.47,153.89v26h-6.08v-26Z"/><path class="aaf925c6-6649-414f-b7ac-ac903ff0bf70" d="M142.14,153.89V159H135.7v20.85h-6.17V159h-6.47v-5.15Z"/><path class="aaf925c6-6649-414f-b7ac-ac903ff0bf70" d="M159.67,153.89l8.13,26h-6.54l-1.6-5.35h-8.41l-1.63,5.35h-5.33l8.33-26Zm-7,15.85h5.51l-2.73-9.12Z"/><path class="aaf925c6-6649-414f-b7ac-ac903ff0bf70" d="M194,166v13.9h-2.78a20.9,20.9,0,0,0-.87-3,8.77,8.77,0,0,1-7.09,3.39,9.49,9.49,0,0,1-7.92-3.64,14.91,14.91,0,0,1-2.83-9.41q0-6.21,3-10a11,11,0,0,1,15.21-1.33,10.57,10.57,0,0,1,3.26,6.49l-5.79.77q-.71-4.73-4.48-4.73A4.06,4.06,0,0,0,180,160.7a13.18,13.18,0,0,0-1.27,6.39,11.29,11.29,0,0,0,1.37,6.11,4.41,4.41,0,0,0,3.91,2.12,4.46,4.46,0,0,0,2.92-1.07,4.18,4.18,0,0,0,1.29-3.41h-4.9V166Z"/><path class="aaf925c6-6649-414f-b7ac-ac903ff0bf70" d="M221.35,158.84H209v5.34h9.73v4.89H209v5.68h12.38v5.14H202.78v-26h18.57Z"/><g class="eac8b83c-fcbd-42e9-adaa-62066a4e3785"><path class="aaf925c6-6649-414f-b7ac-ac903ff0bf70" d="M74.72,103.8c-1.32,3.72-2.28,7.44-3.72,13.08H28.88V115c6.6-6.6,13.32-13.32,19.08-20.16C54.2,87.6,64,78.24,64,66.24c0-10.92-5.64-16.68-15.12-16.68-9,0-14,7.2-16.68,11.16l-1.8-1.44,6.48-9a21.23,21.23,0,0,1,15-6.36c9.48,0,18.6,6.72,18.6,18.36,0,10.56-5.64,18.12-15.24,28.44L36.68,111H61.4c6,0,7.8-.6,10.92-7.92Z"/><path class="aaf925c6-6649-414f-b7ac-ac903ff0bf70" d="M117.44,49.92a20.6,20.6,0,0,1,14.16-6c10.08,0,16.44,6.48,16.44,14.4,0,5.4-4.44,9-12.12,13v.24c10.68,1.8,16.68,9.72,16.8,18.36,0,19.44-21.84,28.32-30.36,28.32-7.08-.12-12.24-4.32-12.24-6.72,0-1.32,2.64-4,4-4a3.82,3.82,0,0,1,2,.72c2.76,2.64,5.88,4.56,12.84,4.56,8.52,0,17-5.76,17-18.6,0-16.44-13.2-17.64-16.68-17.64a23.14,23.14,0,0,0-8.76,1.92l-.84-1.92c12.6-4.2,21.6-9,21.6-17,0-6.6-4.56-10.56-11.52-10.56-8.16,0-12.72,5.76-14.88,9.72L113,57.48Z"/></g></g></svg>