<svg xmlns="http://www.w3.org/2000/svg" viewBox="0 0 228.33 228.33"><defs><style>.b3c3cd9e-f8ac-4652-b4b9-057061331a06{fill:#cec542;}.f97c0cda-4869-4a73-9964-4ecfa0d398b9{fill:#5dbeab;}.eae7709d-21a6-4365-960e-572d306e9794{fill:#eeecf6;}.b642934e-b46f-4795-9d57-196e11207aaf,.b7253b8c-733b-4299-bf84-6ab1b92c65ce,.eca3aa59-f9ad-45a7-8afb-69b2c14efb20{fill:none;stroke-linecap:round;stroke-linejoin:round;}.b642934e-b46f-4795-9d57-196e11207aaf{stroke:#cec542;}.b642934e-b46f-4795-9d57-196e11207aaf,.eca3aa59-f9ad-45a7-8afb-69b2c14efb20{stroke-width:1.72px;}.b7253b8c-733b-4299-bf84-6ab1b92c65ce,.eca3aa59-f9ad-45a7-8afb-69b2c14efb20{stroke:#eeecf6;}.b7253b8c-733b-4299-bf84-6ab1b92c65ce,.e1c2515b-4003-4110-a863-1c29948c544d{opacity:0.54;}.bd94ade6-725c-45bf-92af-0c4af1896f86{opacity:0.45;}.b7253b8c-733b-4299-bf84-6ab1b92c65ce{stroke-width:3px;}</style></defs><title>工作區域 2 複本 23</title><g id="a6b49aed-5a3f-4c4d-8539-11b0706a40ce" data-name="圖層 3"><rect class="b3c3cd9e-f8ac-4652-b4b9-057061331a06" x="-746.07" y="-1853.66" width="1024" height="2183"/></g><g id="edcbb5c7-f1ca-4031-aca8-25ad08e525c7" data-name="圖層 1"><rect class="f97c0cda-4869-4a73-9964-4ecfa0d398b9" x="-4.53" y="-4.66" width="236.91" height="236.91"/><path class="b3c3cd9e-f8ac-4652-b4b9-057061331a06" d="M61.5,78.71v5.14H55.06V104.7H48.89V83.85H42.42V78.71Z"/><path class="b3c3cd9e-f8ac-4652-b4b9-057061331a06" d="M78,78.71l8.13,26H79.57L78,99.35H69.56l-1.63,5.35H62.6l8.33-26ZM71,94.55h5.51L73.8,85.43Z"/><path class="b3c3cd9e-f8ac-4652-b4b9-057061331a06" d="M97.91,78.71v26H91.84v-26Z"/><path class="b3c3cd9e-f8ac-4652-b4b9-057061331a06" d="M137.25,78.71l-6.53,26h-6l-4.28-17.19-4.12,17.19H110.4l-6.69-26h6.22l3.58,15.86q0,.12.21.84c0,.18.12.45.21.8l4.26-17.5h5.61l4.37,17.5c.09-.33.22-.88.38-1.64l3.69-15.86Z"/><path class="b3c3cd9e-f8ac-4652-b4b9-057061331a06" d="M154.68,78.71l8.13,26h-6.54l-1.6-5.35h-8.41l-1.62,5.35H139.3l8.33-26Zm-7,15.84h5.5l-2.73-9.12Z"/><path class="b3c3cd9e-f8ac-4652-b4b9-057061331a06" d="M188.53,78.71v26h-5.19L173.17,87.15q0,.66,0,.87a8.49,8.49,0,0,1,.08,1.13V104.7h-4.74v-26h6.56L183.94,94c-.07-.76-.11-1.34-.11-1.73V78.71Z"/><path class="b3c3cd9e-f8ac-4652-b4b9-057061331a06" d="M86.86,125.51v26h-5.2L71.49,134c0,.44,0,.73,0,.87a10.61,10.61,0,0,1,.08,1.13V151.5H66.86v-26h6.57l8.84,15.33a17.32,17.32,0,0,1-.11-1.73v-13.6Z"/><path class="b3c3cd9e-f8ac-4652-b4b9-057061331a06" d="M104.76,151.9A9.44,9.44,0,0,1,96.64,148a15.74,15.74,0,0,1-2.88-9.54,15.14,15.14,0,0,1,2.92-9.5,9.81,9.81,0,0,1,8.29-3.81,9.28,9.28,0,0,1,8.21,4.07,16.1,16.1,0,0,1,2.77,9.3A15.69,15.69,0,0,1,113.1,148,9.72,9.72,0,0,1,104.76,151.9Zm.17-21.82q-4.79,0-4.79,8.42t4.79,8.43q4.63,0,4.64-8.41T104.93,130.08Z"/><path class="b3c3cd9e-f8ac-4652-b4b9-057061331a06" d="M128.21,151.5h-5.89v-5.88h5.89Z"/><path class="b3c3cd9e-f8ac-4652-b4b9-057061331a06" d="M136.12,135.76V130.4q6.74-2,8.8-5.29h4.42v21.63h7.19v4.76H135.47v-4.76h7.89V131.87A58.82,58.82,0,0,1,136.12,135.76Z"/><path class="eae7709d-21a6-4365-960e-572d306e9794" d="M58.64,78.71v5.14H52.2V104.7H46V83.85H39.56V78.71Z"/><path class="eae7709d-21a6-4365-960e-572d306e9794" d="M75.12,78.71l8.14,26H76.71l-1.6-5.35h-8.4l-1.63,5.35H59.74l8.33-26Zm-7,15.84h5.5l-2.73-9.12Z"/><path class="eae7709d-21a6-4365-960e-572d306e9794" d="M95.06,78.71v26H89v-26Z"/><path class="eae7709d-21a6-4365-960e-572d306e9794" d="M134.39,78.71l-6.53,26h-6L117.6,87.51l-4.12,17.19h-5.94l-6.68-26h6.21l3.58,15.86.21.84c0,.18.12.45.21.8l4.26-17.5H121l4.37,17.5c.09-.33.21-.88.38-1.64l3.68-15.86Z"/><path class="eae7709d-21a6-4365-960e-572d306e9794" d="M151.82,78.71l8.14,26h-6.55l-1.6-5.35h-8.4l-1.63,5.35h-5.34l8.33-26Zm-6.95,15.84h5.51l-2.73-9.12Z"/><path class="eae7709d-21a6-4365-960e-572d306e9794" d="M185.68,78.71v26h-5.2L170.31,87.15c0,.44,0,.73,0,.87a10.27,10.27,0,0,1,.07,1.13V104.7h-4.74v-26h6.56L181.09,94c-.08-.76-.12-1.34-.12-1.73V78.71Z"/><path class="eae7709d-21a6-4365-960e-572d306e9794" d="M84,125.51v26H78.81L68.63,134c0,.44,0,.73,0,.87a10.61,10.61,0,0,1,.08,1.13V151.5H64v-26h6.56l8.84,15.33c-.07-.76-.11-1.34-.11-1.73v-13.6Z"/><path class="eae7709d-21a6-4365-960e-572d306e9794" d="M101.9,151.9A9.44,9.44,0,0,1,93.78,148a15.73,15.73,0,0,1-2.87-9.54,15.2,15.2,0,0,1,2.91-9.5,9.81,9.81,0,0,1,8.29-3.81,9.28,9.28,0,0,1,8.21,4.07,16.1,16.1,0,0,1,2.77,9.3,15.69,15.69,0,0,1-2.85,9.54C108.33,150.61,105.56,151.9,101.9,151.9Zm.17-21.82q-4.78,0-4.78,8.42t4.78,8.43q4.65,0,4.64-8.41T102.07,130.08Z"/><path class="eae7709d-21a6-4365-960e-572d306e9794" d="M125.35,151.5h-5.89v-5.88h5.89Z"/><path class="eae7709d-21a6-4365-960e-572d306e9794" d="M133.26,135.76V130.4q6.75-2,8.8-5.29h4.42v21.63h7.2v4.76H132.61v-4.76h7.89V131.87A58.82,58.82,0,0,1,133.26,135.76Z"/><line class="b642934e-b46f-4795-9d57-196e11207aaf" x1="87.71" y1="47.28" x2="87.71" y2="61.65"/><line class="b642934e-b46f-4795-9d57-196e11207aaf" x1="94.9" y1="54.46" x2="80.53" y2="54.46"/><line class="b642934e-b46f-4795-9d57-196e11207aaf" x1="92.79" y1="49.38" x2="82.63" y2="59.54"/><line class="b642934e-b46f-4795-9d57-196e11207aaf" x1="82.63" y1="49.38" x2="92.79" y2="59.54"/><line class="eca3aa59-f9ad-45a7-8afb-69b2c14efb20" x1="87.71" y1="165.95" x2="87.71" y2="180.32"/><line class="eca3aa59-f9ad-45a7-8afb-69b2c14efb20" x1="94.9" y1="173.13" x2="80.53" y2="173.13"/><line class="eca3aa59-f9ad-45a7-8afb-69b2c14efb20" x1="92.79" y1="168.05" x2="82.63" y2="178.21"/><line class="eca3aa59-f9ad-45a7-8afb-69b2c14efb20" x1="82.63" y1="168.05" x2="92.79" y2="178.21"/><line class="b642934e-b46f-4795-9d57-196e11207aaf" x1="113.92" y1="47.28" x2="113.92" y2="61.65"/><line class="b642934e-b46f-4795-9d57-196e11207aaf" x1="121.11" y1="54.46" x2="106.74" y2="54.46"/><line class="b642934e-b46f-4795-9d57-196e11207aaf" x1="119" y1="49.38" x2="108.84" y2="59.54"/><line class="b642934e-b46f-4795-9d57-196e11207aaf" x1="108.84" y1="49.38" x2="119" y2="59.54"/><line class="eca3aa59-f9ad-45a7-8afb-69b2c14efb20" x1="113.92" y1="165.95" x2="113.92" y2="180.32"/><line class="eca3aa59-f9ad-45a7-8afb-69b2c14efb20" x1="121.11" y1="173.13" x2="106.74" y2="173.13"/><line class="eca3aa59-f9ad-45a7-8afb-69b2c14efb20" x1="119" y1="168.05" x2="108.84" y2="178.21"/><line class="eca3aa59-f9ad-45a7-8afb-69b2c14efb20" x1="108.84" y1="168.05" x2="119" y2="178.21"/><line class="eca3aa59-f9ad-45a7-8afb-69b2c14efb20" x1="140.13" y1="47.28" x2="140.13" y2="61.65"/><line class="eca3aa59-f9ad-45a7-8afb-69b2c14efb20" x1="147.32" y1="54.46" x2="132.95" y2="54.46"/><line class="eca3aa59-f9ad-45a7-8afb-69b2c14efb20" x1="145.21" y1="49.38" x2="135.05" y2="59.54"/><line class="eca3aa59-f9ad-45a7-8afb-69b2c14efb20" x1="135.05" y1="49.38" x2="145.21" y2="59.54"/><line class="b642934e-b46f-4795-9d57-196e11207aaf" x1="140.13" y1="165.95" x2="140.13" y2="180.32"/><line class="b642934e-b46f-4795-9d57-196e11207aaf" x1="147.32" y1="173.13" x2="132.95" y2="173.13"/><line class="b642934e-b46f-4795-9d57-196e11207aaf" x1="145.21" y1="168.05" x2="135.05" y2="178.21"/><line class="b642934e-b46f-4795-9d57-196e11207aaf" x1="135.05" y1="168.05" x2="145.21" y2="178.21"/><g class="e1c2515b-4003-4110-a863-1c29948c544d"><path class="eae7709d-21a6-4365-960e-572d306e9794" d="M194.32,29.52a3.88,3.88,0,0,1,3.88,3.88V194.19a3.88,3.88,0,0,1-3.88,3.88H33.53a3.87,3.87,0,0,1-3.88-3.88V33.4a3.88,3.88,0,0,1,3.88-3.88H194.32m0-8.82H33.53a12.71,12.71,0,0,0-12.7,12.7V194.19a12.71,12.71,0,0,0,12.7,12.7H194.32a12.71,12.71,0,0,0,12.7-12.7V33.4a12.72,12.72,0,0,0-12.7-12.7Z"/></g><g class="bd94ade6-725c-45bf-92af-0c4af1896f86"><path class="eae7709d-21a6-4365-960e-572d306e9794" d="M204.88,10.78a12.06,12.06,0,0,1,12.06,12.06V204.75a12.06,12.06,0,0,1-12.06,12.07H23A12.06,12.06,0,0,1,10.9,204.75V22.84A12.06,12.06,0,0,1,23,10.78H204.88m0-.75H23A12.83,12.83,0,0,0,10.15,22.84V204.75A12.83,12.83,0,0,0,23,217.57H204.88a12.83,12.83,0,0,0,12.81-12.82V22.84A12.83,12.83,0,0,0,204.88,10Z"/></g><rect class="b7253b8c-733b-4299-bf84-6ab1b92c65ce" x="25.78" y="25.66" width="176.28" height="176.28" rx="7.02"/></g></svg>