<svg xmlns="http://www.w3.org/2000/svg" viewBox="0 0 228.33 228.33"><defs><style>.a117a66b-5679-45d1-8560-e1d6a7a36395{fill:#cec542;}.f3f8e93c-be30-4e09-a04f-ce32af8efe29{fill:#a75a4d;}.a68f6c06-7dc9-48c1-9136-dedd3ff0a639{fill:#fff;}.fa4195b1-6df2-4a5a-8f23-8085c60afd11{opacity:0.25;}</style></defs><title>工作區域 2 複本</title><g id="b6b6e46b-507f-4dd9-898e-5b2ee4ed6da2" data-name="圖層 3"><rect class="a117a66b-5679-45d1-8560-e1d6a7a36395" x="-286.86" y="-526.98" width="1024" height="2183"/></g><g id="f052def1-7232-41bf-ad49-1c83e8640fab" data-name="圖層 1"><rect class="f3f8e93c-be30-4e09-a04f-ce32af8efe29" x="-0.04" y="-0.01" width="228.33" height="228.33"/><path class="a117a66b-5679-45d1-8560-e1d6a7a36395" d="M15,57.05,9.77,39.66V57.05H5.58V35.72h7.78L17.1,48.48,21,35.72h7.81V57.05h-5V39.66L18.45,57.05Z"/><path class="a117a66b-5679-45d1-8560-e1d6a7a36395" d="M49,57.05H44.53a11,11,0,0,1-.22-2.47,6.52,6.52,0,0,1-2.37,2.24,6.16,6.16,0,0,1-2.67.55,5.22,5.22,0,0,1-3.58-1.2,4.09,4.09,0,0,1-1.37-3.23,5,5,0,0,1,.8-2.74,5.25,5.25,0,0,1,2.56-2,24.66,24.66,0,0,1,6.43-1.05v-.91a2,2,0,0,0-2.3-2.3,2.41,2.41,0,0,0-2.72,2.3l-4.3-.41a4.87,4.87,0,0,1,2.55-3.81,10.13,10.13,0,0,1,4.81-1.12,11.87,11.87,0,0,1,3,.37,5.05,5.05,0,0,1,2.22,1.13A4,4,0,0,1,48.48,44a10.29,10.29,0,0,1,.28,2.92v7.15A11.29,11.29,0,0,0,49,57.05Zm-4.93-7.57c-3.25.33-4.88,1.31-4.88,3a2.14,2.14,0,0,0,.51,1.43,1.84,1.84,0,0,0,1.47.6,2.53,2.53,0,0,0,2.06-1,3.83,3.83,0,0,0,.84-2.52Z"/><path class="a117a66b-5679-45d1-8560-e1d6a7a36395" d="M68.72,57.05H64.07V48.19A13,13,0,0,0,63.94,46a1.76,1.76,0,0,0-.61-1,1.79,1.79,0,0,0-1.22-.42q-2.45,0-2.45,3.63v8.86H55V41.26h4.33v2.68a6.11,6.11,0,0,1,2.13-2.46,4.83,4.83,0,0,1,2.26-.54,5.29,5.29,0,0,1,3.63,1.21q1.37,1.2,1.37,4.76Z"/><path class="a117a66b-5679-45d1-8560-e1d6a7a36395" d="M86.89,41.26l-5,15.14a25.6,25.6,0,0,1-1.42,3.67,4.57,4.57,0,0,1-1.68,1.81,5.9,5.9,0,0,1-3.07.68,14.6,14.6,0,0,1-2.24-.19V58.8a13.81,13.81,0,0,0,2.29.21,2.53,2.53,0,0,0,1.85-.51,3.43,3.43,0,0,0,.7-1.46L72.62,41.26h4.93l3,9.4,2.93-9.4Z"/><path class="a117a66b-5679-45d1-8560-e1d6a7a36395" d="M115.58,51.12a6.65,6.65,0,0,1-2.21,4.53,7.29,7.29,0,0,1-5,1.72,7.16,7.16,0,0,1-5.45-2.21,8.21,8.21,0,0,1-2.1-5.91,8.43,8.43,0,0,1,2.15-6,7.44,7.44,0,0,1,5.74-2.3,6.81,6.81,0,0,1,4.79,1.73,6.4,6.4,0,0,1,2.1,4.34l-4.34.25c-.15-1.89-1-2.84-2.47-2.84Q106,44.42,106,49c0,2,.26,3.29.77,3.83a2.53,2.53,0,0,0,1.89.81c1.44,0,2.29-.91,2.58-2.73Z"/><path class="a117a66b-5679-45d1-8560-e1d6a7a36395" d="M125.21,35.72v7.69a4.44,4.44,0,0,1,4.27-2.47,5.17,5.17,0,0,1,2.73.69,3.9,3.9,0,0,1,1.59,1.79,8.56,8.56,0,0,1,.46,3.2V57.05h-4.65V48.14a12.84,12.84,0,0,0-.13-2.19,1.78,1.78,0,0,0-.57-1,1.56,1.56,0,0,0-1.11-.4,2.8,2.8,0,0,0-1.73.68c-.57.46-.86,1.42-.86,2.9v8.91H120.7V35.72Z"/><path class="a117a66b-5679-45d1-8560-e1d6a7a36395" d="M147,40.94a7,7,0,0,1,5.63,2.36,8.73,8.73,0,0,1,2,5.9,8.41,8.41,0,0,1-2.1,5.84A7.12,7.12,0,0,1,147,57.37a6.8,6.8,0,0,1-5.39-2.31,8.68,8.68,0,0,1-2-5.94,9.16,9.16,0,0,1,.91-4.27A7.57,7.57,0,0,1,143,42,7.08,7.08,0,0,1,147,40.94Zm.13,3a2.23,2.23,0,0,0-2,1,8.36,8.36,0,0,0-.67,4.07,9.28,9.28,0,0,0,.64,4,2.1,2.1,0,0,0,2,1.22,2.22,2.22,0,0,0,1.91-1,7.39,7.39,0,0,0,.74-4,9.35,9.35,0,0,0-.65-4.22A2.13,2.13,0,0,0,147.17,44Z"/><path class="a117a66b-5679-45d1-8560-e1d6a7a36395" d="M164.69,35.28v4.66H160V35.28Zm0,6V57.05H160V41.26Z"/><path class="a117a66b-5679-45d1-8560-e1d6a7a36395" d="M184.79,51.12a6.69,6.69,0,0,1-2.21,4.53,7.3,7.3,0,0,1-5,1.72,7.14,7.14,0,0,1-5.44-2.21,8.21,8.21,0,0,1-2.1-5.91,8.43,8.43,0,0,1,2.15-6,7.44,7.44,0,0,1,5.74-2.3,6.83,6.83,0,0,1,4.79,1.73,6.4,6.4,0,0,1,2.1,4.34l-4.35.25c-.14-1.89-1-2.84-2.46-2.84q-2.78,0-2.77,4.53c0,2,.26,3.29.77,3.83a2.53,2.53,0,0,0,1.89.81c1.43,0,2.29-.91,2.57-2.73Z"/><path class="a117a66b-5679-45d1-8560-e1d6a7a36395" d="M203.86,49.94H193.7c0,.28,0,.52,0,.73a3.36,3.36,0,0,0,.9,2.55,3,3,0,0,0,2.15.86,2.64,2.64,0,0,0,2.79-2.49l4.22.32q-1.77,5.46-7.17,5.46a8,8,0,0,1-4-.94,7.51,7.51,0,0,1-2.72-2.76,8.44,8.44,0,0,1-1.07-4.34,8.59,8.59,0,0,1,2.15-6.08,7.61,7.61,0,0,1,10.75-.17C203.13,44.52,203.86,46.8,203.86,49.94Zm-10.17-2.71h5.61c-.15-2.16-1-3.25-2.67-3.25S193.9,45.07,193.69,47.23Z"/><path class="a117a66b-5679-45d1-8560-e1d6a7a36395" d="M221,45.08l-3.39.9a2.84,2.84,0,0,0-3.08-2.14c-1.56,0-2.34.48-2.34,1.43a1.09,1.09,0,0,0,.43.9,5.75,5.75,0,0,0,2.24.57,20.28,20.28,0,0,1,4,.82,4.16,4.16,0,0,1,2.06,1.58,4.76,4.76,0,0,1,.75,2.73,4.89,4.89,0,0,1-1.85,4,7.9,7.9,0,0,1-5.18,1.53c-4,0-6.42-1.55-7.2-4.67l3.92-.58c.32,1.42,1.49,2.13,3.5,2.13a4.13,4.13,0,0,0,1.95-.42,1.23,1.23,0,0,0,.8-1.12c0-.73-.59-1.16-1.76-1.29q-4.79-.6-6.29-1.84a4.21,4.21,0,0,1-1.51-3.46,4.61,4.61,0,0,1,1.75-3.71,7.39,7.39,0,0,1,4.9-1.47,7.16,7.16,0,0,1,4,1A6.16,6.16,0,0,1,221,45.08Z"/><path class="a117a66b-5679-45d1-8560-e1d6a7a36395" d="M10.22,85.89V98.05H5.69V85.89H3.86V82.26H5.69A15,15,0,0,1,6,78.71a3.6,3.6,0,0,1,1.65-2,6.51,6.51,0,0,1,3.61-.87,16.32,16.32,0,0,1,2.15.17v3.59c-.66-.05-1.21-.07-1.65-.07a1.37,1.37,0,0,0-1.27.5,3.14,3.14,0,0,0-.31,1.62v.59h2.86v3.63Z"/><path class="a117a66b-5679-45d1-8560-e1d6a7a36395" d="M24.32,81.94a7,7,0,0,1,5.62,2.36,8.73,8.73,0,0,1,2,5.9A8.41,8.41,0,0,1,29.86,96a7.1,7.1,0,0,1-5.58,2.33,6.82,6.82,0,0,1-5.39-2.31,8.68,8.68,0,0,1-2-5.94,9.29,9.29,0,0,1,.91-4.27A7.66,7.66,0,0,1,20.29,83,7.09,7.09,0,0,1,24.32,81.94Zm.12,3a2.21,2.21,0,0,0-2,1c-.45.68-.67,2-.67,4.07a9.13,9.13,0,0,0,.64,4,2.09,2.09,0,0,0,2,1.22,2.24,2.24,0,0,0,1.92-1,7.5,7.5,0,0,0,.73-4,9.35,9.35,0,0,0-.65-4.22A2.13,2.13,0,0,0,24.44,85Z"/><path class="a117a66b-5679-45d1-8560-e1d6a7a36395" d="M41.82,98.05H37.3V82.26h4.27V85.2c.65-2.19,1.79-3.28,3.4-3.28.23,0,.51,0,.85,0v4.59a4.6,4.6,0,0,0-2.21.44,3.1,3.1,0,0,0-1.29,1.57,7.54,7.54,0,0,0-.5,3.05Z"/><path class="a68f6c06-7dc9-48c1-9136-dedd3ff0a639" d="M6,113.72h11.8a11.26,11.26,0,0,1,4.77.78,7.08,7.08,0,0,1,2.64,2.22,5.9,5.9,0,0,1,1,3.52q0,4.22-4.56,5.62a6.49,6.49,0,0,1,3.95,2.36,6.29,6.29,0,0,1,1.32,3.84A6.61,6.61,0,0,1,24.78,137q-2.16,2.07-7,2.07H6Zm5.92,4.47v5.55h4.49c1.64,0,2.68-.33,3.11-1a3.39,3.39,0,0,0,.64-1.86,2.68,2.68,0,0,0-.53-1.66,2.17,2.17,0,0,0-1.16-.87,11,11,0,0,0-2.49-.18Zm0,10.06v6.1h4.55a5.11,5.11,0,0,0,3.3-.82,2.82,2.82,0,0,0,1-2.28,2.85,2.85,0,0,0-.92-2.11,4.33,4.33,0,0,0-3.08-.89Z"/><path class="a68f6c06-7dc9-48c1-9136-dedd3ff0a639" d="M38.61,129v10h-6V113.72H43.77a14.24,14.24,0,0,1,4.94.71,6.38,6.38,0,0,1,3.09,2.63A7.64,7.64,0,0,1,53,121.3a6.74,6.74,0,0,1-4.39,6.55l4.67,11.2H46.75l-3.89-10Zm0-10.78v6.45h3.63a9.47,9.47,0,0,0,2.59-.25,2.78,2.78,0,0,0,1.44-1.11,3.27,3.27,0,0,0,.63-2,3.07,3.07,0,0,0-.63-1.89,2.64,2.64,0,0,0-1.37-1,13.11,13.11,0,0,0-2.79-.19Z"/><path class="a68f6c06-7dc9-48c1-9136-dedd3ff0a639" d="M77.6,118.54H65.54v5.2H75v4.77H65.54V134H77.6v5H59.51V113.72H77.6Z"/><path class="a68f6c06-7dc9-48c1-9136-dedd3ff0a639" d="M95.51,113.72l7.92,25.33H97.06l-1.56-5.22H87.31l-1.59,5.22h-5.2l8.12-25.33Zm-6.78,15.44H94.1l-2.66-8.89Z"/><path class="a68f6c06-7dc9-48c1-9136-dedd3ff0a639" d="M113.89,113.72v11.9l7.94-11.9h5.68l-6.09,9L129,139.05h-6.54l-5-11-3.55,5.19v5.81h-5.83V113.72Z"/><path class="a68f6c06-7dc9-48c1-9136-dedd3ff0a639" d="M151.93,118.73H140.08v5.68h9.37v4.73h-9.37v9.91h-6.16V113.72h18Z"/><path class="a68f6c06-7dc9-48c1-9136-dedd3ff0a639" d="M167.8,113.72l7.93,25.33h-6.38l-1.56-5.22H159.6L158,139.05h-5.2l8.12-25.33ZM161,129.16h5.37l-2.66-8.89Z"/><path class="a68f6c06-7dc9-48c1-9136-dedd3ff0a639" d="M197.85,119.28l-5,1.69a4.12,4.12,0,0,0-4.31-3c-2.34,0-3.52.76-3.52,2.28a2,2,0,0,0,.66,1.54,6.61,6.61,0,0,0,3,1.1,29.73,29.73,0,0,1,5.67,1.57,7.43,7.43,0,0,1,3,2.57,6.8,6.8,0,0,1,1.23,4,7.92,7.92,0,0,1-2.64,5.94q-2.66,2.5-7.84,2.51a11.92,11.92,0,0,1-6.62-1.78,8.38,8.38,0,0,1-3.61-5.26l5.49-1.24q.93,3.54,5.15,3.54a4.85,4.85,0,0,0,3-.79,2.34,2.34,0,0,0,1-1.88,2,2,0,0,0-.91-1.72,10.71,10.71,0,0,0-3.5-1.15c-3.23-.67-5.52-1.59-6.9-2.74a6.28,6.28,0,0,1-2-5.08,7.53,7.53,0,0,1,2.45-5.69,9.31,9.31,0,0,1,6.67-2.32Q195.71,113.33,197.85,119.28Z"/><path class="a68f6c06-7dc9-48c1-9136-dedd3ff0a639" d="M220.55,113.72v5h-6.27v20.32h-6V118.73H202v-5Z"/><g class="fa4195b1-6df2-4a5a-8f23-8085c60afd11"><path class="a68f6c06-7dc9-48c1-9136-dedd3ff0a639" d="M134.89,171c0,23.88-19.08,40.44-41.88,40.44-22,0-39.72-16.2-39.72-38.4,0-20.16,15.6-40.32,42.36-40.32C115.69,132.67,134.89,147.67,134.89,171Zm-73.2-1.44c0,23.4,14.76,39,34.2,39,16.2,0,30.84-11.16,30.84-32.52,0-27.24-15.24-40.44-34.56-40.44C76.21,135.67,61.69,146.35,61.69,169.51Z"/><path class="a68f6c06-7dc9-48c1-9136-dedd3ff0a639" d="M214,196.51c-1.32,3.72-2.28,7.44-3.72,13.08H168.13v-1.92c6.6-6.6,13.32-13.32,19.08-20.16,6.24-7.2,16.08-16.56,16.08-28.56,0-10.92-5.64-16.68-15.12-16.68-9,0-14,7.2-16.68,11.16l-1.8-1.44,6.48-9a21.23,21.23,0,0,1,15-6.36c9.48,0,18.6,6.72,18.6,18.36,0,10.56-5.64,18.12-15.24,28.44l-18.6,20.28h24.72c6,0,7.8-.6,10.92-7.92Z"/></g></g></svg>