<svg xmlns="http://www.w3.org/2000/svg" viewBox="0 0 228.33 228.33"><defs><style>.b7784b02-0bdf-409e-be8f-b0a721f2b419{fill:#cec542;}.a85b8712-4ff0-4a02-a10c-e4d83fb476f2{fill:#95364b;}.fc902694-96e9-46d8-84a7-f4ff025c46e0{fill:#fff;}.e8e4d193-a083-43f8-927e-ca2fa4e6490f{opacity:0.25;}</style></defs><title>工作區域 2</title><g id="ba6cca23-42ce-4450-b7b8-0f45be323d56" data-name="圖層 3"><rect class="b7784b02-0bdf-409e-be8f-b0a721f2b419" x="-39.49" y="-527.44" width="1024" height="2183"/></g><g id="a180e86d-0d33-4aa8-9e0f-e679138a6a16" data-name="圖層 1"><rect class="a85b8712-4ff0-4a02-a10c-e4d83fb476f2" x="-9.57" y="-9.52" width="247.37" height="247.37"/><path class="fc902694-96e9-46d8-84a7-f4ff025c46e0" d="M35.05,96.37l-6.38.4q-.14-5.51-4.29-5.51-4.77,0-4.78,8.48c0,3.26.44,5.47,1.3,6.64a4.28,4.28,0,0,0,3.63,1.74q3.78,0,4.62-4.92l5.9.37a10.46,10.46,0,0,1-3.48,7.09,10.69,10.69,0,0,1-7.11,2.43,10.81,10.81,0,0,1-8.39-3.56q-3.23-3.57-3.23-9.85A14.56,14.56,0,0,1,16,90.05a10.51,10.51,0,0,1,8.53-3.76Q33.88,86.29,35.05,96.37Z"/><path class="fc902694-96e9-46d8-84a7-f4ff025c46e0" d="M54,86.69l8.14,26H55.58L54,107.34h-8.4l-1.63,5.35H38.6l8.33-26ZM47,102.54h5.51l-2.73-9.12Z"/><path class="fc902694-96e9-46d8-84a7-f4ff025c46e0" d="M87.84,86.69v26h-5.2L72.47,95.13c0,.44,0,.74,0,.88a10.27,10.27,0,0,1,.08,1.12v15.56H67.84v-26h6.57L83.25,102a17.32,17.32,0,0,1-.11-1.73V86.69Z"/><path class="fc902694-96e9-46d8-84a7-f4ff025c46e0" d="M95.62,97.3l2.65-5.18H95.62V86.69h5.54v4.75L97.74,97.3Z"/><path class="fc902694-96e9-46d8-84a7-f4ff025c46e0" d="M125.42,86.69v5.15H119v20.85h-6.17V91.84h-6.48V86.69Z"/><path class="b7784b02-0bdf-409e-be8f-b0a721f2b419" d="M26.82,131.36v21.33h-4.3v-2.47a4.85,4.85,0,0,1-4.35,2.8,4.79,4.79,0,0,1-4.12-2.14A10.05,10.05,0,0,1,12.54,145a10.87,10.87,0,0,1,1.51-6.17,5,5,0,0,1,4.37-2.22,4.43,4.43,0,0,1,3.88,2v-7.2ZM22.3,143.52q0-3.72-2.25-3.72-2.7,0-2.7,5.25,0,4.66,2.52,4.67a2.18,2.18,0,0,0,1.7-.84,3.58,3.58,0,0,0,.73-2.41Z"/><path class="b7784b02-0bdf-409e-be8f-b0a721f2b419" d="M37.58,152.69H33.06V136.91h4.27v2.93c.65-2.18,1.79-3.28,3.4-3.28.23,0,.51,0,.85.05v4.59a4.6,4.6,0,0,0-2.21.44,3.15,3.15,0,0,0-1.29,1.57,7.59,7.59,0,0,0-.5,3.06Z"/><path class="b7784b02-0bdf-409e-be8f-b0a721f2b419" d="M51.23,130.92v4.66H46.57v-4.66Zm0,6v15.78H46.57V136.91Z"/><path class="b7784b02-0bdf-409e-be8f-b0a721f2b419" d="M71.17,152.69H66.52v-8.86a11.83,11.83,0,0,0-.13-2.2,1.7,1.7,0,0,0-.61-1,1.79,1.79,0,0,0-1.22-.42q-2.45,0-2.45,3.63v8.86H57.46V136.91h4.32v2.67a6,6,0,0,1,2.13-2.45,4.75,4.75,0,0,1,2.26-.55,5.29,5.29,0,0,1,3.63,1.21c.91.81,1.37,2.39,1.37,4.76Z"/><path class="b7784b02-0bdf-409e-be8f-b0a721f2b419" d="M87.84,142.26,93,152.69H87.84l-3.29-7.15-2.74,3.15v4H77.42V131.36h4.39v12.78l.68-.86c.3-.39.54-.71.74-.95l4.6-5.42h4.54Z"/><path class="fc902694-96e9-46d8-84a7-f4ff025c46e0" d="M30.55,166.69v5.15H24.12v20.85H18V171.84H11.47v-5.15Z"/><path class="fc902694-96e9-46d8-84a7-f4ff025c46e0" d="M46.06,166.69l8.13,26H47.65l-1.6-5.35H37.64L36,192.69H30.68l8.33-26Zm-7,15.85h5.5l-2.73-9.12Z"/><path class="fc902694-96e9-46d8-84a7-f4ff025c46e0" d="M65.13,183v9.66H58.94v-26H69.19a14.64,14.64,0,0,1,5.25.74,7.72,7.72,0,0,1,3.24,2.62,7.42,7.42,0,0,1,1.43,4.62,9.56,9.56,0,0,1-.76,3.75,6.84,6.84,0,0,1-2.15,2.88,7.91,7.91,0,0,1-2.7,1.39,17.5,17.5,0,0,1-4.08.34Zm-.21-4.72h4a4,4,0,0,0,3.18-1.05,3.55,3.55,0,0,0,.92-2.4,3.23,3.23,0,0,0-1-2.51,4.46,4.46,0,0,0-3.09-.93h-4Z"/><path class="fc902694-96e9-46d8-84a7-f4ff025c46e0" d="M127.32,166.69l-6.52,26h-6l-4.27-17.2-4.13,17.2h-5.93l-6.69-26H100l3.59,15.87c0,.07.08.35.21.83,0,.18.12.45.21.8l4.25-17.5h5.62l4.37,17.5c.09-.33.21-.87.38-1.63l3.69-15.87Z"/><path class="fc902694-96e9-46d8-84a7-f4ff025c46e0" d="M143.78,166.69l8.14,26h-6.55l-1.6-5.35h-8.4l-1.63,5.35H128.4l8.33-26Zm-6.95,15.85h5.5l-2.73-9.12Z"/><path class="fc902694-96e9-46d8-84a7-f4ff025c46e0" d="M171.16,166.69v5.15h-6.44v20.85h-6.17V171.84h-6.47v-5.15Z"/><path class="fc902694-96e9-46d8-84a7-f4ff025c46e0" d="M194.28,171.64H181.9V177h9.74v4.89H181.9v5.68h12.38v5.14H175.72v-26h18.56Z"/><path class="fc902694-96e9-46d8-84a7-f4ff025c46e0" d="M206,182.38v10.31h-6.13v-26h11.42a14.47,14.47,0,0,1,5.08.74,6.5,6.5,0,0,1,3.17,2.69,7.9,7.9,0,0,1,1.26,4.36,6.93,6.93,0,0,1-4.52,6.72l4.8,11.49h-6.73l-4-10.31Zm0-11.06V178h3.73a9.87,9.87,0,0,0,2.66-.26,2.91,2.91,0,0,0,1.47-1.14,3.3,3.3,0,0,0,.65-2,3.09,3.09,0,0,0-.65-1.94,2.67,2.67,0,0,0-1.4-1.06,13.57,13.57,0,0,0-2.86-.2Z"/><g class="e8e4d193-a083-43f8-927e-ca2fa4e6490f"><path class="fc902694-96e9-46d8-84a7-f4ff025c46e0" d="M147.81,61c0,23.88-19.08,40.44-41.88,40.44-22,0-39.72-16.2-39.72-38.4,0-20.16,15.6-40.32,42.36-40.32C128.61,22.69,147.81,37.69,147.81,61Zm-73.2-1.44c0,23.4,14.76,39,34.2,39,16.2,0,30.84-11.16,30.84-32.52,0-27.24-15.24-40.44-34.56-40.44C89.13,25.69,74.61,36.37,74.61,59.53Z"/><path class="fc902694-96e9-46d8-84a7-f4ff025c46e0" d="M191.13,97.93C202.29,96.85,203,95.53,203,87.49v-46c0-5.16-.48-6-6.12-6.6l-5.16-.6v-1.8c7.44-1.32,13.44-3.48,17.16-5.88V87.49c0,8,.84,9.36,12,10.44v1.68H191.13Z"/></g></g></svg>