<svg xmlns="http://www.w3.org/2000/svg" viewBox="0 0 228.33 228.33"><defs><style>.b5c97280-9b2e-4572-b71e-973b809c1184{fill:#cec542;}.aba042f0-a5f8-4e85-8b3e-b6783ecbf655{fill:#8c583b;}.a7567ea6-028a-41c1-a47d-1242e6ae51b2{fill:#fff;}.b4191254-a5de-44a7-8021-f5f50100ac23{opacity:0.25;}</style></defs><title>工作區域 2 複本 4</title><g id="a10697aa-140d-477f-8cf7-f6dbba1ff389" data-name="圖層 3"><rect class="b5c97280-9b2e-4572-b71e-973b809c1184" x="-29.73" y="-781.4" width="1024" height="2183"/></g><g id="a1ce9a2c-e7e4-4d56-b070-617483b23b4b" data-name="圖層 1"><rect class="aba042f0-a5f8-4e85-8b3e-b6783ecbf655" x="0.2" y="0.11" width="228.33" height="228.33"/><path class="b5c97280-9b2e-4572-b71e-973b809c1184" d="M29.67,53.64A7.77,7.77,0,0,1,23,50.41a13,13,0,0,1-2.36-7.83A12.51,12.51,0,0,1,23,34.78a8.06,8.06,0,0,1,6.81-3.12A7.61,7.61,0,0,1,36.57,35a13.22,13.22,0,0,1,2.27,7.64,12.84,12.84,0,0,1-2.34,7.82A7.94,7.94,0,0,1,29.67,53.64Zm.14-17.9q-3.93,0-3.93,6.9c0,4.62,1.31,6.92,3.93,6.92s3.8-2.3,3.8-6.9S32.34,35.74,29.81,35.74Z"/><path class="b5c97280-9b2e-4572-b71e-973b809c1184" d="M49.15,41.16V53.31H44.62V41.16H42.79V37.53h1.83A15,15,0,0,1,45,34a3.62,3.62,0,0,1,1.65-2,6.6,6.6,0,0,1,3.61-.86,15,15,0,0,1,2.16.17v3.59c-.67,0-1.22-.08-1.66-.08a1.4,1.4,0,0,0-1.27.5,3.21,3.21,0,0,0-.31,1.63v.59H52v3.63Z"/><path class="b5c97280-9b2e-4572-b71e-973b809c1184" d="M62.27,41.16V53.31H57.74V41.16H55.91V37.53h1.83A15,15,0,0,1,58.09,34a3.62,3.62,0,0,1,1.65-2,6.6,6.6,0,0,1,3.61-.86,14.76,14.76,0,0,1,2.15.17v3.59c-.66,0-1.21-.08-1.65-.08a1.4,1.4,0,0,0-1.27.5,3.21,3.21,0,0,0-.31,1.63v.59h2.86v3.63Z"/><path class="b5c97280-9b2e-4572-b71e-973b809c1184" d="M74.7,31.55V36.2H70V31.55Zm0,6V53.31H70V37.53Z"/><path class="b5c97280-9b2e-4572-b71e-973b809c1184" d="M94.8,47.39a6.63,6.63,0,0,1-2.21,4.53,7.27,7.27,0,0,1-5,1.72,7.17,7.17,0,0,1-5.45-2.21A8.21,8.21,0,0,1,80,45.52a8.48,8.48,0,0,1,2.15-6,7.47,7.47,0,0,1,5.74-2.31,6.8,6.8,0,0,1,4.79,1.74,6.3,6.3,0,0,1,2.1,4.34l-4.34.25c-.15-1.89-1-2.84-2.47-2.84q-2.76,0-2.76,4.53c0,2,.25,3.29.77,3.83a2.51,2.51,0,0,0,1.88.81q2.16,0,2.58-2.73Z"/><path class="b5c97280-9b2e-4572-b71e-973b809c1184" d="M104.36,31.55V36.2H99.7V31.55Zm0,6V53.31H99.7V37.53Z"/><path class="b5c97280-9b2e-4572-b71e-973b809c1184" d="M124.35,53.31h-4.51a10.87,10.87,0,0,1-.22-2.46,6.58,6.58,0,0,1-2.36,2.24,6.23,6.23,0,0,1-2.68.55,5.22,5.22,0,0,1-3.58-1.2,4.09,4.09,0,0,1-1.36-3.24,5,5,0,0,1,.79-2.73,5.19,5.19,0,0,1,2.56-2,24.55,24.55,0,0,1,6.43-1.06v-.9a2,2,0,0,0-2.29-2.3,2.42,2.42,0,0,0-2.73,2.3l-4.3-.41a4.9,4.9,0,0,1,2.55-3.81,10.13,10.13,0,0,1,4.81-1.13,11.75,11.75,0,0,1,3,.38,5,5,0,0,1,2.22,1.12,4,4,0,0,1,1.08,1.59,10.25,10.25,0,0,1,.28,2.91v7.16A11.14,11.14,0,0,0,124.35,53.31Zm-4.93-7.56c-3.25.32-4.88,1.31-4.88,3a2.08,2.08,0,0,0,.52,1.43,1.79,1.79,0,0,0,1.46.61,2.53,2.53,0,0,0,2.06-1,3.83,3.83,0,0,0,.84-2.52Z"/><path class="b5c97280-9b2e-4572-b71e-973b809c1184" d="M130.32,53.31V32H135V53.31Z"/><path class="b5c97280-9b2e-4572-b71e-973b809c1184" d="M26.72,89.1H35.2v4.21H21.66V72h5.06Z"/><path class="b5c97280-9b2e-4572-b71e-973b809c1184" d="M53.71,93.31H49.2A10.87,10.87,0,0,1,49,90.85a6.58,6.58,0,0,1-2.36,2.24,6.23,6.23,0,0,1-2.68.55,5.22,5.22,0,0,1-3.58-1.2A4.1,4.1,0,0,1,39,89.2a5,5,0,0,1,.8-2.73,5.19,5.19,0,0,1,2.56-2,24.55,24.55,0,0,1,6.43-1.06v-.9a2,2,0,0,0-2.29-2.3,2.42,2.42,0,0,0-2.73,2.3l-4.3-.41A4.87,4.87,0,0,1,42,78.33a10.13,10.13,0,0,1,4.81-1.13,11.75,11.75,0,0,1,3,.38,5,5,0,0,1,2.22,1.12,4,4,0,0,1,1.08,1.59,10.25,10.25,0,0,1,.28,2.91v7.16A11.14,11.14,0,0,0,53.71,93.31Zm-4.93-7.56c-3.25.32-4.88,1.31-4.88,3a2.12,2.12,0,0,0,.51,1.43,1.82,1.82,0,0,0,1.47.61,2.53,2.53,0,0,0,2.06-1,3.83,3.83,0,0,0,.84-2.52Z"/><path class="b5c97280-9b2e-4572-b71e-973b809c1184" d="M73.39,93.31H68.74V84.45a11.9,11.9,0,0,0-.13-2.2,1.76,1.76,0,0,0-.61-1,1.83,1.83,0,0,0-1.21-.41q-2.46,0-2.46,3.62v8.86H59.68V77.53H64V80.2a6.06,6.06,0,0,1,2.13-2.45,4.87,4.87,0,0,1,2.26-.55A5.29,5.29,0,0,1,72,78.42c.92.8,1.37,2.39,1.37,4.75Z"/><path class="b5c97280-9b2e-4572-b71e-973b809c1184" d="M95.4,77.89a6.35,6.35,0,0,0-1.23-.15,1.6,1.6,0,0,0-1.81,1.37,4.26,4.26,0,0,1,1.26,3,4.15,4.15,0,0,1-1.86,3.56A9.21,9.21,0,0,1,86.37,87a13,13,0,0,1-2.43-.23,1.36,1.36,0,0,0-.8,1.2,1,1,0,0,0,.67,1.08,13.08,13.08,0,0,0,3.23.39,43.62,43.62,0,0,1,5,.45,4.16,4.16,0,0,1,2.31,1.28,3.57,3.57,0,0,1,.94,2.53,4.46,4.46,0,0,1-2,3.68q-2,1.5-7.11,1.5-4.8,0-6.47-1A3.07,3.07,0,0,1,78,95.2c0-1.41.91-2.36,2.71-2.85a3.06,3.06,0,0,1-2-2.81q0-2.27,3.15-3.53a4,4,0,0,1-2.79-3.86A4.19,4.19,0,0,1,81,78.58a9,9,0,0,1,5.33-1.38,12.75,12.75,0,0,1,4.17.69,4.49,4.49,0,0,1,.79-2.21q.66-.87,2.76-.87a6.84,6.84,0,0,1,1.31.13ZM83.23,93.2a1.24,1.24,0,0,0-.71.38,1.15,1.15,0,0,0-.43.91c0,.7.45,1.15,1.36,1.32a16.58,16.58,0,0,0,3.19.27A10.73,10.73,0,0,0,90,95.72c.64-.24,1-.62,1-1.16s-.27-.71-.8-.93a15.79,15.79,0,0,0-4.29-.33h-.94a9.92,9.92,0,0,1-1.16,0A3.22,3.22,0,0,0,83.23,93.2Zm3.1-13.48a2.59,2.59,0,0,0-1.87.65,2.22,2.22,0,0,0-.68,1.71c0,1.6.86,2.41,2.57,2.41a2.64,2.64,0,0,0,2-.71,2.27,2.27,0,0,0,.71-1.7,2.32,2.32,0,0,0-.67-1.65A2.63,2.63,0,0,0,86.33,79.72Z"/><path class="b5c97280-9b2e-4572-b71e-973b809c1184" d="M113.23,77.53V93.31h-4.32V90.63a4.57,4.57,0,0,1-4.65,3,4.8,4.8,0,0,1-2.74-.66,3.65,3.65,0,0,1-1.36-1.81,10.18,10.18,0,0,1-.42-3.32V77.53h4.52V87.85c0,1.41.58,2.12,1.75,2.12a2.42,2.42,0,0,0,1.54-.51,2.29,2.29,0,0,0,.84-1.08,7.59,7.59,0,0,0,.18-2V77.53Z"/><path class="b5c97280-9b2e-4572-b71e-973b809c1184" d="M133.24,93.31h-4.52a10.87,10.87,0,0,1-.22-2.46,6.58,6.58,0,0,1-2.36,2.24,6.23,6.23,0,0,1-2.68.55,5.22,5.22,0,0,1-3.58-1.2,4.09,4.09,0,0,1-1.36-3.24,5,5,0,0,1,.79-2.73,5.24,5.24,0,0,1,2.56-2,24.63,24.63,0,0,1,6.43-1.06v-.9a2,2,0,0,0-2.29-2.3,2.42,2.42,0,0,0-2.73,2.3L119,82.14a4.89,4.89,0,0,1,2.54-3.81,10.13,10.13,0,0,1,4.81-1.13,11.89,11.89,0,0,1,3,.38,5.06,5.06,0,0,1,2.21,1.12,3.76,3.76,0,0,1,1.08,1.59A10.25,10.25,0,0,1,133,83.2v7.16A10.63,10.63,0,0,0,133.24,93.31Zm-4.94-7.56c-3.25.32-4.88,1.31-4.88,3a2.08,2.08,0,0,0,.52,1.43,1.79,1.79,0,0,0,1.46.61,2.53,2.53,0,0,0,2.06-1,3.83,3.83,0,0,0,.84-2.52Z"/><path class="b5c97280-9b2e-4572-b71e-973b809c1184" d="M155,77.89a6.35,6.35,0,0,0-1.23-.15,1.6,1.6,0,0,0-1.81,1.37,4.26,4.26,0,0,1,1.26,3,4.14,4.14,0,0,1-1.87,3.56A9.15,9.15,0,0,1,145.93,87a13.19,13.19,0,0,1-2.44-.23,1.37,1.37,0,0,0-.79,1.2,1,1,0,0,0,.67,1.08,13.08,13.08,0,0,0,3.23.39,43.62,43.62,0,0,1,5,.45,4.16,4.16,0,0,1,2.31,1.28,3.57,3.57,0,0,1,.94,2.53,4.46,4.46,0,0,1-2,3.68q-2,1.5-7.12,1.5c-3.19,0-5.35-.35-6.46-1a3.07,3.07,0,0,1-1.68-2.64c0-1.41.9-2.36,2.71-2.85a3.06,3.06,0,0,1-2-2.81q0-2.27,3.15-3.53a4,4,0,0,1-2.79-3.86,4.19,4.19,0,0,1,1.93-3.57,9,9,0,0,1,5.33-1.38,12.75,12.75,0,0,1,4.17.69,4.49,4.49,0,0,1,.79-2.21c.44-.58,1.35-.87,2.76-.87a6.84,6.84,0,0,1,1.31.13ZM142.79,93.2a1.24,1.24,0,0,0-.71.38,1.15,1.15,0,0,0-.43.91c0,.7.45,1.15,1.36,1.32a16.58,16.58,0,0,0,3.19.27,10.73,10.73,0,0,0,3.35-.36c.64-.24,1-.62,1-1.16s-.27-.71-.8-.93a15.79,15.79,0,0,0-4.29-.33h-.94a9.92,9.92,0,0,1-1.16,0A3.22,3.22,0,0,0,142.79,93.2Zm3.1-13.48a2.59,2.59,0,0,0-1.87.65,2.22,2.22,0,0,0-.68,1.71c0,1.6.85,2.41,2.57,2.41a2.64,2.64,0,0,0,2-.71,2.27,2.27,0,0,0,.71-1.7,2.32,2.32,0,0,0-.67-1.65A2.63,2.63,0,0,0,145.89,79.72Z"/><path class="b5c97280-9b2e-4572-b71e-973b809c1184" d="M173.47,86.2H163.32c0,.29,0,.53,0,.74a3.39,3.39,0,0,0,.9,2.55,3,3,0,0,0,2.15.86,2.64,2.64,0,0,0,2.79-2.49l4.22.31q-1.76,5.47-7.17,5.47a8,8,0,0,1-4-.94,7.51,7.51,0,0,1-2.72-2.76,8.44,8.44,0,0,1-1.07-4.34,8.59,8.59,0,0,1,2.15-6.08,7.58,7.58,0,0,1,10.75-.17C172.75,80.79,173.47,83.07,173.47,86.2ZM163.3,83.5h5.61c-.15-2.16-1-3.25-2.67-3.25S163.51,81.34,163.3,83.5Z"/><path class="a7567ea6-028a-41c1-a47d-1242e6ae51b2" d="M43.7,125.74l-6.55.41c-.09-3.76-1.56-5.65-4.4-5.65q-4.89,0-4.89,8.69,0,5,1.33,6.81a4.36,4.36,0,0,0,3.72,1.79q3.87,0,4.73-5l6.06.37a10.74,10.74,0,0,1-3.57,7.28,11,11,0,0,1-7.29,2.49,11.08,11.08,0,0,1-8.61-3.66q-3.3-3.64-3.31-10.09a14.92,14.92,0,0,1,3.21-9.89,10.78,10.78,0,0,1,8.75-3.84Q42.48,115.41,43.7,125.74Z"/><path class="a7567ea6-028a-41c1-a47d-1242e6ae51b2" d="M70.88,115.82v26.66H64.74v-11H56.42v11H50.29V115.82h6.13v10.39h8.32V115.82Z"/><path class="a7567ea6-028a-41c1-a47d-1242e6ae51b2" d="M85.46,115.82v26.66H79.23V115.82Z"/><path class="a7567ea6-028a-41c1-a47d-1242e6ae51b2" d="M114.32,115.82v26.66H109l-10.43-18q0,.68,0,.9a8.77,8.77,0,0,1,.08,1.15v16H93.81V115.82h6.73l9.07,15.72c-.08-.78-.12-1.37-.12-1.78V115.82Z"/><path class="a7567ea6-028a-41c1-a47d-1242e6ae51b2" d="M141.71,120.89H129v5.47h10v5H129v5.82h12.69v5.28h-19V115.82h19Z"/><path class="a7567ea6-028a-41c1-a47d-1242e6ae51b2" d="M166.88,121.68l-5.31,1.77a4.36,4.36,0,0,0-4.54-3.16q-3.71,0-3.7,2.4a2.15,2.15,0,0,0,.69,1.62,7,7,0,0,0,3.13,1.16,30.58,30.58,0,0,1,6,1.66,7.69,7.69,0,0,1,3.19,2.7A7.19,7.19,0,0,1,167.6,134a8.31,8.31,0,0,1-2.78,6.25q-2.77,2.64-8.24,2.64a12.6,12.6,0,0,1-7-1.87,8.84,8.84,0,0,1-3.79-5.54l5.78-1.3c.65,2.48,2.45,3.73,5.42,3.73a5.11,5.11,0,0,0,3.19-.83,2.48,2.48,0,0,0,1.05-2,2,2,0,0,0-.95-1.81,11.39,11.39,0,0,0-3.69-1.21q-5.09-1.06-7.25-2.89a6.56,6.56,0,0,1-2.17-5.34,7.88,7.88,0,0,1,2.59-6,9.78,9.78,0,0,1,7-2.44Q164.64,115.41,166.88,121.68Z"/><path class="a7567ea6-028a-41c1-a47d-1242e6ae51b2" d="M193.73,120.89H181v5.47h10v5H181v5.82h12.7v5.28h-19V115.82h19Z"/><g class="b4191254-a5de-44a7-8021-f5f50100ac23"><path class="a7567ea6-028a-41c1-a47d-1242e6ae51b2" d="M132,170.09C132,194,113,210.53,90.15,210.53c-22,0-39.72-16.2-39.72-38.4,0-20.16,15.6-40.32,42.36-40.32C112.83,131.81,132,146.81,132,170.09Zm-73.2-1.44c0,23.4,14.76,39,34.2,39,16.2,0,30.84-11.16,30.84-32.52,0-27.24-15.24-40.44-34.56-40.44C73.35,134.81,58.83,145.49,58.83,168.65Z"/><path class="a7567ea6-028a-41c1-a47d-1242e6ae51b2" d="M176.19,137.09h31.32l.6.6-2.4,5.28H179.07l-3.48,22.56c5.64-1.92,10.2-3.84,13.56-3.84,14.64,0,21.6,10.92,21.48,20.52,0,17.52-18.24,27.84-30.12,27.72-6.72,0-12.72-3.24-12.72-6.24,0-1.92,2.64-4.44,4.2-4.44a2.32,2.32,0,0,1,1.2.36c2.16,2.28,6,5.28,13.32,5.28,15.48,0,17.64-13.68,17.64-18.24,0-11.88-5.76-19.44-19.8-19.44A35.82,35.82,0,0,0,172,169.13Z"/></g></g></svg>