<svg xmlns="http://www.w3.org/2000/svg" viewBox="0 0 228.33 228.33"><defs><style>.e4557bc4-f432-42fe-bf5d-c4cd8a3519fe{fill:#cec542;}.b461193c-4e4e-4aff-af68-e4ddb53c2f82{fill:#a8682e;}.bcc5975d-51b2-480b-8e54-a2c1fc27ba63{fill:#fff;}.ed0fc398-aa41-46fd-b608-3841712a6cbf{opacity:0.25;}</style></defs><title>工作區域 2 複本 5</title><g id="f8bfe4a3-093c-4527-bef2-05b54570a95e" data-name="圖層 3"><rect class="e4557bc4-f432-42fe-bf5d-c4cd8a3519fe" x="-286.68" y="-780.14" width="1024" height="2183"/></g><g id="e47f1300-9167-4fd9-be79-fccf2db5a866" data-name="圖層 1"><rect class="b461193c-4e4e-4aff-af68-e4ddb53c2f82" x="-9.38" y="-9.18" width="246.8" height="246.8"/><path class="e4557bc4-f432-42fe-bf5d-c4cd8a3519fe" d="M52.85,35.21H42.7v4.38h8v4h-8v4.66H52.85v4.22H37.62V31.15H52.85Z"/><path class="e4557bc4-f432-42fe-bf5d-c4cd8a3519fe" d="M71.8,52.48H67.29A11,11,0,0,1,67.07,50a6.52,6.52,0,0,1-2.37,2.24,6.16,6.16,0,0,1-2.67.56,5.18,5.18,0,0,1-3.58-1.21,4.09,4.09,0,0,1-1.37-3.23,5,5,0,0,1,.8-2.74,5.25,5.25,0,0,1,2.56-2,24.56,24.56,0,0,1,6.42-1.05v-.91a2,2,0,0,0-2.29-2.29,2.4,2.4,0,0,0-2.72,2.29l-4.3-.4a4.87,4.87,0,0,1,2.55-3.82,10.1,10.1,0,0,1,4.81-1.12,11.87,11.87,0,0,1,3,.37,5.05,5.05,0,0,1,2.22,1.13,4,4,0,0,1,1.08,1.58,10.29,10.29,0,0,1,.28,2.92v7.16A10.83,10.83,0,0,0,71.8,52.48Zm-4.94-7.56Q62,45.4,62,47.87a2.14,2.14,0,0,0,.51,1.43,1.82,1.82,0,0,0,1.47.6,2.57,2.57,0,0,0,2.06-1,3.87,3.87,0,0,0,.83-2.53Z"/><path class="e4557bc4-f432-42fe-bf5d-c4cd8a3519fe" d="M89.58,40.51l-3.4.91a2.82,2.82,0,0,0-3.07-2.14c-1.57,0-2.35.47-2.35,1.42a1.09,1.09,0,0,0,.43.9,5.87,5.87,0,0,0,2.24.57,20.87,20.87,0,0,1,4,.82,4.17,4.17,0,0,1,2.06,1.58,4.78,4.78,0,0,1,.76,2.74,4.94,4.94,0,0,1-1.85,4,7.94,7.94,0,0,1-5.18,1.53c-4,0-6.43-1.56-7.21-4.68l3.92-.57c.33,1.41,1.49,2.12,3.5,2.12a4.28,4.28,0,0,0,2-.41,1.25,1.25,0,0,0,.79-1.12c0-.73-.58-1.17-1.76-1.3-3.19-.39-5.28-1-6.29-1.83a4.22,4.22,0,0,1-1.51-3.46,4.67,4.67,0,0,1,1.75-3.72,7.42,7.42,0,0,1,4.91-1.47,7.24,7.24,0,0,1,4,1A6.21,6.21,0,0,1,89.58,40.51Z"/><path class="e4557bc4-f432-42fe-bf5d-c4cd8a3519fe" d="M107.54,36.7l-5,15.14a27.16,27.16,0,0,1-1.42,3.66,4.5,4.5,0,0,1-1.68,1.81,5.81,5.81,0,0,1-3.08.68,15.83,15.83,0,0,1-2.23-.18V54.23a13.79,13.79,0,0,0,2.29.22,2.44,2.44,0,0,0,1.84-.52A3.28,3.28,0,0,0,99,52.48L93.27,36.7h4.92l3,9.39,2.93-9.39Z"/><path class="e4557bc4-f432-42fe-bf5d-c4cd8a3519fe" d="M127.6,40.32V47a2.66,2.66,0,0,0,.38,1.68,2.47,2.47,0,0,0,1.76.42q.63,0,1.47-.06v3.45a19.57,19.57,0,0,1-2.92.34c-1.94,0-3.31-.37-4.12-1.12s-1.22-2.09-1.22-4V40.32h-2.5V36.7h2.76l.38-4.66,4-.31v5H131v3.62Z"/><path class="e4557bc4-f432-42fe-bf5d-c4cd8a3519fe" d="M142.42,36.37A7,7,0,0,1,148,38.73a8.74,8.74,0,0,1,2,5.9,8.41,8.41,0,0,1-2.1,5.84,7.13,7.13,0,0,1-5.58,2.34,6.8,6.8,0,0,1-5.4-2.32,8.72,8.72,0,0,1-2-5.93,9.18,9.18,0,0,1,.92-4.28,7.52,7.52,0,0,1,2.5-2.83A7,7,0,0,1,142.42,36.37Zm.12,3.05a2.22,2.22,0,0,0-2,1c-.45.68-.67,2-.67,4.07a9.21,9.21,0,0,0,.64,4,2.1,2.1,0,0,0,2,1.21,2.24,2.24,0,0,0,1.92-1,7.41,7.41,0,0,0,.73-4,9.27,9.27,0,0,0-.65-4.21A2.12,2.12,0,0,0,142.54,39.42Z"/><path class="e4557bc4-f432-42fe-bf5d-c4cd8a3519fe" d="M181.57,37.06a5.75,5.75,0,0,0-1.23-.16,1.62,1.62,0,0,0-1.82,1.38,4.26,4.26,0,0,1-.6,6.56,9.25,9.25,0,0,1-5.38,1.33,12.24,12.24,0,0,1-2.44-.24,1.38,1.38,0,0,0-.8,1.2,1,1,0,0,0,.68,1.08,12.92,12.92,0,0,0,3.23.39,43,43,0,0,1,5,.46,4.1,4.1,0,0,1,2.31,1.28,3.6,3.6,0,0,1,.94,2.53,4.45,4.45,0,0,1-2,3.67q-2,1.5-7.12,1.5c-3.2,0-5.35-.35-6.47-1a3.05,3.05,0,0,1-1.67-2.64c0-1.4.9-2.35,2.7-2.84a3.1,3.1,0,0,1-2-2.82c0-1.51,1.06-2.68,3.16-3.53a4,4,0,0,1-2.8-3.85,4.23,4.23,0,0,1,1.93-3.58,9.13,9.13,0,0,1,5.34-1.37,12.75,12.75,0,0,1,4.17.69,4.32,4.32,0,0,1,.79-2.21q.65-.87,2.76-.87a6.94,6.94,0,0,1,1.31.12ZM169.4,52.37a1.18,1.18,0,0,0-.71.37,1.16,1.16,0,0,0-.43.91c0,.71.45,1.15,1.36,1.33a16.54,16.54,0,0,0,3.18.26,10.76,10.76,0,0,0,3.36-.36c.64-.24,1-.62,1-1.15s-.27-.72-.81-.94a15.69,15.69,0,0,0-4.29-.33l-.93,0a9.13,9.13,0,0,1-1.16,0A3.15,3.15,0,0,0,169.4,52.37Zm3.1-13.49a2.62,2.62,0,0,0-1.88.65,2.29,2.29,0,0,0-.68,1.71c0,1.61.86,2.41,2.58,2.41a2.63,2.63,0,0,0,1.95-.7,2.33,2.33,0,0,0,.71-1.71,2.3,2.3,0,0,0-.67-1.64A2.63,2.63,0,0,0,172.5,38.88Z"/><path class="e4557bc4-f432-42fe-bf5d-c4cd8a3519fe" d="M200.08,45.37H189.92c0,.28,0,.53,0,.73a3.36,3.36,0,0,0,.9,2.55,3,3,0,0,0,2.14.86,2.64,2.64,0,0,0,2.8-2.48l4.22.31q-1.77,5.46-7.17,5.47a7.93,7.93,0,0,1-4-1,7.43,7.43,0,0,1-2.72-2.76A8.39,8.39,0,0,1,185,44.76a8.59,8.59,0,0,1,2.15-6.08,7.59,7.59,0,0,1,10.75-.16Q200.08,40.67,200.08,45.37Zm-10.17-2.7h5.61c-.15-2.17-1-3.25-2.68-3.25S190.12,40.5,189.91,42.67Z"/><path class="e4557bc4-f432-42fe-bf5d-c4cd8a3519fe" d="M210.67,40.32V47a2.67,2.67,0,0,0,.37,1.68,2.47,2.47,0,0,0,1.76.42c.42,0,.92,0,1.48-.06v3.45a19.8,19.8,0,0,1-2.93.34c-1.93,0-3.31-.37-4.12-1.12s-1.22-2.09-1.22-4V40.32h-2.5V36.7h2.77l.37-4.66,4-.31v5h3.39v3.62Z"/><path class="bcc5975d-51b2-480b-8e54-a2c1fc27ba63" d="M135.38,76.17H123.21V82h9.62v4.86h-9.62V97h-6.32V71h18.49Z"/><path class="bcc5975d-51b2-480b-8e54-a2c1fc27ba63" d="M147.56,86.72V97h-6.13V71h11.42a14.5,14.5,0,0,1,5.08.73,6.54,6.54,0,0,1,3.17,2.69,8,8,0,0,1,1.25,4.36,6.92,6.92,0,0,1-4.51,6.72L162.64,97h-6.73l-4-10.3Zm0-11.07v6.63h3.73A9.92,9.92,0,0,0,154,82a2.91,2.91,0,0,0,1.47-1.14,3.37,3.37,0,0,0,.65-2,3.15,3.15,0,0,0-.65-1.94A2.7,2.7,0,0,0,154,75.85a13.52,13.52,0,0,0-2.85-.2Z"/><path class="bcc5975d-51b2-480b-8e54-a2c1fc27ba63" d="M188.55,76H176.17v5.33h9.73V86.2h-9.73v5.68h12.38V97H170V71h18.57Z"/><path class="bcc5975d-51b2-480b-8e54-a2c1fc27ba63" d="M213.7,76H201.32v5.33h9.73V86.2h-9.73v5.68H213.7V97H195.13V71H213.7Z"/><path class="bcc5975d-51b2-480b-8e54-a2c1fc27ba63" d="M33,115.57v26H26.92v-26Z"/><path class="bcc5975d-51b2-480b-8e54-a2c1fc27ba63" d="M61.13,115.57v26H55.94L45.76,124c0,.45,0,.74,0,.88a10.44,10.44,0,0,1,.08,1.12v15.56H41.14v-26H47.7l8.84,15.33c-.07-.76-.11-1.34-.11-1.74V115.57Z"/><path class="bcc5975d-51b2-480b-8e54-a2c1fc27ba63" d="M85.75,115.57v5.14H79.31v20.85H73.14V120.71H66.67v-5.14Z"/><path class="bcc5975d-51b2-480b-8e54-a2c1fc27ba63" d="M109.85,120.52H97.47v5.33h9.73v4.89H97.47v5.68h12.38v5.14H91.28v-26h18.57Z"/><path class="bcc5975d-51b2-480b-8e54-a2c1fc27ba63" d="M122.56,131.26v10.3h-6.13v-26h11.43a14.48,14.48,0,0,1,5.07.73A6.55,6.55,0,0,1,136.1,119a7.9,7.9,0,0,1,1.26,4.36,6.93,6.93,0,0,1-4.52,6.72l4.8,11.49h-6.72l-4-10.3Zm0-11.06v6.62h3.73a10,10,0,0,0,2.66-.25,3.05,3.05,0,0,0,1.48-1.15,3.34,3.34,0,0,0,.64-2,3.14,3.14,0,0,0-.64-1.94,2.7,2.7,0,0,0-1.41-1,12.91,12.91,0,0,0-2.86-.2Z"/><path class="bcc5975d-51b2-480b-8e54-a2c1fc27ba63" d="M165,115.57v26h-5.19L149.61,124c0,.45,0,.74,0,.88a10.44,10.44,0,0,1,.08,1.12v15.56H145v-26h6.56l8.84,15.33c-.07-.76-.11-1.34-.11-1.74V115.57Z"/><path class="bcc5975d-51b2-480b-8e54-a2c1fc27ba63" d="M191.69,120.52H179.31v5.33H189v4.89h-9.73v5.68h12.38v5.14H173.12v-26h18.57Z"/><path class="bcc5975d-51b2-480b-8e54-a2c1fc27ba63" d="M214.74,115.57v5.14h-6.43v20.85h-6.17V120.71h-6.48v-5.14Z"/><g class="ed0fc398-aa41-46fd-b608-3841712a6cbf"><path class="bcc5975d-51b2-480b-8e54-a2c1fc27ba63" d="M132.07,173.35c0,23.88-19.08,40.44-41.88,40.44-22,0-39.72-16.2-39.72-38.4,0-20.16,15.6-40.32,42.36-40.32C112.87,135.07,132.07,150.07,132.07,173.35Zm-73.2-1.44c0,23.4,14.76,39,34.2,39,16.2,0,30.84-11.16,30.84-32.52,0-27.24-15.24-40.44-34.56-40.44C73.39,138.07,58.87,148.75,58.87,171.91Z"/><path class="bcc5975d-51b2-480b-8e54-a2c1fc27ba63" d="M183.67,168.79a16.31,16.31,0,0,1,7.8-1.92c12.24,0,20.64,10.08,20.64,21.48,0,13.68-9.24,25-23.28,25-11.64,0-22.32-10.44-22.32-28.56,0-20.16,11.88-40.44,43.44-46.68l.6,2.52a55.19,55.19,0,0,0-13,4c-8.28,3.6-18.84,11.64-22.92,28.44Zm-9.6,7.08a41.72,41.72,0,0,0-.6,8.28c0,14.4,5.88,26.52,17.64,26.52,11.4,0,14.4-11,14.4-19.2,0-8.88-4.92-19.8-17.64-19.8A27.78,27.78,0,0,0,174.07,175.87Z"/></g></g></svg>