<svg xmlns="http://www.w3.org/2000/svg" viewBox="0 0 228.33 228.33"><defs><style>.beea2924-90c8-49ee-afa2-5255dc510461{fill:#cec542;}.ae5c0cb1-64b2-4694-9375-32755b43ebf3{fill:#c8762c;}.a4f1f5f3-a59d-41ae-ab06-987ebff53df6{fill:#fff;}.fa27b229-1b45-41f0-88b6-3e81aa9c0c59{opacity:0.25;}</style></defs><title>工作區域 2 複本 6</title><g id="bbff36ed-2d96-4c36-b964-1baa56e2cb01" data-name="圖層 3"><rect class="beea2924-90c8-49ee-afa2-5255dc510461" x="-538.17" y="-780.14" width="1024" height="2183"/></g><g id="b663c11e-fb26-4582-9117-3877c7aff7fe" data-name="圖層 1"><rect class="ae5c0cb1-64b2-4694-9375-32755b43ebf3" x="-0.1" y="0.05" width="228.33" height="228.33"/><path class="beea2924-90c8-49ee-afa2-5255dc510461" d="M10.14,33V40.3H5.48V20.72H13.2a10.93,10.93,0,0,1,3.95.56,5.78,5.78,0,0,1,2.45,2,5.65,5.65,0,0,1,1.07,3.48,7.34,7.34,0,0,1-.57,2.83,5.08,5.08,0,0,1-1.62,2.17,6,6,0,0,1-2,1,12.77,12.77,0,0,1-3.08.26ZM10,29.47h3a3.05,3.05,0,0,0,2.4-.79,2.67,2.67,0,0,0,.68-1.8,2.45,2.45,0,0,0-.76-1.9,3.4,3.4,0,0,0-2.33-.7H10Z"/><path class="beea2924-90c8-49ee-afa2-5255dc510461" d="M29.36,40.3H25.21V25.82h3.92v2.69c.6-2,1.65-3,3.13-3,.21,0,.47,0,.77,0v4.22a4.23,4.23,0,0,0-2,.4,3,3,0,0,0-1.18,1.44,7,7,0,0,0-.46,2.81Z"/><path class="beea2924-90c8-49ee-afa2-5255dc510461" d="M50.63,33.78H41.3c0,.26,0,.48,0,.67a3.1,3.1,0,0,0,.82,2.34,2.75,2.75,0,0,0,2,.79,2.42,2.42,0,0,0,2.56-2.28l3.88.28q-1.62,5-6.59,5a7.29,7.29,0,0,1-3.68-.86,6.87,6.87,0,0,1-2.49-2.53,7.67,7.67,0,0,1-1-4,7.83,7.83,0,0,1,2-5.58,7,7,0,0,1,9.87-.15Q50.63,29.46,50.63,33.78ZM41.29,31.3h5.15c-.14-2-.95-3-2.46-3S41.48,29.31,41.29,31.3Z"/><path class="beea2924-90c8-49ee-afa2-5255dc510461" d="M55.53,45.19V25.82h3.93v2.12a3.85,3.85,0,0,1,3.81-2.43,4.68,4.68,0,0,1,3.85,1.89,8.67,8.67,0,0,1,1.5,5.49,9.26,9.26,0,0,1-1.51,5.77,4.75,4.75,0,0,1-3.94,1.94,3.68,3.68,0,0,1-3.5-1.9v6.49ZM59.67,34a7.87,7.87,0,0,0,.19,2.13,2.16,2.16,0,0,0,.79,1,2.08,2.08,0,0,0,1.3.47,2,2,0,0,0,1.57-.9c.45-.6.69-1.91.69-4q0-4.29-2.27-4.29a2.07,2.07,0,0,0-1.56.76,3.77,3.77,0,0,0-.71,2.58Z"/><path class="beea2924-90c8-49ee-afa2-5255dc510461" d="M86.22,40.3H82.07a10.53,10.53,0,0,1-.2-2.26A6.05,6.05,0,0,1,79.7,40.1a5.84,5.84,0,0,1-2.46.5A4.75,4.75,0,0,1,74,39.5a3.75,3.75,0,0,1-1.25-3A4.57,4.57,0,0,1,73.44,34a4.83,4.83,0,0,1,2.34-1.8,22.65,22.65,0,0,1,5.9-1v-.83a1.86,1.86,0,0,0-2.1-2.11,2.21,2.21,0,0,0-2.5,2.11l-4-.37a4.48,4.48,0,0,1,2.34-3.5,9.3,9.3,0,0,1,4.42-1,10.8,10.8,0,0,1,2.78.35,4.67,4.67,0,0,1,2,1,3.58,3.58,0,0,1,1,1.46A9.5,9.5,0,0,1,86,31v6.57A10,10,0,0,0,86.22,40.3Zm-4.54-6.94q-4.47.45-4.47,2.71a2,2,0,0,0,.47,1.31,1.66,1.66,0,0,0,1.34.56,2.37,2.37,0,0,0,1.9-.94,3.56,3.56,0,0,0,.76-2.32Z"/><path class="beea2924-90c8-49ee-afa2-5255dc510461" d="M95.84,40.3H91.69V25.82h3.92v2.69q.9-3,3.12-3c.21,0,.47,0,.78,0v4.22a4.2,4.2,0,0,0-2,.4A2.91,2.91,0,0,0,96.3,31.6a7,7,0,0,0-.46,2.81Z"/><path class="beea2924-90c8-49ee-afa2-5255dc510461" d="M117.1,33.78h-9.32c0,.26,0,.48,0,.67a3.11,3.11,0,0,0,.83,2.34,2.74,2.74,0,0,0,2,.79,2.43,2.43,0,0,0,2.57-2.28l3.87.28q-1.62,5-6.58,5a7.26,7.26,0,0,1-3.68-.86,7,7,0,0,1-2.5-2.53,7.76,7.76,0,0,1-1-4,7.87,7.87,0,0,1,2-5.58,7,7,0,0,1,9.87-.15C116.44,28.8,117.1,30.9,117.1,33.78Zm-9.34-2.48h5.15c-.13-2-1-3-2.45-3S108,29.31,107.76,31.3Z"/><path class="beea2924-90c8-49ee-afa2-5255dc510461" d="M142.39,29.32l-3.11.83a2.6,2.6,0,0,0-2.82-2c-1.44,0-2.16.44-2.16,1.31a1,1,0,0,0,.4.83,5.25,5.25,0,0,0,2.06.52,19,19,0,0,1,3.67.76,3.72,3.72,0,0,1,1.88,1.45,4.27,4.27,0,0,1,.7,2.51,4.52,4.52,0,0,1-1.7,3.64,7.24,7.24,0,0,1-4.76,1.4c-3.69,0-5.89-1.42-6.61-4.28l3.6-.54c.3,1.31,1.37,2,3.22,2a3.79,3.79,0,0,0,1.79-.39,1.13,1.13,0,0,0,.73-1c0-.67-.54-1.07-1.62-1.19-2.93-.36-4.85-.93-5.77-1.69a3.86,3.86,0,0,1-1.39-3.17,4.28,4.28,0,0,1,1.61-3.42,6.79,6.79,0,0,1,4.5-1.35,6.66,6.66,0,0,1,3.68.91A5.62,5.62,0,0,1,142.39,29.32Z"/><path class="beea2924-90c8-49ee-afa2-5255dc510461" d="M153.65,25.51a6.46,6.46,0,0,1,5.17,2.17,8,8,0,0,1,1.86,5.42,7.75,7.75,0,0,1-1.93,5.36,6.55,6.55,0,0,1-5.12,2.14,6.21,6.21,0,0,1-4.95-2.12A8,8,0,0,1,146.82,33a8.38,8.38,0,0,1,.84-3.92A6.92,6.92,0,0,1,150,26.5,6.5,6.5,0,0,1,153.65,25.51Zm.12,2.8a2.06,2.06,0,0,0-1.83.94,7.6,7.6,0,0,0-.62,3.74,8.42,8.42,0,0,0,.59,3.68,1.93,1.93,0,0,0,1.83,1.12,2.06,2.06,0,0,0,1.76-.95,6.83,6.83,0,0,0,.67-3.64,8.66,8.66,0,0,0-.59-3.87A2,2,0,0,0,153.77,28.31Z"/><path class="beea2924-90c8-49ee-afa2-5255dc510461" d="M186.28,40.3H182v-8a14.37,14.37,0,0,0-.1-2.21,1.39,1.39,0,0,0-.52-.84,1.81,1.81,0,0,0-1.17-.34,2.59,2.59,0,0,0-1.44.5c-.48.34-.73,1.3-.73,2.89v8h-4.27v-8a10,10,0,0,0-.16-2.25,1.59,1.59,0,0,0-.6-.82,1.85,1.85,0,0,0-1.11-.32,1.94,1.94,0,0,0-1.64.7,4.68,4.68,0,0,0-.54,2.69v8h-4.14V25.82h4V28a4,4,0,0,1,4.08-2.52,4.16,4.16,0,0,1,4,2.52,4.28,4.28,0,0,1,4.2-2.52,4.93,4.93,0,0,1,2.47.59,3.53,3.53,0,0,1,1.48,1.54,8.26,8.26,0,0,1,.45,3.25Z"/><path class="beea2924-90c8-49ee-afa2-5255dc510461" d="M205,33.78h-9.32c0,.26,0,.48,0,.67a3.11,3.11,0,0,0,.83,2.34,2.74,2.74,0,0,0,2,.79A2.44,2.44,0,0,0,201,35.3l3.87.28q-1.62,5-6.58,5a7.26,7.26,0,0,1-3.68-.86,7,7,0,0,1-2.5-2.53,7.76,7.76,0,0,1-1-4,7.87,7.87,0,0,1,2-5.58,7,7,0,0,1,9.87-.15Q205,29.46,205,33.78Zm-9.34-2.48h5.15c-.13-2-.95-3-2.45-3S195.86,29.31,195.66,31.3Z"/><path class="a4f1f5f3-a59d-41ae-ab06-987ebff53df6" d="M18.28,57.87l-3.72,1.25a3,3,0,0,0-3.17-2.22c-1.73,0-2.59.56-2.59,1.68a1.53,1.53,0,0,0,.48,1.14,4.84,4.84,0,0,0,2.19.81,21.63,21.63,0,0,1,4.18,1.16,5.3,5.3,0,0,1,2.23,1.89,5,5,0,0,1,.91,2.92,5.83,5.83,0,0,1-1.95,4.38c-1.29,1.23-3.22,1.84-5.77,1.84a8.78,8.78,0,0,1-4.88-1.3,6.24,6.24,0,0,1-2.66-3.88l4.05-.92c.45,1.74,1.72,2.61,3.79,2.61a3.57,3.57,0,0,0,2.24-.58,1.72,1.72,0,0,0,.74-1.38A1.48,1.48,0,0,0,13.68,66a8.09,8.09,0,0,0-2.58-.84,11.85,11.85,0,0,1-5.08-2A4.62,4.62,0,0,1,4.5,59.39a5.58,5.58,0,0,1,1.81-4.2,6.88,6.88,0,0,1,4.91-1.71C14.88,53.48,17.24,55,18.28,57.87Z"/><path class="a4f1f5f3-a59d-41ae-ab06-987ebff53df6" d="M32,72.43,27.41,57.22V72.43H23.75V53.77h6.8l3.28,11.17,3.45-11.17H44.1V72.43H39.7V57.22L35,72.43Z"/><path class="a4f1f5f3-a59d-41ae-ab06-987ebff53df6" d="M59.09,53.77l5.85,18.66h-4.7l-1.15-3.84h-6l-1.17,3.84H48.05l6-18.66Zm-5,11.38h4l-2-6.55Z"/><path class="a4f1f5f3-a59d-41ae-ab06-987ebff53df6" d="M73.47,68.74H80.9v3.69H69.05V53.77h4.42Z"/><path class="a4f1f5f3-a59d-41ae-ab06-987ebff53df6" d="M89.67,68.74h7.42v3.69H85.24V53.77h4.43Z"/><path class="a4f1f5f3-a59d-41ae-ab06-987ebff53df6" d="M125.59,60.72,121,61c-.07-2.63-1.09-4-3.08-4q-3.44,0-3.43,6.09c0,2.34.31,3.93.93,4.76A3,3,0,0,0,118,69.15c1.8,0,2.91-1.17,3.31-3.52l4.24.26a7.55,7.55,0,0,1-2.5,5.09A8.36,8.36,0,0,1,112,70.16a10.14,10.14,0,0,1-2.31-7.06,10.41,10.41,0,0,1,2.24-6.92,7.53,7.53,0,0,1,6.12-2.7Q124.75,53.48,125.59,60.72Z"/><path class="a4f1f5f3-a59d-41ae-ab06-987ebff53df6" d="M144.62,53.77V72.43h-4.3V64.74H134.5v7.69h-4.29V53.77h4.29v7.28h5.82V53.77Z"/><path class="a4f1f5f3-a59d-41ae-ab06-987ebff53df6" d="M159.63,53.77l5.84,18.66h-4.7l-1.14-3.84h-6l-1.17,3.84h-3.83l6-18.66Zm-5,11.38h4l-2-6.55Z"/><path class="a4f1f5f3-a59d-41ae-ab06-987ebff53df6" d="M183.94,53.77V72.43h-3.73l-7.31-12.6q0,.48,0,.63a6.71,6.71,0,0,1,.06.8V72.43h-3.41V53.77h4.72l6.34,11c0-.55-.08-1-.08-1.25V53.77Z"/><path class="a4f1f5f3-a59d-41ae-ab06-987ebff53df6" d="M204.32,62.45v10h-2a14.22,14.22,0,0,0-.62-2.14,6.3,6.3,0,0,1-5.09,2.43,6.79,6.79,0,0,1-5.68-2.61,10.64,10.64,0,0,1-2-6.75,11.16,11.16,0,0,1,2.17-7.17,7.91,7.91,0,0,1,10.92-1,7.56,7.56,0,0,1,2.34,4.67l-4.16.54q-.51-3.39-3.21-3.39a2.92,2.92,0,0,0-2.69,1.61,9.39,9.39,0,0,0-.91,4.59,8.09,8.09,0,0,0,1,4.39,3.14,3.14,0,0,0,2.8,1.51,3.21,3.21,0,0,0,2.1-.76,3,3,0,0,0,.92-2.45h-3.51V62.45Z"/><path class="a4f1f5f3-a59d-41ae-ab06-987ebff53df6" d="M223.19,57.33H214.3v3.82h7v3.52h-7v4.07h8.89v3.69H209.86V53.77h13.33Z"/><path class="beea2924-90c8-49ee-afa2-5255dc510461" d="M22.5,127.3l-4,13.13H15.12L13,132,11,140.43H7.73L3.66,127.3h4l2.14,8,2-8h3.51l1.92,8.08,2.23-8.08Z"/><path class="beea2924-90c8-49ee-afa2-5255dc510461" d="M30.07,122.69v6.4A3.69,3.69,0,0,1,33.62,127a4.23,4.23,0,0,1,2.27.58,3.15,3.15,0,0,1,1.32,1.49,7,7,0,0,1,.39,2.66v8.67H33.72V133a10.45,10.45,0,0,0-.1-1.82,1.54,1.54,0,0,0-.47-.83,1.36,1.36,0,0,0-.93-.33,2.36,2.36,0,0,0-1.44.56,3.08,3.08,0,0,0-.71,2.42v7.4H26.31V122.69Z"/><path class="beea2924-90c8-49ee-afa2-5255dc510461" d="M54.58,134.52H46.13c0,.23,0,.44,0,.61a2.8,2.8,0,0,0,.75,2.12,2.47,2.47,0,0,0,1.78.71A2.19,2.19,0,0,0,51,135.9l3.51.26q-1.47,4.54-6,4.55a6.62,6.62,0,0,1-3.33-.79,6.21,6.21,0,0,1-2.26-2.29A6.94,6.94,0,0,1,42,134a7.11,7.11,0,0,1,1.78-5,6.32,6.32,0,0,1,9-.14Q54.58,130.6,54.58,134.52Zm-8.46-2.25h4.67c-.13-1.8-.87-2.7-2.23-2.7S46.29,130.47,46.12,132.27Z"/><path class="beea2924-90c8-49ee-afa2-5255dc510461" d="M70.44,140.43H66.56v-7.37a10.59,10.59,0,0,0-.1-1.83,1.49,1.49,0,0,0-.51-.84,1.51,1.51,0,0,0-1-.34c-1.36,0-2,1-2,3v7.37H59V127.3h3.6v2.23a5,5,0,0,1,1.77-2,3.94,3.94,0,0,1,1.89-.46,4.4,4.4,0,0,1,3,1c.76.67,1.15,2,1.15,4Z"/><path class="beea2924-90c8-49ee-afa2-5255dc510461" d="M15.45,159.3,11,172.43h-3L3.43,159.3h4L10,167.62l2.6-8.32Z"/><path class="beea2924-90c8-49ee-afa2-5255dc510461" d="M23,154.33v3.87H19.13v-3.87Zm0,5v13.13H19.13V159.3Z"/><path class="beea2924-90c8-49ee-afa2-5255dc510461" d="M38,162.48l-2.82.75a2.35,2.35,0,0,0-2.56-1.78c-1.3,0-2,.39-2,1.18a.9.9,0,0,0,.35.75,4.63,4.63,0,0,0,1.87.48,16.71,16.71,0,0,1,3.33.68,3.41,3.41,0,0,1,1.71,1.32,3.92,3.92,0,0,1,.63,2.27,4.11,4.11,0,0,1-1.54,3.3,6.59,6.59,0,0,1-4.31,1.28c-3.35,0-5.34-1.3-6-3.89l3.27-.48q.41,1.77,2.91,1.77a3.46,3.46,0,0,0,1.62-.35,1,1,0,0,0,.67-.93q0-.92-1.47-1.08c-2.65-.33-4.4-.83-5.23-1.52a3.52,3.52,0,0,1-1.26-2.88,3.89,3.89,0,0,1,1.46-3.1A6.19,6.19,0,0,1,32.77,159a6,6,0,0,1,3.33.82A5.12,5.12,0,0,1,38,162.48Z"/><path class="beea2924-90c8-49ee-afa2-5255dc510461" d="M46.65,154.33v3.87H42.77v-3.87Zm0,5v13.13H42.77V159.3Z"/><path class="beea2924-90c8-49ee-afa2-5255dc510461" d="M56.2,162.32v5.55a2.18,2.18,0,0,0,.31,1.39c.2.24.69.35,1.46.35.35,0,.76,0,1.23-.05v2.87a17,17,0,0,1-2.43.29,5,5,0,0,1-3.43-.93,4.44,4.44,0,0,1-1-3.36v-6.11H50.24v-3h2.3l.32-3.87,3.34-.26v4.13H59v3Z"/><path class="beea2924-90c8-49ee-afa2-5255dc510461" d="M67.06,154.33v3.87H63.18v-3.87Zm0,5v13.13H63.18V159.3Z"/><path class="beea2924-90c8-49ee-afa2-5255dc510461" d="M83.65,172.43H79.78v-7.37a11.75,11.75,0,0,0-.1-1.83,1.49,1.49,0,0,0-.51-.84,1.51,1.51,0,0,0-1-.34c-1.35,0-2,1-2,3v7.37H72.24V159.3h3.6v2.23a5,5,0,0,1,1.77-2,3.93,3.93,0,0,1,1.88-.46,4.41,4.41,0,0,1,3,1q1.14,1,1.14,4Z"/><path class="beea2924-90c8-49ee-afa2-5255dc510461" d="M102,159.6a5.56,5.56,0,0,0-1-.13,1.35,1.35,0,0,0-1.51,1.15,3.52,3.52,0,0,1,1,2.49,3.48,3.48,0,0,1-1.55,3,7.74,7.74,0,0,1-4.48,1.1,10.5,10.5,0,0,1-2-.19,1.14,1.14,0,0,0-.66,1,.88.88,0,0,0,.56.9,11.65,11.65,0,0,0,2.69.32,33.85,33.85,0,0,1,4.17.38,3.43,3.43,0,0,1,1.93,1.06,3,3,0,0,1,.77,2.11,3.69,3.69,0,0,1-1.67,3.05c-1.11.84-3.08,1.25-5.91,1.25-2.67,0-4.46-.29-5.39-.86a2.54,2.54,0,0,1-1.39-2.2q0-1.75,2.25-2.37a2.55,2.55,0,0,1-1.66-2.34c0-1.25.87-2.23,2.62-2.93a3.3,3.3,0,0,1-2.32-3.21,3.52,3.52,0,0,1,1.6-3A7.56,7.56,0,0,1,94.45,159a10.7,10.7,0,0,1,3.47.57,3.72,3.72,0,0,1,.66-1.84,2.78,2.78,0,0,1,2.29-.72,5.44,5.44,0,0,1,1.09.11ZM91.84,172.34a1,1,0,0,0-.59.32.94.94,0,0,0-.36.75c0,.59.38,1,1.13,1.1a13.75,13.75,0,0,0,2.65.22,9,9,0,0,0,2.79-.29,1,1,0,0,0,.8-1c0-.33-.22-.59-.67-.78a13.37,13.37,0,0,0-3.57-.27h-.78a6.68,6.68,0,0,1-1,0A2.94,2.94,0,0,0,91.84,172.34Zm2.58-11.22a2.14,2.14,0,0,0-1.56.54,1.88,1.88,0,0,0-.57,1.43c0,1.33.72,2,2.14,2a2.23,2.23,0,0,0,1.63-.59,2,2,0,0,0,0-2.78A2.17,2.17,0,0,0,94.42,161.12Z"/><path class="beea2924-90c8-49ee-afa2-5255dc510461" d="M124.05,162.48l-2.82.75a2.35,2.35,0,0,0-2.56-1.78c-1.3,0-2,.39-2,1.18a.88.88,0,0,0,.36.75,4.62,4.62,0,0,0,1.86.48,16.71,16.71,0,0,1,3.33.68,3.41,3.41,0,0,1,1.71,1.32,3.92,3.92,0,0,1,.63,2.27,4.08,4.08,0,0,1-1.54,3.3,6.57,6.57,0,0,1-4.31,1.28q-5,0-6-3.89l3.26-.48q.41,1.77,2.91,1.77a3.51,3.51,0,0,0,1.63-.35,1,1,0,0,0,.66-.93q0-.92-1.47-1.08c-2.65-.33-4.39-.83-5.23-1.52a3.51,3.51,0,0,1-1.25-2.88,3.88,3.88,0,0,1,1.45-3.1,6.19,6.19,0,0,1,4.08-1.22,6,6,0,0,1,3.33.82A5.12,5.12,0,0,1,124.05,162.48Z"/><path class="beea2924-90c8-49ee-afa2-5255dc510461" d="M132.57,154.69v6.4a3.71,3.71,0,0,1,3.55-2.06,4.21,4.21,0,0,1,2.27.58,3.22,3.22,0,0,1,1.33,1.49,7.28,7.28,0,0,1,.38,2.66v8.67h-3.87V165a10.16,10.16,0,0,0-.11-1.82,1.48,1.48,0,0,0-.47-.83,1.34,1.34,0,0,0-.93-.33,2.32,2.32,0,0,0-1.43.56,3,3,0,0,0-.72,2.42v7.4h-3.75V154.69Z"/><path class="beea2924-90c8-49ee-afa2-5255dc510461" d="M150.73,159a5.87,5.87,0,0,1,4.69,2,7.31,7.31,0,0,1,1.68,4.92,7,7,0,0,1-1.75,4.85,5.92,5.92,0,0,1-4.64,2,5.65,5.65,0,0,1-4.49-1.93,7.23,7.23,0,0,1-1.68-4.94,7.57,7.57,0,0,1,.76-3.55,6.34,6.34,0,0,1,2.08-2.36A5.85,5.85,0,0,1,150.73,159Zm.11,2.54a1.84,1.84,0,0,0-1.66.85,6.88,6.88,0,0,0-.56,3.38,7.77,7.77,0,0,0,.53,3.35,1.77,1.77,0,0,0,1.66,1,1.87,1.87,0,0,0,1.6-.87A6.21,6.21,0,0,0,153,166a7.7,7.7,0,0,0-.54-3.51A1.77,1.77,0,0,0,150.84,161.57Z"/><path class="beea2924-90c8-49ee-afa2-5255dc510461" d="M161.54,176.87V159.3h3.56v1.93a3.5,3.5,0,0,1,3.46-2.2,4.27,4.27,0,0,1,3.49,1.71,7.83,7.83,0,0,1,1.36,5A8.47,8.47,0,0,1,172,171a4.34,4.34,0,0,1-3.57,1.76A3.33,3.33,0,0,1,165.3,171v5.89Zm3.76-10.18a7.49,7.49,0,0,0,.16,1.92,2,2,0,0,0,.72,1,1.89,1.89,0,0,0,1.18.42,1.79,1.79,0,0,0,1.42-.81c.42-.54.62-1.74.62-3.58,0-2.59-.68-3.89-2.05-3.89a1.91,1.91,0,0,0-1.42.69,3.45,3.45,0,0,0-.63,2.34Z"/><path class="beea2924-90c8-49ee-afa2-5255dc510461" d="M187.73,162.48l-2.82.75a2.35,2.35,0,0,0-2.56-1.78c-1.3,0-2,.39-2,1.18a.88.88,0,0,0,.36.75,4.63,4.63,0,0,0,1.87.48,16.71,16.71,0,0,1,3.33.68,3.43,3.43,0,0,1,1.7,1.32,3.85,3.85,0,0,1,.64,2.27,4.11,4.11,0,0,1-1.54,3.3,6.59,6.59,0,0,1-4.31,1.28q-5,0-6-3.89l3.27-.48c.26,1.18,1.24,1.77,2.91,1.77a3.46,3.46,0,0,0,1.62-.35,1,1,0,0,0,.67-.93q0-.92-1.47-1.08c-2.65-.33-4.4-.83-5.23-1.52a3.52,3.52,0,0,1-1.26-2.88,3.89,3.89,0,0,1,1.46-3.1,6.19,6.19,0,0,1,4.08-1.22,6,6,0,0,1,3.33.82A5.12,5.12,0,0,1,187.73,162.48Z"/><path class="beea2924-90c8-49ee-afa2-5255dc510461" d="M10.56,191a5.85,5.85,0,0,1,4.68,2,7.31,7.31,0,0,1,1.68,4.92,7,7,0,0,1-1.75,4.85,5.92,5.92,0,0,1-4.64,2,5.63,5.63,0,0,1-4.48-1.93,7.19,7.19,0,0,1-1.69-4.94,7.69,7.69,0,0,1,.76-3.55,6.28,6.28,0,0,1,2.09-2.36A5.83,5.83,0,0,1,10.56,191Zm.1,2.54a1.85,1.85,0,0,0-1.66.85,6.91,6.91,0,0,0-.55,3.38A7.62,7.62,0,0,0,9,201.15a1.75,1.75,0,0,0,1.65,1,1.87,1.87,0,0,0,1.6-.87,6.21,6.21,0,0,0,.61-3.29,7.7,7.7,0,0,0-.54-3.51A1.76,1.76,0,0,0,10.66,193.57Z"/><path class="beea2924-90c8-49ee-afa2-5255dc510461" d="M25.12,204.43H21.36V191.3h3.55v2.45c.55-1.82,1.49-2.73,2.83-2.73a6.71,6.71,0,0,1,.71,0v3.82a3.85,3.85,0,0,0-1.84.36,2.68,2.68,0,0,0-1.08,1.31,6.57,6.57,0,0,0-.41,2.54Z"/><path class="beea2924-90c8-49ee-afa2-5255dc510461" d="M45.3,194.32v10.11H41.53V194.32H40v-3h1.53a11.83,11.83,0,0,1,.29-3,3,3,0,0,1,1.37-1.65,5.46,5.46,0,0,1,3-.73,12.31,12.31,0,0,1,1.79.15v3c-.55-.05-1-.07-1.37-.07a1.17,1.17,0,0,0-1.06.42,2.71,2.71,0,0,0-.25,1.35v.49h2.37v3Z"/><path class="beea2924-90c8-49ee-afa2-5255dc510461" d="M57,191a5.85,5.85,0,0,1,4.68,2,7.31,7.31,0,0,1,1.68,4.92,7,7,0,0,1-1.74,4.85,5.93,5.93,0,0,1-4.64,2,5.65,5.65,0,0,1-4.49-1.93,7.23,7.23,0,0,1-1.68-4.94,7.57,7.57,0,0,1,.76-3.55,6.25,6.25,0,0,1,2.08-2.36A5.83,5.83,0,0,1,57,191Zm.11,2.54a1.84,1.84,0,0,0-1.66.85,6.76,6.76,0,0,0-.56,3.38,7.77,7.77,0,0,0,.53,3.35,1.77,1.77,0,0,0,1.66,1,1.85,1.85,0,0,0,1.59-.87A6.11,6.11,0,0,0,59.3,198a7.7,7.7,0,0,0-.54-3.51A1.74,1.74,0,0,0,57.13,193.57Z"/><path class="beea2924-90c8-49ee-afa2-5255dc510461" d="M73.27,191A5.85,5.85,0,0,1,78,193a7.31,7.31,0,0,1,1.68,4.92,7,7,0,0,1-1.75,4.85,5.92,5.92,0,0,1-4.64,2,5.65,5.65,0,0,1-4.49-1.93,7.23,7.23,0,0,1-1.68-4.94,7.57,7.57,0,0,1,.76-3.55,6.34,6.34,0,0,1,2.08-2.36A5.86,5.86,0,0,1,73.27,191Zm.1,2.54a1.84,1.84,0,0,0-1.66.85,6.88,6.88,0,0,0-.56,3.38,7.77,7.77,0,0,0,.53,3.35,1.77,1.77,0,0,0,1.66,1,1.87,1.87,0,0,0,1.6-.87,6.21,6.21,0,0,0,.61-3.29,7.7,7.7,0,0,0-.54-3.51A1.77,1.77,0,0,0,73.37,193.57Z"/><path class="beea2924-90c8-49ee-afa2-5255dc510461" d="M95.24,186.69v17.74H91.66v-2.05A4,4,0,0,1,88,204.71a4,4,0,0,1-3.43-1.78A8.37,8.37,0,0,1,83.35,198a9.05,9.05,0,0,1,1.26-5.13A4.14,4.14,0,0,1,88.25,191a3.69,3.69,0,0,1,3.23,1.65v-6ZM91.48,196.8c0-2.06-.63-3.09-1.88-3.09q-2.23,0-2.24,4.37c0,2.59.7,3.88,2.1,3.88a1.8,1.8,0,0,0,1.41-.7,2.94,2.94,0,0,0,.61-2Z"/><path class="beea2924-90c8-49ee-afa2-5255dc510461" d="M118.91,194.48l-2.82.75a2.35,2.35,0,0,0-2.56-1.78c-1.3,0-2,.39-2,1.18a.88.88,0,0,0,.36.75,4.57,4.57,0,0,0,1.86.48,16.71,16.71,0,0,1,3.33.68,3.41,3.41,0,0,1,1.71,1.32,3.92,3.92,0,0,1,.63,2.27,4.08,4.08,0,0,1-1.54,3.3,6.59,6.59,0,0,1-4.31,1.28c-3.35,0-5.34-1.3-6-3.89l3.26-.48q.4,1.77,2.91,1.77a3.54,3.54,0,0,0,1.63-.35,1,1,0,0,0,.66-.93q0-.92-1.47-1.08c-2.65-.33-4.4-.83-5.23-1.52a3.52,3.52,0,0,1-1.26-2.88,3.89,3.89,0,0,1,1.46-3.1,6.19,6.19,0,0,1,4.08-1.22,6,6,0,0,1,3.33.82A5.12,5.12,0,0,1,118.91,194.48Z"/><path class="beea2924-90c8-49ee-afa2-5255dc510461" d="M128.25,194.32v5.55a2.18,2.18,0,0,0,.31,1.39c.21.24.7.35,1.46.35.36,0,.77,0,1.23-.05v2.87a16.69,16.69,0,0,1-2.43.29,5,5,0,0,1-3.43-.93,4.44,4.44,0,0,1-1-3.36v-6.11H122.3v-3h2.3l.31-3.87,3.34-.26v4.13h2.82v3Z"/><path class="beea2924-90c8-49ee-afa2-5255dc510461" d="M146.92,204.43h-3.75a9.41,9.41,0,0,1-.18-2.05,5.47,5.47,0,0,1-2,1.87,5.26,5.26,0,0,1-2.23.46,4.38,4.38,0,0,1-3-1,3.44,3.44,0,0,1-1.13-2.7,4.15,4.15,0,0,1,.66-2.27,4.32,4.32,0,0,1,2.13-1.63,20,20,0,0,1,5.35-.88v-.75a1.69,1.69,0,0,0-1.91-1.91,2,2,0,0,0-2.27,1.91l-3.57-.34a4,4,0,0,1,2.12-3.17,8.35,8.35,0,0,1,4-.94,10.17,10.17,0,0,1,2.52.31,4.19,4.19,0,0,1,1.85.94,3.39,3.39,0,0,1,.9,1.32,8.83,8.83,0,0,1,.23,2.42v6A9.29,9.29,0,0,0,146.92,204.43Zm-4.1-6.29q-4.06.41-4.06,2.46a1.76,1.76,0,0,0,.43,1.19,1.52,1.52,0,0,0,1.22.5,2.11,2.11,0,0,0,1.71-.85,3.19,3.19,0,0,0,.7-2.1Z"/><path class="beea2924-90c8-49ee-afa2-5255dc510461" d="M151.88,204.43V186.69h3.88v17.74Z"/><path class="beea2924-90c8-49ee-afa2-5255dc510461" d="M160.94,204.43V186.69h3.87v17.74Z"/><path class="beea2924-90c8-49ee-afa2-5255dc510461" d="M179.82,194.48l-2.82.75a2.35,2.35,0,0,0-2.56-1.78c-1.3,0-1.95.39-1.95,1.18a.88.88,0,0,0,.36.75,4.62,4.62,0,0,0,1.86.48,16.71,16.71,0,0,1,3.33.68,3.41,3.41,0,0,1,1.71,1.32,3.92,3.92,0,0,1,.63,2.27,4.08,4.08,0,0,1-1.54,3.3,6.57,6.57,0,0,1-4.31,1.28q-5,0-6-3.89l3.26-.48q.4,1.77,2.91,1.77a3.48,3.48,0,0,0,1.63-.35,1,1,0,0,0,.66-.93q0-.92-1.47-1.08c-2.65-.33-4.39-.83-5.23-1.52a3.51,3.51,0,0,1-1.25-2.88,3.88,3.88,0,0,1,1.45-3.1,6.19,6.19,0,0,1,4.08-1.22,6,6,0,0,1,3.33.82A5.12,5.12,0,0,1,179.82,194.48Z"/><g class="fa27b229-1b45-41f0-88b6-3e81aa9c0c59"><path class="a4f1f5f3-a59d-41ae-ab06-987ebff53df6" d="M144,101.47c0,23.88-19.08,40.44-41.88,40.44-22,0-39.72-16.2-39.72-38.4,0-20.16,15.6-40.32,42.36-40.32C124.78,63.19,144,78.19,144,101.47ZM70.78,100c0,23.4,14.76,39,34.2,39,16.2,0,30.84-11.16,30.84-32.52,0-27.24-15.24-40.44-34.56-40.44C85.3,66.19,70.78,76.87,70.78,100Z"/><path class="a4f1f5f3-a59d-41ae-ab06-987ebff53df6" d="M179.86,83.35c.72-4.8,1.2-10,1.68-14.88H224l.84,1.44c-11.64,23-22,47-32.4,70.56l-7.2,1-.84-1.08a482.19,482.19,0,0,0,34.56-66H193.42c-8.16,0-8.76.84-11.64,9Z"/></g></g></svg>