<svg xmlns="http://www.w3.org/2000/svg" viewBox="0 0 228.33 228.33"><defs><style>.be7a1d20-0675-42e3-9668-1b076bb87dc7{fill:#cec542;}.e33460c5-ba7f-4098-9d0e-07109172da57{fill:#d88a4a;}.a1dc5c21-8057-4b51-93fe-f9e31e29cd79{fill:#fff;}.e3c8132d-a356-432f-a351-4da08bd07d17{fill:#595757;}.a6e5874e-6cf2-447f-b884-966d0f840a0d{opacity:0.25;}</style></defs><title>工作區域 2 複本 7</title><g id="a5deaf90-48d4-4f45-9727-56bd6a766e3c" data-name="圖層 3"><rect class="be7a1d20-0675-42e3-9668-1b076bb87dc7" x="-784.95" y="-780.14" width="1024" height="2183"/></g><g id="bf0a650a-c1c0-47fa-b415-1f2414bff6a1" data-name="圖層 1"><rect class="e33460c5-ba7f-4098-9d0e-07109172da57" x="-0.05" y="0.05" width="228.33" height="228.33"/><path class="a1dc5c21-8057-4b51-93fe-f9e31e29cd79" d="M29.67,61.83V87.16H24.61L14.7,70.05c0,.43,0,.72,0,.85a9.79,9.79,0,0,1,.07,1.1V87.16H10.19V61.83h6.4L25.2,76.77c-.07-.75-.11-1.31-.11-1.69V61.83Z"/><path class="a1dc5c21-8057-4b51-93fe-f9e31e29cd79" d="M48.07,87.55a9.22,9.22,0,0,1-7.92-3.84,15.35,15.35,0,0,1-2.8-9.3,14.82,14.82,0,0,1,2.84-9.26,9.57,9.57,0,0,1,8.08-3.71,9,9,0,0,1,8,4A15.71,15.71,0,0,1,59,74.47a15.28,15.28,0,0,1-2.78,9.29A9.47,9.47,0,0,1,48.07,87.55Zm.16-21.27q-4.66,0-4.66,8.2t4.66,8.22q4.53,0,4.52-8.2T48.23,66.28Z"/><path class="a1dc5c21-8057-4b51-93fe-f9e31e29cd79" d="M82.55,61.83v5H76.27V87.16h-6V66.84H64v-5Z"/><path class="e3c8132d-a356-432f-a351-4da08bd07d17" d="M23.29,116.16H18.63V107.3a13.28,13.28,0,0,0-.12-2.21,1.82,1.82,0,0,0-.61-1,1.79,1.79,0,0,0-1.22-.42c-1.64,0-2.45,1.21-2.45,3.63v8.86H9.57V100.38H13.9v2.67A6.17,6.17,0,0,1,16,100.59a4.9,4.9,0,0,1,2.27-.54,5.25,5.25,0,0,1,3.62,1.21c.92.81,1.38,2.39,1.38,4.76Z"/><path class="e3c8132d-a356-432f-a351-4da08bd07d17" d="M44.51,109.05H34.35c0,.28,0,.52,0,.73a3.36,3.36,0,0,0,.9,2.55,3,3,0,0,0,2.15.86,2.66,2.66,0,0,0,2.8-2.49l4.22.32q-1.77,5.46-7.18,5.46a7.89,7.89,0,0,1-4-.94,7.43,7.43,0,0,1-2.72-2.76,8.32,8.32,0,0,1-1.07-4.34,8.54,8.54,0,0,1,2.15-6.08,7.59,7.59,0,0,1,10.75-.16Q44.51,104.35,44.51,109.05Zm-10.18-2.71h5.61c-.14-2.16-1-3.25-2.67-3.25S34.54,104.18,34.33,106.34Z"/><path class="e3c8132d-a356-432f-a351-4da08bd07d17" d="M64.52,110.23a6.69,6.69,0,0,1-2.21,4.53,7.3,7.3,0,0,1-5,1.72,7.14,7.14,0,0,1-5.44-2.21,8.21,8.21,0,0,1-2.1-5.91,8.43,8.43,0,0,1,2.15-6,7.48,7.48,0,0,1,5.74-2.3,6.88,6.88,0,0,1,4.79,1.73,6.41,6.41,0,0,1,2.1,4.35l-4.35.25q-.21-2.85-2.46-2.85-2.77,0-2.77,4.53c0,2,.26,3.29.77,3.83a2.53,2.53,0,0,0,1.89.81c1.43,0,2.29-.91,2.57-2.73Z"/><path class="e3c8132d-a356-432f-a351-4da08bd07d17" d="M84.39,109.05H74.23c0,.28,0,.52,0,.73a3.36,3.36,0,0,0,.9,2.55,3,3,0,0,0,2.14.86,2.65,2.65,0,0,0,2.8-2.49l4.22.32q-1.77,5.46-7.17,5.46a7.93,7.93,0,0,1-4-.94,7.43,7.43,0,0,1-2.72-2.76,8.41,8.41,0,0,1-1.07-4.34,8.59,8.59,0,0,1,2.15-6.08,7.59,7.59,0,0,1,10.75-.16Q84.39,104.35,84.39,109.05Zm-10.17-2.71h5.61c-.15-2.16-1-3.25-2.68-3.25S74.43,104.18,74.22,106.34Z"/><path class="e3c8132d-a356-432f-a351-4da08bd07d17" d="M102.34,104.19l-3.39.9A2.84,2.84,0,0,0,95.87,103c-1.56,0-2.34.48-2.34,1.43a1.09,1.09,0,0,0,.43.9,5.75,5.75,0,0,0,2.24.57,20.45,20.45,0,0,1,4,.82,4.09,4.09,0,0,1,2,1.58A4.69,4.69,0,0,1,103,111a4.92,4.92,0,0,1-1.85,4A7.9,7.9,0,0,1,96,116.48c-4,0-6.42-1.55-7.2-4.67l3.92-.58c.32,1.42,1.49,2.13,3.5,2.13a4.13,4.13,0,0,0,2-.42,1.24,1.24,0,0,0,.8-1.12q0-1.09-1.77-1.29-4.77-.6-6.29-1.83a4.27,4.27,0,0,1-1.5-3.47,4.62,4.62,0,0,1,1.75-3.71,7.39,7.39,0,0,1,4.9-1.47,7.24,7.24,0,0,1,4,1A6.16,6.16,0,0,1,102.34,104.19Z"/><path class="e3c8132d-a356-432f-a351-4da08bd07d17" d="M120.68,104.19l-3.39.9a2.84,2.84,0,0,0-3.08-2.14c-1.56,0-2.34.48-2.34,1.43a1.09,1.09,0,0,0,.43.9,5.75,5.75,0,0,0,2.24.57,20.45,20.45,0,0,1,4,.82,4.09,4.09,0,0,1,2,1.58,4.69,4.69,0,0,1,.76,2.73,4.92,4.92,0,0,1-1.85,4,7.9,7.9,0,0,1-5.18,1.53c-4,0-6.42-1.55-7.2-4.67l3.92-.58c.32,1.42,1.49,2.13,3.5,2.13a4.13,4.13,0,0,0,1.95-.42,1.24,1.24,0,0,0,.8-1.12q0-1.09-1.77-1.29-4.77-.6-6.29-1.83a4.27,4.27,0,0,1-1.5-3.47,4.62,4.62,0,0,1,1.75-3.71,7.39,7.39,0,0,1,4.9-1.47,7.24,7.24,0,0,1,4,1A6.16,6.16,0,0,1,120.68,104.19Z"/><path class="e3c8132d-a356-432f-a351-4da08bd07d17" d="M141,116.16h-4.51a11,11,0,0,1-.22-2.47,6.58,6.58,0,0,1-2.36,2.24,6.23,6.23,0,0,1-2.68.55,5.22,5.22,0,0,1-3.58-1.2,4.08,4.08,0,0,1-1.36-3.23,5,5,0,0,1,.79-2.74,5.25,5.25,0,0,1,2.56-2,24.66,24.66,0,0,1,6.43-1v-.91a2,2,0,0,0-2.29-2.3,2.42,2.42,0,0,0-2.73,2.3l-4.3-.41a4.9,4.9,0,0,1,2.55-3.81,10.13,10.13,0,0,1,4.81-1.12,11.76,11.76,0,0,1,3,.37,5.05,5.05,0,0,1,2.22,1.13,4,4,0,0,1,1.08,1.58,10.29,10.29,0,0,1,.28,2.92v7.15A11.29,11.29,0,0,0,141,116.16ZM136,108.59c-3.25.33-4.88,1.31-4.88,3a2.1,2.1,0,0,0,.52,1.43,1.81,1.81,0,0,0,1.46.6,2.55,2.55,0,0,0,2.06-1A3.88,3.88,0,0,0,136,110Z"/><path class="e3c8132d-a356-432f-a351-4da08bd07d17" d="M152.25,116.16h-4.51V100.38H152v2.93c.66-2.18,1.79-3.28,3.41-3.28.23,0,.51,0,.84,0v4.59a4.63,4.63,0,0,0-2.21.44,3.25,3.25,0,0,0-1.29,1.57,7.75,7.75,0,0,0-.5,3Z"/><path class="e3c8132d-a356-432f-a351-4da08bd07d17" d="M175,100.38,170,115.51a27.14,27.14,0,0,1-1.41,3.67A4.59,4.59,0,0,1,166.9,121a5.8,5.8,0,0,1-3.07.68,14.7,14.7,0,0,1-2.24-.19v-3.57a13.89,13.89,0,0,0,2.29.22,2.52,2.52,0,0,0,1.85-.52,3.32,3.32,0,0,0,.7-1.46l-5.74-15.77h4.92l3,9.39,2.92-9.39Z"/><path class="e3c8132d-a356-432f-a351-4da08bd07d17" d="M196.62,104v6.67a2.62,2.62,0,0,0,.37,1.67c.25.29.84.43,1.76.43.42,0,.92,0,1.48-.07v3.46a19.85,19.85,0,0,1-2.92.34c-1.94,0-3.32-.37-4.13-1.12s-1.22-2.09-1.22-4V104h-2.5v-3.62h2.77l.37-4.66,4-.31v5H200V104Z"/><path class="e3c8132d-a356-432f-a351-4da08bd07d17" d="M212.23,100.05a7,7,0,0,1,5.63,2.36,8.73,8.73,0,0,1,2,5.9,8.41,8.41,0,0,1-2.1,5.84,7.12,7.12,0,0,1-5.58,2.33,6.8,6.8,0,0,1-5.39-2.31,8.68,8.68,0,0,1-2-5.94,9.16,9.16,0,0,1,.91-4.27,7.53,7.53,0,0,1,2.5-2.83A7.06,7.06,0,0,1,212.23,100.05Zm.13,3a2.24,2.24,0,0,0-2,1,8.36,8.36,0,0,0-.67,4.07,9.28,9.28,0,0,0,.64,4,2.1,2.1,0,0,0,2,1.22,2.23,2.23,0,0,0,1.91-1,7.41,7.41,0,0,0,.73-4,9.38,9.38,0,0,0-.64-4.22A2.13,2.13,0,0,0,212.36,103.09Z"/><path class="a1dc5c21-8057-4b51-93fe-f9e31e29cd79" d="M29.91,140.61v13.55h-2.7a19.93,19.93,0,0,0-.85-2.92,8.53,8.53,0,0,1-6.9,3.31A9.21,9.21,0,0,1,11.74,151,14.48,14.48,0,0,1,9,141.84q0-6.06,2.95-9.73a9.67,9.67,0,0,1,8-3.67,9.74,9.74,0,0,1,6.83,2.37,10.29,10.29,0,0,1,3.17,6.33l-5.64.74c-.45-3.06-1.91-4.6-4.36-4.6a4,4,0,0,0-3.64,2.18A12.74,12.74,0,0,0,15,141.69a10.94,10.94,0,0,0,1.34,5.95,4.26,4.26,0,0,0,3.8,2.06,4.29,4.29,0,0,0,2.85-1,4.06,4.06,0,0,0,1.25-3.32H19.51v-4.73Z"/><path class="a1dc5c21-8057-4b51-93fe-f9e31e29cd79" d="M44.31,128.83v25.33H38.39V128.83Z"/><path class="a1dc5c21-8057-4b51-93fe-f9e31e29cd79" d="M72,128.83l-7.66,25.33H58l-7.61-25.33h6.32l5.06,18.11,5.28-18.11Z"/><path class="a1dc5c21-8057-4b51-93fe-f9e31e29cd79" d="M96.2,133.65H84.14v5.2h9.48v4.77H84.14v5.53H96.2v5H78.11V128.83H96.2Z"/><path class="a1dc5c21-8057-4b51-93fe-f9e31e29cd79" d="M129.31,128.83l7.92,25.33h-6.37l-1.56-5.22h-8.19l-1.59,5.22h-5.2l8.12-25.33Zm-6.78,15.44h5.37l-2.66-8.89Z"/><path class="a1dc5c21-8057-4b51-93fe-f9e31e29cd79" d="M173.11,128.83v5h-6.27v20.32h-6V133.84h-6.31v-5Z"/><path class="a1dc5c21-8057-4b51-93fe-f9e31e29cd79" d="M185.37,128.83v25.33h-5.92V128.83Z"/><path class="a1dc5c21-8057-4b51-93fe-f9e31e29cd79" d="M200.29,144.75v9.41h-6V128.83h10a14.37,14.37,0,0,1,5.11.71,7.59,7.59,0,0,1,3.17,2.56,7.26,7.26,0,0,1,1.39,4.5,9.36,9.36,0,0,1-.75,3.66,6.53,6.53,0,0,1-2.09,2.8,7.89,7.89,0,0,1-2.63,1.36,17.25,17.25,0,0,1-4,.33Zm-.21-4.6h3.86a4,4,0,0,0,3.1-1,3.42,3.42,0,0,0,.89-2.34,3.17,3.17,0,0,0-1-2.45,4.33,4.33,0,0,0-3-.91h-3.84Z"/><path class="e3c8132d-a356-432f-a351-4da08bd07d17" d="M14.23,164.39v4.66H9.57v-4.66Zm0,6v15.78H9.57V170.38Z"/><path class="e3c8132d-a356-432f-a351-4da08bd07d17" d="M35,186.16H30.32V177.3a12,12,0,0,0-.13-2.21,1.71,1.71,0,0,0-.61-1,1.79,1.79,0,0,0-1.22-.42q-2.45,0-2.45,3.63v8.86H21.26V170.38h4.32v2.67a6.11,6.11,0,0,1,2.13-2.46,4.86,4.86,0,0,1,2.26-.54,5.29,5.29,0,0,1,3.63,1.21c.92.81,1.37,2.39,1.37,4.76Z"/><path class="e3c8132d-a356-432f-a351-4da08bd07d17" d="M58.47,174v6.67a2.62,2.62,0,0,0,.37,1.67c.25.29.84.43,1.76.43.42,0,.92,0,1.48-.07v3.46a19.8,19.8,0,0,1-2.93.34c-1.93,0-3.31-.37-4.12-1.12s-1.22-2.09-1.22-4V174h-2.5v-3.62h2.77l.37-4.66,4-.31v5h3.39V174Z"/><path class="e3c8132d-a356-432f-a351-4da08bd07d17" d="M72.18,164.83v7.69a4.44,4.44,0,0,1,4.27-2.47,5.17,5.17,0,0,1,2.73.69,3.9,3.9,0,0,1,1.59,1.79,8.56,8.56,0,0,1,.46,3.2v10.43H76.57v-8.91a13.16,13.16,0,0,0-.12-2.19,1.78,1.78,0,0,0-.57-1,1.62,1.62,0,0,0-1.11-.4,2.8,2.8,0,0,0-1.73.68c-.57.46-.86,1.42-.86,2.9v8.91H67.67V164.83Z"/><path class="e3c8132d-a356-432f-a351-4da08bd07d17" d="M102.45,179.05H92.29c0,.28,0,.52,0,.73a3.36,3.36,0,0,0,.9,2.55,3,3,0,0,0,2.15.86,2.65,2.65,0,0,0,2.8-2.49l4.22.32q-1.77,5.46-7.18,5.46a7.92,7.92,0,0,1-4-.94,7.43,7.43,0,0,1-2.72-2.76,8.32,8.32,0,0,1-1.07-4.34,8.54,8.54,0,0,1,2.15-6.08,7.59,7.59,0,0,1,10.75-.16Q102.45,174.35,102.45,179.05Zm-10.18-2.71h5.61c-.14-2.16-1-3.25-2.67-3.25S92.48,174.18,92.27,176.34Z"/><path class="e3c8132d-a356-432f-a351-4da08bd07d17" d="M14.09,216.16H9.57V200.38h4.27v2.93c.65-2.18,1.79-3.28,3.4-3.28.23,0,.51,0,.85.05v4.59a4.6,4.6,0,0,0-2.21.44,3.15,3.15,0,0,0-1.29,1.57,7.57,7.57,0,0,0-.5,3Z"/><path class="e3c8132d-a356-432f-a351-4da08bd07d17" d="M38.05,209.05H27.9c0,.28,0,.52,0,.73a3.36,3.36,0,0,0,.9,2.55,3,3,0,0,0,2.15.86,2.64,2.64,0,0,0,2.79-2.49l4.22.32c-1.17,3.64-3.57,5.46-7.17,5.46a8,8,0,0,1-4-.94A7.51,7.51,0,0,1,24,212.78,8.41,8.41,0,0,1,23,208.44a8.59,8.59,0,0,1,2.15-6.08,7.22,7.22,0,0,1,5.53-2.31,7.13,7.13,0,0,1,5.22,2.15C37.33,203.63,38.05,205.91,38.05,209.05Zm-10.17-2.71h5.61c-.15-2.16-1-3.25-2.67-3.25S28.09,204.18,27.88,206.34Z"/><path class="e3c8132d-a356-432f-a351-4da08bd07d17" d="M56,204.19l-3.39.9A2.83,2.83,0,0,0,49.53,203c-1.56,0-2.34.48-2.34,1.43a1.09,1.09,0,0,0,.43.9,5.81,5.81,0,0,0,2.24.57,20.28,20.28,0,0,1,4,.82,4.11,4.11,0,0,1,2.06,1.58,4.76,4.76,0,0,1,.75,2.73,4.89,4.89,0,0,1-1.85,4,7.9,7.9,0,0,1-5.18,1.53c-4,0-6.42-1.55-7.2-4.67l3.92-.58c.32,1.42,1.49,2.13,3.5,2.13a4.13,4.13,0,0,0,2-.42,1.22,1.22,0,0,0,.8-1.12c0-.73-.59-1.16-1.76-1.29q-4.79-.6-6.29-1.83a4.24,4.24,0,0,1-1.51-3.47,4.62,4.62,0,0,1,1.75-3.71,7.42,7.42,0,0,1,4.91-1.47,7.26,7.26,0,0,1,4,1A6.14,6.14,0,0,1,56,204.19Z"/><path class="e3c8132d-a356-432f-a351-4da08bd07d17" d="M68,204v6.67a2.62,2.62,0,0,0,.37,1.67c.25.29.84.43,1.76.43.43,0,.92,0,1.48-.07v3.46a19.85,19.85,0,0,1-2.92.34c-1.94,0-3.32-.37-4.13-1.12s-1.22-2.09-1.22-4V204h-2.5v-3.62h2.77l.37-4.66,4-.31v5h3.39V204Z"/><path class="e3c8132d-a356-432f-a351-4da08bd07d17" d="M91.28,216.16H86.76a11,11,0,0,1-.22-2.47,6.58,6.58,0,0,1-2.36,2.24,6.23,6.23,0,0,1-2.68.55,5.24,5.24,0,0,1-3.58-1.2,4.08,4.08,0,0,1-1.36-3.23,5,5,0,0,1,.79-2.74,5.3,5.3,0,0,1,2.56-2,24.74,24.74,0,0,1,6.43-1v-.91a2,2,0,0,0-2.29-2.3,2.42,2.42,0,0,0-2.73,2.3L77,205a4.89,4.89,0,0,1,2.54-3.81,10.14,10.14,0,0,1,4.82-1.12,11.87,11.87,0,0,1,3,.37,5.17,5.17,0,0,1,2.22,1.13,3.86,3.86,0,0,1,1.07,1.58,10.19,10.19,0,0,1,.29,2.92v7.15A10.86,10.86,0,0,0,91.28,216.16Zm-4.94-7.57c-3.25.33-4.88,1.31-4.88,3A2.15,2.15,0,0,0,82,213a1.81,1.81,0,0,0,1.46.6,2.58,2.58,0,0,0,2.07-1,3.93,3.93,0,0,0,.83-2.53Z"/><path class="e3c8132d-a356-432f-a351-4da08bd07d17" d="M111.52,200.38v15.78h-4.31v-2.69a4.57,4.57,0,0,1-4.65,3,4.8,4.8,0,0,1-2.74-.66A3.67,3.67,0,0,1,98.45,214a10.47,10.47,0,0,1-.41-3.32V200.38h4.52v10.31c0,1.41.58,2.12,1.75,2.12a2.49,2.49,0,0,0,1.54-.5,2.31,2.31,0,0,0,.84-1.09,7.59,7.59,0,0,0,.18-2v-8.85Z"/><path class="e3c8132d-a356-432f-a351-4da08bd07d17" d="M123.08,216.16h-4.51V200.38h4.26v2.93c.66-2.18,1.79-3.28,3.41-3.28.23,0,.51,0,.84.05v4.59a4.65,4.65,0,0,0-2.21.44,3.25,3.25,0,0,0-1.29,1.57,7.75,7.75,0,0,0-.5,3Z"/><path class="e3c8132d-a356-432f-a351-4da08bd07d17" d="M146.64,216.16h-4.51a11,11,0,0,1-.22-2.47,6.58,6.58,0,0,1-2.36,2.24,6.23,6.23,0,0,1-2.68.55,5.22,5.22,0,0,1-3.58-1.2,4.09,4.09,0,0,1-1.37-3.23,5,5,0,0,1,.8-2.74,5.25,5.25,0,0,1,2.56-2,24.66,24.66,0,0,1,6.43-1v-.91a2,2,0,0,0-2.29-2.3,2.42,2.42,0,0,0-2.73,2.3l-4.3-.41a4.87,4.87,0,0,1,2.55-3.81,10.13,10.13,0,0,1,4.81-1.12,11.81,11.81,0,0,1,3,.37,5.05,5.05,0,0,1,2.22,1.13,4,4,0,0,1,1.08,1.58,10.29,10.29,0,0,1,.28,2.92v7.15A11.29,11.29,0,0,0,146.64,216.16Zm-4.93-7.57c-3.25.33-4.88,1.31-4.88,3a2.14,2.14,0,0,0,.51,1.43,1.85,1.85,0,0,0,1.47.6,2.55,2.55,0,0,0,2.06-1,3.88,3.88,0,0,0,.84-2.53Z"/><path class="e3c8132d-a356-432f-a351-4da08bd07d17" d="M167.12,216.16h-4.65V207.3a12,12,0,0,0-.13-2.21,1.71,1.71,0,0,0-.61-1,1.79,1.79,0,0,0-1.22-.42q-2.44,0-2.45,3.63v8.86H153.4V200.38h4.33v2.67a6.11,6.11,0,0,1,2.13-2.46,4.86,4.86,0,0,1,2.26-.54,5.29,5.29,0,0,1,3.63,1.21c.91.81,1.37,2.39,1.37,4.76Z"/><path class="e3c8132d-a356-432f-a351-4da08bd07d17" d="M179.42,204v6.67a2.62,2.62,0,0,0,.37,1.67c.25.29.84.43,1.76.43.42,0,.92,0,1.48-.07v3.46a19.8,19.8,0,0,1-2.93.34c-1.93,0-3.31-.37-4.12-1.12s-1.22-2.09-1.22-4V204h-2.5v-3.62H175l.37-4.66,4-.31v5h3.39V204Z"/><g class="a6e5874e-6cf2-447f-b884-966d0f840a0d"><path class="a1dc5c21-8057-4b51-93fe-f9e31e29cd79" d="M140.51,48.52C140.51,72.4,121.43,89,98.63,89c-22,0-39.72-16.2-39.72-38.4,0-20.16,15.6-40.32,42.36-40.32C121.31,10.24,140.51,25.24,140.51,48.52Zm-73.2-1.44c0,23.4,14.76,39,34.2,39,16.2,0,30.84-11.16,30.84-32.52,0-27.24-15.24-40.44-34.56-40.44C81.83,13.24,67.31,23.92,67.31,47.08Z"/><path class="a1dc5c21-8057-4b51-93fe-f9e31e29cd79" d="M216,30.76a13.71,13.71,0,0,1-3.12,9c-.48,1.08-3.84,3.36-10,7.68,8.88,5,15.84,10,15.84,20.88,0,12.84-12.36,20.16-21.72,20.16-11.28,0-20.76-7.08-20.64-19.2-.12-8.52,5-13.56,16.2-19.56-7.8-3.84-13.44-9.72-13.44-17.28,0-8.52,7.32-18.24,19.2-18.24C208.79,14.2,216,22.12,216,30.76ZM212.87,70c0-9.12-9.84-15.12-18.24-19.2C187.19,54.52,183,60.88,183,68.68c0,11.16,6.84,17.16,15.6,17.16C205.79,85.84,212.87,81,212.87,70ZM185,29.08c0,9.84,7.8,13.32,16.08,17.28,4.92-3.6,8.64-8.28,8.64-15.36,0-10.08-5.52-14-12.24-14C187.91,17,185,23.68,185,29.08Z"/></g></g></svg>