<svg xmlns="http://www.w3.org/2000/svg" viewBox="0 0 228.33 228.33"><defs><style>.f8668857-d300-458f-889b-8c6f8ecf61d7{fill:#cec542;}.bed58f18-225b-4d48-b1cd-90325353b222{fill:#2c5d72;}.b6f2d09e-4cbc-400a-9659-98af0c44b66a{fill:#fff;}.ee3f5739-0d9f-450f-a144-f50e54e4b991{opacity:0.25;}</style></defs><title>工作區域 2 複本 8</title><g id="e1f33989-7def-45ab-acbe-c339216ae553" data-name="圖層 3"><rect class="f8668857-d300-458f-889b-8c6f8ecf61d7" x="-29.85" y="-1049.06" width="1024" height="2183"/></g><g id="e88a05c4-4cfb-4e38-b098-9dc1dfa03ca8" data-name="圖層 1"><rect class="bed58f18-225b-4d48-b1cd-90325353b222" x="-11.63" y="-11.68" width="251.28" height="251.28"/><path class="b6f2d09e-4cbc-400a-9659-98af0c44b66a" d="M2.46,88h7.93q4.86,0,7.23,1.34a12.5,12.5,0,0,1,4.26,4.25,13.18,13.18,0,0,1,1.89,7.34,13.61,13.61,0,0,1-3.29,9.32A11.48,11.48,0,0,1,11.4,114H2.46Zm6,4.78v16.32H11a5.49,5.49,0,0,0,4.94-2.49,10.49,10.49,0,0,0,1.61-5.83,10.22,10.22,0,0,0-.92-4.37,6.06,6.06,0,0,0-2.29-2.82A6.34,6.34,0,0,0,11,92.75Z"/><path class="b6f2d09e-4cbc-400a-9659-98af0c44b66a" d="M39.46,114.36a9.47,9.47,0,0,1-8.13-3.94,15.8,15.8,0,0,1-2.87-9.54,15.18,15.18,0,0,1,2.91-9.5,9.83,9.83,0,0,1,8.3-3.81,9.3,9.3,0,0,1,8.21,4.06,16.2,16.2,0,0,1,2.77,9.31,15.69,15.69,0,0,1-2.86,9.54Q44.94,114.36,39.46,114.36Zm.17-21.82q-4.79,0-4.79,8.42t4.79,8.43q4.63,0,4.64-8.42T39.63,92.54Z"/><path class="b6f2d09e-4cbc-400a-9659-98af0c44b66a" d="M76.57,88v26H71.38L61.2,96.4c0,.45,0,.74,0,.88a10.44,10.44,0,0,1,.08,1.12V114H56.58V88h6.56L72,103.3a17.32,17.32,0,0,1-.11-1.73V88Z"/><path class="b6f2d09e-4cbc-400a-9659-98af0c44b66a" d="M83.38,98.57,86,93.4H83.38V88h5.54v4.74l-3.43,5.86Z"/><path class="b6f2d09e-4cbc-400a-9659-98af0c44b66a" d="M112.2,88v5.14h-6.44V114H99.59V93.11H93.11V88Z"/><path class="f8668857-d300-458f-889b-8c6f8ecf61d7" d="M139.58,102l-3.39.91a2.83,2.83,0,0,0-3.08-2.14c-1.56,0-2.34.47-2.34,1.42a1.06,1.06,0,0,0,.43.9,5.4,5.4,0,0,0,2.24.57,20.3,20.3,0,0,1,4,.83,4.09,4.09,0,0,1,2.05,1.58,4.69,4.69,0,0,1,.76,2.73,4.93,4.93,0,0,1-1.85,4,7.9,7.9,0,0,1-5.18,1.53q-6,0-7.2-4.67l3.92-.58c.32,1.42,1.49,2.12,3.5,2.12a4.14,4.14,0,0,0,1.95-.41,1.26,1.26,0,0,0,.8-1.12c0-.73-.59-1.16-1.77-1.3q-4.77-.58-6.29-1.83a4.25,4.25,0,0,1-1.5-3.46,4.64,4.64,0,0,1,1.75-3.72,7.39,7.39,0,0,1,4.9-1.47,7.16,7.16,0,0,1,4,1A6.13,6.13,0,0,1,139.58,102Z"/><path class="f8668857-d300-458f-889b-8c6f8ecf61d7" d="M150,101.81v6.67a2.64,2.64,0,0,0,.37,1.67,2.49,2.49,0,0,0,1.76.42c.42,0,.92,0,1.48-.06V114a20.25,20.25,0,0,1-2.92.35,6.09,6.09,0,0,1-4.13-1.12c-.81-.75-1.22-2.09-1.22-4v-7.34h-2.5V98.18h2.77l.37-4.66,4-.31v5h3.39v3.63Z"/><path class="f8668857-d300-458f-889b-8c6f8ecf61d7" d="M162.26,92.2v4.65h-4.65V92.2Zm0,6V114h-4.65V98.18Z"/><path class="f8668857-d300-458f-889b-8c6f8ecf61d7" d="M181.57,108a6.67,6.67,0,0,1-2.21,4.52,7.32,7.32,0,0,1-5,1.73,7.17,7.17,0,0,1-5.44-2.21,8.24,8.24,0,0,1-2.1-5.92,8.45,8.45,0,0,1,2.14-6,7.49,7.49,0,0,1,5.75-2.31,6.84,6.84,0,0,1,4.79,1.74,6.36,6.36,0,0,1,2.1,4.34l-4.35.25c-.14-1.9-1-2.84-2.46-2.84q-2.77,0-2.77,4.53c0,2,.26,3.29.77,3.83a2.53,2.53,0,0,0,1.89.81c1.43,0,2.29-.91,2.57-2.74Z"/><path class="f8668857-d300-458f-889b-8c6f8ecf61d7" d="M196.31,103.53,201.45,114h-5.14l-3.3-7.15L190.28,110v4h-4.39V92.63h4.39v12.78l.68-.85c.3-.4.54-.72.74-1l4.6-5.42h4.54Z"/><path class="b6f2d09e-4cbc-400a-9659-98af0c44b66a" d="M21.61,141.9l-5.89.37q-.12-5.09-4-5.08-4.41,0-4.4,7.82,0,4.52,1.19,6.12a3.93,3.93,0,0,0,3.35,1.61c2.32,0,3.75-1.51,4.26-4.53l5.45.33a9.66,9.66,0,0,1-3.21,6.55,9.89,9.89,0,0,1-6.56,2.24A10,10,0,0,1,4.09,154q-3-3.28-3-9.08A13.45,13.45,0,0,1,4,136.06a9.69,9.69,0,0,1,7.87-3.46Q20.53,132.6,21.61,141.9Z"/><path class="b6f2d09e-4cbc-400a-9659-98af0c44b66a" d="M45.17,133v24H39.65v-9.89H32.17V157H26.65V133h5.52v9.35h7.48V133Z"/><path class="b6f2d09e-4cbc-400a-9659-98af0c44b66a" d="M60.8,157.33a8.73,8.73,0,0,1-7.5-3.64,14.51,14.51,0,0,1-2.65-8.8,14.05,14.05,0,0,1,2.68-8.78A9.09,9.09,0,0,1,61,132.6a8.57,8.57,0,0,1,7.58,3.75,14.94,14.94,0,0,1,2.56,8.59,14.42,14.42,0,0,1-2.64,8.8A8.93,8.93,0,0,1,60.8,157.33ZM61,137.19q-4.43,0-4.42,7.77T61,152.74q4.27,0,4.28-7.77T61,137.19Z"/><path class="b6f2d09e-4cbc-400a-9659-98af0c44b66a" d="M82.31,148.05V157H76.6V133h9.46a13.53,13.53,0,0,1,4.84.67,7.23,7.23,0,0,1,3,2.42,6.87,6.87,0,0,1,1.31,4.27,8.93,8.93,0,0,1-.7,3.47,6.27,6.27,0,0,1-2,2.65A7.39,7.39,0,0,1,90,147.73a16.21,16.21,0,0,1-3.77.32Zm-.19-4.36h3.66a3.72,3.72,0,0,0,2.93-1,3.26,3.26,0,0,0,.84-2.21,3,3,0,0,0-.94-2.32,4,4,0,0,0-2.85-.86H82.12Z"/><path class="b6f2d09e-4cbc-400a-9659-98af0c44b66a" d="M116.7,138.24l-4.78,1.6a3.91,3.91,0,0,0-4.08-2.85c-2.23,0-3.34.72-3.34,2.17a1.91,1.91,0,0,0,.63,1.45,6.14,6.14,0,0,0,2.81,1,27.65,27.65,0,0,1,5.37,1.5,6.75,6.75,0,0,1,2.87,2.43,6.41,6.41,0,0,1,1.17,3.75,7.49,7.49,0,0,1-2.5,5.63q-2.5,2.37-7.42,2.37a11.3,11.3,0,0,1-6.28-1.68,8,8,0,0,1-3.41-5l5.2-1.18q.87,3.36,4.88,3.36a4.58,4.58,0,0,0,2.87-.75,2.22,2.22,0,0,0,1-1.78,1.87,1.87,0,0,0-.86-1.64,10.52,10.52,0,0,0-3.32-1.09c-3-.63-5.23-1.5-6.53-2.59a5.94,5.94,0,0,1-2-4.81,7.12,7.12,0,0,1,2.33-5.39,8.8,8.8,0,0,1,6.31-2.2Q114.69,132.6,116.7,138.24Z"/><path class="b6f2d09e-4cbc-400a-9659-98af0c44b66a" d="M138.21,133v4.74h-5.94V157h-5.7V137.71h-6V133Z"/><path class="b6f2d09e-4cbc-400a-9659-98af0c44b66a" d="M148,133v24h-5.6V133Z"/><path class="b6f2d09e-4cbc-400a-9659-98af0c44b66a" d="M174,141.9l-5.89.37q-.12-5.09-4-5.08-4.41,0-4.4,7.82,0,4.52,1.19,6.12a3.93,3.93,0,0,0,3.35,1.61q3.5,0,4.26-4.53l5.45.33a9.66,9.66,0,0,1-3.21,6.55,10.74,10.74,0,0,1-14.3-1.05q-3-3.28-3-9.08a13.45,13.45,0,0,1,2.88-8.9,9.69,9.69,0,0,1,7.87-3.46Q172.91,132.6,174,141.9Z"/><path class="b6f2d09e-4cbc-400a-9659-98af0c44b66a" d="M184.55,133v11.27L192.07,133h5.38l-5.76,8.56,7.2,15.43H192.7l-4.79-10.42-3.36,4.92V157H179V133Z"/><path class="b6f2d09e-4cbc-400a-9659-98af0c44b66a" d="M220.1,138.24l-4.78,1.6a3.93,3.93,0,0,0-4.09-2.85c-2.22,0-3.33.72-3.33,2.17a1.94,1.94,0,0,0,.62,1.45,6.24,6.24,0,0,0,2.82,1,28.09,28.09,0,0,1,5.37,1.5,6.87,6.87,0,0,1,2.87,2.43,6.41,6.41,0,0,1,1.17,3.75,7.5,7.5,0,0,1-2.51,5.63c-1.66,1.58-4.14,2.37-7.42,2.37a11.27,11.27,0,0,1-6.27-1.68,8,8,0,0,1-3.42-5l5.2-1.18c.59,2.24,2.21,3.36,4.88,3.36a4.59,4.59,0,0,0,2.88-.75,2.21,2.21,0,0,0,.94-1.78,1.85,1.85,0,0,0-.86-1.64,10.43,10.43,0,0,0-3.31-1.09c-3.06-.63-5.23-1.5-6.53-2.59a5.94,5.94,0,0,1-2-4.81,7.11,7.11,0,0,1,2.32-5.39,8.83,8.83,0,0,1,6.32-2.2Q218.07,132.6,220.1,138.24Z"/><path class="f8668857-d300-458f-889b-8c6f8ecf61d7" d="M5.81,177.24v4.22H1.59v-4.22Zm0,5.42V197H1.59v-14.3Z"/><path class="f8668857-d300-458f-889b-8c6f8ecf61d7" d="M23.16,197H18.94v-8a11,11,0,0,0-.11-2,1.61,1.61,0,0,0-1.66-1.29c-1.48,0-2.22,1.09-2.22,3.28v8H10.73v-14.3h3.92v2.42a5.48,5.48,0,0,1,1.93-2.22,4.35,4.35,0,0,1,2.05-.5,4.81,4.81,0,0,1,3.29,1.1c.83.73,1.24,2.17,1.24,4.31Z"/><path class="f8668857-d300-458f-889b-8c6f8ecf61d7" d="M49.27,197H45.18a10.27,10.27,0,0,1-.2-2.24,6,6,0,0,1-2.14,2,5.7,5.7,0,0,1-2.43.5,4.71,4.71,0,0,1-3.24-1.09,3.71,3.71,0,0,1-1.24-2.93,4.52,4.52,0,0,1,.72-2.48A4.73,4.73,0,0,1,39,189,21.93,21.93,0,0,1,44.8,188v-.82a1.84,1.84,0,0,0-2.08-2.09,2.19,2.19,0,0,0-2.47,2.09l-3.89-.37a4.4,4.4,0,0,1,2.31-3.46,9.14,9.14,0,0,1,4.36-1,10.94,10.94,0,0,1,2.74.34,4.74,4.74,0,0,1,2,1,3.5,3.5,0,0,1,1,1.44A9.26,9.26,0,0,1,49,187.8v6.49A9.9,9.9,0,0,0,49.27,197Zm-4.47-6.85q-4.42.44-4.42,2.67a1.93,1.93,0,0,0,.46,1.3,1.69,1.69,0,0,0,1.33.55A2.31,2.31,0,0,0,44,193.7a3.48,3.48,0,0,0,.76-2.29Z"/><path class="f8668857-d300-458f-889b-8c6f8ecf61d7" d="M66.87,177.63v6.83a3.76,3.76,0,0,1,3.54-2.1,4.55,4.55,0,0,1,3.89,2,10.89,10.89,0,0,1,0,10.86,4.91,4.91,0,0,1-4.24,2,4.85,4.85,0,0,1-2.35-.5,5.44,5.44,0,0,1-1.83-2A6.5,6.5,0,0,0,64.9,197H62.65V177.63Zm0,13.67a3.48,3.48,0,0,0,.63,2.26,1.9,1.9,0,0,0,1.51.77,2.07,2.07,0,0,0,1.73-.93,6.62,6.62,0,0,0,.68-3.6c0-2-.24-3.31-.71-3.83a2.07,2.07,0,0,0-1.59-.78,1.9,1.9,0,0,0-1.64.88,4.34,4.34,0,0,0-.61,2.5Z"/><path class="f8668857-d300-458f-889b-8c6f8ecf61d7" d="M85.81,182.36a6.34,6.34,0,0,1,5.1,2.14,8,8,0,0,1,1.84,5.35,7.61,7.61,0,0,1-1.91,5.29,6.47,6.47,0,0,1-5,2.12,6.16,6.16,0,0,1-4.89-2.1,7.87,7.87,0,0,1-1.83-5.38,8.32,8.32,0,0,1,.82-3.87,6.91,6.91,0,0,1,2.28-2.57A6.35,6.35,0,0,1,85.81,182.36Zm.12,2.76a2,2,0,0,0-1.81.93,7.57,7.57,0,0,0-.61,3.69,8.46,8.46,0,0,0,.58,3.64,1.91,1.91,0,0,0,1.81,1.1,2,2,0,0,0,1.74-.94A6.76,6.76,0,0,0,88.3,190a8.43,8.43,0,0,0-.59-3.82A1.93,1.93,0,0,0,85.93,185.12Z"/><path class="f8668857-d300-458f-889b-8c6f8ecf61d7" d="M115.54,182.66,111.21,197H107.5l-2.27-9.2L103,197H99.45L95,182.66h4.4l2.33,8.74,2.19-8.74h3.82l2.09,8.79,2.43-8.79Z"/><path class="f8668857-d300-458f-889b-8c6f8ecf61d7" d="M119,197V177.63h4.22V197Z"/><path class="f8668857-d300-458f-889b-8c6f8ecf61d7" d="M142.73,182.36a6.34,6.34,0,0,1,5.1,2.14,8,8,0,0,1,1.83,5.35,7.6,7.6,0,0,1-1.9,5.29,6.47,6.47,0,0,1-5.06,2.12,6.15,6.15,0,0,1-4.88-2.1,7.87,7.87,0,0,1-1.84-5.38,8.32,8.32,0,0,1,.83-3.87,6.88,6.88,0,0,1,2.27-2.57A6.4,6.4,0,0,1,142.73,182.36Zm.12,2.76a2,2,0,0,0-1.81.93,7.45,7.45,0,0,0-.61,3.69,8.31,8.31,0,0,0,.58,3.64,1.91,1.91,0,0,0,1.81,1.1,2,2,0,0,0,1.73-.94,6.65,6.65,0,0,0,.67-3.59,8.43,8.43,0,0,0-.59-3.82A1.93,1.93,0,0,0,142.85,185.12Z"/><path class="f8668857-d300-458f-889b-8c6f8ecf61d7" d="M158.18,186v11h-4.11V186h-1.65v-3.29h1.65a13.65,13.65,0,0,1,.32-3.22,3.29,3.29,0,0,1,1.5-1.8,5.94,5.94,0,0,1,3.27-.79,15,15,0,0,1,2,.16v3.26c-.6-.05-1.1-.07-1.5-.07a1.26,1.26,0,0,0-1.15.45,2.86,2.86,0,0,0-.28,1.47v.54h2.59V186Z"/><path class="f8668857-d300-458f-889b-8c6f8ecf61d7" d="M177.29,197H173.2v-14.3h3.87v2.66q.88-3,3.08-3c.21,0,.47,0,.77,0v4.16a4.26,4.26,0,0,0-2,.4,2.87,2.87,0,0,0-1.16,1.42,6.86,6.86,0,0,0-.46,2.77Z"/><path class="f8668857-d300-458f-889b-8c6f8ecf61d7" d="M188.94,177.24v4.22h-4.22v-4.22Zm0,5.42V197h-4.22v-14.3Z"/><path class="f8668857-d300-458f-889b-8c6f8ecf61d7" d="M206.43,191.59a6,6,0,0,1-2,4.1,7.23,7.23,0,0,1-9.49-.43,7.47,7.47,0,0,1-1.9-5.36,7.7,7.7,0,0,1,1.94-5.45,6.8,6.8,0,0,1,5.21-2.09,6.24,6.24,0,0,1,4.34,1.57,5.77,5.77,0,0,1,1.9,3.94l-3.93.23c-.14-1.72-.88-2.58-2.24-2.58q-2.5,0-2.51,4.11c0,1.82.24,3,.7,3.47a2.28,2.28,0,0,0,1.71.73c1.3,0,2.08-.82,2.34-2.48Z"/><path class="f8668857-d300-458f-889b-8c6f8ecf61d7" d="M223,190.52h-9.2c0,.25,0,.48,0,.66a3,3,0,0,0,.82,2.31,2.7,2.7,0,0,0,1.94.78,2.4,2.4,0,0,0,2.54-2.25l3.82.28q-1.59,5-6.5,5a7.22,7.22,0,0,1-3.63-.86,6.64,6.64,0,0,1-2.46-2.5,7.54,7.54,0,0,1-1-3.93,7.8,7.8,0,0,1,1.94-5.51,6.88,6.88,0,0,1,9.75-.15Q223,186.26,223,190.52Zm-9.22-2.45h5.09c-.14-2-.94-2.95-2.42-2.95S214,186.11,213.77,188.07Z"/><g class="ee3f5739-0d9f-450f-a144-f50e54e4b991"><path class="b6f2d09e-4cbc-400a-9659-98af0c44b66a" d="M88.38,57.47c0,23.88-19.08,40.44-41.88,40.44-22,0-39.72-16.2-39.72-38.4,0-20.15,15.6-40.31,42.36-40.31C69.18,19.2,88.38,34.2,88.38,57.47ZM15.18,56c0,23.4,14.76,39,34.2,39,16.2,0,30.84-11.16,30.84-32.52,0-27.23-15.24-40.43-34.56-40.43C29.7,22.2,15.18,32.88,15.18,56Z"/><path class="b6f2d09e-4cbc-400a-9659-98af0c44b66a" d="M150.66,66.23a15,15,0,0,1-7.08,1.68c-11.4,0-19.92-8.4-19.92-20.51,0-11.64,8.88-24.24,22.32-24.24s21.84,13.32,21.84,28.55c0,22.08-12,36.48-26.88,42.84-7.32,2.64-12.48,3.48-14.64,3.36l-.36-2.28c16.68-2.76,30-14.52,34.68-34.2Zm-20.4-22.44c0,10.2,6.12,19.2,17,19.2,5.28,0,10.92-2.4,13.56-4.92.12-2,.36-4.32.36-6.83,0-9.25-2.76-25.2-16.44-25.2C133.74,26,130.26,37.56,130.26,43.79Z"/></g></g></svg>