<svg xmlns="http://www.w3.org/2000/svg" viewBox="0 0 228.33 228.33"><defs><style>.fb06bfa7-6dd6-4e5d-bd36-9c764e8a144d{fill:#cec542;}.e92da5c9-3a30-47fe-8eb5-baa00e19df45{fill:#3b88ad;}.a9fc9b5a-32f3-4d0b-a35f-5c9a44c79431{fill:#fff;}.a241ecb2-8c47-43c8-b59f-c61dd910d65a{opacity:0.25;}</style></defs><title>工作區域 2 複本 9</title><g id="b4e0ddc5-c77c-4c5b-be2a-eff2bd462814" data-name="圖層 3"><rect class="fb06bfa7-6dd6-4e5d-bd36-9c764e8a144d" x="-285.71" y="-1049.06" width="1024" height="2183"/></g><g id="e0f1c135-c865-4bfe-9b6a-52bc3cdebced" data-name="圖層 1"><rect class="e92da5c9-3a30-47fe-8eb5-baa00e19df45" x="-0.09" y="-0.2" width="228.33" height="228.33"/><path class="a9fc9b5a-32f3-4d0b-a35f-5c9a44c79431" d="M37.14,59.23V85.9H31.81l-10.43-18c0,.45,0,.75,0,.9a10.94,10.94,0,0,1,.08,1.15v16H16.63V59.23h6.74L32.43,75c-.07-.78-.11-1.38-.11-1.78v-14Z"/><path class="a9fc9b5a-32f3-4d0b-a35f-5c9a44c79431" d="M54.5,86.31a9.69,9.69,0,0,1-8.33-4,16.18,16.18,0,0,1-3-9.78,15.59,15.59,0,0,1,3-9.75,10.09,10.09,0,0,1,8.51-3.91A9.52,9.52,0,0,1,63.14,63,16.58,16.58,0,0,1,66,72.54a16.09,16.09,0,0,1-2.93,9.78Q60.13,86.31,54.5,86.31Zm.18-22.39q-4.92,0-4.91,8.63t4.91,8.66q4.76,0,4.75-8.64T54.68,63.92Z"/><path class="fb06bfa7-6dd6-4e5d-bd36-9c764e8a144d" d="M30.05,118.79H19.9c0,.28,0,.52,0,.73a3.37,3.37,0,0,0,.9,2.55,3,3,0,0,0,2.15.86,2.64,2.64,0,0,0,2.79-2.49l4.22.31q-1.77,5.48-7.17,5.47a8,8,0,0,1-4-.94A7.51,7.51,0,0,1,16,122.52,8.44,8.44,0,0,1,15,118.18a8.59,8.59,0,0,1,2.15-6.08,7.22,7.22,0,0,1,5.53-2.31,7.16,7.16,0,0,1,5.22,2.14C29.33,113.37,30.05,115.65,30.05,118.79Zm-10.17-2.71h5.61c-.15-2.16-1-3.25-2.67-3.25S20.09,113.92,19.88,116.08Z"/><path class="fb06bfa7-6dd6-4e5d-bd36-9c764e8a144d" d="M48.35,125.9H43.84a11,11,0,0,1-.22-2.47,6.58,6.58,0,0,1-2.36,2.24,6.23,6.23,0,0,1-2.68.55A5.22,5.22,0,0,1,35,125a4.08,4.08,0,0,1-1.36-3.23,5,5,0,0,1,.79-2.74,5.25,5.25,0,0,1,2.56-2,24.31,24.31,0,0,1,6.43-1v-.91a2,2,0,0,0-2.29-2.3,2.42,2.42,0,0,0-2.73,2.3l-4.3-.41a4.9,4.9,0,0,1,2.55-3.81,10.13,10.13,0,0,1,4.81-1.12,11.89,11.89,0,0,1,3,.37,5.07,5.07,0,0,1,2.21,1.13,3.9,3.9,0,0,1,1.08,1.58,10.29,10.29,0,0,1,.28,2.92v7.15A11.29,11.29,0,0,0,48.35,125.9Zm-4.93-7.57c-3.25.33-4.88,1.31-4.88,3a2.1,2.1,0,0,0,.52,1.43,1.81,1.81,0,0,0,1.46.6,2.53,2.53,0,0,0,2.06-1,3.83,3.83,0,0,0,.84-2.52Z"/><path class="fb06bfa7-6dd6-4e5d-bd36-9c764e8a144d" d="M58.77,113.74v6.67a2.64,2.64,0,0,0,.37,1.67,2.49,2.49,0,0,0,1.76.42c.42,0,.92,0,1.48-.06v3.46a21.37,21.37,0,0,1-2.92.34c-1.94,0-3.32-.37-4.13-1.12s-1.22-2.09-1.22-4v-7.34h-2.5v-3.63h2.77l.37-4.65,4-.31v5h3.39v3.63Z"/><path class="fb06bfa7-6dd6-4e5d-bd36-9c764e8a144d" d="M71,104.13v4.66H66.37v-4.66Zm0,6V125.9H66.37V110.11Z"/><path class="fb06bfa7-6dd6-4e5d-bd36-9c764e8a144d" d="M90.17,125.9H85.51V117a13.28,13.28,0,0,0-.12-2.21,1.79,1.79,0,0,0-1.83-1.42q-2.44,0-2.45,3.63v8.86H76.45V110.11h4.33v2.68a6,6,0,0,1,2.13-2.46,4.83,4.83,0,0,1,2.26-.54A5.29,5.29,0,0,1,88.8,111c.91.8,1.37,2.39,1.37,4.75Z"/><path class="fb06bfa7-6dd6-4e5d-bd36-9c764e8a144d" d="M111.38,110.47a6.35,6.35,0,0,0-1.23-.15,1.62,1.62,0,0,0-1.82,1.37,4.23,4.23,0,0,1,1.27,3,4.14,4.14,0,0,1-1.87,3.56,9.17,9.17,0,0,1-5.38,1.33,13,13,0,0,1-2.44-.23,1.38,1.38,0,0,0-.8,1.2,1.05,1.05,0,0,0,.68,1.08A12.92,12.92,0,0,0,103,122a46.1,46.1,0,0,1,5,.45,4.23,4.23,0,0,1,2.31,1.28,3.64,3.64,0,0,1,.94,2.54,4.46,4.46,0,0,1-2,3.67q-2,1.5-7.12,1.5c-3.2,0-5.35-.35-6.47-1A3.08,3.08,0,0,1,94,127.78q0-2.11,2.7-2.85a3.08,3.08,0,0,1-2-2.81c0-1.51,1.06-2.69,3.16-3.53a4,4,0,0,1-2.8-3.85A4.22,4.22,0,0,1,97,111.16a9.06,9.06,0,0,1,5.34-1.37,12.75,12.75,0,0,1,4.17.68,4.39,4.39,0,0,1,.79-2.21c.43-.58,1.35-.86,2.76-.86a6.94,6.94,0,0,1,1.31.12ZM99.21,125.79a1.18,1.18,0,0,0-.71.37,1.15,1.15,0,0,0-.43.91c0,.7.45,1.15,1.36,1.33a17.38,17.38,0,0,0,3.18.26,10.76,10.76,0,0,0,3.36-.36c.64-.24,1-.62,1-1.15s-.27-.72-.81-.94a15.74,15.74,0,0,0-4.29-.33l-.93,0a9.13,9.13,0,0,1-1.16-.05A3.15,3.15,0,0,0,99.21,125.79Zm3.1-13.49a2.62,2.62,0,0,0-1.88.65,2.26,2.26,0,0,0-.68,1.71c0,1.6.86,2.41,2.58,2.41a2.64,2.64,0,0,0,2-.71,2.29,2.29,0,0,0,.71-1.7,2.34,2.34,0,0,0-.67-1.65A2.66,2.66,0,0,0,102.31,112.3Z"/><path class="fb06bfa7-6dd6-4e5d-bd36-9c764e8a144d" d="M131.06,109.79a7,7,0,0,1,5.62,2.36,8.74,8.74,0,0,1,2,5.9,8.45,8.45,0,0,1-2.1,5.84,7.16,7.16,0,0,1-5.58,2.33,6.82,6.82,0,0,1-5.4-2.31,8.73,8.73,0,0,1-2-5.94,9.29,9.29,0,0,1,.91-4.27,7.66,7.66,0,0,1,2.51-2.84A7.09,7.09,0,0,1,131.06,109.79Zm.12,3a2.21,2.21,0,0,0-2,1c-.45.68-.67,2-.67,4.07a9.13,9.13,0,0,0,.64,4,2.11,2.11,0,0,0,2,1.22,2.24,2.24,0,0,0,1.92-1,7.5,7.5,0,0,0,.73-4,9.35,9.35,0,0,0-.65-4.22A2.13,2.13,0,0,0,131.18,112.83Z"/><path class="fb06bfa7-6dd6-4e5d-bd36-9c764e8a144d" d="M147.76,125.9h-4.52V110.11h4.27v2.94c.65-2.19,1.79-3.28,3.4-3.28.23,0,.51,0,.85,0v4.59a4.6,4.6,0,0,0-2.21.44,3.1,3.1,0,0,0-1.29,1.57,7.54,7.54,0,0,0-.5,3Z"/><path class="fb06bfa7-6dd6-4e5d-bd36-9c764e8a144d" d="M29.3,144.57V165.9H25v-2.47a4.84,4.84,0,0,1-4.35,2.79,4.79,4.79,0,0,1-4.12-2.13A10.05,10.05,0,0,1,15,158.18,10.87,10.87,0,0,1,16.53,152a5,5,0,0,1,4.38-2.22,4.44,4.44,0,0,1,3.88,2v-7.2Zm-4.51,12.15c0-2.48-.76-3.72-2.26-3.72q-2.7,0-2.7,5.25,0,4.68,2.53,4.68a2.19,2.19,0,0,0,1.7-.85,3.58,3.58,0,0,0,.73-2.4Z"/><path class="fb06bfa7-6dd6-4e5d-bd36-9c764e8a144d" d="M39.26,165.9H34.75V150.11H39v2.94c.66-2.19,1.79-3.28,3.41-3.28.23,0,.51,0,.84,0v4.59a4.63,4.63,0,0,0-2.21.44,3.1,3.1,0,0,0-1.29,1.57,7.72,7.72,0,0,0-.5,3.05Z"/><path class="fb06bfa7-6dd6-4e5d-bd36-9c764e8a144d" d="M52.11,144.13v4.66H47.46v-4.66Zm0,6V165.9H47.46V150.11Z"/><path class="fb06bfa7-6dd6-4e5d-bd36-9c764e8a144d" d="M71.26,165.9H66.6V157a13.28,13.28,0,0,0-.12-2.21,1.88,1.88,0,0,0-.61-1,1.85,1.85,0,0,0-1.22-.41c-1.64,0-2.45,1.21-2.45,3.63v8.86H57.54V150.11h4.33v2.68A6,6,0,0,1,64,150.33a4.9,4.9,0,0,1,2.27-.54A5.25,5.25,0,0,1,69.88,151c.92.8,1.38,2.39,1.38,4.75Z"/><path class="fb06bfa7-6dd6-4e5d-bd36-9c764e8a144d" d="M87.13,155.47l5.13,10.43H87.13l-3.3-7.15-2.74,3.14v4H76.7V144.57h4.39v12.78l.69-.86c.29-.4.54-.71.73-1l4.61-5.43h4.54Z"/><path class="fb06bfa7-6dd6-4e5d-bd36-9c764e8a144d" d="M100.33,144.13v4.66H95.68v-4.66Zm0,6V165.9H95.68V150.11Z"/><path class="fb06bfa7-6dd6-4e5d-bd36-9c764e8a144d" d="M119.48,165.9h-4.66V157a13.28,13.28,0,0,0-.12-2.21,1.88,1.88,0,0,0-.61-1,1.84,1.84,0,0,0-1.22-.41c-1.64,0-2.45,1.21-2.45,3.63v8.86h-4.66V150.11h4.33v2.68a6.1,6.1,0,0,1,2.12-2.46,4.9,4.9,0,0,1,2.27-.54A5.25,5.25,0,0,1,118.1,151c.92.8,1.38,2.39,1.38,4.75Z"/><path class="fb06bfa7-6dd6-4e5d-bd36-9c764e8a144d" d="M140.69,150.47a6.35,6.35,0,0,0-1.23-.15,1.62,1.62,0,0,0-1.82,1.37,4.23,4.23,0,0,1,1.27,3,4.14,4.14,0,0,1-1.87,3.56,9.17,9.17,0,0,1-5.38,1.33,13,13,0,0,1-2.44-.23,1.38,1.38,0,0,0-.8,1.2,1.05,1.05,0,0,0,.68,1.08,12.92,12.92,0,0,0,3.23.39,46.1,46.1,0,0,1,5,.45,4.23,4.23,0,0,1,2.31,1.28,3.64,3.64,0,0,1,.94,2.54,4.46,4.46,0,0,1-2,3.67q-2,1.5-7.12,1.5c-3.2,0-5.35-.35-6.47-1a3.08,3.08,0,0,1-1.67-2.64q0-2.11,2.7-2.85a3.08,3.08,0,0,1-2-2.81q0-2.26,3.16-3.53a4,4,0,0,1-2.8-3.85,4.22,4.22,0,0,1,1.93-3.58,9.06,9.06,0,0,1,5.34-1.37,12.75,12.75,0,0,1,4.17.68,4.39,4.39,0,0,1,.79-2.21c.43-.58,1.35-.86,2.76-.86a7,7,0,0,1,1.31.12Zm-12.17,15.32a1.18,1.18,0,0,0-.71.37,1.15,1.15,0,0,0-.43.91c0,.7.45,1.15,1.36,1.33a17.38,17.38,0,0,0,3.18.26,10.8,10.8,0,0,0,3.36-.36c.64-.24,1-.62,1-1.15s-.27-.72-.81-.94a15.79,15.79,0,0,0-4.29-.33l-.93,0a9.13,9.13,0,0,1-1.16-.05A3.15,3.15,0,0,0,128.52,165.79Zm3.1-13.49a2.62,2.62,0,0,0-1.88.65,2.26,2.26,0,0,0-.68,1.71c0,1.6.86,2.41,2.57,2.41a2.65,2.65,0,0,0,2-.71,2.29,2.29,0,0,0,.71-1.7,2.34,2.34,0,0,0-.67-1.65A2.66,2.66,0,0,0,131.62,152.3Z"/><path class="fb06bfa7-6dd6-4e5d-bd36-9c764e8a144d" d="M29.65,205.9H25.13a11,11,0,0,1-.22-2.47,6.58,6.58,0,0,1-2.36,2.24,6.23,6.23,0,0,1-2.68.55,5.24,5.24,0,0,1-3.58-1.2,4.08,4.08,0,0,1-1.36-3.23,5,5,0,0,1,.79-2.74,5.3,5.3,0,0,1,2.56-2A24.31,24.31,0,0,1,24.71,196v-.91a2,2,0,0,0-2.29-2.3,2.42,2.42,0,0,0-2.73,2.3l-4.29-.41a4.89,4.89,0,0,1,2.54-3.81,10.13,10.13,0,0,1,4.81-1.12,11.89,11.89,0,0,1,3,.37A5.07,5.07,0,0,1,28,191.29a3.8,3.8,0,0,1,1.08,1.58,10.29,10.29,0,0,1,.28,2.92v7.15A10.77,10.77,0,0,0,29.65,205.9Zm-4.94-7.57c-3.25.33-4.88,1.31-4.88,3a2.1,2.1,0,0,0,.52,1.43,1.81,1.81,0,0,0,1.46.6,2.53,2.53,0,0,0,2.06-1,3.83,3.83,0,0,0,.84-2.52Z"/><path class="fb06bfa7-6dd6-4e5d-bd36-9c764e8a144d" d="M40.06,193.74v6.67a2.64,2.64,0,0,0,.37,1.67,2.49,2.49,0,0,0,1.76.42c.42,0,.92,0,1.48-.06v3.46a21.37,21.37,0,0,1-2.92.34c-1.94,0-3.32-.37-4.13-1.12s-1.22-2.09-1.22-4v-7.34H32.9v-3.63h2.77l.37-4.65,4-.31v5h3.39v3.63Z"/><path class="fb06bfa7-6dd6-4e5d-bd36-9c764e8a144d" d="M62.51,193.74v6.67a2.64,2.64,0,0,0,.37,1.67,2.49,2.49,0,0,0,1.76.42c.42,0,.92,0,1.48-.06v3.46a21.37,21.37,0,0,1-2.92.34c-1.94,0-3.32-.37-4.13-1.12s-1.22-2.09-1.22-4v-7.34h-2.5v-3.63h2.77l.37-4.65,4-.31v5H65.9v3.63Z"/><path class="fb06bfa7-6dd6-4e5d-bd36-9c764e8a144d" d="M74.62,184.57v7.69a4.44,4.44,0,0,1,4.27-2.47,5.17,5.17,0,0,1,2.73.69,3.85,3.85,0,0,1,1.59,1.79,8.56,8.56,0,0,1,.46,3.2V205.9H79V197a13.16,13.16,0,0,0-.12-2.19,1.75,1.75,0,0,0-.57-1,1.56,1.56,0,0,0-1.11-.4,2.8,2.8,0,0,0-1.73.68c-.57.46-.86,1.42-.86,2.9v8.91H70.11V184.57Z"/><path class="fb06bfa7-6dd6-4e5d-bd36-9c764e8a144d" d="M103.29,198.79H93.13c0,.28,0,.52,0,.73a3.37,3.37,0,0,0,.9,2.55,3,3,0,0,0,2.15.86,2.65,2.65,0,0,0,2.8-2.49l4.22.31q-1.77,5.48-7.18,5.47a7.92,7.92,0,0,1-4-.94,7.43,7.43,0,0,1-2.72-2.76,8.34,8.34,0,0,1-1.07-4.34,8.54,8.54,0,0,1,2.15-6.08,7.61,7.61,0,0,1,10.75-.17C102.56,193.37,103.29,195.65,103.29,198.79Zm-10.18-2.71h5.61c-.14-2.16-1-3.25-2.67-3.25S93.32,193.92,93.11,196.08Z"/><path class="a9fc9b5a-32f3-4d0b-a35f-5c9a44c79431" d="M128.73,205.9l-6.42-21.2v21.2h-5.1v-26h9.48l4.56,15.56,4.8-15.56h9.52v26h-6.14V184.7l-6.54,21.2Z"/><path class="a9fc9b5a-32f3-4d0b-a35f-5c9a44c79431" d="M158.83,195.59V205.9H152.7v-26h11.42a14.74,14.74,0,0,1,5.08.73,6.56,6.56,0,0,1,3.17,2.7,7.86,7.86,0,0,1,1.25,4.35,6.91,6.91,0,0,1-4.51,6.72l4.8,11.5h-6.73l-4-10.31Zm0-11.06v6.63h3.73a9.92,9.92,0,0,0,2.66-.26,2.91,2.91,0,0,0,1.47-1.14,3.39,3.39,0,0,0,.65-2,3.13,3.13,0,0,0-.65-1.94,2.6,2.6,0,0,0-1.41-1.06,12.8,12.8,0,0,0-2.85-.2Z"/><path class="a9fc9b5a-32f3-4d0b-a35f-5c9a44c79431" d="M196.75,179.9V185h-6.44V205.9h-6.17V185h-6.47V179.9Z"/><g class="a241ecb2-8c47-43c8-b59f-c61dd910d65a"><path class="a9fc9b5a-32f3-4d0b-a35f-5c9a44c79431" d="M47.6,101.35c11.15-1.08,11.87-2.4,11.87-10.44V45c0-5.16-.47-6-6.11-6.6l-5.16-.6V36c7.43-1.32,13.43-3.48,17.15-5.88V90.91c0,8,.84,9.36,12,10.44V103H47.6Z"/><path class="a9fc9b5a-32f3-4d0b-a35f-5c9a44c79431" d="M200.35,64.39c0,23.88-19.08,40.44-41.88,40.44-22,0-39.72-16.2-39.72-38.4,0-20.16,15.6-40.32,42.36-40.32C181.15,26.11,200.35,41.11,200.35,64.39ZM127.15,63c0,23.4,14.76,39,34.2,39,16.2,0,30.84-11.16,30.84-32.52C192.19,42.19,177,29,157.63,29,141.67,29.11,127.15,39.79,127.15,63Z"/></g></g></svg>