<svg xmlns="http://www.w3.org/2000/svg" viewBox="0 0 228.33 228.33"><defs><style>.b6ca537e-1bc1-498d-b284-0a9f00eab39c{fill:#cec542;}.fbedd987-6bfd-4476-9cd8-54b946a6f689{fill:#6ab0cc;}.ab2b64f2-5b2d-4231-a180-272e25d20424{fill:#fff;}.b56acb41-fc61-4ba8-8efe-f1b882ac3210{fill:#595757;}.b1d315f9-f375-46d6-b565-2b46d25ede24{opacity:0.25;}</style></defs><title>工作區域 2 複本 10</title><g id="a9487027-775f-4825-b3dc-6f879daf1a25" data-name="圖層 3"><rect class="b6ca537e-1bc1-498d-b284-0a9f00eab39c" x="-536.28" y="-1047.62" width="1024" height="2183"/></g><g id="b4ececbd-3069-4c7f-a507-afedffff6285" data-name="圖層 1"><rect class="fbedd987-6bfd-4476-9cd8-54b946a6f689" x="0.07" y="-0.16" width="228.33" height="228.33"/><path class="ab2b64f2-5b2d-4231-a180-272e25d20424" d="M188.92,57.49v26h-5.19L173.55,65.92c0,.45,0,.74,0,.88a10.44,10.44,0,0,1,.08,1.12V83.48h-4.74v-26h6.56l8.84,15.33a17.32,17.32,0,0,1-.11-1.73V57.49Z"/><path class="ab2b64f2-5b2d-4231-a180-272e25d20424" d="M206.82,83.88a9.44,9.44,0,0,1-8.12-3.94,15.74,15.74,0,0,1-2.88-9.54,15.19,15.19,0,0,1,2.92-9.5A9.81,9.81,0,0,1,207,57.09a9.27,9.27,0,0,1,8.21,4.06A16.13,16.13,0,0,1,218,70.46,15.69,15.69,0,0,1,215.16,80C213.25,82.59,210.48,83.88,206.82,83.88ZM207,62.06q-4.78,0-4.79,8.42T207,78.91q4.63,0,4.64-8.42T207,62.06Z"/><path class="ab2b64f2-5b2d-4231-a180-272e25d20424" d="M55.16,109.2,50,110.93a4.24,4.24,0,0,0-4.42-3.08c-2.41,0-3.61.78-3.61,2.34a2.1,2.1,0,0,0,.67,1.58,6.82,6.82,0,0,0,3.05,1.13,29.62,29.62,0,0,1,5.82,1.62,7.38,7.38,0,0,1,3.11,2.63,6.94,6.94,0,0,1,1.27,4.07,8.13,8.13,0,0,1-2.71,6.09q-2.71,2.56-8,2.57a12.16,12.16,0,0,1-6.8-1.82,8.57,8.57,0,0,1-3.7-5.4l5.63-1.27c.64,2.42,2.4,3.64,5.29,3.64a5,5,0,0,0,3.11-.81,2.4,2.4,0,0,0,1-1.94,2,2,0,0,0-.93-1.77,11.24,11.24,0,0,0-3.6-1.18c-3.31-.69-5.66-1.62-7.07-2.81A6.42,6.42,0,0,1,36,111.31a7.71,7.71,0,0,1,2.52-5.84,9.54,9.54,0,0,1,6.84-2.38Q53,103.09,55.16,109.2Z"/><path class="ab2b64f2-5b2d-4231-a180-272e25d20424" d="M74.29,129.48l-6.41-21.19v21.19H62.77v-26h9.48l4.57,15.56,4.8-15.56h9.51v26H85V108.29l-6.54,21.19Z"/><path class="ab2b64f2-5b2d-4231-a180-272e25d20424" d="M109,129.88a9.44,9.44,0,0,1-8.12-3.94A15.74,15.74,0,0,1,98,116.4a15.18,15.18,0,0,1,2.91-9.5,9.84,9.84,0,0,1,8.3-3.81,9.28,9.28,0,0,1,8.21,4.06,16.13,16.13,0,0,1,2.77,9.31,15.63,15.63,0,0,1-2.86,9.54Q114.47,129.89,109,129.88Zm.17-21.82q-4.78,0-4.79,8.42t4.79,8.43q4.64,0,4.64-8.42T109.16,108.06Z"/><path class="ab2b64f2-5b2d-4231-a180-272e25d20424" d="M133.06,103.49V115.7l8.15-12.21H147l-6.24,9.28,7.8,16.71h-6.7l-5.19-11.29-3.65,5.33v6h-6v-26Z"/><path class="ab2b64f2-5b2d-4231-a180-272e25d20424" d="M160.67,103.49v26h-6.08v-26Z"/><path class="ab2b64f2-5b2d-4231-a180-272e25d20424" d="M188.81,103.49v26h-5.2l-10.17-17.56c0,.45,0,.74,0,.88a10.11,10.11,0,0,1,.07,1.12v15.56h-4.74v-26h6.56l8.85,15.33c-.08-.76-.12-1.34-.12-1.73v-13.6Z"/><path class="ab2b64f2-5b2d-4231-a180-272e25d20424" d="M217.19,115.58v13.9h-2.78a21.2,21.2,0,0,0-.86-3,8.78,8.78,0,0,1-7.09,3.39,9.46,9.46,0,0,1-7.92-3.64,14.84,14.84,0,0,1-2.83-9.4q0-6.21,3-10a11,11,0,0,1,15.21-1.33,10.53,10.53,0,0,1,3.25,6.49l-5.79.76q-.71-4.73-4.47-4.72a4,4,0,0,0-3.74,2.24,13,13,0,0,0-1.27,6.38,11.32,11.32,0,0,0,1.37,6.12,4.38,4.38,0,0,0,3.9,2.11,4.46,4.46,0,0,0,2.93-1.06,4.22,4.22,0,0,0,1.28-3.41h-4.89v-4.86Z"/><path class="b56acb41-fc61-4ba8-8efe-f1b882ac3210" d="M31.36,147.72v4.65H26.71v-4.65Zm0,6v15.78H26.71V153.7Z"/><path class="b56acb41-fc61-4ba8-8efe-f1b882ac3210" d="M51.31,169.48H46.65v-8.86a13.22,13.22,0,0,0-.12-2.2A1.79,1.79,0,0,0,44.7,157c-1.64,0-2.45,1.21-2.45,3.62v8.86H37.59V153.7h4.33v2.67A6.06,6.06,0,0,1,44,153.92a4.79,4.79,0,0,1,2.27-.55,5.34,5.34,0,0,1,3.63,1.21q1.37,1.21,1.37,4.76Z"/><path class="b56acb41-fc61-4ba8-8efe-f1b882ac3210" d="M81.72,169.48H77.2A11.59,11.59,0,0,1,77,167a6.46,6.46,0,0,1-2.36,2.25,6.34,6.34,0,0,1-2.67.55,5.22,5.22,0,0,1-3.58-1.2A4.11,4.11,0,0,1,67,165.37a5,5,0,0,1,.8-2.73,5.15,5.15,0,0,1,2.55-2,24.21,24.21,0,0,1,6.43-1.06v-.9a2,2,0,0,0-2.29-2.3,2.4,2.4,0,0,0-2.72,2.3l-4.3-.41A4.87,4.87,0,0,1,70,154.5a10.1,10.1,0,0,1,4.81-1.13,11.86,11.86,0,0,1,3,.38,5,5,0,0,1,2.22,1.12,4,4,0,0,1,1.08,1.59,10.64,10.64,0,0,1,.28,2.91v7.16A10.78,10.78,0,0,0,81.72,169.48Zm-4.94-7.56c-3.25.32-4.87,1.31-4.87,3a2.12,2.12,0,0,0,.51,1.43,1.82,1.82,0,0,0,1.47.6,2.57,2.57,0,0,0,2.06-1,3.88,3.88,0,0,0,.83-2.52Z"/><path class="b56acb41-fc61-4ba8-8efe-f1b882ac3210" d="M87.68,169.48V148.15h4.66v21.33Z"/><path class="b56acb41-fc61-4ba8-8efe-f1b882ac3210" d="M98.57,169.48V148.15h4.65v21.33Z"/><path class="b56acb41-fc61-4ba8-8efe-f1b882ac3210" d="M125.05,148.15v21.33h-5V148.15Z"/><path class="b56acb41-fc61-4ba8-8efe-f1b882ac3210" d="M145.23,169.48h-4.65v-8.86a11.9,11.9,0,0,0-.13-2.2,1.73,1.73,0,0,0-.61-1,1.83,1.83,0,0,0-1.21-.41q-2.46,0-2.46,3.62v8.86h-4.65V153.7h4.32v2.67a6,6,0,0,1,2.13-2.45,4.75,4.75,0,0,1,2.26-.55,5.34,5.34,0,0,1,3.63,1.21c.92.81,1.37,2.4,1.37,4.76Z"/><path class="b56acb41-fc61-4ba8-8efe-f1b882ac3210" d="M164.9,148.15v21.33h-4.3V167a4.9,4.9,0,0,1-8.47.67,10.09,10.09,0,0,1-1.51-5.92,10.83,10.83,0,0,1,1.51-6.16,5,5,0,0,1,4.37-2.23,4.41,4.41,0,0,1,3.88,2v-7.21Zm-4.52,12.16q0-3.72-2.25-3.72-2.7,0-2.7,5.25c0,3.12.84,4.67,2.52,4.67a2.22,2.22,0,0,0,1.71-.84,3.61,3.61,0,0,0,.72-2.41Z"/><path class="b56acb41-fc61-4ba8-8efe-f1b882ac3210" d="M177.68,153.37a7,7,0,0,1,5.63,2.36,8.74,8.74,0,0,1,2,5.91,8.38,8.38,0,0,1-2.1,5.83,7.13,7.13,0,0,1-5.58,2.34,6.8,6.8,0,0,1-5.39-2.31,8.68,8.68,0,0,1-2-5.94,9.14,9.14,0,0,1,.91-4.27,7.5,7.5,0,0,1,2.51-2.84A7,7,0,0,1,177.68,153.37Zm.13,3a2.25,2.25,0,0,0-2,1,8.39,8.39,0,0,0-.67,4.07,9.31,9.31,0,0,0,.64,4,2.12,2.12,0,0,0,2,1.22,2.24,2.24,0,0,0,1.91-1,7.39,7.39,0,0,0,.74-4,9.35,9.35,0,0,0-.65-4.22A2.13,2.13,0,0,0,177.81,156.42Z"/><path class="b56acb41-fc61-4ba8-8efe-f1b882ac3210" d="M197.21,153.37a7,7,0,0,1,5.63,2.36,8.79,8.79,0,0,1,2,5.91,8.38,8.38,0,0,1-2.1,5.83,7.13,7.13,0,0,1-5.58,2.34,6.82,6.82,0,0,1-5.4-2.31,8.73,8.73,0,0,1-2-5.94,9.13,9.13,0,0,1,.92-4.27,7.47,7.47,0,0,1,2.5-2.84A7,7,0,0,1,197.21,153.37Zm.12,3a2.23,2.23,0,0,0-2,1,8.27,8.27,0,0,0-.67,4.07,9.16,9.16,0,0,0,.64,4,2.11,2.11,0,0,0,2,1.22,2.26,2.26,0,0,0,1.92-1,7.41,7.41,0,0,0,.73-4,9.35,9.35,0,0,0-.65-4.22A2.12,2.12,0,0,0,197.33,156.42Z"/><path class="b56acb41-fc61-4ba8-8efe-f1b882ac3210" d="M214.71,169.48h-4.52V153.7h4.27v2.94c.66-2.19,1.79-3.28,3.41-3.28.22,0,.51,0,.84,0V158a4.61,4.61,0,0,0-2.21.43,3.17,3.17,0,0,0-1.29,1.58,7.72,7.72,0,0,0-.5,3.05Z"/><path class="b56acb41-fc61-4ba8-8efe-f1b882ac3210" d="M7.44,214.81V193.7h4.28V196a4.21,4.21,0,0,1,4.16-2.64,5.12,5.12,0,0,1,4.19,2.06,9.41,9.41,0,0,1,1.64,6q0,4.17-1.65,6.29a5.2,5.2,0,0,1-4.29,2.12A4,4,0,0,1,12,207.73v7.08ZM12,202.58a8.67,8.67,0,0,0,.2,2.31A2.32,2.32,0,0,0,13,206a2.26,2.26,0,0,0,1.42.5,2.12,2.12,0,0,0,1.7-1c.5-.65.75-2.09.75-4.31q0-4.66-2.46-4.67a2.3,2.3,0,0,0-1.71.83,4.11,4.11,0,0,0-.76,2.81Z"/><path class="b56acb41-fc61-4ba8-8efe-f1b882ac3210" d="M40.59,193.7v15.78H36.28v-2.69a4.59,4.59,0,0,1-4.66,3,4.77,4.77,0,0,1-2.73-.66,3.69,3.69,0,0,1-1.37-1.82,10.14,10.14,0,0,1-.41-3.32V193.7h4.51V204c0,1.42.59,2.13,1.75,2.13a2.45,2.45,0,0,0,1.55-.51,2.26,2.26,0,0,0,.84-1.09,7.9,7.9,0,0,0,.18-2V193.7Z"/><path class="b56acb41-fc61-4ba8-8efe-f1b882ac3210" d="M51.49,188.15v7.53a4.15,4.15,0,0,1,3.91-2.31,5,5,0,0,1,4.29,2.2,12,12,0,0,1,0,12A5.42,5.42,0,0,1,55,209.81a5.32,5.32,0,0,1-2.59-.55,6,6,0,0,1-2-2.2,7,7,0,0,0-1,2.42H46.83V188.15Zm0,15.08a3.8,3.8,0,0,0,.7,2.5,2.09,2.09,0,0,0,1.66.85,2.29,2.29,0,0,0,1.91-1c.5-.68.75-2,.75-4,0-2.24-.26-3.65-.78-4.22A2.28,2.28,0,0,0,54,196.5a2.09,2.09,0,0,0-1.82,1,4.76,4.76,0,0,0-.67,2.75Z"/><path class="b56acb41-fc61-4ba8-8efe-f1b882ac3210" d="M66.66,209.48V188.15h4.65v21.33Z"/><path class="b56acb41-fc61-4ba8-8efe-f1b882ac3210" d="M82.2,187.72v4.65H77.54v-4.65Zm0,6v15.78H77.54V193.7Z"/><path class="b56acb41-fc61-4ba8-8efe-f1b882ac3210" d="M102.3,203.56a6.63,6.63,0,0,1-2.21,4.52,7.29,7.29,0,0,1-5,1.73,7.2,7.2,0,0,1-5.45-2.21,8.24,8.24,0,0,1-2.1-5.92,8.41,8.41,0,0,1,2.15-6,7.45,7.45,0,0,1,5.74-2.31,6.82,6.82,0,0,1,4.79,1.74,6.36,6.36,0,0,1,2.1,4.34L98,199.7c-.15-1.9-1-2.84-2.47-2.84q-2.77,0-2.77,4.53c0,2,.26,3.29.78,3.83a2.49,2.49,0,0,0,1.88.81c1.44,0,2.3-.91,2.58-2.74Z"/><path class="b56acb41-fc61-4ba8-8efe-f1b882ac3210" d="M117.6,214.81V193.7h4.28V196a4.21,4.21,0,0,1,4.16-2.64,5.12,5.12,0,0,1,4.19,2.06,9.41,9.41,0,0,1,1.64,6q0,4.17-1.65,6.29a5.2,5.2,0,0,1-4.29,2.12,4,4,0,0,1-3.81-2.08v7.08Zm4.52-12.23a8.67,8.67,0,0,0,.2,2.31,2.32,2.32,0,0,0,.86,1.15,2.26,2.26,0,0,0,1.42.5,2.14,2.14,0,0,0,1.7-1c.5-.65.75-2.09.75-4.31q0-4.66-2.47-4.67a2.29,2.29,0,0,0-1.7.83,4.11,4.11,0,0,0-.76,2.81Z"/><path class="b56acb41-fc61-4ba8-8efe-f1b882ac3210" d="M137.27,209.48V188.15h4.65v21.33Z"/><path class="b56acb41-fc61-4ba8-8efe-f1b882ac3210" d="M161.92,209.48H157.4a11,11,0,0,1-.22-2.47,6.53,6.53,0,0,1-2.36,2.25,6.38,6.38,0,0,1-2.68.55,5.24,5.24,0,0,1-3.58-1.2,4.11,4.11,0,0,1-1.36-3.24,5,5,0,0,1,.79-2.73,5.18,5.18,0,0,1,2.56-2,24.21,24.21,0,0,1,6.43-1.06v-.9a2,2,0,0,0-2.29-2.3,2.41,2.41,0,0,0-2.73,2.3l-4.29-.41a4.89,4.89,0,0,1,2.54-3.81,10.13,10.13,0,0,1,4.81-1.13,11.89,11.89,0,0,1,3,.38,5.06,5.06,0,0,1,2.21,1.12,3.76,3.76,0,0,1,1.08,1.59,10.25,10.25,0,0,1,.28,2.91v7.16A10.68,10.68,0,0,0,161.92,209.48ZM157,201.92c-3.25.32-4.88,1.31-4.88,3a2.08,2.08,0,0,0,.52,1.43,1.81,1.81,0,0,0,1.46.6,2.55,2.55,0,0,0,2.06-1,3.83,3.83,0,0,0,.84-2.52Z"/><path class="b56acb41-fc61-4ba8-8efe-f1b882ac3210" d="M181.75,203.56a6.58,6.58,0,0,1-2.21,4.52,7.28,7.28,0,0,1-5,1.73,7.2,7.2,0,0,1-5.45-2.21,8.24,8.24,0,0,1-2.1-5.92,8.45,8.45,0,0,1,2.15-6,7.47,7.47,0,0,1,5.74-2.31,6.8,6.8,0,0,1,4.79,1.74,6.28,6.28,0,0,1,2.1,4.34l-4.34.25c-.15-1.9-1-2.84-2.47-2.84q-2.76,0-2.76,4.53c0,2,.25,3.29.77,3.83a2.49,2.49,0,0,0,1.88.81c1.44,0,2.3-.91,2.58-2.74Z"/><path class="b56acb41-fc61-4ba8-8efe-f1b882ac3210" d="M200.83,202.37H190.67c0,.28,0,.53,0,.74a3.35,3.35,0,0,0,.9,2.54,3,3,0,0,0,2.15.86,2.65,2.65,0,0,0,2.8-2.48l4.22.31q-1.77,5.47-7.18,5.47a7.92,7.92,0,0,1-4-.95,7.4,7.4,0,0,1-2.72-2.75,8.35,8.35,0,0,1-1.07-4.35,8.56,8.56,0,0,1,2.15-6.08,7.59,7.59,0,0,1,10.75-.16C200.1,197,200.83,199.24,200.83,202.37Zm-10.18-2.7h5.61c-.14-2.17-1-3.25-2.67-3.25S190.86,197.5,190.65,199.67Z"/><path class="b56acb41-fc61-4ba8-8efe-f1b882ac3210" d="M218,197.51l-3.4.91a2.82,2.82,0,0,0-3.07-2.14c-1.57,0-2.35.47-2.35,1.42a1.09,1.09,0,0,0,.43.9,5.5,5.5,0,0,0,2.24.57,20,20,0,0,1,4,.83,4.11,4.11,0,0,1,2.06,1.58,4.77,4.77,0,0,1,.76,2.73,4.93,4.93,0,0,1-1.85,4,7.94,7.94,0,0,1-5.18,1.53q-6,0-7.21-4.67l3.92-.58c.33,1.42,1.49,2.12,3.5,2.12a4.18,4.18,0,0,0,2-.41,1.25,1.25,0,0,0,.79-1.12c0-.73-.58-1.16-1.76-1.3q-4.78-.58-6.29-1.83a4.22,4.22,0,0,1-1.51-3.46,4.64,4.64,0,0,1,1.75-3.72,7.42,7.42,0,0,1,4.91-1.47,7.18,7.18,0,0,1,4,1A6.18,6.18,0,0,1,218,197.51Z"/><g class="b1d315f9-f375-46d6-b565-2b46d25ede24"><path class="ab2b64f2-5b2d-4231-a180-272e25d20424" d="M76.73,102.79c11.16-1.08,11.88-2.4,11.88-10.44v-46c0-5.16-.48-6-6.12-6.6l-5.16-.6v-1.8c7.44-1.32,13.44-3.48,17.16-5.88V92.35c0,8,.84,9.36,12,10.44v1.68H76.73Z"/><path class="ab2b64f2-5b2d-4231-a180-272e25d20424" d="M156.17,102.79c11.16-1.08,11.88-2.4,11.88-10.44v-46c0-5.16-.48-6-6.12-6.6l-5.16-.6v-1.8c7.44-1.32,13.44-3.48,17.16-5.88V92.35c0,8,.84,9.36,12,10.44v1.68H156.17Z"/></g></g></svg>