<svg id="f502367a-8ccc-4b2c-9d77-298427df8311" data-name="圖層 1" xmlns="http://www.w3.org/2000/svg" viewBox="0 0 209.26 224.64"><defs><style>.ff4aac4b-8033-421e-94bc-7ad876e66c57{fill:#c7bf44;}</style></defs><title>flower</title><path class="ff4aac4b-8033-421e-94bc-7ad876e66c57" d="M208.94,35.8c-1.57,11.52-8.62,21.21-18.8,27.63,8.39,13.49,10.63,29.14,4.66,42.94a42.86,42.86,0,0,1-20.2,21.06c6,10.41,8.28,22.19,5.51,33.73-6.65,27.65-39.63,43.43-73.66,35.25a75.79,75.79,0,0,1-23.6-10.07c-2.54,15.82-11.38,29.1-25.18,35.08-19.48,8.44-42.82-.28-57.67-19.73V0H194C204.8,9.43,210.76,22.41,208.94,35.8Z"/></svg>